<svg width="60" height="60" viewBox="0 0 60 60" fill="none" xmlns="http://www.w3.org/2000/svg">
    <path d="M29.9998 51.2816C31.7066 51.2824 33.4077 51.0786 35.0661 50.6752L34.6074 48.7958V48.7954C30.7966 49.7247 26.7936 49.4751 23.127 48.0794C19.4613 46.6837 16.3061 44.2078 14.078 40.9794C11.8504 37.7509 10.6554 33.9226 10.6515 30.0001C10.6438 25.6904 12.0892 21.5036 14.7543 18.1168C15.5977 18.5146 16.5798 18.4886 17.4008 18.0464C18.2222 17.6046 18.785 16.7993 18.9171 15.8759C19.0497 14.9531 18.7362 14.022 18.0724 13.367C17.4086 12.7119 16.4732 12.4108 15.552 12.5555C14.6308 12.7002 13.8327 13.2737 13.4017 14.1007C12.9707 14.9277 12.9578 15.9101 13.3672 16.7479C10.3476 20.5042 8.70645 25.1814 8.71685 30.001C8.72332 35.643 10.9677 41.0524 14.9573 45.0417C18.9474 49.0311 24.3571 51.2754 29.9989 51.2818L29.9998 51.2816Z" fill="#212121"/>
    <path d="M29.9998 8.71879C28.293 8.71793 26.592 8.92175 24.9336 9.32511L25.3922 11.2045V11.2049C29.2031 10.2756 33.2061 10.5252 36.8727 11.9209C40.5384 13.3167 43.6936 15.7925 45.9217 19.021C48.1492 22.2494 49.3443 26.0778 49.3481 30.0002C49.3559 34.31 47.9104 38.4967 45.2454 41.8835C44.402 41.4858 43.4199 41.5117 42.5989 41.9539C41.7774 42.3957 41.2147 43.201 41.0825 44.1244C40.95 45.0472 41.2635 45.9783 41.9273 46.6334C42.5911 47.2884 43.5265 47.5895 44.4477 47.4448C45.3689 47.3001 46.167 46.7266 46.5979 45.8996C47.0289 45.0726 47.0419 44.0902 46.6325 43.2524C49.6521 39.4962 51.2932 34.8189 51.2828 29.9994C51.2763 24.3573 49.032 18.948 45.0423 14.9587C41.0523 10.9692 35.6426 8.72492 30.0008 8.71851L29.9998 8.71879Z" fill="#212121"/>
    <path d="M39.487 27.8367L40.1063 27.4951H40.1058C40.3481 27.3668 40.5265 27.1444 40.5999 26.8805C40.6729 26.6167 40.6345 26.3338 40.4928 26.0993L38.7835 23.2612C38.4734 22.7685 37.8316 22.6044 37.3229 22.8877L36.6971 23.2293C36.3067 23.4366 35.8316 23.3985 35.4787 23.1325C34.8624 22.6808 34.1913 22.3081 33.4821 22.0231C33.0749 21.878 32.7985 21.4984 32.7855 21.0662V20.3813C32.779 20.104 32.6624 19.8402 32.4612 19.6484C32.2604 19.4571 31.9913 19.353 31.7136 19.3599H28.2854C27.7084 19.3474 27.2299 19.8043 27.2165 20.3813V21.0662C27.2036 21.4985 26.9267 21.878 26.5199 22.0231C25.8095 22.3077 25.1379 22.6804 24.5204 23.1325C24.1675 23.3985 23.6925 23.4366 23.302 23.2293L22.6762 22.8838C22.1675 22.6005 21.5257 22.7646 21.2156 23.2573L19.5015 26.0954C19.3603 26.3308 19.3223 26.6137 19.3966 26.878C19.4704 27.1418 19.6501 27.3638 19.8932 27.4912L20.5125 27.8328H20.5121C20.8775 28.0223 21.0873 28.4184 21.0385 28.8273C20.9263 29.6029 20.9263 30.3906 21.0385 31.1662C21.0873 31.5751 20.8775 31.9711 20.5121 32.1607L19.8928 32.5023H19.8932C19.6501 32.6297 19.4704 32.8517 19.3966 33.1155C19.3223 33.3798 19.3603 33.6627 19.5015 33.898L21.2156 36.7361C21.5257 37.2289 22.1675 37.393 22.6762 37.1097L23.302 36.772C23.6924 36.5647 24.1675 36.6027 24.5204 36.8687C25.1366 37.3204 25.8078 37.6931 26.5169 37.9781C26.9242 38.1232 27.2006 38.5028 27.2135 38.9351V39.62C27.22 39.8972 27.3366 40.1611 27.5379 40.3528C27.7387 40.5441 28.0078 40.6482 28.2854 40.6413H31.7141H31.7137C32.2907 40.6538 32.7692 40.1969 32.7825 39.62V38.9351C32.7955 38.5028 33.0723 38.1232 33.4792 37.9781C34.1896 37.6935 34.8611 37.3208 35.4787 36.8687C35.8316 36.6027 36.3066 36.5647 36.6971 36.772L37.3229 37.1175C37.8316 37.4007 38.4733 37.2366 38.7835 36.7439L40.4976 33.9058C40.6392 33.6709 40.6777 33.3884 40.6047 33.1246C40.5317 32.8607 40.3529 32.6383 40.1106 32.5101L39.4913 32.1685H39.4917C39.1264 31.9789 38.9169 31.5829 38.9653 31.1739C39.0776 30.3983 39.0776 29.6106 38.9653 28.8351C38.9143 28.4261 39.1221 28.0284 39.487 27.8367H39.487ZM29.9997 34.3536C28.8453 34.3536 27.738 33.895 26.9213 33.0788C26.1051 32.2622 25.6464 31.155 25.6464 30.0006C25.6464 28.8462 26.1051 27.739 26.9213 26.9224C27.738 26.1062 28.8452 25.6476 29.9997 25.6476C31.1541 25.6476 32.2614 26.1062 33.0781 26.9224C33.8943 27.739 34.3529 28.8462 34.3529 30.0006C34.3529 31.155 33.8943 32.2622 33.0781 33.0788C32.2614 33.895 31.1541 34.3536 29.9997 34.3536Z" fill="#CF5555"/>
    <path d="M6.29837 50.3143C6.29146 51.1546 6.64645 51.9578 7.27267 52.5185C7.89889 53.0791 8.73581 53.3437 9.57064 53.244C10.4054 53.1446 11.1569 52.6912 11.6341 51.9989C12.1113 51.3071 12.2677 50.443 12.0634 49.6277C11.8591 48.8123 11.3141 48.1239 10.5674 47.7383C9.82028 47.3527 8.94352 47.3069 8.16055 47.6127C4.22277 42.7237 2.0379 36.6559 1.95498 30.3786C1.8725 24.1017 3.89662 17.979 7.70449 12.9875C11.5123 7.99661 16.8834 4.42653 22.9594 2.84817C29.0354 1.26981 35.4658 1.77373 41.2215 4.28016L41.9955 2.50789C35.8379 -0.182083 28.955 -0.726224 22.4508 0.963133C15.9469 2.65205 10.1987 6.47651 6.12792 11.8227C2.05758 17.169 -0.0992036 23.7271 0.0035057 30.4465C0.106291 37.1651 2.46256 43.6542 6.69453 48.8734C6.43757 49.31 6.30067 49.807 6.29808 50.3136L6.29837 50.3143Z" fill="#CF5555"/>
    <path d="M53.7015 9.68608C53.7084 8.8457 53.3534 8.04249 52.7272 7.48188C52.101 6.92127 51.264 6.65663 50.4292 6.75638C49.5944 6.8557 48.8429 7.30914 48.3657 8.00142C47.8885 8.69324 47.7322 9.55734 47.9365 10.3727C48.1407 11.188 48.6858 11.8764 49.4324 12.262C50.1796 12.6477 51.0563 12.6934 51.8393 12.3877C55.7771 17.2767 57.9619 23.3445 58.0449 29.6217C58.1274 35.8986 56.1032 42.0213 52.2954 47.0128C48.4876 52.0037 43.1164 55.5738 37.0404 57.1521C30.9644 58.7305 24.534 58.2266 18.7783 55.7201L18.0044 57.4924C24.162 60.1824 31.0448 60.7265 37.549 59.0372C44.053 57.3483 49.8011 53.5238 53.8719 48.1776C57.9423 42.8314 60.0991 36.2733 59.9963 29.5539C59.8936 22.8352 57.5373 16.3461 53.3053 11.1269C53.5623 10.6903 53.6992 10.1933 53.7018 9.68677L53.7015 9.68608Z" fill="#CF5555"/>
</svg>
