<svg width="60" height="60" viewBox="0 0 60 60" fill="none" xmlns="http://www.w3.org/2000/svg">
    <path d="M58.125 52.5005V58.125H51.5625V26.25H44.0625V58.125H39.375V35.625H31.875V58.125H27.1875V41.25H19.6875V58.125H15V46.875H7.5V58.125H1.875V1.875H7.5V0H0V60H7.5H60V52.5005H58.125ZM9.375 58.125V48.75H13.125V58.125H9.375ZM21.5625 58.125V43.125H25.3125V58.125H21.5625ZM33.75 58.125V37.5H37.5V58.125H33.75ZM45.9375 58.125V28.125H49.6875V58.125H45.9375Z" fill="#2F4050"/>
    <path d="M11.2501 36.563C13.2826 36.563 14.7232 34.4197 13.7536 32.4953L17.629 27.8892C18.5372 28.2861 19.5763 28.1849 20.4076 27.5738L23.4746 28.6995C23.2421 30.4688 24.6259 31.8755 26.2501 31.8755C28.7156 31.8755 29.9836 28.9234 28.2858 27.133L33.3894 17.7768C34.0436 17.8619 34.6386 17.7534 35.2356 17.3794L38.6271 19.6362C37.9093 21.5295 39.3398 23.4379 41.2501 23.4379C43.517 23.4379 44.8522 20.879 43.5545 19.021L48.2636 10.2636C50.0384 10.5762 51.5626 9.20017 51.5626 7.5005C51.5626 3.77839 45.9376 3.78214 45.9376 7.5005C45.9376 8.20409 46.2063 8.83996 46.6348 9.3339L42.0119 17.9311C41.2794 17.7233 40.5708 17.7842 39.853 18.1998L36.4015 15.9032C37.0479 14.0099 35.6119 12.188 33.7501 12.188C32.1993 12.188 30.9376 13.4496 30.9376 15.0005C30.9376 15.749 31.2361 16.426 31.7145 16.9305L26.6108 26.2867C25.698 26.1682 24.9207 26.4657 24.3329 27.0164L21.477 25.9686C21.9169 24.1457 20.517 22.5005 18.75 22.5005C16.7016 22.5005 15.2627 24.6726 16.2629 26.5985L12.3998 31.1899C10.5253 30.3439 8.4375 31.7314 8.4375 33.7507C8.4375 35.3015 9.69914 36.5632 11.25 36.5632L11.2501 36.563ZM49.6876 7.50045C49.6876 8.74099 47.8126 8.74053 47.8126 7.50045C47.8126 6.98363 49.6876 6.26037 49.6876 7.50045ZM42.1876 20.6255C42.1876 21.866 40.3126 21.8655 40.3126 20.6255C40.3126 19.3849 42.1876 19.3854 42.1876 20.6255ZM33.7501 14.063C34.2674 14.063 34.6876 14.4836 34.6876 15.0005C34.6876 16.241 32.8126 16.2405 32.8126 15.0005C32.8126 14.4836 33.2328 14.063 33.7501 14.063ZM26.2501 28.1255C27.4907 28.1255 27.4902 30.0005 26.2501 30.0005C25.0096 30.0005 25.01 28.1255 26.2501 28.1255ZM18.7501 24.3755C19.9907 24.3755 19.9902 26.2505 18.7501 26.2505C17.5096 26.2505 17.51 24.3755 18.7501 24.3755ZM11.2501 32.813C12.4907 32.813 12.4902 34.688 11.2501 34.688C10.0096 34.688 10.01 32.813 11.2501 32.813Z" fill="#CF5555"/>
</svg>
