<svg width="60" height="48" viewBox="0 0 60 48" fill="none" xmlns="http://www.w3.org/2000/svg">
    <path d="M57.9311 0H2.06894C1.5203 0.000486982 0.994748 0.230849 0.606835 0.639934C0.218921 1.04902 0.000461084 1.60325 0 2.1818V45.8182C0.000461793 46.3968 0.218909 46.951 0.606835 47.3601C0.99476 47.7691 1.52032 47.9995 2.06894 48H57.9311C58.4797 47.9995 59.0053 47.7691 59.3932 47.3601C59.7811 46.951 59.9995 46.3967 60 45.8182V2.1818C59.9995 1.60323 59.7811 1.04901 59.3932 0.639934C59.0052 0.230861 58.4797 0.000486234 57.9311 0V0ZM57.9311 2.18182V8.72728H2.06894V2.18182H57.9311ZM2.06894 45.8182V10.9091H57.9311L57.932 45.8182H2.06894ZM4.13791 5.45455C4.13791 5.01331 4.39006 4.61542 4.77661 4.44692C5.16315 4.27793 5.60788 4.37095 5.90392 4.68312C6.19996 4.99529 6.28816 5.46429 6.1279 5.87193C5.96811 6.27955 5.5908 6.54546 5.17239 6.54546C4.60112 6.54546 4.13791 6.05698 4.13791 5.45455ZM8.27584 5.45455C8.27584 5.01331 8.528 4.61542 8.91454 4.44692C9.30108 4.27793 9.74582 4.37095 10.0419 4.68312C10.3379 4.99529 10.4261 5.46429 10.2658 5.87193C10.106 6.27955 9.72873 6.54546 9.31033 6.54546C8.73906 6.54546 8.27584 6.05698 8.27584 5.45455ZM12.4138 5.45455C12.4138 5.01331 12.6659 4.61542 13.0525 4.44692C13.439 4.27793 13.8837 4.37095 14.1798 4.68312C14.4758 4.99529 14.564 5.46429 14.4038 5.87193C14.244 6.27955 13.8667 6.54546 13.4483 6.54546C12.877 6.54546 12.4138 6.05698 12.4138 5.45455ZM43.4483 16.3637H16.5517C15.9804 16.3637 15.5172 16.8521 15.5172 17.4546V39.2728C15.5172 39.5621 15.6262 39.8397 15.8202 40.0442C16.0141 40.2487 16.2774 40.3637 16.5517 40.3637H43.4483C43.7226 40.3637 43.9858 40.2487 44.1798 40.0442C44.3738 39.8397 44.4828 39.5621 44.4828 39.2728V17.4546C44.4828 17.1653 44.3738 16.8877 44.1798 16.6831C43.9858 16.4786 43.7226 16.3637 43.4483 16.3637ZM40.4067 18.5455L30 26.9874L19.5933 18.5455H40.4067ZM17.5866 38.1819V19.6688L29.37 29.2274C29.7413 29.5294 30.2594 29.5294 30.6307 29.2274L42.4142 19.6688V38.1819H17.5866Z" fill="#2F4050"/>
    <mask id="mask0_23_331" style="mask-type:alpha" maskUnits="userSpaceOnUse" x="0" y="0" width="60" height="48">
        <path d="M57.9311 0H2.06894C1.5203 0.000486982 0.994748 0.230849 0.606835 0.639934C0.218921 1.04902 0.000461084 1.60325 0 2.1818V45.8182C0.000461793 46.3968 0.218909 46.951 0.606835 47.3601C0.99476 47.7691 1.52032 47.9995 2.06894 48H57.9311C58.4797 47.9995 59.0053 47.7691 59.3932 47.3601C59.7811 46.951 59.9995 46.3967 60 45.8182V2.1818C59.9995 1.60323 59.7811 1.04901 59.3932 0.639934C59.0052 0.230861 58.4797 0.000486234 57.9311 0V0ZM57.9311 2.18182V8.72728H2.06894V2.18182H57.9311ZM2.06894 45.8182V10.9091H57.9311L57.932 45.8182H2.06894ZM4.13791 5.45455C4.13791 5.01331 4.39006 4.61542 4.77661 4.44692C5.16315 4.27793 5.60788 4.37095 5.90392 4.68312C6.19996 4.99529 6.28816 5.46429 6.1279 5.87193C5.96811 6.27955 5.5908 6.54546 5.17239 6.54546C4.60112 6.54546 4.13791 6.05698 4.13791 5.45455ZM8.27584 5.45455C8.27584 5.01331 8.528 4.61542 8.91454 4.44692C9.30108 4.27793 9.74582 4.37095 10.0419 4.68312C10.3379 4.99529 10.4261 5.46429 10.2658 5.87193C10.106 6.27955 9.72873 6.54546 9.31033 6.54546C8.73906 6.54546 8.27584 6.05698 8.27584 5.45455ZM12.4138 5.45455C12.4138 5.01331 12.6659 4.61542 13.0525 4.44692C13.439 4.27793 13.8837 4.37095 14.1798 4.68312C14.4758 4.99529 14.564 5.46429 14.4038 5.87193C14.244 6.27955 13.8667 6.54546 13.4483 6.54546C12.877 6.54546 12.4138 6.05698 12.4138 5.45455ZM43.4483 16.3637H16.5517C15.9804 16.3637 15.5172 16.8521 15.5172 17.4546V39.2728C15.5172 39.5621 15.6262 39.8397 15.8202 40.0442C16.0141 40.2487 16.2774 40.3637 16.5517 40.3637H43.4483C43.7226 40.3637 43.9858 40.2487 44.1798 40.0442C44.3738 39.8397 44.4828 39.5621 44.4828 39.2728V17.4546C44.4828 17.1653 44.3738 16.8877 44.1798 16.6831C43.9858 16.4786 43.7226 16.3637 43.4483 16.3637ZM40.4067 18.5455L30 26.9874L19.5933 18.5455H40.4067ZM17.5866 38.1819V19.6688L29.37 29.2274C29.7413 29.5294 30.2594 29.5294 30.6307 29.2274L42.4142 19.6688V38.1819H17.5866Z" fill="#2F4050"/>
    </mask>
    <g mask="url(#mask0_23_331)">
        <rect x="12.75" y="15" width="36" height="27.75" fill="#CF5555"/>
    </g>
</svg>
