<svg width="60" height="60" viewBox="0 0 60 60" fill="none" xmlns="http://www.w3.org/2000/svg">
    <path d="M31.9419 50.9171C32.3035 50.9171 32.5964 50.6242 32.5964 50.2626C32.5964 49.901 32.3035 49.608 31.9419 49.608H13.8081V10.3629H46.1393V35.9924C46.1393 36.354 46.4322 36.647 46.7938 36.647C47.1554 36.647 47.4484 36.354 47.4484 35.9924V9.70828C47.4484 9.34668 47.1554 9.05371 46.7938 9.05371H13.1534C12.7917 9.05371 12.4988 9.34668 12.4988 9.70828V50.2626C12.4988 50.6242 12.7917 50.9172 13.1534 50.9172L31.9419 50.9171Z" fill="#2F4050"/>
    <path d="M19.2532 16.833C18.8916 16.833 18.5986 17.126 18.5986 17.4876C18.5986 17.8492 18.8916 18.1422 19.2532 18.1422H35.6406C36.0022 18.1422 36.2952 17.8492 36.2952 17.4876C36.2952 17.126 36.0022 16.833 35.6406 16.833H19.2532Z" fill="#CF5555"/>
    <path d="M19.2532 23.0828C18.8916 23.0828 18.5986 23.3757 18.5986 23.7373C18.5986 24.0989 18.8916 24.3919 19.2532 24.3919H38.3438C38.7054 24.3919 38.9984 24.0989 38.9984 23.7373C38.9984 23.3757 38.7054 23.0828 38.3438 23.0828H19.2532Z" fill="#CF5555"/>
    <path d="M19.2532 29.3323C18.8916 29.3323 18.5986 29.6252 18.5986 29.9869C18.5986 30.3485 18.8916 30.6414 19.2532 30.6414H40.6934C41.055 30.6414 41.348 30.3485 41.348 29.9869C41.348 29.6252 41.055 29.3323 40.6934 29.3323H19.2532Z" fill="#CF5555"/>
    <path d="M47.5001 43.536C47.5001 43.1744 47.2071 42.8814 46.8455 42.8814C46.4839 42.8814 46.191 43.1744 46.191 43.536V49.6356H35.8191V39.848H42.8281C43.1897 39.848 43.4827 39.555 43.4827 39.1934C43.4827 38.8318 43.1897 38.5388 42.8281 38.5388H35.1646C34.803 38.5388 34.51 38.8318 34.51 39.1934V50.2901C34.51 50.6517 34.803 50.9447 35.1646 50.9447H46.8452C47.2068 50.9447 47.4998 50.6517 47.4998 50.2901L47.5001 43.536Z" fill="#2F4050"/>
    <path d="M38.0062 43.5876C37.7505 43.3319 37.3362 43.3319 37.0805 43.5876C36.8247 43.8433 36.8247 44.2577 37.0805 44.5134L39.9678 47.4008C40.2236 47.6565 40.6379 47.6565 40.8936 47.4008C40.9175 47.3769 40.9388 47.3522 40.9581 47.3258L46.6287 40.7705C46.8643 40.498 46.8346 40.0858 46.5621 39.8501C46.2897 39.6145 45.8774 39.6442 45.6418 39.9167L40.3977 45.9794L38.0067 43.5884L38.0062 43.5876Z" fill="#CF5555"/>
    <path fill-rule="evenodd" clip-rule="evenodd" d="M10.5125 0H49.4875C55.2695 0 60 4.73054 60 10.5125V49.4875C60 55.2695 55.2695 60 49.4875 60H10.5125C4.73054 60 0 55.2695 0 49.4875V10.5125C0 4.73054 4.73054 0 10.5125 0V0ZM10.5125 2.62787H49.4875C53.8239 2.62787 57.3717 6.17567 57.3717 10.512V49.4871C57.3717 53.8235 53.8239 57.3713 49.4875 57.3713H10.5125C6.1761 57.3713 2.6283 53.8235 2.6283 49.4871V10.512C2.6283 6.17567 6.1761 2.62787 10.5125 2.62787Z" fill="#2F4050"/>
</svg>
