<svg width="61" height="50" viewBox="0 0 61 50" fill="none" xmlns="http://www.w3.org/2000/svg">
    <path d="M56.2456 17.8703C56.2955 17.3534 56.3203 16.8339 56.3203 16.3178C56.3203 7.32033 49.0004 0 40.0025 0H39.1904C35.1695 0 31.3801 1.441 28.3966 4.08156C26.4296 3.10673 24.2677 2.59589 22.0767 2.59589C14.7224 2.59589 8.68778 8.08244 7.89111 15.2759C3.19444 17.0967 0 21.68 0 26.7803C0 33.5863 5.53733 39.1237 12.3433 39.1237H14.6949C15.5543 39.1237 16.2504 38.4275 16.2504 37.5681C16.2504 36.7087 15.5543 36.0126 14.6949 36.0126H12.3442C7.254 36.0126 3.11244 31.8711 3.11244 26.7808C3.11244 22.6897 5.86067 19.0433 9.79644 17.914C10.4436 17.7287 10.8976 17.1479 10.9219 16.4748C11.1398 10.4361 16.0403 5.70655 22.0774 5.70655C24.0996 5.70655 26.0927 6.26471 27.8409 7.322C28.4581 7.69483 29.251 7.59457 29.7567 7.07938C32.2649 4.52038 35.6156 3.1106 39.1916 3.1106H40.0036C47.2853 3.1106 53.2103 9.0346 53.2103 16.3173C53.2103 16.9618 53.1617 17.6146 53.0657 18.2574C52.9855 18.7943 53.1916 19.3351 53.6092 19.6827C55.7268 21.4453 56.9411 24.0325 56.9411 26.7804C56.9411 31.8706 52.7997 36.0122 47.7094 36.0122H45.3578C44.4984 36.0122 43.8023 36.7083 43.8023 37.5677C43.8023 38.4271 44.4984 39.1233 45.3578 39.1233H47.7094C54.5154 39.1233 60.0527 33.5868 60.0527 26.7799C60.0514 23.3967 58.6743 20.1953 56.2458 17.8702L56.2456 17.8703Z" fill="#2F4050"/>
    <path d="M30.2822 37.1603C30.9649 36.6395 31.096 35.6633 30.5752 34.9802L25.2544 28.0076C25.2444 27.9945 25.2318 27.9859 25.2218 27.9733C25.2001 27.9459 25.1771 27.9199 25.1528 27.8934C25.1272 27.8665 25.1016 27.8413 25.0751 27.8157C25.0491 27.7914 25.0231 27.7684 24.9953 27.7458C24.9827 27.7359 24.974 27.7241 24.961 27.7142C24.9493 27.7055 24.9362 27.7003 24.9241 27.6916C24.8954 27.6712 24.8664 27.6525 24.8364 27.633C24.8034 27.613 24.7709 27.5939 24.737 27.5766C24.711 27.5627 24.6849 27.5479 24.6572 27.5362C24.6272 27.5232 24.5964 27.5115 24.5656 27.4993C24.5309 27.4863 24.4966 27.4746 24.461 27.4637C24.4297 27.4542 24.3989 27.4451 24.3672 27.4377C24.3373 27.4303 24.3069 27.4251 24.2765 27.4208C24.2405 27.4147 24.2045 27.4095 24.1676 27.4069C24.132 27.403 24.0973 27.3999 24.0617 27.3986C24.0469 27.3986 24.0326 27.3943 24.0174 27.3943C24.0027 27.3943 23.9883 27.3986 23.9731 27.3986C23.9375 27.3999 23.9028 27.403 23.8672 27.4069C23.8303 27.4099 23.7952 27.4151 23.7592 27.4208C23.7288 27.4255 23.6975 27.4307 23.6676 27.4377C23.6359 27.4451 23.6055 27.4546 23.5743 27.4637C23.5387 27.4741 23.5044 27.4854 23.4705 27.4985C23.4388 27.511 23.4076 27.5219 23.3772 27.5362C23.3503 27.5488 23.3243 27.5623 23.2974 27.5761C23.2639 27.5935 23.2318 27.6122 23.1997 27.6321C23.1693 27.6508 23.1394 27.6708 23.1103 27.6912C23.0986 27.6998 23.0856 27.7051 23.0743 27.7137C23.0612 27.7237 23.0517 27.7363 23.0395 27.7467C23.0126 27.7684 22.9875 27.791 22.9619 27.8144C22.9349 27.84 22.9089 27.8656 22.8842 27.8921C22.8594 27.919 22.8364 27.9451 22.8139 27.9728C22.8039 27.9854 22.7913 27.9941 22.7822 28.0063L17.4609 34.9789C16.9397 35.6621 17.0708 36.6378 17.7539 37.159C18.0356 37.3743 18.3676 37.4781 18.6966 37.4781C19.1654 37.4781 19.6289 37.2671 19.9341 36.8665L22.4627 33.5527V47.665C22.4627 48.5243 23.1589 49.2205 24.0183 49.2205C24.8777 49.2205 25.5738 48.5243 25.5738 47.665V33.5527L28.1021 36.8661C28.408 37.2675 28.8712 37.4776 29.3395 37.4776C29.6689 37.4793 30.0005 37.3752 30.2822 37.1599L30.2822 37.1603Z" fill="#2F4050"/>
    <path d="M42.3002 39.457C41.6161 38.9357 40.6413 39.0676 40.1201 39.7499L37.5918 43.0633V28.9511C37.5918 28.0917 36.8956 27.3955 36.0363 27.3955C35.1769 27.3955 34.4807 28.0917 34.4807 28.9511V43.0633L31.952 39.7499C31.4308 39.0672 30.4555 38.9353 29.7719 39.457C29.0888 39.9782 28.9573 40.954 29.479 41.6371L34.8002 48.6088C34.8089 48.6206 34.8202 48.6275 34.8293 48.6388C34.8523 48.6674 34.8761 48.6952 34.9013 48.723C34.936 48.7603 34.9729 48.7933 35.0116 48.8276C35.0333 48.8467 35.0532 48.868 35.0762 48.8866C35.0823 48.8914 35.0875 48.8979 35.0932 48.9022C35.1062 48.9127 35.1205 48.9183 35.1335 48.9283C35.1652 48.9509 35.1978 48.97 35.2299 48.9904C35.2668 49.0121 35.3028 49.0359 35.3406 49.055C35.3566 49.0637 35.374 49.0693 35.3905 49.0776C35.4204 49.0906 35.4508 49.1032 35.4812 49.1149C35.5359 49.1362 35.5906 49.1535 35.6465 49.167C35.6652 49.1726 35.6843 49.18 35.7038 49.1839C35.7195 49.1878 35.7364 49.19 35.7516 49.1935C35.8453 49.2104 35.9408 49.2221 36.0354 49.2221H36.0372C36.1318 49.2221 36.2268 49.2104 36.321 49.1935C36.3367 49.1904 36.3536 49.1878 36.3688 49.1839C36.3879 49.1796 36.4074 49.1722 36.4261 49.167C36.4821 49.1531 36.5367 49.1358 36.5914 49.1154C36.6218 49.1028 36.6522 49.091 36.6821 49.0776C36.6982 49.0693 36.7156 49.0637 36.7321 49.055C36.7698 49.0364 36.8063 49.0129 36.8427 48.9904C36.8757 48.9704 36.9074 48.9513 36.9391 48.9283C36.9521 48.9183 36.9664 48.9127 36.9795 48.9022C36.9855 48.8975 36.9907 48.891 36.9964 48.8866C37.0189 48.8684 37.0385 48.8476 37.061 48.8276C37.0997 48.7933 37.1361 48.7603 37.1713 48.723C37.1969 48.6956 37.2203 48.6674 37.2433 48.6388C37.2529 48.6275 37.2637 48.6206 37.2724 48.6088L42.5932 41.6371C43.114 40.9539 42.9825 39.9777 42.3002 39.4565L42.3002 39.457Z" fill="#CF5555"/>
</svg>
