<svg width="60" height="60" viewBox="0 0 60 60" fill="none" xmlns="http://www.w3.org/2000/svg">
    <path d="M56.6818 24.0775H36.1288V3.34802H34.8521V25.3655H56.682L56.6818 24.0775Z" fill="#2F4050"/>
    <path d="M3.83032 25.3655H25.6603V3.34802H24.3836V24.0775H3.83054L3.83032 25.3655Z" fill="#2F4050"/>
    <path d="M3.8303 35.9238H24.3833V56.6533H25.6601V34.6359H3.83008L3.8303 35.9238Z" fill="#2F4050"/>
    <path d="M56.6818 34.6359H34.8518V56.6533H36.1286V35.9238H56.6816L56.6818 34.6359Z" fill="#2F4050"/>
    <path d="M41.3626 5.27933V18.7988H54.6389C54.8941 19.9576 55.9157 20.8591 57.192 20.8591C58.7239 20.8591 59.8729 19.7003 59.8729 18.1552C59.8729 16.6101 58.7239 15.4513 57.192 15.4513C55.9152 15.4513 54.8941 16.3527 54.6389 17.5115H42.6384L42.6389 5.27889C43.7878 5.02152 44.6816 3.99117 44.6816 2.7039C44.6816 1.15881 43.5326 0 42.0007 0C40.4688 0 39.3198 1.15881 39.3198 2.7039C39.3194 3.99117 40.2132 5.02152 41.3621 5.27889L41.3626 5.27933ZM57.1929 16.7383C57.9588 16.7383 58.597 17.382 58.597 18.1545C58.597 18.9271 57.9588 19.5707 57.1929 19.5707C56.4269 19.5711 55.7883 18.9275 55.7883 18.155C55.7883 17.3824 56.4269 16.7383 57.1929 16.7383ZM42.0005 1.2875C42.7665 1.2875 43.4046 1.93113 43.4046 2.70368C43.4046 3.47622 42.7665 4.11985 42.0005 4.11985C41.2345 4.11985 40.5964 3.47622 40.5964 2.70368C40.5964 1.93156 41.2345 1.2875 42.0005 1.2875Z" fill="#CF5555"/>
    <path d="M2.68131 20.7301C3.95807 20.7301 4.97921 19.8287 5.23439 18.6699H18.6388V5.2795C19.7877 5.02213 20.6815 3.99178 20.6815 2.70451C20.6815 1.15942 19.5325 0.000610352 18.0006 0.000610352C16.4687 0.000610352 15.3197 1.15942 15.3197 2.70451C15.3197 3.99222 16.2135 5.02213 17.3625 5.2795V17.383H5.23395C4.97877 16.2242 3.95719 15.3228 2.68088 15.3228C1.14895 15.3228 0 16.4816 0 18.0267C0 19.5717 1.14895 20.7306 2.68088 20.7306L2.68131 20.7301ZM16.5967 2.70451C16.5967 1.93196 17.2349 1.28833 18.0008 1.28833C18.7668 1.28833 19.405 1.93196 19.405 2.70451C19.405 3.47705 18.7668 4.12069 18.0008 4.12069C17.2349 4.12069 16.5967 3.47705 16.5967 2.70451ZM2.68131 16.6103C3.44728 16.6103 4.08544 17.2539 4.08544 18.0264C4.08544 18.799 3.44728 19.4426 2.68131 19.4426C1.91535 19.4426 1.27719 18.799 1.27719 18.0264C1.27719 17.2539 1.91535 16.6103 2.68131 16.6103Z" fill="#CF5555"/>
    <path d="M18.6385 54.722V41.0734H5.36212C5.10694 39.9146 4.08536 39.0132 2.80905 39.0132C1.27712 39.0132 0.128174 40.172 0.128174 41.7171C0.128174 43.2622 1.27712 44.421 2.80905 44.421C4.0858 44.421 5.10694 43.5195 5.36212 42.3607H17.3626V54.7214C16.2136 54.9788 15.3199 56.0091 15.3199 57.2964C15.3199 58.8415 16.4688 60.0003 18.0007 60.0003C19.5327 60.0003 20.6816 58.8415 20.6816 57.2964C20.6816 56.0095 19.7879 54.9792 18.6389 54.7218L18.6385 54.722ZM2.80927 43.1339C2.0433 43.1339 1.40515 42.4903 1.40515 41.7177C1.40472 40.9452 2.0433 40.3011 2.80927 40.3011C3.57523 40.3011 4.21339 40.9448 4.21339 41.7173C4.21339 42.4903 3.57523 43.1339 2.80927 43.1339ZM18.0005 58.7139C17.2346 58.7139 16.5964 58.0702 16.5964 57.2977C16.5964 56.5252 17.2346 55.8815 18.0005 55.8815C18.7665 55.8815 19.4047 56.5252 19.4047 57.2977C19.4047 58.0698 18.7665 58.7139 18.0005 58.7139Z" fill="#CF5555"/>
    <path d="M57.3198 39.142C56.043 39.142 55.0219 40.0435 54.7667 41.2023H41.3623V54.5927C40.2134 54.85 39.3196 55.8804 39.3196 57.1676C39.3196 58.7127 40.4685 59.8715 42.0005 59.8715C43.5324 59.8715 44.6813 58.7127 44.6813 57.1676C44.6813 55.8799 43.7876 54.85 42.6386 54.5927V42.4891H54.766C55.0212 43.6479 56.0428 44.5494 57.3191 44.5494C58.851 44.5494 60 43.3906 60 41.8455C60.0004 40.3004 58.8515 39.1416 57.3195 39.1416L57.3198 39.142ZM43.4055 57.1688C43.4055 57.9413 42.7673 58.5849 42.0013 58.5849C41.2354 58.5849 40.5972 57.9413 40.5972 57.1688C40.5972 56.3962 41.2354 55.7526 42.0013 55.7526C42.7669 55.7521 43.4055 56.3962 43.4055 57.1688ZM57.3198 43.263C56.5538 43.263 55.9156 42.6194 55.9156 41.8468C55.9156 41.0743 56.5538 40.4306 57.3198 40.4306C58.0857 40.4306 58.7239 41.0743 58.7239 41.8468C58.7243 42.6189 58.0857 43.263 57.3198 43.263Z" fill="#CF5555"/>
    <path d="M29.6182 3.34802H30.8949V5.27938H29.6182V3.34802Z" fill="#2F4050"/>
    <path d="M29.6182 39.5283H30.8949V43.391H29.6182V39.5283Z" fill="#2F4050"/>
    <path d="M29.6182 24.3357H30.8949V28.1984H29.6182V24.3357Z" fill="#2F4050"/>
    <path d="M29.6182 16.7383H30.8949V20.601H29.6182V16.7383Z" fill="#2F4050"/>
    <path d="M29.6182 9.14209H30.8949V13.0048H29.6182V9.14209Z" fill="#2F4050"/>
    <path d="M29.6182 47.1257H30.8949V50.9884H29.6182V47.1257Z" fill="#2F4050"/>
    <path d="M29.6182 31.932H30.8949V35.7947H29.6182V31.932Z" fill="#2F4050"/>
    <path d="M29.6182 54.7219H30.8949V56.6533H29.6182V54.7219Z" fill="#2F4050"/>
    <path d="M54.7668 29.3573H56.6818V30.645H54.7668V29.3573Z" fill="#2F4050"/>
    <path d="M47.1072 29.3573H50.937V30.645H47.1072V29.3573Z" fill="#2F4050"/>
    <path d="M39.5757 29.3573H43.4055V30.645H39.5757V29.3573Z" fill="#2F4050"/>
    <path d="M9.44702 29.3573H13.2768V30.645H9.44702V29.3573Z" fill="#2F4050"/>
    <path d="M24.5112 29.3573H28.3411V30.645H24.5112V29.3573Z" fill="#2F4050"/>
    <path d="M16.9797 29.3573H20.8096V30.645H16.9797V29.3573Z" fill="#2F4050"/>
    <path d="M32.043 29.3573H35.8728V30.645H32.043V29.3573Z" fill="#2F4050"/>
    <path d="M3.83032 29.3573H5.74523V30.645H3.83032V29.3573Z" fill="#2F4050"/>
</svg>
