<svg width="60" height="60" viewBox="0 0 60 60" fill="none" xmlns="http://www.w3.org/2000/svg">
    <path d="M56.792 24.171H52.3068C51.7753 22.1137 50.9675 20.1614 49.8976 18.3498L53.0737 15.1736C53.6768 14.5704 54.0098 13.7664 54.0098 12.9093C54.0098 12.0527 53.6773 11.2487 53.0737 10.645L49.354 6.92524C48.1059 5.67667 46.0742 5.67571 44.8261 6.92524L41.65 10.1014C39.8378 9.03093 37.8861 8.22369 35.8289 7.69214L35.8285 3.2069C35.8285 1.43881 34.3897 0 32.6216 0H27.3762C25.6082 0 24.1694 1.43881 24.1694 3.2069V7.69214C22.1122 8.22367 20.16 9.03143 18.3483 10.1014L15.1722 6.92524C13.9237 5.67571 11.8914 5.67667 10.6443 6.92524L6.92462 10.6445C6.32149 11.2477 5.98854 12.0517 5.98854 12.9088C5.98854 13.7654 6.32103 14.5694 6.92462 15.1731L10.1008 18.3493C9.03027 20.1615 8.22305 22.1132 7.69151 24.1705L3.20684 24.17C1.43878 24.17 0 25.6088 0 27.3769V32.6224C0 34.3905 1.43878 35.8293 3.20684 35.8293H7.69199C8.2235 37.8866 9.03125 39.8388 10.1012 41.6505L6.9251 44.8267C6.32197 45.4298 5.98901 46.2338 5.98901 47.091C5.98901 47.9475 6.32151 48.7516 6.9251 49.3553L10.6448 53.075C11.2688 53.6996 12.0887 54.0116 12.909 54.0116C13.7289 54.0116 14.5491 53.6996 15.1733 53.075L18.3494 49.8988C20.1616 50.9693 22.1133 51.7766 24.1705 52.3081V56.7933C24.1705 58.5614 25.6093 60.0003 27.3773 60.0003H32.6227C34.3907 60.0003 35.8295 58.5614 35.8295 56.7933V52.3081C37.8867 51.7766 39.839 50.9688 41.6506 49.8988L44.8267 53.075C45.4508 53.6996 46.2706 54.0116 47.091 54.0116C47.9108 54.0116 48.7311 53.6996 49.3552 53.075L53.0749 49.3557C53.678 48.7526 54.011 47.9486 54.011 47.0914C54.011 46.2349 53.6785 45.4308 53.0749 44.8272L49.8988 41.651C50.9692 39.8387 51.7765 37.887 52.308 35.8298H56.7932C58.5612 35.8298 60 34.391 60 32.6229V27.3774C59.9991 25.6093 58.5603 24.171 56.7923 24.171L56.792 24.171ZM57.9987 32.6229C57.9987 33.2883 57.4574 33.8296 56.792 33.8296H51.5218C51.4925 33.8296 51.4651 33.8357 51.4363 33.8385C51.4014 33.8417 51.367 33.8427 51.3335 33.8492C51.2916 33.8571 51.2516 33.871 51.2117 33.8845C51.1912 33.891 51.1703 33.8957 51.1503 33.904C51.1061 33.9222 51.0647 33.9445 51.0243 33.9682C51.0094 33.9771 50.994 33.9831 50.9801 33.9924C50.9415 34.0171 50.9066 34.0473 50.8722 34.0766C50.8582 34.0887 50.842 34.0994 50.8289 34.1124C50.7983 34.1417 50.7722 34.1752 50.7457 34.2082C50.7318 34.2254 50.7155 34.2417 50.7029 34.2603C50.6787 34.2951 50.6601 34.3323 50.6401 34.3695C50.6295 34.39 50.616 34.4091 50.6067 34.4309C50.5881 34.4742 50.5746 34.5202 50.562 34.5662C50.5574 34.583 50.5495 34.5983 50.5462 34.6155C50.0189 36.9989 49.0921 39.236 47.7928 41.2649C47.7617 41.3138 47.7379 41.3645 47.7161 41.4156C47.7133 41.4221 47.7096 41.4277 47.7068 41.4342C47.6608 41.5495 47.6394 41.6695 47.6375 41.789C47.6375 41.7965 47.6361 41.8039 47.6361 41.8109C47.6366 41.9323 47.6612 42.0518 47.7049 42.1643C47.7077 42.1718 47.7091 42.1792 47.7124 42.1862C47.7612 42.3034 47.8323 42.4117 47.9244 42.5047C47.9263 42.5066 47.9263 42.5089 47.9286 42.5108L51.6604 46.2427C51.886 46.4687 52.0106 46.7705 52.0106 47.0927C52.0106 47.4145 51.886 47.7168 51.6604 47.9428L47.9407 51.6626C47.472 52.1313 46.7093 52.1318 46.2407 51.6626L42.5191 47.94C42.5177 47.9386 42.5158 47.9367 42.5144 47.9353L42.5079 47.9288C42.506 47.9269 42.5037 47.9269 42.5019 47.9246C42.4084 47.8325 42.3005 47.7614 42.1833 47.7126C42.1759 47.7093 42.168 47.7079 42.1601 47.7051C42.048 47.6619 41.9294 47.6377 41.8085 47.6363C41.7997 47.6363 41.7918 47.6382 41.7834 47.6382C41.6648 47.64 41.5462 47.6609 41.4314 47.707C41.4239 47.7098 41.4179 47.7144 41.4109 47.7177C41.3602 47.7391 41.3095 47.7623 41.2617 47.793C39.2332 49.0923 36.9955 50.0191 34.6124 50.5465C34.5942 50.5507 34.5784 50.5586 34.5603 50.5637C34.5152 50.5762 34.4701 50.5888 34.4278 50.6069C34.4027 50.6181 34.3799 50.633 34.3557 50.6464C34.3231 50.6646 34.2892 50.6804 34.259 50.7018C34.2339 50.7199 34.2111 50.7404 34.1878 50.7604C34.1627 50.7818 34.1357 50.8018 34.1125 50.8255C34.0911 50.8473 34.0739 50.872 34.0544 50.8962C34.033 50.9227 34.0102 50.9473 33.9916 50.9762C33.9758 51.0008 33.9637 51.0273 33.9497 51.0534C33.933 51.084 33.9158 51.1138 33.9023 51.1459C33.8902 51.1761 33.8828 51.2077 33.8735 51.2394C33.8642 51.2701 33.8535 51.2994 33.847 51.3314C33.8391 51.371 33.8377 51.4114 33.8349 51.4519C33.833 51.4761 33.8274 51.4984 33.8274 51.5226V56.7932C33.8274 57.4586 33.2861 57.9999 32.6207 57.9999H27.3753C26.7099 57.9999 26.1685 57.4586 26.1685 56.7932V51.5226C26.1685 51.4984 26.1634 51.4761 26.1611 51.4519C26.1583 51.4114 26.1564 51.3705 26.149 51.3314C26.143 51.2994 26.1318 51.2701 26.1225 51.2394C26.1132 51.2082 26.1057 51.1761 26.0937 51.1459C26.0802 51.1133 26.063 51.084 26.0462 51.0534C26.0323 51.0273 26.0202 51.0008 26.0044 50.9762C25.9858 50.9473 25.963 50.9227 25.9416 50.8962C25.9221 50.872 25.9049 50.8473 25.8835 50.8255C25.8602 50.8013 25.8332 50.7813 25.8081 50.7604C25.7849 50.7404 25.7621 50.719 25.737 50.7018C25.7063 50.6804 25.6728 50.6646 25.6403 50.6464C25.6161 50.6339 25.5938 50.6185 25.5682 50.6069C25.5263 50.5883 25.4808 50.5762 25.4357 50.5637C25.4184 50.559 25.4022 50.5502 25.3836 50.5465C23.0003 50.0191 20.7632 49.0923 18.7343 47.793C18.6855 47.7619 18.6348 47.7381 18.5836 47.7163C18.5771 47.7135 18.5715 47.7098 18.565 47.707C18.4492 47.6609 18.3283 47.6391 18.2084 47.6377C18.2019 47.6377 18.1958 47.6363 18.1888 47.6363C18.0661 47.6368 17.9461 47.6614 17.8322 47.7056C17.8261 47.7084 17.8196 47.7088 17.8136 47.7116C17.6954 47.7605 17.5862 47.8316 17.4927 47.9251C17.4913 47.9265 17.4894 47.9269 17.488 47.9283L13.7554 51.6611C13.2862 52.1303 12.5235 52.1298 12.0553 51.6611L8.33561 47.9413C8.10961 47.7158 7.98545 47.414 7.98545 47.0922C7.98545 46.7695 8.11008 46.4676 8.33561 46.2421L12.0567 42.5209C12.0581 42.5195 12.0595 42.5181 12.0609 42.5167L12.0674 42.5102C12.0693 42.5084 12.0693 42.506 12.0716 42.5042C12.1637 42.4107 12.2348 42.3028 12.2836 42.1856C12.2869 42.1782 12.2878 42.1707 12.2911 42.1638C12.3343 42.0512 12.359 41.9317 12.3599 41.8103C12.3599 41.8029 12.3585 41.7955 12.3585 41.7885C12.3567 41.6685 12.3353 41.5485 12.2892 41.4337C12.2864 41.4272 12.2827 41.4216 12.2799 41.4151C12.2581 41.3639 12.2348 41.3132 12.2032 41.2644C10.9039 39.2359 9.97717 36.9982 9.4498 34.615C9.44561 34.5969 9.43771 34.5801 9.43259 34.5629C9.42004 34.5183 9.40795 34.4736 9.38935 34.4318C9.37819 34.4067 9.36331 34.3839 9.34982 34.3597C9.33169 34.3271 9.31588 34.2932 9.29449 34.2625C9.27775 34.2383 9.25775 34.2178 9.23915 34.1951C9.21636 34.1676 9.19497 34.1397 9.16986 34.1151C9.15033 34.0965 9.12847 34.0811 9.10801 34.0639C9.07872 34.0397 9.05081 34.0151 9.01873 33.9946C8.99827 33.9811 8.97548 33.9714 8.95363 33.9593C8.91875 33.9398 8.88573 33.9207 8.84807 33.9058C8.82295 33.8951 8.79552 33.89 8.76855 33.8812C8.73367 33.8705 8.69926 33.8579 8.66299 33.8509C8.62765 33.8444 8.59044 33.843 8.55371 33.8402C8.52627 33.8384 8.50023 33.8323 8.47326 33.8323L3.20694 33.8319C2.5415 33.8319 2.00017 33.2906 2.00017 32.6251V27.3796C2.00017 26.7142 2.54146 26.1728 3.20694 26.1728H8.47469H8.47748C8.47934 26.1728 8.48166 26.1714 8.48352 26.1714C8.58676 26.171 8.68441 26.151 8.77742 26.1207C8.79416 26.1156 8.80997 26.1114 8.82625 26.1054C8.91693 26.0714 9.0011 26.024 9.0769 25.9668C9.09178 25.9561 9.10434 25.944 9.11829 25.9329C9.19362 25.8696 9.26012 25.7975 9.31406 25.7148C9.3201 25.7055 9.32429 25.6952 9.3294 25.6859C9.38288 25.5971 9.42427 25.5004 9.44798 25.3972C9.44845 25.3939 9.45124 25.3911 9.45217 25.3879C9.9795 23.0045 10.9063 20.7674 12.2056 18.7384C12.2367 18.6896 12.2604 18.6389 12.2823 18.5878C12.2851 18.5813 12.2888 18.5757 12.2916 18.5692C12.3376 18.4538 12.359 18.3339 12.3609 18.2144C12.3609 18.2069 12.3623 18.1995 12.3623 18.1925C12.3618 18.0711 12.3372 17.9516 12.2935 17.8391C12.2907 17.8316 12.2893 17.8242 12.286 17.8172C12.2372 17.7 12.166 17.5917 12.074 17.4987C12.0721 17.4968 12.0721 17.4945 12.0698 17.4926L12.0633 17.4861C12.0619 17.4847 12.0605 17.4833 12.0591 17.4819L8.33797 13.7607C8.11244 13.5347 7.98781 13.2329 7.98781 12.9107C7.98781 12.5889 8.11244 12.2866 8.33797 12.0606L12.0577 8.34083C12.5264 7.87208 13.2891 7.87162 13.7577 8.34083L17.4896 12.0727C17.4938 12.0769 17.4984 12.0774 17.5021 12.0816C17.5877 12.1643 17.6854 12.2262 17.7909 12.2736C17.8151 12.2843 17.8383 12.2932 17.863 12.3015C17.9704 12.3397 18.0811 12.3657 18.195 12.3662H18.1969H18.1973C18.3099 12.3662 18.4219 12.3401 18.5312 12.3011C18.5633 12.2899 18.5926 12.2746 18.6233 12.2592C18.6605 12.2411 18.7 12.2313 18.7358 12.2085C20.7643 10.9092 23.0019 9.98246 25.3851 9.45508C25.4032 9.45089 25.4191 9.44299 25.4372 9.43787C25.4823 9.42531 25.5274 9.41276 25.5697 9.39462C25.5948 9.38346 25.6176 9.36858 25.6418 9.3551C25.6744 9.33696 25.7083 9.32115 25.7385 9.29976C25.7636 9.28162 25.7864 9.26116 25.8097 9.24116C25.8348 9.21977 25.8618 9.19977 25.885 9.17606C25.9064 9.1542 25.9236 9.12956 25.9431 9.10537C25.9645 9.07887 25.9873 9.05422 26.0059 9.02539C26.0217 9.00074 26.0338 8.97423 26.0478 8.94819C26.0645 8.9175 26.0817 8.88774 26.0952 8.85565C26.1073 8.82543 26.1147 8.7938 26.124 8.76218C26.1333 8.73149 26.144 8.70219 26.1505 8.6701C26.1584 8.63058 26.1598 8.59012 26.1626 8.54966C26.1645 8.52548 26.1701 8.50316 26.1701 8.47898V3.20696C26.1701 2.5415 26.7114 2.00017 27.3768 2.00017H32.6222C33.2876 2.00017 33.829 2.54147 33.829 3.20696V8.47755C33.829 8.50173 33.8341 8.52405 33.8364 8.54824C33.8392 8.58869 33.8411 8.62962 33.8485 8.66868C33.8545 8.70076 33.8657 8.73006 33.875 8.76075C33.8843 8.79191 33.8917 8.824 33.9038 8.85422C33.9173 8.88678 33.9345 8.91607 33.9513 8.94676C33.9652 8.97281 33.9773 8.99931 33.9931 9.02396C34.0117 9.05279 34.0345 9.07744 34.0559 9.10394C34.0754 9.12813 34.0926 9.15277 34.114 9.17463C34.1373 9.19881 34.1642 9.21881 34.1894 9.23973C34.2126 9.25973 34.2354 9.28112 34.2605 9.29833C34.2912 9.31972 34.3247 9.33553 34.3572 9.35367C34.3814 9.36622 34.4037 9.38157 34.4293 9.39319C34.4712 9.4118 34.5167 9.42389 34.5618 9.43644C34.5791 9.44109 34.5953 9.44993 34.6139 9.45365C36.9972 9.98099 39.2343 10.9078 41.2632 12.2071C41.299 12.2299 41.3385 12.2406 41.3757 12.2578C41.4069 12.2727 41.4357 12.288 41.4678 12.2996C41.5771 12.3392 41.6892 12.3647 41.8017 12.3647H41.8022H41.804C41.9179 12.3647 42.0286 12.3382 42.136 12.3001C42.1607 12.2913 42.1839 12.2829 42.2081 12.2722C42.3137 12.2257 42.4113 12.1629 42.4969 12.0801C42.5011 12.076 42.5057 12.0755 42.5095 12.0713L46.2413 8.33941C46.7105 7.87019 47.4732 7.87066 47.9414 8.33941L51.6611 12.0592C51.8871 12.2847 52.0112 12.5865 52.0112 12.9083C52.0112 13.231 51.8866 13.5328 51.6611 13.7584L47.9292 17.4903C47.9274 17.4921 47.9274 17.4945 47.925 17.4963C47.833 17.5898 47.7618 17.6977 47.713 17.8149C47.7097 17.8223 47.7088 17.8298 47.7056 17.8367C47.6623 17.9493 47.6377 18.0688 47.6367 18.1902C47.6367 18.1976 47.6381 18.205 47.6381 18.212C47.64 18.332 47.6614 18.452 47.7074 18.5668C47.7102 18.5734 47.7139 18.5789 47.7167 18.5854C47.7386 18.6366 47.7618 18.6873 47.7935 18.7361C49.0927 20.7646 50.0195 23.0023 50.5469 25.3855C50.5473 25.3888 50.5501 25.3916 50.551 25.3948C50.5752 25.499 50.6161 25.5962 50.6705 25.685C50.6757 25.6938 50.6798 25.7036 50.6854 25.7124C50.7394 25.7957 50.8068 25.8678 50.8821 25.931C50.8956 25.9422 50.9082 25.9538 50.9226 25.9645C50.9984 26.0226 51.0826 26.0691 51.1737 26.1031C51.1895 26.1091 51.2058 26.1133 51.2225 26.1184C51.316 26.1486 51.4137 26.1686 51.5173 26.1691C51.5192 26.1691 51.5215 26.1705 51.5234 26.1705H51.5262H56.7939C57.4594 26.1705 58.0007 26.7118 58.0007 27.3773L58.0002 32.6227L57.9987 32.6229Z" fill="#2F4050"/>
    <path d="M29.9997 28.3269C33.5655 28.3269 36.4667 25.4255 36.4667 21.8597C36.4667 18.2934 33.5655 15.3921 29.9997 15.3921C26.434 15.3921 23.5327 18.2934 23.5327 21.8592C23.5327 25.4255 26.434 28.3269 29.9997 28.3269ZM29.9997 17.3921C32.4629 17.3921 34.4671 19.3959 34.4671 21.8596C34.4671 24.3228 32.4629 26.3266 29.9997 26.3266C27.5366 26.3266 25.5323 24.3228 25.5323 21.8591C25.5323 19.3963 27.5366 17.3921 29.9997 17.3921Z" fill="#CF5555"/>
    <path d="M29.9997 30.1865C24.9226 30.1865 20.7917 34.3174 20.7917 39.3946V39.6973C20.7917 41.8914 22.4342 43.7133 24.6137 43.936C24.6472 43.9393 24.6816 43.9411 24.7151 43.9411H35.2836C35.3175 43.9411 35.3514 43.9398 35.3849 43.936C37.5641 43.7133 39.2069 41.8913 39.2069 39.6973V39.3946C39.2073 34.3175 35.0766 30.1865 29.9994 30.1865H29.9997ZM37.2075 39.6969C37.2075 40.8455 36.3602 41.8021 35.2284 41.9407H24.771C23.6396 41.8021 22.7918 40.8455 22.7918 39.6969V39.3941C22.7918 35.42 26.0251 32.1862 29.9997 32.1862C33.9742 32.1862 37.2075 35.4195 37.2075 39.3941V39.6969Z" fill="#CF5555"/>
</svg>
