<svg width="80" height="40" viewBox="0 0 80 40" fill="none" xmlns="http://www.w3.org/2000/svg">
    <path d="M26.7601 13.8552C24.9764 12.1704 22.399 10.0886 19.8222 10.0886C17.1459 10.0886 14.6681 11.0792 12.7847 12.9626C10.9022 14.846 9.91072 17.3238 9.91072 20.0001C9.91072 22.6764 10.9013 25.1543 12.7847 27.0376C14.6681 28.9202 17.1459 29.9116 19.8222 29.9116C23.093 29.9116 25.3725 28.3256 26.7601 26.938L32.9051 20.5953L39.9426 13.2606L26.7601 13.8552ZM26.7601 13.8552L29.9793 17.1637L26.7601 13.8552ZM49.6557 23.9878L52.8612 27.2823C54.2204 28.7436 56.7218 30.4114 60.0628 30.4114C62.7639 30.4114 65.4768 29.3726 67.4634 27.183C69.4374 25.2035 70.475 22.6006 70.475 19.8008C70.475 16.9969 69.4352 14.3903 67.4545 12.4097L67.4545 12.4096C65.4739 10.43 62.8674 9.38928 60.0635 9.38928C58.6443 9.38928 57.2625 9.96001 56.0454 10.716C54.8236 11.4748 53.7278 12.4453 52.8708 13.3023L52.8708 13.3022L52.8651 13.308L46.8191 19.5525L46.8181 19.5535L39.1868 27.4821L39.1861 27.4829L33.4411 33.4263L33.3452 33.5222L33.3452 33.5222L33.3406 33.5268C29.667 37.2977 24.8396 39.323 19.823 39.323C14.7053 39.323 9.87596 37.2966 6.20116 33.6218L6.2012 33.6218L6.19647 33.6172C2.52958 30.0458 0.5 25.1215 0.5 20C0.5 14.8823 2.52637 10.053 6.20116 6.37816L6.2012 6.37819L6.2058 6.37347C9.77721 2.70658 14.7015 0.677002 19.823 0.677002C24.4127 0.677002 28.9511 2.77712 33.3452 7.17125L33.439 7.26494L33.4441 7.27012L36.4726 10.3883L30.3255 16.8025L27.1185 13.5065L27.1111 13.4989L27.1034 13.4917C26.2018 12.64 25.0826 11.6715 23.8504 10.9141C22.6225 10.1594 21.2411 9.58861 19.8222 9.58861C17.0184 9.58861 14.4118 10.6284 12.4312 12.609L12.4311 12.6091C10.4514 14.5896 9.41072 17.1961 9.41072 20.0001C9.41072 22.804 10.4505 25.4106 12.4312 27.3912L12.4312 27.3913C14.4118 29.3709 17.0183 30.4116 19.8222 30.4116C23.2698 30.4116 25.6691 28.7361 27.1137 27.2915L27.1137 27.2916L27.1192 27.2859L33.2642 20.9432L33.2658 20.9415L40.3017 13.6085L40.3034 13.6068L46.4446 7.26736L46.5367 7.1752C46.5373 7.17457 46.538 7.17394 46.5386 7.17331C50.9386 2.87142 55.4777 0.677002 60.0629 0.677002C64.9979 0.677002 69.6648 2.56132 73.2869 5.99103L73.6893 6.38284C77.3559 9.9531 79.3857 14.8771 79.385 20.0994C79.385 25.2171 77.3586 30.0465 73.6838 33.7213L73.6792 33.726C70.1078 37.3929 65.1835 39.4225 60.062 39.4225C55.0516 39.4225 50.2202 37.3021 46.5398 33.6217L46.446 33.528L46.4409 33.5228L43.4148 30.4071L49.6557 23.9878Z" fill="#CF5555" stroke="white"/>
</svg>
