<svg width="48" height="48" viewBox="0 0 48 48" fill="none" xmlns="http://www.w3.org/2000/svg">
    <path d="M26.9706 47.9949H27.1764C27.1386 47.9949 27.1061 47.9792 27.0737 47.9741C27.0355 47.9792 27.0031 47.9949 26.9706 47.9949Z" fill="#2F4050"/>
    <path d="M20.5896 2.70921C21.4176 3.51332 21.9806 4.53671 22.1864 5.66415C22.3975 6.79205 22.2351 7.94027 21.748 8.96907C21.6559 9.16208 21.5585 9.35546 21.4396 9.53828C21.2825 9.78374 21.3693 10.1075 21.6234 10.2535C21.7099 10.3056 21.8073 10.3267 21.9047 10.3267C22.0886 10.3267 22.2676 10.2379 22.3703 10.0762C23.2365 8.69777 23.5502 7.06372 23.258 5.47657C22.9657 3.88951 22.0834 2.45899 20.7735 1.45639C20.5357 1.27867 20.1947 1.31509 20.0104 1.54488C19.8266 1.77468 19.8643 2.09844 20.0969 2.28089C20.2702 2.41163 20.433 2.55767 20.5897 2.70917L20.5896 2.70921Z" fill="#CF5555"/>
    <path d="M18.489 3.66943C18.6514 3.77395 18.7975 3.88867 18.9436 4.00885C19.5553 4.53617 19.9669 5.23063 20.113 6.0242C20.2539 6.77587 20.1346 7.53304 19.7936 8.20132C19.7124 8.36302 19.615 8.52508 19.5066 8.68167C19.3333 8.91656 19.3983 9.24542 19.6418 9.40749C19.7339 9.47013 19.8419 9.50144 19.9503 9.50144C20.1236 9.50144 20.2912 9.42314 20.3943 9.27711C21.0981 8.30071 21.3794 7.12629 21.1899 5.95653C21.1846 5.91465 21.1789 5.87823 21.1736 5.83634C21.1684 5.79993 21.1574 5.76314 21.1465 5.72673C20.892 4.52601 20.1452 3.46076 19.0788 2.78745C18.83 2.63085 18.4943 2.69859 18.332 2.93895C18.1643 3.18915 18.2398 3.50781 18.489 3.6695L18.489 3.66943Z" fill="#CF5555"/>
    <path d="M8.41018 17.4219L7.39786 11.9453L11.3979 11.2563L17.4441 13.2717C17.5038 13.2924 17.5631 13.303 17.6227 13.303C17.7473 13.303 17.8772 13.2611 17.9746 13.1777C18.1207 13.0575 18.191 12.8696 18.1532 12.6868L17.3954 8.60946C17.7636 8.45286 18.083 8.20741 18.3156 7.88365C18.6565 7.40839 18.7864 6.83956 18.6837 6.2703C18.581 5.70108 18.2506 5.21055 17.7583 4.88163C17.4226 4.6573 17.0329 4.53165 16.6324 4.5058L15.8746 0.428467C15.8421 0.245652 15.7069 0.0941527 15.528 0.0315113C15.3494 -0.0311283 15.1436 0.000191437 14.9975 0.120371L10.05 4.03092L0.442504 5.68538C0.301671 5.7116 0.177443 5.7899 0.0958912 5.89952C0.0147123 6.01424 -0.0177618 6.15518 0.0094258 6.29101L1.15688 12.4933C1.20558 12.7439 1.43289 12.9216 1.68738 12.9216C1.71985 12.9216 1.75232 12.9216 1.78479 12.9111L3.44647 12.6241L4.46401 18.1006C4.4912 18.2365 4.57238 18.3563 4.68603 18.4349C4.77816 18.4976 4.88614 18.5289 4.99451 18.5289C5.02698 18.5289 5.05945 18.5238 5.09192 18.5183L7.97703 18.0223C8.26965 17.9753 8.46449 17.7037 8.41012 17.4218L8.41018 17.4219ZM5.43334 17.4062L4.51318 12.4465L6.33194 12.1333L7.25209 17.093L5.43334 17.4062ZM17.1408 5.73751C17.3953 5.90977 17.5629 6.16033 17.6173 6.45277C17.6713 6.7452 17.6063 7.04274 17.4278 7.28273C17.3628 7.37159 17.2816 7.44989 17.1952 7.51762L16.838 5.59111C16.9407 5.6228 17.0434 5.66978 17.1408 5.73751H17.1408ZM16.9192 11.9975L11.9121 10.3266L10.8726 4.72438L14.9701 1.48211L16.9192 11.9975ZM9.84973 5.12135L10.8133 10.3008L2.12523 11.7939L1.16731 6.62003L9.84973 5.12135Z" fill="#CF5555"/>
    <path d="M15.794 35.8247H10.5649C10.2674 35.8247 10.0234 36.0596 10.0234 36.3469V41.7295C10.0234 42.0165 10.267 42.2517 10.5649 42.2517H15.794C16.0915 42.2517 16.3355 42.0168 16.3355 41.7295L16.3351 36.3469C16.3351 36.0545 16.0968 35.8247 15.794 35.8247ZM15.2525 41.2076H11.1063V36.8692H15.2525V41.2076Z" fill="#CF5555"/>
    <path d="M24.3786 35.8247H19.1495C18.852 35.8247 18.608 36.0596 18.608 36.3469V41.7295C18.608 42.0165 18.8516 42.2517 19.1495 42.2517H24.3786C24.6761 42.2517 24.92 42.0168 24.92 41.7295L24.9197 36.3469C24.9197 36.0545 24.6761 35.8247 24.3786 35.8247H24.3786ZM23.8371 41.2076H19.6909V36.8692H23.8371V41.2076Z" fill="#2F4050"/>
    <path d="M15.794 26.0049H10.5649C10.2674 26.0049 10.0234 26.2398 10.0234 26.5271V31.9097C10.0234 32.1967 10.267 32.4319 10.5649 32.4319H15.794C16.0915 32.4319 16.3355 32.197 16.3355 31.9097L16.3351 26.5271C16.3351 26.2398 16.0968 26.0049 15.794 26.0049ZM15.2525 31.3878H11.1063V27.0493H15.2525V31.3878Z" fill="#2F4050"/>
    <path d="M24.3786 26.0049H19.1495C18.852 26.0049 18.608 26.2398 18.608 26.5271V31.9097C18.608 32.1967 18.8516 32.4319 19.1495 32.4319H24.3786C24.6761 32.4319 24.92 32.197 24.92 31.9097L24.9197 26.5271C24.9197 26.2398 24.6761 26.0049 24.3786 26.0049H24.3786ZM23.8371 31.3878H19.6909V27.0493H23.8371V31.3878Z" fill="#CF5555"/>
    <path d="M34.9498 26.0049H29.7206C29.4231 26.0049 29.1792 26.2398 29.1792 26.5271V31.9097C29.1792 32.1967 29.4227 32.4319 29.7206 32.4319H34.9498C35.2473 32.4319 35.4912 32.197 35.4912 31.9097L35.4908 26.5271C35.4908 26.2398 35.2473 26.0049 34.9498 26.0049ZM34.4083 31.3878H30.2621V27.0493H34.4083V31.3878Z" fill="#2F4050"/>
    <path d="M43.5297 26.0049H38.3006C38.0031 26.0049 37.7592 26.2398 37.7592 26.5271V31.9097C37.7592 32.1967 38.0027 32.4319 38.3006 32.4319H43.5297C43.8272 32.4319 44.0712 32.197 44.0712 31.9097V26.5271C44.0712 26.2398 43.8329 26.0049 43.5297 26.0049ZM42.9886 31.3878H38.8424V27.0493H42.9886V31.3878Z" fill="#CF5555"/>
    <path d="M34.9498 16.1895H29.7206C29.4231 16.1895 29.1792 16.4244 29.1792 16.7117V22.0943C29.1792 22.3812 29.4227 22.6165 29.7206 22.6165H34.9498C35.2473 22.6165 35.4912 22.3816 35.4912 22.0943L35.4908 16.7113C35.4908 16.4244 35.2473 16.1895 34.9498 16.1895V16.1895ZM34.4083 21.572H30.2621V17.2335H34.4083V21.572Z" fill="#CF5555"/>
    <path d="M43.5297 16.1895H38.3006C38.0031 16.1895 37.7592 16.4244 37.7592 16.7117V22.0943C37.7592 22.3812 38.0027 22.6165 38.3006 22.6165H43.5297C43.8272 22.6165 44.0712 22.3816 44.0712 22.0943V16.7113C44.0712 16.4244 43.8329 16.1895 43.5297 16.1895V16.1895ZM42.9886 21.572H38.8424V17.2335H42.9886V21.572Z" fill="#2F4050"/>
    <path d="M34.9498 6.37402H29.7206C29.4231 6.37402 29.1792 6.60892 29.1792 6.89626V12.2788C29.1792 12.5658 29.4227 12.8011 29.7206 12.8011H34.9498C35.2473 12.8011 35.4912 12.5662 35.4912 12.2788L35.4908 6.89626C35.4908 6.60383 35.2473 6.37402 34.9498 6.37402ZM34.4083 11.7566H30.2621V7.41811H34.4083V11.7566Z" fill="#2F4050"/>
    <path d="M43.5297 6.37402H38.3006C38.0031 6.37402 37.7592 6.60892 37.7592 6.89626V12.2788C37.7592 12.5658 38.0027 12.8011 38.3006 12.8011H43.5297C43.8272 12.8011 44.0712 12.5662 44.0712 12.2788V6.89626C44.0712 6.60383 43.8329 6.37402 43.5297 6.37402ZM42.9886 11.7566H38.8424V7.41811H42.9886V11.7566Z" fill="#CF5555"/>
    <path d="M47.4585 46.9508H46.706L46.7064 3.12136C46.7064 2.83439 46.4629 2.59912 46.1649 2.59912H27.1761C26.8786 2.59912 26.6346 2.83401 26.6346 3.12136V20.3867H7.97637C7.67884 20.3867 7.43492 20.6216 7.43492 20.9089V46.9556H6.477C6.17947 46.9556 5.93555 47.1905 5.93555 47.4778C5.93555 47.7648 6.17908 48.0001 6.477 48.0001H26.965H46.1646H47.4582C47.7557 48.0001 47.9997 47.7652 47.9997 47.4778C47.9997 47.1905 47.7561 46.9501 47.4582 46.9501L47.4585 46.9508ZM8.5181 46.9508V21.4262H26.4292V46.9517L8.5181 46.9508ZM36.0865 46.9508H30.2623V36.8698H36.0869L36.0865 46.9508ZM42.9882 36.8698V46.9517L37.169 46.9514V36.8704L42.9882 36.8698ZM44.0707 46.9508V36.3477C44.0707 36.0607 43.8272 35.8255 43.5292 35.8255H29.7204C29.4229 35.8255 29.179 36.0604 29.179 36.3477V46.9508H27.7174L27.7177 3.64345H45.6288V46.9508H44.0707Z" fill="#2F4050"/>
</svg>
