<svg width="48" height="48" viewBox="0 0 48 48" fill="none" xmlns="http://www.w3.org/2000/svg">
    <path d="M47.2617 42.1313H46.3754V15.9017C46.3754 15.6787 46.3016 15.456 46.0799 15.3072L38.3262 8.69409C38.1045 8.47105 37.8095 8.47105 37.514 8.61985C37.2186 8.76832 37.071 8.99135 37.071 9.28862V42.1308H35.2988L35.2985 0.743338C35.2985 0.297614 35.003 0.000342078 34.5601 0.000342078L13.3659 0C12.9229 0 12.6275 0.297263 12.6275 0.742996V42.1304H10.8553V9.28827C10.8553 8.99101 10.7077 8.76832 10.4123 8.61951C10.1169 8.47105 9.82141 8.54528 9.6001 8.69374L1.84604 15.3068C1.69849 15.4553 1.5506 15.6783 1.5506 15.9014V42.2045H0.738418C0.295441 42.2045 0 42.5018 0 42.9475V47.257C0 47.7027 0.295432 48 0.738418 48H47.2616C47.7046 48 48 47.7027 48 47.257V42.9475C48 42.5018 47.7046 42.1303 47.2616 42.1303L47.2617 42.1313ZM38.6217 10.9241L44.8986 16.2739V42.2057H38.6217V10.9241ZM14.1047 1.48736H33.895V42.1313H14.1047V1.48736ZM3.1012 16.1995L9.37806 10.8497V42.1313H3.1012V16.1995ZM46.5225 46.5151H1.47718V43.6916H46.5225V46.5151Z" fill="#2F4050"/>
    <path d="M22.1548 3.71631H16.9855C16.5425 3.71631 16.2471 4.01357 16.2471 4.4593V10.6267C16.2471 11.0724 16.5425 11.3696 16.9855 11.3696H22.1548C22.5978 11.3696 22.8932 11.0724 22.8932 10.6267V4.4593C22.8932 4.01358 22.5978 3.71631 22.1548 3.71631ZM21.4164 9.88366H17.7239V5.20232H21.4164V9.88366Z" fill="#2F4050"/>
    <path d="M31.0161 3.71631H25.8468C25.4038 3.71631 25.1084 4.01357 25.1084 4.4593V10.6267C25.1084 11.0724 25.4038 11.3696 25.8468 11.3696H31.0161C31.4591 11.3696 31.7545 11.0724 31.7545 10.6267V4.4593C31.7545 4.01358 31.3853 3.71631 31.0161 3.71631ZM30.2777 9.88366H26.5853V5.20232H30.2777V9.88366Z" fill="#CF5555"/>
    <path d="M22.1548 13.2275H16.9855C16.5425 13.2275 16.2471 13.5248 16.2471 13.9705V20.2121C16.2471 20.6578 16.5425 20.9551 16.9855 20.9551H22.1548C22.5978 20.9551 22.8932 20.6578 22.8932 20.2121V13.9705C22.8932 13.5248 22.5978 13.2275 22.1548 13.2275ZM21.4164 19.3949H17.7239V14.6393H21.4164V19.3949Z" fill="#CF5555"/>
    <path d="M31.0161 13.2275H25.8468C25.4038 13.2275 25.1084 13.5248 25.1084 13.9705V20.2121C25.1084 20.6578 25.4038 20.9551 25.8468 20.9551H31.0161C31.4591 20.9551 31.7545 20.6578 31.7545 20.2121V13.9705C31.7545 13.5248 31.3853 13.2275 31.0161 13.2275ZM30.2777 19.3949H26.5853V14.6393H30.2777V19.3949Z" fill="#2F4050"/>
    <path d="M22.1548 22.7378H16.9855C16.5425 22.7378 16.2471 23.0351 16.2471 23.4808V29.7223C16.2471 30.168 16.5425 30.4653 16.9855 30.4653H22.1548C22.5978 30.4653 22.8932 30.168 22.8932 29.7223V23.4808C22.8932 23.1093 22.5978 22.7378 22.1548 22.7378ZM21.4164 28.9793H17.7239V24.2237H21.4164V28.9793Z" fill="#2F4050"/>
    <path d="M31.0161 22.7378H25.8468C25.4038 22.7378 25.1084 23.0351 25.1084 23.4808V29.7223C25.1084 30.168 25.4038 30.4653 25.8468 30.4653H31.0161C31.4591 30.4653 31.7545 30.168 31.7545 29.7223V23.4808C31.7545 23.1093 31.3853 22.7378 31.0161 22.7378ZM30.2777 28.9793H26.5853V24.2237H30.2777V28.9793Z" fill="#CF5555"/>
    <path d="M22.1548 32.249H16.9855C16.5425 32.249 16.2471 32.5463 16.2471 32.992V39.2335C16.2471 39.6793 16.5425 39.9765 16.9855 39.9765H22.1548C22.5978 39.9765 22.8932 39.6793 22.8932 39.2335V32.992C22.8932 32.6205 22.5978 32.249 22.1548 32.249ZM21.4164 38.4903H17.7239V33.7347H21.4164V38.4903Z" fill="#CF5555"/>
    <path d="M31.0161 32.249H25.8468C25.4038 32.249 25.1084 32.5463 25.1084 32.992V39.2335C25.1084 39.6793 25.4038 39.9765 25.8468 39.9765H31.0161C31.4591 39.9765 31.7545 39.6793 31.7545 39.2335V32.992C31.7545 32.6205 31.3853 32.249 31.0161 32.249ZM30.2777 38.4903H26.5853V33.7347H30.2777V38.4903Z" fill="#2F4050"/>
    <path d="M42.9048 18.2803H40.6154C40.1724 18.2803 39.877 18.5775 39.877 19.0233C39.877 19.469 40.1724 19.7663 40.6154 19.7663H42.9048C43.3477 19.7663 43.6432 19.469 43.6432 19.0233C43.6432 18.6518 43.3481 18.2803 42.9048 18.2803Z" fill="#2F4050"/>
    <path d="M42.9048 25.0415H40.6154C40.1724 25.0415 39.877 25.3388 39.877 25.7845C39.877 26.2302 40.1724 26.5275 40.6154 26.5275H42.9048C43.3477 26.5275 43.6432 26.2302 43.6432 25.7845C43.6432 25.3388 43.3481 25.0415 42.9048 25.0415Z" fill="#CF5555"/>
    <path d="M42.9048 31.7285H40.6154C40.1724 31.7285 39.877 32.0258 39.877 32.4715C39.877 32.9172 40.1724 33.2145 40.6154 33.2145H42.9048C43.3477 33.2145 43.6432 32.9172 43.6432 32.4715C43.6432 32.1 43.3481 31.7285 42.9048 31.7285Z" fill="#2F4050"/>
    <path d="M42.9048 38.4902H40.6154C40.1724 38.4902 39.877 38.7875 39.877 39.2332C39.877 39.679 40.1724 39.9762 40.6154 39.9762H42.9048C43.3477 39.9762 43.6432 39.679 43.6432 39.2332C43.6432 38.7875 43.3481 38.4902 42.9048 38.4902Z" fill="#CF5555"/>
    <path d="M7.38537 18.2803H5.09633C4.65335 18.2803 4.35791 18.5775 4.35791 19.0233C4.35791 19.469 4.65334 19.7663 5.09633 19.7663H7.38571C7.82869 19.7663 8.12413 19.469 8.12413 19.0233C8.12379 18.6518 7.8287 18.2803 7.38538 18.2803H7.38537Z" fill="#CF5555"/>
    <path d="M7.38537 25.0415H5.09633C4.65335 25.0415 4.35791 25.3388 4.35791 25.7845C4.35791 26.2302 4.65334 26.5275 5.09633 26.5275H7.38571C7.82869 26.5275 8.12413 26.2302 8.12413 25.7845C8.12379 25.3388 7.8287 25.0415 7.38538 25.0415H7.38537Z" fill="#2F4050"/>
    <path d="M7.38537 31.7285H5.09633C4.65335 31.7285 4.35791 32.0258 4.35791 32.4715C4.35791 32.9172 4.65334 33.2145 5.09633 33.2145H7.38571C7.82869 33.2145 8.12413 32.9172 8.12413 32.4715C8.12379 32.1 7.8287 31.7285 7.38538 31.7285H7.38537Z" fill="#CF5555"/>
    <path d="M7.38537 38.4902H5.09633C4.65335 38.4902 4.35791 38.7875 4.35791 39.2332C4.35791 39.679 4.65334 39.9762 5.09633 39.9762H7.38571C7.82869 39.9762 8.12413 39.679 8.12413 39.2332C8.12379 38.7875 7.8287 38.4902 7.38538 38.4902H7.38537Z" fill="#2F4050"/>
</svg>
