<svg width="48" height="48" viewBox="0 0 48 48" fill="none" xmlns="http://www.w3.org/2000/svg">
    <path d="M17.8928 33.9333C18.8732 33.9333 19.8532 33.5634 20.6033 32.8136C22.0936 31.3239 22.0936 28.8944 20.6033 27.4048C19.1131 25.9152 16.6826 25.9152 15.1924 27.4048C13.7021 28.8944 13.7021 31.3239 15.1924 32.8136C15.9325 33.5533 16.9129 33.9333 17.8928 33.9333ZM16.6027 28.8145C17.3126 28.1048 18.473 28.1048 19.183 28.8145C19.8929 29.5242 19.8929 30.6841 19.183 31.3938C18.473 32.1034 17.3126 32.1034 16.6027 31.3938C15.8826 30.6841 15.8826 29.5242 16.6027 28.8145Z" fill="#CF5555"/>
    <path d="M27.4646 34.8735C26.9346 35.0434 26.6445 35.6033 26.8145 36.1334C26.9447 36.5632 27.3445 36.8335 27.7647 36.8335C27.8648 36.8335 27.9648 36.8235 28.0649 36.7837C33.6559 35.0141 37.4167 29.8753 37.4167 24.0063C37.4167 16.6179 31.3954 10.5991 24.004 10.5991C17.7926 10.5991 12.4313 14.8082 10.961 20.8371C10.8308 21.3769 11.1611 21.9166 11.6911 22.0468C12.2311 22.1769 12.7711 21.8468 12.9013 21.307C14.1517 16.1782 18.7125 12.5988 24.0035 12.5988C30.2948 12.5988 35.4155 17.7176 35.4155 24.0061C35.4155 28.9947 32.2148 33.3636 27.464 34.8735L27.4646 34.8735Z" fill="#2F4050"/>
    <path d="M47.1291 19.5458L41.0082 18.806C40.6683 17.7063 40.2279 16.6464 39.6979 15.6468L43.5085 10.8079C43.8187 10.4079 43.7886 9.83798 43.4286 9.47813L38.5375 4.58903C38.1775 4.22917 37.6073 4.19905 37.2172 4.50911L32.3663 8.30814C31.3562 7.7784 30.2959 7.3382 29.1957 7.00845L28.4657 0.889606C28.3954 0.379947 27.9755 0 27.4652 0H20.5439C20.0336 0 19.6137 0.379946 19.5539 0.879975L18.8133 6.99839C17.7132 7.32812 16.6529 7.76832 15.6528 8.29809L10.8019 4.49905C10.4017 4.18899 9.83158 4.21911 9.48166 4.57897L4.59056 9.46807C4.23056 9.82793 4.20042 10.3978 4.51061 10.7878L8.3112 15.6367C7.78124 16.6364 7.34086 17.6963 7.01097 18.7959L0.889627 19.5357C0.339573 19.6056 -0.0505699 20.1056 0.0193335 20.6454C0.0892412 21.1952 0.58948 21.5852 1.12945 21.5153L7.91093 20.6956C8.32116 20.6458 8.65103 20.3558 8.76113 19.9558C9.12114 18.5762 9.67119 17.2565 10.3816 16.0367C10.5917 15.6869 10.5515 15.2371 10.3016 14.917L6.64087 10.248L10.2816 6.60878L14.9524 10.268C15.2727 10.5178 15.7227 10.548 16.0726 10.3479C17.2929 9.63827 18.6132 9.09806 19.9934 8.72817C20.3935 8.62817 20.6836 8.28839 20.7335 7.87832L21.4338 1.99964H26.5848L27.2851 7.89835C27.3349 8.30842 27.625 8.6482 28.0252 8.74821C29.4154 9.10807 30.7357 9.6579 31.956 10.368C32.306 10.578 32.756 10.5379 33.0762 10.2881L37.7471 6.62881L41.3878 10.268L37.7169 14.937C37.467 15.2571 37.4369 15.7069 37.637 16.0668C38.347 17.2765 38.8975 18.5863 39.2574 19.9859C39.3575 20.3859 39.6974 20.6759 40.1076 20.7257L46.0087 21.4354V26.5842L40.1076 27.2843C39.6974 27.3341 39.3675 27.6241 39.2574 28.0241C38.8874 29.4237 38.3474 30.7436 37.637 31.9432C37.4269 32.293 37.457 32.7429 37.7169 33.073L41.3878 37.742L37.7471 41.3812L33.0762 37.7119C32.7559 37.4621 32.3059 37.4219 31.9459 37.632C30.7357 38.3416 29.4154 38.8919 28.0252 39.2517C27.625 39.3517 27.3349 39.6915 27.2851 40.1016L26.4751 46.8803C26.4052 47.4301 26.805 47.9302 27.3454 47.99C27.3856 47.99 27.4253 48 27.4655 48C27.9658 48 28.3957 47.6301 28.4555 47.12L29.1856 40.9915C30.2957 40.6518 31.3561 40.2116 32.3562 39.6818L37.197 43.4909C37.5972 43.8009 38.1673 43.7708 38.5273 43.411L43.4184 38.5219C43.7784 38.162 43.8086 37.5921 43.4984 37.1921L39.6877 32.3532C40.2277 31.3536 40.6681 30.2936 40.998 29.1839L47.1194 28.4542C47.6196 28.3943 47.9997 27.9642 47.9997 27.4646V20.5461C48.0093 20.0255 47.6292 19.6058 47.129 19.5456L47.1291 19.5458Z" fill="#2F4050"/>
    <path d="M9.44177 26.3748C8.63176 26.1547 7.79165 26.025 6.94141 26.025C6.8916 26.025 6.84136 26.035 6.79155 26.035C4.33095 26.0848 2.03066 27.0547 0.290094 28.7846C0.100048 28.9741 0 29.224 0 29.4938C0 29.7637 0.110089 30.0135 0.290094 30.2035L5.57127 35.4825C5.50136 35.8223 5.42141 36.1625 5.37117 36.5123C5.33098 36.7621 5.39126 37.0124 5.53108 37.222C4.69093 37.3818 3.8905 37.7919 3.24044 38.4418C1.73006 39.9515 0.93008 45.0602 0.789909 46.0704C0.749722 46.3804 0.849771 46.7001 1.06996 46.9202C1.26001 47.1102 1.50993 47.2102 1.77993 47.2102C1.82974 47.2102 1.86993 47.2102 1.92016 47.2002C2.93027 47.06 8.04151 46.2604 9.55188 44.7506C10.1919 44.1108 10.6122 43.3108 10.7722 42.4412C10.9421 42.5513 11.1221 42.6312 11.3323 42.6312C11.3821 42.6312 11.4323 42.6312 11.4821 42.6211C11.8321 42.5714 12.1724 42.491 12.5123 42.4211L17.7935 47.7001C17.9936 47.9002 18.2435 47.9901 18.5035 47.9901C18.7634 47.9901 19.0138 47.8901 19.2134 47.7001C20.2637 46.6503 21.024 45.3907 21.484 44.0208C21.4941 43.9906 21.5041 43.9509 21.5242 43.9208C21.6042 43.681 21.6645 43.4308 21.7243 43.191C21.7444 43.1211 21.7645 43.0508 21.7741 42.9709C21.8143 42.7608 21.844 42.5412 21.8742 42.3211C21.8842 42.2211 21.9144 42.111 21.924 42.011C21.9341 41.8909 21.9341 41.7612 21.9441 41.6411C21.9541 41.4411 21.9742 41.2511 21.9742 41.0511C21.9742 40.1213 21.834 39.1916 21.5443 38.2818C21.5142 38.2019 21.4845 38.1119 21.4543 38.032C21.7344 37.7822 22.0245 37.532 22.2945 37.2621C22.4347 37.1219 22.5745 36.9721 22.7047 36.8323C23.3649 36.1323 23.9748 35.3628 24.5153 34.5727C26.1256 32.2232 27.1759 29.5339 27.6561 26.5843C27.9462 24.7946 28.0061 22.9351 27.8462 21.0755C27.806 20.5956 27.4163 20.2056 26.9361 20.1658C25.0759 20.006 23.2155 20.0658 21.4251 20.3558C18.4743 20.8257 15.7939 21.8856 13.4334 23.4853C12.6431 24.0151 11.903 24.6051 11.1628 25.2951C10.7329 25.6952 10.3327 26.1149 9.95258 26.545C9.79225 26.4747 9.61183 26.4245 9.44188 26.3747L9.44177 26.3748ZM2.46054 29.534C3.02065 29.1042 3.64064 28.7841 4.30077 28.5343C4.42091 28.4845 4.54064 28.4343 4.67082 28.3942C4.97097 28.2942 5.27111 28.2243 5.58088 28.164C5.69097 28.1439 5.81111 28.1238 5.93084 28.1042C6.27075 28.0544 6.61109 28.0243 6.96104 28.0142C7.52115 28.0142 8.10138 28.0941 8.66142 28.2243C7.60108 29.7441 6.76097 31.4136 6.17113 33.2234L2.46054 29.534ZM8.14155 43.3311C7.52158 43.9509 5.09111 44.6007 3.00054 44.9906C3.39069 42.9009 4.04079 40.4714 4.66074 39.8517C5.62103 38.8918 7.17117 38.8918 8.13147 39.8417L8.15157 39.8618C8.61162 40.3217 8.86153 40.9414 8.86153 41.5916C8.86153 42.241 8.61162 42.8612 8.14151 43.331L8.14155 43.3311ZM19.8836 42.1214C19.8735 42.2013 19.8534 42.2913 19.8434 42.3712C19.7835 42.701 19.7031 43.0311 19.6035 43.3512C19.5734 43.4512 19.5236 43.5512 19.4834 43.6512C19.2335 44.3212 18.9032 44.961 18.4632 45.5309L14.7623 41.8315C16.5628 41.2415 18.243 40.4117 19.7634 39.3518C19.8936 39.9117 19.9736 40.4716 19.9736 41.0315C19.9736 41.4014 19.9334 41.7612 19.8836 42.1215L19.8836 42.1214ZM23.4644 22.1252C23.6544 22.1152 23.8445 22.0951 24.0345 22.085C24.6545 22.0549 25.2849 22.0449 25.9149 22.075C25.9451 22.7047 25.935 23.3349 25.9049 23.9647C25.8948 24.1446 25.8848 24.3246 25.8647 24.5145C25.8446 24.7346 25.8149 24.9443 25.7948 25.1644C25.1145 24.9146 24.5046 24.5246 23.9842 24.0045C23.4643 23.4848 23.0742 22.8747 22.8239 22.1947C23.0441 22.1654 23.2542 22.1352 23.4643 22.1252H23.4644ZM12.5422 26.7443C13.2023 26.1347 13.8624 25.6045 14.5724 25.1246C16.4326 23.855 18.5434 22.9951 20.8336 22.5052C21.1634 23.6049 21.7537 24.5949 22.5737 25.4146C23.3938 26.2343 24.3942 26.8243 25.4843 27.164C25.0042 29.4538 24.1338 31.5631 22.8638 33.4328C22.3837 34.1424 21.8437 34.8224 21.2534 35.4522C21.1333 35.5823 21.0136 35.712 20.8834 35.8321C18.4329 38.2817 15.2522 39.9111 11.6714 40.5613L9.55118 38.4419C9.55118 38.4419 9.55118 38.4319 9.54113 38.4319C9.54113 38.4319 9.53109 38.4319 9.53109 38.4218L7.41083 36.3025C8.11118 32.5532 9.87187 29.2437 12.5422 26.7444L12.5422 26.7443Z" fill="#CF5555"/>
</svg>
