<svg width="48" height="48" viewBox="0 0 48 48" fill="none" xmlns="http://www.w3.org/2000/svg">
    <path d="M14.9287 28.7358H8.88136C8.57128 28.7358 8.31445 28.9928 8.31445 29.3022V44.4059C8.31445 44.7157 8.57163 44.9723 8.88136 44.9723H14.9287C15.2388 44.9723 15.4956 44.7153 15.4956 44.4059V29.3022C15.4956 28.9851 15.2384 28.7358 14.9287 28.7358ZM14.3614 43.8396H9.44795V29.8688H14.3614V43.8396Z" fill="#2F4050"/>
    <path d="M12.6609 10.9891H21.732C22.0421 10.9891 22.2989 10.7322 22.2989 10.4227C22.2992 5.1139 17.9753 0.794434 12.6611 0.794434C12.3511 0.794434 12.0942 1.05136 12.0942 1.36078V10.423C12.0942 10.7331 12.3438 10.9897 12.6611 10.9897L12.6609 10.9891ZM13.2278 1.94197C17.4686 2.22149 20.8623 5.61955 21.1498 9.85625H13.2278V1.94197Z" fill="#CF5555"/>
    <path d="M18.7086 12.8768H10.2047V4.38129C10.2047 4.07152 9.94749 3.81494 9.63776 3.81494C4.32372 3.81494 0 8.13432 0 13.4432C0 18.7521 4.32398 23.0715 9.63776 23.0715C12.2155 23.0715 14.6345 22.0671 16.4486 20.2471C18.2704 18.4271 19.2758 16.0104 19.2758 13.443C19.2754 13.1335 19.0259 12.8766 18.7085 12.8766L18.7086 12.8768ZM15.6472 19.447C14.0446 21.0556 11.9131 21.9391 9.63778 21.9391C4.9512 21.9391 1.13388 18.1255 1.13388 13.4435C1.13388 8.95032 4.64874 5.25734 9.0709 4.96292V13.4435C9.0709 13.7533 9.32808 14.0099 9.63781 14.0099H18.1268C17.9907 16.0639 17.1214 17.9743 15.6472 19.447L15.6472 19.447Z" fill="#2F4050"/>
    <path d="M47.5696 33.2813L45.3924 32.7375C45.1505 31.8012 44.7802 30.9099 44.2888 30.0793L45.4452 28.1536C45.5813 27.9345 45.5434 27.6477 45.362 27.4589L43.2228 25.3218C43.0415 25.1407 42.7541 25.1028 42.5275 25.2387L40.5999 26.394C39.7685 25.9031 38.8688 25.5331 37.939 25.2915L37.3947 23.1164C37.3342 22.8672 37.1076 22.686 36.8428 22.686H33.8192C33.5621 22.686 33.3355 22.8599 33.2673 23.1164L32.723 25.2915C31.7858 25.5331 30.8936 25.903 30.0622 26.394L28.1345 25.2387C27.9153 25.1028 27.6282 25.1407 27.4392 25.3218L25.3 27.4589C25.1187 27.6401 25.0807 27.9272 25.2168 28.1536L26.3732 30.0793C25.8818 30.9175 25.5115 31.8086 25.2696 32.7375L23.0925 33.2813C22.8429 33.3418 22.6616 33.5681 22.6616 33.8327V36.8533C22.6616 37.1102 22.8356 37.3365 23.0925 37.4047L25.2696 37.9484C25.5115 38.8774 25.8818 39.7684 26.3732 40.6067L25.2168 42.5324C25.0807 42.7514 25.1187 43.0383 25.3 43.227L27.4392 45.3642C27.6205 45.5453 27.908 45.5832 28.1345 45.4473L30.0622 44.292C30.8936 44.7829 31.7855 45.1528 32.723 45.3945L33.2673 47.5695C33.3279 47.8188 33.5544 47.9999 33.8192 47.9999H36.8428C37.1 47.9999 37.3265 47.8261 37.3947 47.5695L37.939 45.3945C38.8689 45.1529 39.7685 44.7829 40.5999 44.292L41.5673 44.8737C41.8394 45.0322 42.1871 44.9491 42.3458 44.6772C42.5045 44.4053 42.4213 44.058 42.1492 43.8995L40.8869 43.1444C40.7056 43.031 40.4711 43.0387 40.2898 43.152C39.3825 43.7337 38.3924 44.1411 37.3491 44.3754C37.1375 44.4206 36.9711 44.5868 36.9259 44.7909L36.4042 46.8675H34.265L33.7433 44.7909C33.6904 44.5795 33.5241 44.421 33.3202 44.3754C32.2768 44.1415 31.2868 43.7337 30.3795 43.152C30.1982 43.0387 29.9713 43.031 29.7823 43.1444L27.9379 44.2468L26.4261 42.7366L27.5296 40.8939C27.6431 40.7128 27.6354 40.4785 27.522 40.2973C26.9398 39.3836 26.5319 38.4019 26.2974 37.3595C26.2521 37.1482 26.0934 36.982 25.8815 36.9291L23.8028 36.408V34.2709L25.8815 33.7497C26.0931 33.6969 26.2518 33.5307 26.2974 33.3193C26.5316 32.277 26.9398 31.2879 27.522 30.3815C27.6354 30.2004 27.6431 29.9737 27.5296 29.7849L26.4261 27.9423L27.9379 26.432L29.7823 27.5345C29.9636 27.6478 30.1982 27.6402 30.3795 27.5268C31.2868 26.9452 32.2768 26.5377 33.3202 26.3034C33.5317 26.2582 33.6981 26.092 33.7433 25.8879L34.265 23.8113H36.4042L36.9259 25.8879C36.9788 26.0993 37.1451 26.2579 37.3491 26.3034C38.3924 26.5374 39.3825 26.9452 40.2898 27.5268C40.4711 27.6402 40.7056 27.6478 40.8869 27.5345L42.7237 26.432L44.2355 27.9423L43.1319 29.7849C43.0185 29.966 43.0261 30.2004 43.1396 30.3815C43.7218 31.2879 44.1296 32.277 44.3642 33.3193C44.4094 33.5307 44.5758 33.6969 44.7801 33.7421L46.8587 34.2632V36.4003L44.7801 36.9215C44.5685 36.9743 44.4098 37.1405 44.3642 37.3443C44.13 38.3866 43.7218 39.3756 43.1396 40.282C43.0261 40.4632 43.0185 40.6899 43.1319 40.8786L44.2355 42.7213L43.2454 43.7103C43.0262 43.9294 43.0262 44.292 43.2454 44.5107C43.4647 44.7297 43.8276 44.7297 44.0465 44.5107L45.3544 43.2041C45.5357 43.023 45.5736 42.7358 45.4375 42.5095L44.2887 40.6067C44.7801 39.7761 45.1504 38.8774 45.3923 37.9485L47.5695 37.4047C47.819 37.3442 48.0003 37.1179 48.0003 36.8533V33.8327C48.0003 33.5758 47.819 33.3418 47.5695 33.2813L47.5696 33.2813Z" fill="#CF5555"/>
    <path d="M35.3379 29.4907C32.1101 29.4907 29.4795 32.1187 29.4795 35.3434C29.4795 38.5679 32.1101 41.196 35.3379 41.196C38.5656 41.196 41.1963 38.568 41.1963 35.3434C41.1963 32.1188 38.5657 29.4907 35.3379 29.4907ZM35.3379 40.0633C32.7299 40.0633 30.6133 37.9488 30.6133 35.3434C30.6133 32.7381 32.7299 30.6235 35.3379 30.6235C37.9458 30.6235 40.0624 32.7381 40.0624 35.3434C40.0624 37.9488 37.9458 40.0633 35.3379 40.0633Z" fill="#CF5555"/>
    <path d="M23.9996 43.8389H18.5191V22.3164H23.4326V26.3791C23.4326 26.6889 23.6898 26.9455 23.9995 26.9455C24.3096 26.9455 24.5664 26.6886 24.5664 26.3791V21.7499C24.5664 21.4402 24.3092 21.1836 23.9995 21.1836H17.9522C17.6421 21.1836 17.3853 21.4405 17.3853 21.7499V44.4055C17.3853 44.7153 17.6424 44.9719 17.9522 44.9719H23.9995C24.3096 44.9719 24.5664 44.715 24.5664 44.4055C24.5664 44.0958 24.3096 43.8388 23.9995 43.8388L23.9996 43.8389Z" fill="#2F4050"/>
    <path d="M27.0231 23.9253C27.3332 23.9253 27.59 23.6684 27.59 23.359L27.5904 14.765H32.5039V20.9952C32.5039 21.3049 32.7611 21.5615 33.0708 21.5615C33.3809 21.5615 33.6377 21.3046 33.6377 20.9952V14.1987C33.6377 13.8889 33.3805 13.6323 33.0708 13.6323H27.0235C26.7134 13.6323 26.4565 13.8892 26.4565 14.1987V23.3588C26.4562 23.6682 26.7057 23.9252 27.0231 23.9252L27.0231 23.9253Z" fill="#2F4050"/>
    <path d="M33.0706 7.96844H35.5272V20.9948C35.5272 21.3046 35.7843 21.5612 36.0941 21.5612C36.4041 21.5612 36.661 21.3043 36.661 20.9948V7.40149C36.661 7.09172 36.4038 6.83514 36.0941 6.83514H34.3252L39.118 1.40528L43.9104 6.83514L42.1418 6.8348C41.8317 6.8348 41.5749 7.09172 41.5749 7.40114V23.4937C41.5749 23.8035 41.832 24.06 42.1418 24.06C42.4518 24.06 42.7087 23.8031 42.7087 23.4937V7.9672H45.1652C45.3845 7.9672 45.5884 7.83891 45.6792 7.63483C45.7701 7.43109 45.7321 7.19677 45.5884 7.03058L39.5411 0.181218C39.3218 -0.060406 38.906 -0.060406 38.6871 0.181218L32.6397 7.03058C32.4887 7.19677 32.4584 7.43839 32.5489 7.63483C32.6397 7.83126 32.844 7.9672 33.0706 7.9672L33.0706 7.96844Z" fill="#2F4050"/>
</svg>
