<svg width="40" height="40" viewBox="0 0 40 40" fill="none" xmlns="http://www.w3.org/2000/svg">
    <g clip-path="url(#clip0_54_94)">
        <path d="M4.5319 26.9456C3.99874 26.8098 3.44003 26.8098 2.90687 26.9456C1.6087 23.7408 1.23862 20.2356 1.83892 16.8305C2.43921 13.4254 3.98566 10.2578 6.3016 7.68945C8.61754 5.1211 11.6096 3.25564 14.9359 2.30619C18.2622 1.35674 21.7886 1.36158 25.1123 2.32016C26.2983 2.65989 27.4478 3.11609 28.544 3.68208C28.7255 3.75317 28.927 3.75441 29.1094 3.68557C29.2918 3.61673 29.4421 3.4827 29.5313 3.30943C29.6205 3.13615 29.6422 2.93597 29.5922 2.74763C29.5422 2.55928 29.424 2.39618 29.2606 2.2899C28.0546 1.66392 26.7903 1.15711 25.4857 0.776659C21.8738 -0.254718 18.0443 -0.24831 14.4359 0.79515C10.8276 1.83861 7.58622 3.87692 5.08329 6.67654C2.58037 9.47617 0.917104 12.9239 0.284047 16.6247C-0.349011 20.3255 0.0737492 24.1296 1.50389 27.6014C0.88272 28.1278 0.47966 28.8663 0.373119 29.6733C0.266578 30.4802 0.464173 31.298 0.927467 31.9674C1.39076 32.6368 2.08663 33.1101 2.8797 33.2951C3.67277 33.4801 4.50634 33.3636 5.21825 32.9683C5.59553 32.7599 5.928 32.4791 6.19664 32.1421C6.46528 31.8051 6.66484 31.4185 6.78389 31.0044C6.90294 30.5903 6.93915 30.1567 6.89046 29.7286C6.84177 29.3005 6.70912 28.8862 6.50011 28.5093C6.07529 27.7497 5.36817 27.1879 4.5319 26.9456ZM4.46125 31.6064C4.26409 31.7165 4.04703 31.7864 3.82265 31.812C3.59827 31.8375 3.37104 31.8183 3.15414 31.7555C2.93725 31.6926 2.735 31.5873 2.55914 31.4457C2.38328 31.3041 2.2373 31.1289 2.12968 30.9305C2.02265 30.7329 1.95754 30.5153 1.93844 30.2914C1.91934 30.0675 1.94664 29.842 2.01865 29.6291C2.08036 29.4148 2.18453 29.2151 2.32498 29.0418C2.46542 28.8685 2.63927 28.7251 2.83622 28.6203C3.13683 28.4488 3.48231 28.3722 3.82727 28.4006C4.17223 28.4289 4.50056 28.5609 4.76912 28.7791C5.03769 28.9973 5.23394 29.2916 5.33211 29.6234C5.43028 29.9551 5.42577 30.3088 5.31918 30.6379C5.25593 30.8516 5.15116 31.0506 5.01088 31.2237C4.87059 31.3968 4.69754 31.5406 4.50162 31.6468L4.46125 31.6064ZM38.4961 12.3983C39.0725 11.9052 39.4608 11.2281 39.5951 10.4817C39.7293 9.73531 39.6014 8.96545 39.2329 8.30251C39.0252 7.92429 38.7441 7.59121 38.4062 7.32274C38.0683 7.05426 37.6802 6.85576 37.2647 6.73883C36.4235 6.51463 35.5278 6.63061 34.7716 7.06165C34.3881 7.27363 34.0522 7.5621 33.7848 7.90918C33.5175 8.25625 33.3243 8.65453 33.2172 9.07931C33.0715 9.62263 33.0686 10.1943 33.2087 10.7391C33.3487 11.2839 33.6271 11.7834 34.0169 12.1892C34.4066 12.595 34.8945 12.8933 35.4334 13.0555C35.9724 13.2176 36.544 13.238 37.0931 13.1146C38.4915 16.6027 38.7904 20.4345 37.9499 24.097C37.1093 27.7596 35.1694 31.0781 32.3898 33.6082C29.6103 36.1384 26.1237 37.7596 22.3969 38.2546C18.6701 38.7496 14.881 38.0949 11.5367 36.3782C11.4459 36.3311 11.3467 36.3024 11.2448 36.2937C11.1429 36.285 11.0403 36.2964 10.9429 36.3273C10.8454 36.3582 10.755 36.4081 10.6767 36.4739C10.5985 36.5397 10.534 36.6203 10.487 36.7111C10.4399 36.8018 10.4112 36.901 10.4025 37.0028C10.3938 37.1046 10.4052 37.2072 10.4361 37.3046C10.4671 37.402 10.5169 37.4924 10.5828 37.5706C10.6486 37.6488 10.7293 37.7132 10.8201 37.7603C14.4578 39.6415 18.5858 40.3607 22.6458 39.8207C26.7058 39.2807 30.5019 37.5076 33.5209 34.7411C36.5399 31.9745 38.636 28.3481 39.5258 24.3521C40.4156 20.3562 40.0561 16.1835 38.4961 12.3983ZM34.8625 10.7338C34.6421 10.3333 34.5878 9.86242 34.7111 9.42231C34.8455 8.99445 35.1378 8.63377 35.5286 8.41348C35.7259 8.30277 35.9432 8.23216 36.1679 8.20572C36.3927 8.17928 36.6204 8.19753 36.8381 8.25941C37.0557 8.3213 37.259 8.4256 37.4361 8.56631C37.6133 8.70702 37.7608 8.88137 37.8703 9.07931C38.0913 9.47822 38.1452 9.94836 38.0204 10.3869C37.8956 10.8255 37.6021 11.1969 37.2041 11.4198C36.8034 11.64 36.3323 11.6943 35.892 11.5711C35.4639 11.4367 35.103 11.1446 34.8826 10.754L34.8625 10.7338Z" fill="#D7E5EA"/>
        <path d="M13.2121 32.0301C13.1749 32.1312 13.1594 32.239 13.1667 32.3465C13.1739 32.454 13.2038 32.5587 13.2542 32.6539C13.3047 32.7491 13.3747 32.8326 13.4596 32.8989C13.5445 32.9653 13.6425 33.013 13.7471 33.0389L18.4405 34.3C18.5418 34.334 18.649 34.3471 18.7555 34.3384C18.862 34.3297 18.9657 34.2994 19.0601 34.2494C19.1545 34.1994 19.2378 34.1307 19.3048 34.0474C19.3718 33.9642 19.4211 33.8682 19.4498 33.7653L19.8636 32.3126C20.9246 32.3282 21.9832 32.2061 23.0128 31.9494L23.7092 33.2911C23.7587 33.3808 23.8254 33.4598 23.9056 33.5235C23.9857 33.5873 24.0777 33.6346 24.1761 33.6627C24.2746 33.6909 24.3777 33.6992 24.4795 33.6874C24.5812 33.6756 24.6796 33.6438 24.769 33.5938L29.0385 31.2735C29.1292 31.225 29.2092 31.1589 29.2738 31.0789C29.3383 30.9989 29.3862 30.9068 29.4144 30.808C29.4427 30.7092 29.4508 30.6057 29.4382 30.5037C29.4256 30.4017 29.3927 30.3032 29.3413 30.2142L28.6146 28.8927C29.3749 28.1499 30.0364 27.3125 30.5828 26.4009L32.0362 26.8145C32.1375 26.8485 32.2447 26.8616 32.3512 26.8529C32.4578 26.8442 32.5614 26.8139 32.6558 26.7639C32.7503 26.7139 32.8335 26.6452 32.9005 26.5619C32.9675 26.4787 33.0169 26.3827 33.0456 26.2798L34.3173 21.5484C34.3512 21.4465 34.3639 21.3387 34.3546 21.2317C34.3452 21.1247 34.3141 21.0207 34.263 20.9262C34.2119 20.8317 34.1421 20.7487 34.0577 20.6822C33.9733 20.6157 33.8762 20.5671 33.7723 20.5396L32.3592 20.1764C32.3698 19.1162 32.2477 18.0588 31.9959 17.0289L33.308 16.3025C33.4898 16.1995 33.624 16.0292 33.6814 15.8284C33.7342 15.6282 33.7089 15.4154 33.6108 15.2331L31.2893 10.9557C31.1874 10.774 31.0175 10.6401 30.817 10.5833C30.6164 10.5266 30.4015 10.5517 30.2194 10.6531L28.9073 11.3794C28.1699 10.6173 27.335 9.95588 26.4243 9.41221L26.8382 7.96959C26.8722 7.86834 26.8853 7.76121 26.8766 7.65474C26.8679 7.54827 26.8376 7.44468 26.7876 7.35029C26.7375 7.2559 26.6687 7.17269 26.5855 7.10572C26.5022 7.03875 26.4062 6.98943 26.3032 6.96076L21.5492 5.65938C21.4473 5.62392 21.3391 5.61007 21.2316 5.6187C21.124 5.62733 21.0194 5.65825 20.9245 5.7095C20.8295 5.76075 20.7463 5.83119 20.6801 5.91635C20.6139 6.00152 20.5661 6.09953 20.5399 6.20414L20.1866 7.64677C19.1261 7.62784 18.0675 7.74653 17.0375 7.99986L16.3007 6.69847C16.2521 6.60798 16.186 6.52803 16.1062 6.46324C16.0265 6.39846 15.9346 6.35013 15.8361 6.32104C15.7375 6.29196 15.6342 6.2827 15.532 6.2938C15.4298 6.30491 15.3309 6.33615 15.2409 6.38573L10.9613 8.75648C10.7794 8.85949 10.6453 9.02976 10.5878 9.23062C10.5351 9.43081 10.5604 9.64354 10.6585 9.82583L11.3852 11.1373C10.6221 11.8738 9.96026 12.7083 9.41701 13.619L7.96356 13.2054C7.86549 13.1763 7.76257 13.1671 7.66088 13.1783C7.55919 13.1895 7.46077 13.221 7.37142 13.2708C7.28207 13.3206 7.2036 13.3878 7.14062 13.4684C7.07764 13.549 7.03142 13.6414 7.0047 13.7401L5.65218 18.4311C5.59946 18.6313 5.62471 18.844 5.72284 19.0263C5.82591 19.2081 5.99626 19.3421 6.19723 19.3996L7.64058 19.8132C7.62999 20.8768 7.75205 21.9375 8.00394 22.9708L6.68171 23.6972C6.50186 23.801 6.3696 23.9707 6.31306 24.1704C6.25651 24.3701 6.28013 24.584 6.37891 24.7666L8.75085 29.0339C8.80065 29.1238 8.86849 29.2025 8.95012 29.265C9.03175 29.3275 9.12541 29.3724 9.22524 29.3971C9.42552 29.4498 9.63836 29.4245 9.82074 29.3265L11.1329 28.59C11.8727 29.3565 12.7111 30.0214 13.6259 30.5673L13.2121 32.0301ZM11.8798 27.107C11.7657 26.9702 11.607 26.878 11.4316 26.8467C11.2562 26.8153 11.0754 26.8468 10.9209 26.9355L9.74 27.5913L8.12506 24.6859L9.30598 24.0301C9.46283 23.9447 9.58495 23.8073 9.65128 23.6416C9.71761 23.4758 9.724 23.2921 9.66934 23.1222C9.29103 21.8816 9.14056 20.5828 9.22524 19.2886C9.2389 19.1095 9.19005 18.9312 9.08699 18.7841C8.98394 18.6369 8.83305 18.53 8.66001 18.4816L7.36806 18.1587L8.28655 14.9608L9.5785 15.334C9.74952 15.3824 9.93197 15.3708 10.0954 15.301C10.2589 15.2313 10.3935 15.1076 10.4768 14.9507C11.0882 13.8052 11.9021 12.7798 12.879 11.9242C13.0251 11.8054 13.1229 11.6376 13.1545 11.452C13.1861 11.2665 13.1492 11.0758 13.0506 10.9154L12.4046 9.74513L15.3115 8.131L15.9575 9.30124C16.0429 9.45801 16.1804 9.58007 16.3463 9.64637C16.5121 9.71267 16.6959 9.71905 16.8659 9.66442C18.1111 9.28914 19.4139 9.14217 20.7115 9.23062C20.8886 9.24002 21.0638 9.18934 21.2085 9.0868C21.3532 8.98426 21.4591 8.83587 21.5089 8.66568L21.8722 7.37438L25.0718 8.29242L24.7085 9.57363C24.6574 9.74595 24.6678 9.93062 24.7377 10.0962C24.8077 10.2617 24.9329 10.3979 25.092 10.4816C26.2389 11.0913 27.265 11.905 28.12 12.8826C28.2366 13.0161 28.3958 13.1051 28.5706 13.1345C28.7454 13.164 28.925 13.132 29.0789 13.044L30.28 12.3983L31.8949 15.3038L30.7241 15.9494C30.5672 16.0348 30.4451 16.1722 30.3788 16.338C30.3125 16.5037 30.3061 16.6874 30.3607 16.8574C30.7347 18.1023 30.885 19.4036 30.8048 20.701C30.7936 20.8784 30.8436 21.0544 30.9464 21.1994C31.0493 21.3444 31.1988 21.4498 31.3701 21.498L32.6519 21.8712L31.7435 25.0591L30.4516 24.6959C30.2806 24.6475 30.0981 24.6592 29.9346 24.7289C29.7712 24.7987 29.6366 24.9224 29.5533 25.0793C28.9415 26.2274 28.1238 27.2532 27.141 28.1058C26.9983 28.2272 26.9037 28.3955 26.8741 28.5804C26.8445 28.7653 26.8819 28.9547 26.9795 29.1146L27.5952 30.2647L24.6984 31.8788L24.0423 30.7086C23.957 30.5513 23.8201 30.4283 23.6546 30.3603C23.4891 30.2923 23.3052 30.2835 23.1339 30.3353C21.8893 30.714 20.5865 30.8644 19.2883 30.7792C19.1108 30.7679 18.9348 30.8179 18.7897 30.9207C18.6445 31.0235 18.5391 31.173 18.4909 31.3441L18.168 32.6152L14.9785 31.7073L15.3418 30.4059C15.3902 30.235 15.3786 30.0526 15.3088 29.8892C15.239 29.7258 15.1153 29.5913 14.9583 29.508C13.8139 28.8944 12.7884 28.0813 11.9303 27.107H11.8798Z" fill="#D7E5EA"/>
        <path d="M26.2428 21.7706C26.5872 20.5432 26.5604 19.2413 26.1657 18.0292C25.771 16.817 25.0261 15.7487 24.025 14.959C23.0238 14.1692 21.8111 13.6934 20.5398 13.5914C19.2685 13.4894 17.9954 13.7658 16.8811 14.3859C15.7667 15.0059 14.8609 15.9418 14.2778 17.0755C13.6948 18.2093 13.4605 19.4902 13.6046 20.7568C13.7488 22.0234 14.2648 23.219 15.0877 24.1929C15.9106 25.1668 17.0035 25.8755 18.2287 26.2296C19.0478 26.4649 19.9054 26.5362 20.7522 26.4393C21.599 26.3423 22.4182 26.0791 23.1629 25.6648C23.9076 25.2505 24.5631 24.6931 25.0916 24.0248C25.6202 23.3565 26.0114 22.5905 26.2428 21.7706ZM15.2915 18.6533C15.5583 17.7233 16.0949 16.8931 16.8336 16.2679C17.5723 15.6426 18.4799 15.2503 19.4417 15.1405C20.4034 15.0307 21.3761 15.2083 22.2369 15.6509C23.0976 16.0936 23.8078 16.7814 24.2775 17.6273C24.7472 18.4733 24.9555 19.4394 24.876 20.4037C24.7964 21.3679 24.4327 22.2869 23.8307 23.0446C23.2286 23.8022 22.4154 24.3645 21.4937 24.6602C20.5721 24.956 19.5834 24.972 18.6526 24.7063C17.405 24.3473 16.3507 23.5086 15.7206 22.374C15.0906 21.2394 14.9363 19.9014 15.2915 18.6533ZM31.5923 5.589C31.7912 5.64582 32.0044 5.62415 32.1878 5.52847C32.2789 5.4763 32.3588 5.40666 32.4228 5.32357C32.4869 5.24047 32.534 5.14554 32.5613 5.04423C32.5895 4.94529 32.5978 4.84172 32.5857 4.73954C32.5736 4.63736 32.5412 4.53861 32.4906 4.44902C32.4416 4.35934 32.3753 4.2802 32.2957 4.21615C32.216 4.1521 32.1245 4.10439 32.0263 4.07576C31.826 4.02305 31.6132 4.04829 31.4308 4.14637C31.249 4.24939 31.1148 4.41966 31.0574 4.62052C31.0042 4.81735 31.0295 5.02711 31.128 5.20564C31.177 5.29533 31.2433 5.37446 31.3229 5.43851C31.4026 5.50257 31.4942 5.55028 31.5923 5.57891V5.589ZM8.42803 34.4314C8.32911 34.4026 8.2254 34.394 8.12309 34.4061C8.02077 34.4182 7.92195 34.4508 7.83252 34.502C7.7421 34.5501 7.66239 34.616 7.59819 34.6957C7.534 34.7755 7.48667 34.8675 7.45907 34.966C7.40634 35.1662 7.43159 35.379 7.52972 35.5613C7.63279 35.743 7.80314 35.8771 8.00411 35.9345C8.20103 35.9877 8.41091 35.9624 8.58953 35.8639C8.68063 35.8142 8.7607 35.7466 8.82489 35.6651C8.88908 35.5836 8.93606 35.4899 8.96298 35.3898C8.99155 35.2925 9.00002 35.1905 8.98787 35.0899C8.97572 34.9893 8.94322 34.8923 8.89233 34.8046C8.84626 34.7128 8.78095 34.6319 8.70083 34.5675C8.62072 34.5031 8.52768 34.4567 8.42803 34.4314Z" fill="#D7E5EA"/>
        <path d="M9.6493 28.721C9.20817 28.7201 8.77404 28.8311 8.38763 29.0438C6.69523 26.87 5.64707 24.2651 5.36234 21.5255C5.07761 18.7858 5.56774 16.0212 6.77699 13.5461C7.98624 11.071 9.86608 8.98477 12.2028 7.52453C14.5394 6.0643 17.2392 5.2887 19.995 5.28595C20.9813 5.28684 21.9651 5.38483 22.9322 5.57851C23.0124 5.59705 23.0954 5.59963 23.1766 5.58609C23.2578 5.57256 23.3355 5.54317 23.4053 5.49961C23.4752 5.45605 23.5357 5.39917 23.5836 5.33222C23.6314 5.26526 23.6656 5.18955 23.6841 5.1094C23.7027 5.02925 23.7053 4.94623 23.6917 4.86508C23.6782 4.78393 23.6488 4.70625 23.6052 4.63646C23.5616 4.56667 23.5047 4.50614 23.4377 4.45833C23.3707 4.41052 23.295 4.37637 23.2148 4.35782C20.0055 3.69673 16.6704 4.0385 13.662 5.33676C10.6537 6.63501 8.11783 8.82689 6.39851 11.615C4.6792 14.403 3.85971 17.6523 4.05123 20.9218C4.24276 24.1913 5.43603 27.3228 7.46913 29.8912C7.13042 30.3934 6.97828 30.9983 7.03912 31.6008C7.09996 32.2034 7.36994 32.7657 7.80221 33.1901C8.10704 33.4919 8.48151 33.7141 8.89257 33.837C9.30364 33.96 9.73866 33.9799 10.1593 33.8951C10.5798 33.8102 10.9731 33.6232 11.3042 33.3505C11.6354 33.0778 11.8943 32.7278 12.0581 32.3314C12.222 31.9351 12.2856 31.5045 12.2436 31.0777C12.2015 30.6509 12.055 30.241 11.8169 29.8842C11.5789 29.5274 11.2566 29.2347 10.8786 29.0318C10.5006 28.8289 10.0784 28.7222 9.6493 28.721ZM10.6586 32.3124C10.5271 32.441 10.3715 32.5423 10.2006 32.6104C10.0298 32.6786 9.8471 32.7122 9.66317 32.7094C9.47924 32.7066 9.29769 32.6674 9.129 32.594C8.9603 32.5207 8.80782 32.4147 8.68033 32.2822C8.55185 32.1546 8.44989 32.003 8.38031 31.8359C8.31072 31.6688 8.2749 31.4896 8.2749 31.3086C8.2749 31.1277 8.31072 30.9485 8.38031 30.7814C8.44989 30.6143 8.55185 30.4627 8.68033 30.3351C8.94015 30.0837 9.28763 29.9431 9.6493 29.9431C10.011 29.9431 10.3584 30.0837 10.6183 30.3351C10.7467 30.4627 10.8487 30.6143 10.9183 30.7814C10.9879 30.9485 11.0237 31.1277 11.0237 31.3086C11.0237 31.4896 10.9879 31.6688 10.9183 31.8359C10.8487 32.003 10.7467 32.1546 10.6183 32.2822L10.6586 32.3124ZM32.5309 10.088C32.855 9.60111 33.0069 9.02 32.9627 8.43695C32.9185 7.85389 32.6806 7.30233 32.2868 6.86987C31.8931 6.43741 31.366 6.14885 30.7894 6.05003C30.2128 5.95121 29.6197 6.0478 29.1043 6.32445C28.5889 6.6011 28.1808 7.04195 27.9447 7.57697C27.7087 8.11199 27.6583 8.7105 27.8015 9.27743C27.9447 9.84436 28.2734 10.3472 28.7353 10.7061C29.1972 11.065 29.7658 11.2593 30.3508 11.2582C30.7887 11.2592 31.2196 11.1481 31.6024 10.9354C33.4517 13.3047 34.5312 16.183 34.6957 19.1835C34.8602 22.1841 34.1019 25.163 32.5227 27.7202C30.9435 30.2773 28.619 32.29 25.8616 33.4878C23.1043 34.6857 20.0462 35.0113 17.0982 34.4209C17.0173 34.4047 16.9341 34.4047 16.8532 34.4209C16.7723 34.437 16.6954 34.469 16.627 34.5149C16.5585 34.5609 16.4998 34.6199 16.4542 34.6886C16.4086 34.7573 16.3771 34.8343 16.3614 34.9152C16.3452 34.9947 16.3449 35.0766 16.3606 35.1562C16.3762 35.2359 16.4074 35.3116 16.4525 35.3791C16.4975 35.4466 16.5554 35.5046 16.6229 35.5496C16.6905 35.5946 16.7662 35.6259 16.8459 35.6416C17.8823 35.8519 18.9374 35.9567 19.995 35.9543C22.0923 35.9556 24.1692 35.5437 26.1071 34.7421C28.045 33.9406 29.8058 32.765 31.2888 31.2828C32.7718 29.8005 33.9479 28.0406 34.7499 26.1037C35.5519 24.1668 35.964 22.0909 35.9627 19.9946C35.9575 16.4082 34.7492 12.9272 32.5309 10.1081V10.088ZM29.3717 9.6239C29.2401 9.49194 29.1372 9.33421 29.0694 9.1606C29.0017 8.987 28.9706 8.80127 28.9781 8.61508C28.973 8.42916 29.0051 8.24411 29.0728 8.07084C29.1404 7.89757 29.242 7.7396 29.3717 7.60625C29.5635 7.41389 29.8081 7.28275 30.0745 7.22943C30.3409 7.1761 30.6172 7.203 30.8683 7.3067C31.1194 7.4104 31.334 7.58626 31.4851 7.81198C31.6361 8.03771 31.7167 8.30316 31.7167 8.57472C31.7167 8.84628 31.6361 9.11173 31.4851 9.33746C31.334 9.56319 31.1194 9.73904 30.8683 9.84274C30.6172 9.94645 30.3409 9.97334 30.0745 9.92002C29.8081 9.86669 29.5635 9.73555 29.3717 9.5432V9.6239Z" fill="#357C96"/>
        <path d="M17.421 30.7188C17.421 30.8847 17.487 31.0438 17.6043 31.1611C17.7217 31.2784 17.8809 31.3443 18.0468 31.3443H21.9429C22.1088 31.3443 22.268 31.2784 22.3854 31.1611C22.5027 31.0438 22.5687 30.8847 22.5687 30.7188V29.5082C23.3895 29.2743 24.1766 28.9352 24.9103 28.4994L25.7683 29.3569C25.8838 29.4715 26.0395 29.5367 26.2023 29.5385C26.3679 29.5362 26.5266 29.4713 26.6464 29.3569L29.4019 26.5927C29.5171 26.4757 29.5817 26.3181 29.5817 26.1539C29.5817 25.9897 29.5171 25.832 29.4019 25.715L28.554 24.8676C28.9901 24.1342 29.3294 23.3476 29.5634 22.5271H30.7645C30.9304 22.5271 31.0896 22.4612 31.207 22.3439C31.3243 22.2266 31.3903 22.0675 31.3903 21.9017V18.0479C31.3903 17.8821 31.3243 17.723 31.207 17.6057C31.0896 17.4884 30.9304 17.4225 30.7645 17.4225H29.523C29.289 16.6021 28.9497 15.8154 28.5136 15.082L29.3615 14.2346C29.476 14.1149 29.5409 13.9563 29.5432 13.7907C29.5414 13.628 29.4762 13.4724 29.3615 13.3569L26.5959 10.6028C26.5393 10.5433 26.4712 10.4959 26.3958 10.4635C26.3203 10.4311 26.239 10.4144 26.1569 10.4144C26.0747 10.4144 25.9934 10.4311 25.9179 10.4635C25.8425 10.4959 25.7744 10.5433 25.7178 10.6028L24.8699 11.4401C24.1362 11.0043 23.3491 10.6652 22.5283 10.4313V9.28123C22.5283 9.11535 22.4624 8.95626 22.345 8.83896C22.2276 8.72166 22.0685 8.65576 21.9025 8.65576H18.0468C17.8809 8.65576 17.7217 8.72166 17.6043 8.83896C17.487 8.95626 17.421 9.11535 17.421 9.28123V10.4717C16.6002 10.7055 15.8131 11.0446 15.0794 11.4805L14.2416 10.6432C14.1842 10.5833 14.1152 10.5358 14.0389 10.5033C13.9626 10.4707 13.8805 10.454 13.7975 10.454C13.7146 10.454 13.6325 10.4707 13.5561 10.5033C13.4798 10.5358 13.4109 10.5833 13.3534 10.6432L10.5979 13.3569C10.5393 13.4127 10.4928 13.4801 10.4616 13.5547C10.4303 13.6294 10.4149 13.7098 10.4162 13.7907C10.4147 13.8731 10.43 13.9551 10.4612 14.0314C10.4925 14.1077 10.539 14.1769 10.5979 14.2346L11.4458 15.082C11.0097 15.8154 10.6704 16.6021 10.4364 17.4225H9.2757C9.10973 17.4225 8.95056 17.4884 8.8332 17.6057C8.71584 17.723 8.64991 17.8821 8.64991 18.0479V21.942C8.64949 22.0243 8.66532 22.1059 8.69649 22.1821C8.72767 22.2582 8.77358 22.3275 8.83159 22.3859C8.95022 22.5021 9.10962 22.5672 9.2757 22.5675H10.4768C10.7108 23.3879 11.0501 24.1746 11.4861 24.908L10.6282 25.7554C10.5129 25.8724 10.4483 26.03 10.4483 26.1942C10.4483 26.3584 10.5129 26.5161 10.6282 26.6331L13.3938 29.3972C13.5093 29.5119 13.665 29.577 13.8278 29.5788C13.9935 29.5765 14.1521 29.5117 14.2719 29.3972L15.1198 28.5397C15.8535 28.9756 16.6406 29.3147 17.4614 29.5486L17.421 30.7188ZM15.3317 27.2384C15.2107 27.1609 15.067 27.1267 14.924 27.1414C14.781 27.156 14.6472 27.2187 14.5444 27.3191L13.7874 28.0858L11.9202 26.2295L12.6772 25.4729C12.7776 25.3702 12.8403 25.2365 12.8549 25.0936C12.8696 24.9507 12.8354 24.807 12.7579 24.686C12.1902 23.8196 11.7897 22.8547 11.577 21.8411C11.5468 21.7006 11.4691 21.5747 11.357 21.4846C11.2449 21.3946 11.1051 21.3459 10.9613 21.3468H9.89139V18.6633H10.9613C11.1042 18.6666 11.2438 18.6201 11.3561 18.5317C11.4685 18.4434 11.5466 18.3187 11.577 18.1791C11.7914 17.1629 12.1918 16.195 12.7579 15.3241C12.8346 15.2047 12.8684 15.0627 12.8537 14.9216C12.8391 14.7804 12.7768 14.6484 12.6772 14.5473L11.9202 13.7907L13.7975 11.9244L14.5444 12.6709C14.6463 12.773 14.7802 12.8367 14.9237 12.8514C15.0671 12.8661 15.2113 12.8309 15.3317 12.7516C16.1976 12.1894 17.1587 11.7894 18.168 11.5713C18.3078 11.5432 18.4335 11.4676 18.5237 11.3572C18.6139 11.2468 18.663 11.1085 18.6625 10.966V9.89662H21.3171V10.966C21.3162 11.1071 21.3638 11.2442 21.452 11.3544C21.5402 11.4646 21.6636 11.5412 21.8016 11.5713C22.8169 11.7901 23.7845 12.1899 24.658 12.7516C24.7769 12.8301 24.9193 12.865 25.061 12.8503C25.2028 12.8355 25.335 12.7722 25.4352 12.6709L26.1922 11.9244L28.0695 13.7907L27.3125 14.5473C27.2112 14.6475 27.1478 14.7796 27.1331 14.9213C27.1184 15.0629 27.1532 15.2053 27.2318 15.3241C27.7951 16.1903 28.1984 17.1504 28.4228 18.1589C28.4529 18.2968 28.5295 18.4202 28.6397 18.5083C28.75 18.5965 28.8872 18.6441 29.0284 18.6431H30.0983V21.2964H29.0284C28.8863 21.2978 28.7489 21.3475 28.6389 21.4374C28.5288 21.5272 28.4526 21.6518 28.4228 21.7907C28.2111 22.8092 27.8143 23.7803 27.252 24.6558C27.1727 24.7761 27.1374 24.9202 27.1521 25.0636C27.1668 25.207 27.2306 25.3409 27.3327 25.4426L28.0897 26.1993L26.2426 28.0757L25.4856 27.309C25.3845 27.2094 25.2524 27.1472 25.1112 27.1325C24.97 27.1178 24.8279 27.1516 24.7085 27.2283C23.8371 27.7941 22.8688 28.1943 21.852 28.4086C21.7133 28.4407 21.5896 28.5192 21.5015 28.6311C21.4134 28.743 21.3662 28.8816 21.3675 29.024V30.0933H18.6726V29.024C18.6735 28.8802 18.6248 28.7405 18.5347 28.6285C18.4446 28.5164 18.3187 28.4387 18.178 28.4086C17.1646 28.1991 16.1993 27.8022 15.3317 27.2384Z" fill="#357C96"/>
        <path d="M25.1526 19.9947C25.1526 18.9751 24.8501 17.9784 24.2834 17.1307C23.7166 16.2829 22.9111 15.6222 21.9687 15.232C21.0262 14.8418 19.9892 14.7398 18.9887 14.9387C17.9882 15.1376 17.0691 15.6286 16.3478 16.3495C15.6265 17.0705 15.1353 17.989 14.9363 18.989C14.7373 19.989 14.8394 21.0255 15.2298 21.9675C15.6202 22.9095 16.2812 23.7146 17.1294 24.281C17.9776 24.8475 18.9748 25.1498 19.9949 25.1498C21.3628 25.1498 22.6747 24.6067 23.6419 23.6399C24.6092 22.6732 25.1526 21.3619 25.1526 19.9947ZM16.0686 19.9947C16.0686 19.2225 16.2977 18.4677 16.7269 17.8257C17.1561 17.1836 17.7661 16.6832 18.4799 16.3877C19.1936 16.0922 19.979 16.0149 20.7367 16.1656C21.4945 16.3162 22.1905 16.6881 22.7367 17.2341C23.283 17.7801 23.6551 18.4757 23.8058 19.2331C23.9565 19.9904 23.8791 20.7754 23.5835 21.4888C23.2878 22.2022 22.7872 22.8119 22.1448 23.2409C21.5025 23.6699 20.7473 23.8989 19.9747 23.8989C18.9395 23.8962 17.9476 23.484 17.2156 22.7524C16.4836 22.0208 16.0712 21.0293 16.0686 19.9947ZM25.738 6.39573C25.8197 6.39707 25.9009 6.38214 25.9767 6.35181C26.0526 6.32149 26.1217 6.27637 26.1799 6.21909C26.2382 6.16181 26.2844 6.09352 26.316 6.01819C26.3476 5.94287 26.3638 5.86201 26.3638 5.78034C26.3636 5.61435 26.2983 5.45503 26.1821 5.33646C26.1237 5.27848 26.0544 5.23259 25.9782 5.20143C25.902 5.17027 25.8203 5.15445 25.738 5.15487C25.657 5.15349 25.5766 5.16891 25.5019 5.20017C25.4272 5.23142 25.3598 5.27783 25.304 5.33646C25.2431 5.39222 25.1945 5.46003 25.1612 5.53558C25.128 5.61113 25.1108 5.69276 25.1108 5.7753C25.1108 5.85784 25.128 5.93947 25.1612 6.01502C25.1945 6.09057 25.2431 6.15838 25.304 6.21414C25.3598 6.27277 25.4272 6.31918 25.5019 6.35043C25.5766 6.38169 25.657 6.39711 25.738 6.39573ZM14.282 33.6038C14.1145 33.6067 13.9549 33.6756 13.8379 33.7955C13.7232 33.9109 13.658 34.0666 13.6562 34.2293C13.6586 34.3949 13.7235 34.5534 13.8379 34.6732C13.9567 34.789 14.1161 34.8538 14.282 34.8538C14.448 34.8538 14.6074 34.789 14.7261 34.6732C14.8406 34.5534 14.9055 34.3949 14.9078 34.2293C14.906 34.0666 14.8409 33.9109 14.7261 33.7955C14.6092 33.6756 14.4496 33.6067 14.282 33.6038Z" fill="#357C96"/>
    </g>
    <defs>
        <clipPath id="clip0_54_94">
            <rect width="40" height="40" fill="white"/>
        </clipPath>
    </defs>
</svg>
