<svg width="40" height="40" viewBox="0 0 40 40" fill="none" xmlns="http://www.w3.org/2000/svg">
    <g clip-path="url(#clip0_54_103)">
        <path d="M10.2229 10.7472C9.18227 10.5158 8.22172 10.2642 7.37553 10.0026C7.28151 9.96911 7.18079 9.95266 7.07939 9.9542C6.97799 9.95575 6.87798 9.97526 6.78534 10.0116C6.69269 10.0479 6.60932 10.1003 6.5402 10.1656C6.47107 10.2309 6.41761 10.3078 6.38302 10.3917C6.34842 10.4756 6.33339 10.5648 6.33883 10.6539C6.34427 10.743 6.37007 10.8302 6.41468 10.9104C6.45929 10.9905 6.5218 11.062 6.59847 11.1204C6.67515 11.1788 6.76442 11.223 6.86095 11.2504C7.75289 11.5321 8.75917 11.7938 9.84551 12.0353H9.9713C10.1603 12.045 10.3466 11.9927 10.4944 11.8887C10.6422 11.7846 10.741 11.6361 10.7718 11.4718C10.8003 11.3086 10.7587 11.1419 10.6551 11.0042C10.5515 10.8665 10.3933 10.7677 10.2114 10.7271L10.2229 10.7472ZM13.1274 11.3007C13.0294 11.2815 12.9279 11.2805 12.8294 11.2978C12.731 11.3152 12.6377 11.3504 12.5556 11.4013C12.4698 11.449 12.396 11.5117 12.3388 11.5854C12.2815 11.6591 12.242 11.7424 12.2228 11.8301C12.2035 11.9178 12.2048 12.008 12.2266 12.0952C12.2485 12.1824 12.2904 12.2648 12.3498 12.3372C12.4725 12.4786 12.6529 12.5725 12.8529 12.5988C15.3672 13.0043 17.9064 13.2798 20.4573 13.424C22.9993 13.5849 25.5499 13.6152 28.0959 13.5145C28.1965 13.5159 28.2963 13.4987 28.3889 13.464C28.4814 13.4293 28.5647 13.378 28.6334 13.3133C28.7721 13.1826 28.8461 13.0089 28.8392 12.8303C28.8285 12.6498 28.7382 12.4801 28.5877 12.3573C28.4299 12.2446 28.2303 12.1873 28.0273 12.1963C25.5453 12.2811 23.0598 12.2408 20.5831 12.0755C18.0899 11.9332 15.6082 11.6644 13.1503 11.2705L13.1274 11.3007ZM12.3041 21.8768C12.2062 21.8563 12.1046 21.8538 12.0056 21.8693C11.9066 21.8849 11.8122 21.9183 11.7285 21.9674C11.6448 22.0165 11.5736 22.0803 11.5191 22.1547C11.4647 22.2292 11.4282 22.3127 11.4121 22.4001C11.3792 22.5758 11.4242 22.7559 11.5379 22.9032C11.6585 23.0485 11.8393 23.1461 12.0411 23.1749C14.556 23.5767 17.0949 23.8522 19.6454 24.0001C22.1874 24.1611 24.738 24.1913 27.284 24.0906C27.3852 24.0889 27.4848 24.0693 27.5772 24.033C27.6695 23.9967 27.7526 23.9444 27.8215 23.8793C27.957 23.747 28.0306 23.5744 28.0273 23.3963C28.023 23.3072 27.9973 23.2199 27.9519 23.1402C27.9066 23.0604 27.8427 22.9899 27.7643 22.9334C27.6903 22.8743 27.6036 22.8288 27.5094 22.7994C27.4152 22.77 27.3152 22.7574 27.2154 22.7623C24.7229 22.8613 22.2259 22.8344 19.7369 22.6818C17.2443 22.5345 14.7629 22.2657 12.3041 21.8768ZM26.3921 33.3384C23.9022 33.4157 21.4094 33.372 18.925 33.2076C16.4319 33.0652 13.9501 32.7964 11.4922 32.4026C11.2955 32.3656 11.0901 32.3981 10.9204 32.4932C10.7518 32.5954 10.6334 32.75 10.5888 32.9259C10.5702 33.0135 10.5728 33.1036 10.5964 33.1903C10.6201 33.277 10.6642 33.3583 10.726 33.429C10.781 33.5027 10.8534 33.5651 10.9382 33.612C11.0231 33.6589 11.1184 33.6891 11.2177 33.7007C13.732 34.1062 16.2711 34.3817 18.8221 34.5259C21.3641 34.6868 23.9147 34.7171 26.4607 34.6164C26.5613 34.6138 26.6604 34.5938 26.7522 34.5575C26.8441 34.5212 26.9268 34.4693 26.9959 34.4048C27.0649 34.3403 27.1188 34.2645 27.1545 34.1817C27.1902 34.0988 27.2071 34.0106 27.204 33.9221C27.1904 33.7452 27.1004 33.5796 26.9524 33.4592C26.8776 33.3986 26.7889 33.3528 26.6922 33.325C26.5955 33.2972 26.4932 33.2881 26.3921 33.2982V33.3384ZM9.39954 21.3133C8.43629 21.109 7.48587 20.8605 6.5522 20.5686C6.36875 20.5037 6.16389 20.5037 5.98044 20.5686C5.7958 20.6457 5.65232 20.7828 5.58022 20.951C5.54052 21.0303 5.52002 21.116 5.52002 21.2026C5.52002 21.2892 5.54052 21.3749 5.58022 21.4542C5.66816 21.6141 5.82432 21.7371 6.01475 21.7963C6.91812 22.0781 7.92441 22.3397 8.99931 22.5812H9.13653C9.32248 22.5909 9.50594 22.5397 9.6516 22.4376C9.79726 22.3354 9.89484 22.1894 9.92556 22.0277C9.95717 21.863 9.91705 21.6938 9.8132 21.5539C9.70934 21.414 9.54939 21.3137 9.36524 21.273L9.39954 21.3133ZM8.58765 31.8894C7.54705 31.6579 6.58651 31.4064 5.71744 31.195C5.62599 31.158 5.52651 31.1388 5.42584 31.1388C5.32517 31.1388 5.2257 31.158 5.13425 31.195C5.04387 31.2317 4.96278 31.2839 4.89577 31.3486C4.82875 31.4133 4.77719 31.4892 4.74413 31.5718C4.71107 31.6544 4.69719 31.742 4.70331 31.8294C4.70943 31.9168 4.73543 32.0022 4.77976 32.0806C4.82054 32.1603 4.88052 32.2313 4.95555 32.2886C5.03057 32.346 5.11886 32.3883 5.21429 32.4126C6.10623 32.6944 7.11252 32.9661 8.19886 33.2076H8.34751C8.53591 33.2223 8.72358 33.1732 8.87231 33.0704C9.02103 32.9676 9.11961 32.8187 9.14797 32.6542C9.17648 32.491 9.13488 32.3243 9.03128 32.1866C8.92769 32.0489 8.76952 31.9501 8.58765 31.9095V31.8894Z" fill="#D7E5EA"/>
        <path d="M34.3053 1.77122C30.0817 0.95765 25.7916 0.439471 21.4751 0.221537C17.1747 -0.080356 12.8538 -0.080356 8.55341 0.221537C3.25896 0.68443 2.51567 1.63034 2.4585 2.39512L-4.98751e-05 34.1033C-0.228752 37.1222 9.14804 39.2957 18.4105 39.8492C27.6729 40.4027 37.3013 39.3964 37.5414 36.3574L40.0228 4.63915C40.08 3.87437 39.4854 2.84795 34.3053 1.77122ZM36.8782 25.6907C36.7752 27.0391 29.8913 28.5888 19.3596 27.9649C8.82785 27.341 2.20693 24.9461 2.34415 23.6278L2.97308 15.5775C6.22065 17.5901 14.5911 18.3851 20.1257 18.7171C25.6603 19.0492 34.0308 19.2303 37.5528 17.6404L36.8782 25.6907ZM37.6443 15.7888C37.5414 16.8857 32.0182 18.1134 20.1486 17.3888C8.27897 16.6643 2.99595 14.8127 3.08743 13.7159L3.7621 5.0316C7.0211 7.04418 15.3916 7.84921 20.9148 8.17122C26.4379 8.49323 34.7627 8.6643 38.2961 7.04418L37.6443 15.7888ZM3.9565 2.536C4.56256 1.87185 10.3602 0.875625 21.3722 1.52971C32.3842 2.1838 37.9874 3.8643 38.5248 4.5989V5.20267C38.4333 6.29952 32.9559 7.5272 21.052 6.81273C9.14804 6.09827 3.81928 4.24669 3.91076 3.14984L3.9565 2.536ZM18.5134 38.531C7.98165 37.897 1.36073 35.5121 1.50938 34.1939L2.17262 25.5599C5.0657 27.5121 12.144 28.8605 19.2338 29.2832C26.3236 29.7058 33.5391 29.1825 36.7066 27.6228L36.0434 36.2266C35.9291 37.575 29.0566 39.1247 18.5134 38.4907V38.531Z" fill="#D7E5EA"/>
        <path d="M11.435 12.8905C10.6292 12.771 9.83137 12.6131 9.04502 12.4176C8.89395 12.3673 8.72725 12.3673 8.57618 12.4176C8.50393 12.4526 8.44039 12.5001 8.38932 12.5571C8.33826 12.6141 8.3007 12.6796 8.27887 12.7496C8.2547 12.819 8.24687 12.892 8.25585 12.9641C8.26484 13.0362 8.29045 13.106 8.33113 13.1691C8.37181 13.2322 8.42669 13.2874 8.49242 13.3312C8.55815 13.375 8.63335 13.4065 8.7134 13.4238C9.46812 13.615 10.3143 13.776 11.2177 13.927H11.3206C11.4738 13.9261 11.6211 13.8752 11.734 13.7842C11.8469 13.6931 11.9173 13.5684 11.9316 13.4342C11.9458 13.3 11.9029 13.1659 11.8111 13.058C11.7193 12.9501 11.5853 12.8761 11.435 12.8503V12.8905ZM13.7906 13.2025C13.7098 13.1923 13.6275 13.1969 13.5488 13.2159C13.4701 13.235 13.3967 13.2681 13.3332 13.3132C13.2662 13.3565 13.2101 13.4115 13.1683 13.4748C13.1265 13.5381 13.1 13.6082 13.0903 13.6809C13.0806 13.7536 13.0881 13.8272 13.1122 13.8972C13.1363 13.9673 13.1765 14.0322 13.2303 14.088C13.3384 14.1985 13.489 14.2702 13.6534 14.2893C15.742 14.4904 17.8416 14.5912 19.9427 14.5911C22.04 14.5915 24.1358 14.4907 26.2206 14.2893C26.388 14.2699 26.5421 14.1985 26.6551 14.088C26.7073 14.0316 26.7462 13.9666 26.7694 13.8967C26.7925 13.8269 26.7995 13.7537 26.7899 13.6814C26.7803 13.6091 26.7543 13.5393 26.7135 13.4761C26.6727 13.4128 26.6178 13.3574 26.5522 13.3132C26.4185 13.2235 26.2501 13.1838 26.0833 13.2025C24.0447 13.4055 21.9943 13.503 19.9427 13.4943C17.8873 13.5025 15.8331 13.405 13.7906 13.2025ZM13.7906 21.9169C13.7098 21.9068 13.6275 21.9113 13.5488 21.9304C13.4701 21.9494 13.3967 21.9825 13.3332 22.0276C13.2662 22.071 13.2101 22.126 13.1683 22.1893C13.1265 22.2525 13.1 22.3227 13.0903 22.3954C13.0806 22.468 13.0881 22.5417 13.1122 22.6117C13.1363 22.6818 13.1765 22.7467 13.2303 22.8025C13.3384 22.913 13.489 22.9847 13.6534 23.0037C15.742 23.2049 17.8416 23.3057 19.9427 23.3056C22.04 23.3059 24.1358 23.2052 26.2206 23.0037C26.388 22.9843 26.5421 22.913 26.6551 22.8025C26.7073 22.7461 26.7462 22.681 26.7694 22.6112C26.7925 22.5414 26.7995 22.4681 26.7899 22.3959C26.7803 22.3236 26.7543 22.2538 26.7135 22.1905C26.6727 22.1273 26.6178 22.0719 26.5522 22.0276C26.4185 21.938 26.2501 21.8982 26.0833 21.9169C24.0447 22.12 21.9943 22.2174 19.9427 22.2087C17.8873 22.2169 15.8331 22.1195 13.7906 21.9169ZM26.0833 30.6314C24.0447 30.8345 21.9943 30.9319 19.9427 30.9232C17.8873 30.9314 15.8331 30.8339 13.7906 30.6314C13.7098 30.6212 13.6275 30.6258 13.5488 30.6449C13.4701 30.6639 13.3967 30.697 13.3332 30.7421C13.2662 30.7854 13.2101 30.8405 13.1683 30.9037C13.1265 30.967 13.1 31.0371 13.0903 31.1098C13.0806 31.1825 13.0881 31.2561 13.1122 31.3262C13.1363 31.3962 13.1765 31.4611 13.2303 31.5169C13.3384 31.6275 13.489 31.6991 13.6534 31.7182C15.742 31.9193 17.8416 32.0201 19.9427 32.0201C22.04 32.0204 24.1358 31.9196 26.2206 31.7182C26.388 31.6988 26.5421 31.6274 26.6551 31.5169C26.7073 31.4606 26.7462 31.3955 26.7694 31.3257C26.7925 31.2558 26.7995 31.1826 26.7899 31.1103C26.7803 31.0381 26.7543 30.9682 26.7135 30.905C26.6727 30.8417 26.6178 30.7863 26.5522 30.7421C26.4185 30.6525 26.2501 30.6127 26.0833 30.6314ZM11.435 21.605C10.6099 21.4873 9.79299 21.3294 8.98785 21.132C8.83678 21.0818 8.67008 21.0818 8.51901 21.132C8.44675 21.1671 8.38321 21.2145 8.33215 21.2716C8.28108 21.3286 8.24353 21.3941 8.2217 21.4641C8.19752 21.5335 8.18969 21.6064 8.19868 21.6786C8.20766 21.7507 8.23328 21.8204 8.27396 21.8836C8.31463 21.9467 8.36951 22.0018 8.43524 22.0456C8.50097 22.0894 8.57617 22.121 8.65623 22.1383C9.41095 22.3295 10.2571 22.4905 11.1605 22.6415H11.2634C11.4166 22.6406 11.5639 22.5897 11.6768 22.4986C11.7897 22.4076 11.8601 22.2828 11.8744 22.1486C11.8886 22.0144 11.8457 21.8804 11.7539 21.7725C11.6622 21.6646 11.5281 21.5905 11.3778 21.5647L11.435 21.605ZM11.435 30.3194C10.6292 30.1999 9.83137 30.042 9.04502 29.8465C8.89395 29.7963 8.72725 29.7963 8.57618 29.8465C8.50402 29.8821 8.44055 29.9299 8.38941 29.9871C8.33827 30.0443 8.30047 30.1099 8.27816 30.18C8.25585 30.2501 8.24948 30.3234 8.25942 30.3957C8.26935 30.468 8.29539 30.5378 8.33605 30.6012C8.4207 30.7244 8.55572 30.8144 8.7134 30.8528C9.46812 31.044 10.3143 31.205 11.2177 31.3559H11.3206C11.4738 31.3551 11.6211 31.3042 11.734 31.2131C11.8469 31.122 11.9173 30.9973 11.9316 30.8631C11.9458 30.7289 11.9029 30.5948 11.8111 30.4869C11.7193 30.379 11.5853 30.305 11.435 30.2792V30.3194Z" fill="#357C96"/>
        <path d="M30.5547 4.33725C27.0417 3.88124 23.4938 3.66592 19.9429 3.69322C16.3958 3.66615 12.8517 3.88148 9.34255 4.33725C5.03151 4.97121 4.47119 5.7863 4.47119 6.42027V32.5838C4.47119 35.0895 12.2585 36.3976 19.9429 36.3976C27.6273 36.3976 35.4489 35.0693 35.4489 32.5637V6.40014C35.4489 5.76618 34.9 4.95108 30.589 4.31712L30.5547 4.33725ZM34.1796 23.8492C34.1796 24.9561 28.6336 26.5662 19.9429 26.5662C11.2522 26.5662 5.71762 24.9561 5.71762 23.8492V17.2077C8.51922 18.6869 15.4375 18.9486 19.9543 18.9486C24.4712 18.9486 31.3894 18.6869 34.191 17.2077L34.1796 23.8492ZM34.1796 15.6781C34.1796 16.5838 29.7656 17.8517 19.9429 17.8517C10.1201 17.8517 5.71762 16.5838 5.71762 15.6781V8.49322C8.51922 9.97247 15.4375 10.2341 19.9543 10.2341C24.4712 10.2341 31.3894 9.97247 34.191 8.49322L34.1796 15.6781ZM5.71762 6.46052C6.17502 5.88693 10.8634 4.78002 19.9429 4.78002C29.0224 4.78002 33.665 5.88693 34.1796 6.46052V6.96366C34.1796 7.86932 29.7656 9.13725 19.9429 9.13725C10.1201 9.13725 5.71762 7.86932 5.71762 6.96366V6.46052ZM19.9429 35.2806C11.2522 35.2806 5.71762 33.6706 5.71762 32.5637V25.4391C8.22191 26.8983 14.111 27.663 19.9543 27.663C25.7977 27.663 31.6982 26.8983 34.191 25.4391V32.5637C34.191 33.6706 28.645 35.2806 19.9543 35.2806H19.9429Z" fill="#357C96"/>
    </g>
    <defs>
        <clipPath id="clip0_54_103">
            <rect width="40" height="40" fill="white"/>
        </clipPath>
    </defs>
</svg>
