<svg width="40" height="40" viewBox="0 0 40 40" fill="none" xmlns="http://www.w3.org/2000/svg">
    <g clip-path="url(#clip0_211_7)">
        <path d="M31.3041 17.5765C31.1043 17.5532 30.9046 17.53 30.7048 17.5068C30.3659 16.1866 29.6251 15.0044 28.585 14.1235C27.5449 13.2427 26.2568 12.7068 24.8989 12.5899C24.3007 12.5316 23.6972 12.5603 23.1072 12.6752C22.5183 11.2384 21.5459 9.99101 20.2964 9.06914C19.0468 8.14727 17.568 7.58634 16.0214 7.44757C15.4094 7.39599 14.7937 7.40922 14.1845 7.48705C12.2729 7.73689 10.5029 8.62861 9.16442 10.0161C7.82597 11.4036 6.99847 13.2045 6.81752 15.1239C6.766 15.6633 6.77066 16.2067 6.83145 16.7452C5.06053 16.9582 3.43084 17.8183 2.25569 19.1601C1.08054 20.502 0.442895 22.2309 0.465335 24.0144C0.487775 25.7979 1.16872 27.5102 2.37725 28.8221C3.58579 30.134 5.2366 30.9528 7.01232 31.1211L29.8806 33.2134C30.9217 33.3352 31.9767 33.2473 32.9834 32.9549C33.9901 32.6625 34.928 32.1715 35.7419 31.5109C36.5558 30.8503 37.2292 30.0334 37.7225 29.1085C38.2157 28.1835 38.5188 27.1691 38.6138 26.1252C38.7088 25.0812 38.5939 24.0288 38.2758 23.03C37.9577 22.0312 37.4429 21.1061 36.7616 20.3094C36.0804 19.5127 35.2465 18.8604 34.3092 18.3911C33.3719 17.9217 32.3501 17.6447 31.3041 17.5765ZM30.0676 31.17L7.1682 29.0842C5.82349 28.9453 4.58641 28.2861 3.72121 27.2473C2.85601 26.2086 2.43129 24.8727 2.53777 23.5251C2.64426 22.1774 3.27351 20.9248 4.29111 20.0349C5.30871 19.1449 6.63397 18.6881 7.98381 18.7621C8.14593 18.773 8.30828 18.7445 8.45695 18.6789C8.60562 18.6133 8.73618 18.5127 8.83746 18.3856C8.94247 18.2622 9.0161 18.1153 9.0521 17.9573C9.08809 17.7993 9.08538 17.635 9.0442 17.4783C8.64089 15.8422 8.89542 14.1131 9.7531 12.6626C10.6108 11.212 12.0032 10.1558 13.6312 9.7207C14.3546 9.53199 15.1049 9.4686 15.8497 9.53326C17.1486 9.65911 18.3788 10.1756 19.3782 11.0147C20.3776 11.8538 21.0993 12.9761 21.448 14.2336C21.4828 14.3714 21.5464 14.5004 21.6346 14.6118C21.7229 14.7233 21.8338 14.8148 21.96 14.8803C22.078 14.9435 22.2088 14.9795 22.3425 14.9855C22.4915 15.0053 22.6429 14.9882 22.7837 14.9356C23.4312 14.7024 24.1234 14.6198 24.8077 14.6938C25.4919 14.7679 26.1504 14.9967 26.7331 15.363C27.3158 15.7293 27.8075 16.2234 28.1709 16.8078C28.5344 17.3923 28.76 18.0519 28.8307 18.7365C28.853 18.9693 28.9558 19.1871 29.1214 19.3523C29.2869 19.5175 29.5049 19.6199 29.7378 19.6417L29.9376 19.6649C30.3212 19.6225 30.7083 19.62 31.0925 19.6575C32.5864 19.8434 33.9496 20.6027 34.8941 21.775C35.8386 22.9474 36.2905 24.4409 36.1543 25.9402C36.018 27.4395 35.3044 28.8271 34.164 29.81C33.0237 30.7929 31.5459 31.2941 30.043 31.2076L30.0676 31.17Z" fill="#D7E5EA"/>
        <path d="M30.0862 16.5431C29.9011 16.5388 29.716 16.5345 29.5309 16.5301C29.1082 15.3411 28.3289 14.3138 27.3007 13.5901C26.2725 12.8665 25.0462 12.4823 23.7913 12.4907C23.2379 12.488 22.6871 12.5661 22.156 12.7226C21.4942 11.4474 20.4971 10.3798 19.2734 9.6362C18.0496 8.8926 16.6464 8.50163 15.2167 8.50595C14.6513 8.51073 14.0879 8.57562 13.536 8.69956C11.8046 9.09364 10.2575 10.0678 9.14797 11.4624C8.03849 12.8571 7.43249 14.5895 7.42928 16.3757C7.42776 16.8779 7.4781 17.3788 7.57947 17.8704C5.97396 18.2184 4.55277 19.1514 3.58914 20.49C2.62551 21.8285 2.18745 23.4782 2.35919 25.1218C2.53094 26.7653 3.30035 28.2869 4.51951 29.3938C5.73867 30.5007 7.32152 31.1149 8.96375 31.1182L30.1065 31.0917C31.0713 31.115 32.0311 30.9436 32.9292 30.5877C33.8273 30.2317 34.6456 29.6985 35.3358 29.0194C36.0259 28.3403 36.5741 27.529 36.9479 26.6334C37.3217 25.7378 37.5136 24.776 37.5122 23.8047C37.5109 22.8335 37.3163 21.8723 36.94 20.978C36.5637 20.0837 36.0133 19.2743 35.3212 18.5976C34.6292 17.9208 33.8094 17.3904 32.9103 17.0376C32.0112 16.6847 31.051 16.5166 30.0862 16.5431ZM30.1047 29.1905L8.93401 29.2256C7.68943 29.2125 6.49941 28.7102 5.61816 27.8259C4.73691 26.9416 4.23431 25.7454 4.21771 24.493C4.20111 23.2405 4.67184 22.031 5.52933 21.1228C6.38683 20.2147 7.5631 19.6799 8.80689 19.6326C8.95644 19.6288 9.10286 19.5885 9.2336 19.5153C9.36434 19.4421 9.47551 19.3381 9.55759 19.2122C9.6434 19.0894 9.69846 18.9475 9.71807 18.7987C9.73768 18.6498 9.72127 18.4985 9.67023 18.3574C9.16181 16.8824 9.24861 15.2654 9.91197 13.8537C10.5753 12.4421 11.7624 11.3484 13.218 10.8077C13.8652 10.5717 14.5478 10.449 15.2361 10.4449C16.4375 10.4499 17.6092 10.8211 18.5965 11.5098C19.5839 12.1984 20.3406 13.1721 20.7669 14.3024C20.8105 14.4266 20.8797 14.5401 20.9701 14.6354C21.0604 14.7307 21.1698 14.8056 21.2911 14.8552C21.4047 14.9035 21.5276 14.9255 21.6507 14.9196C21.7889 14.9251 21.9264 14.8963 22.0509 14.8357C22.6248 14.5653 23.2524 14.4298 23.886 14.4395C24.5196 14.4493 25.1426 14.6041 25.7079 14.8921C26.2732 15.1802 26.7658 15.594 27.1486 16.1021C27.5313 16.6103 27.7941 17.1995 27.9169 17.825C27.9571 18.0379 28.0698 18.2301 28.2356 18.3683C28.4014 18.5066 28.6099 18.5824 28.8253 18.5826L29.0104 18.5869C29.3585 18.515 29.7132 18.4795 30.0686 18.4812C31.454 18.5249 32.7681 19.1088 33.7334 20.1096C34.6986 21.1104 35.2395 22.4496 35.2417 23.8446C35.2438 25.2395 34.7072 26.5808 33.745 27.5852C32.7829 28.5896 31.4706 29.1784 30.0853 29.2273L30.1047 29.1905Z" fill="#357C96"/>
    </g>
    <defs>
        <clipPath id="clip0_211_7">
            <rect width="40" height="40" fill="white"/>
        </clipPath>
    </defs>
</svg>
