<svg width="20" height="13" viewBox="0 0 20 13" fill="none" xmlns="http://www.w3.org/2000/svg">
    <path d="M15.4741 4.14939C15.3736 4.14939 15.273 4.14939 15.1724 4.14939C14.9279 3.5133 14.4917 2.96891 13.9243 2.59152C13.3568 2.21412 12.6861 2.02235 12.0049 2.04274C11.7045 2.0483 11.4064 2.09741 11.1201 2.18855C10.7445 1.50898 10.1896 0.945617 9.51575 0.559932C8.84191 0.174247 8.07508 -0.0189368 7.29893 0.00146372C6.99201 0.0111913 6.68697 0.0533234 6.3889 0.127158C5.45394 0.361643 4.62635 0.906744 4.04173 1.67314C3.45711 2.43954 3.15014 3.38178 3.17112 4.34547C3.17669 4.61638 3.21039 4.88597 3.27168 5.14992C2.40444 5.35797 1.64472 5.87925 1.13858 6.61355C0.632434 7.34786 0.415593 8.24334 0.529743 9.12785C0.643893 10.0124 1.08098 10.8234 1.75696 11.4052C2.43295 11.9869 3.30012 12.2983 4.19176 12.2793L15.6702 11.9978C16.1943 11.9981 16.7132 11.8935 17.1963 11.6901C17.6794 11.4868 18.1168 11.1888 18.4829 10.8137C18.849 10.4386 19.1363 9.99399 19.3278 9.50611C19.5194 9.01824 19.6113 8.49695 19.5982 7.97299C19.5851 7.44902 19.4673 6.93297 19.2516 6.45527C19.0359 5.97757 18.7268 5.54788 18.3424 5.19154C17.9581 4.83519 17.5063 4.55939 17.0137 4.38041C16.521 4.20142 15.9976 4.12287 15.4741 4.14939ZM15.6451 10.9721L4.15154 11.2587C3.47566 11.2673 2.82319 11.0114 2.3335 10.5455C1.8438 10.0795 1.55571 9.4406 1.53077 8.76513C1.50582 8.08966 1.746 7.43121 2.2 6.93044C2.65399 6.42967 3.28581 6.12628 3.96048 6.08508C4.04163 6.08112 4.12061 6.05756 4.19066 6.0164C4.26071 5.97525 4.31974 5.91773 4.36271 5.84878C4.40773 5.78143 4.43582 5.7042 4.44457 5.62367C4.45333 5.54313 4.44249 5.46167 4.41299 5.38622C4.11819 4.59691 4.14474 3.72346 4.48694 2.95352C4.82914 2.18358 5.45968 1.57857 6.2431 1.26847C6.59147 1.13297 6.96049 1.05814 7.33413 1.04724C7.98648 1.03473 8.62731 1.22022 9.17213 1.57924C9.71694 1.93826 10.1402 2.45396 10.386 3.05836C10.4112 3.12482 10.4503 3.18517 10.5005 3.23544C10.5508 3.2857 10.6111 3.32474 10.6776 3.34997C10.7399 3.37457 10.8069 3.38488 10.8737 3.38013C10.9488 3.38138 11.023 3.36411 11.0899 3.32986C11.398 3.17668 11.737 3.09565 12.0811 3.09292C12.4253 3.09018 12.7655 3.1658 13.0761 3.31406C13.3866 3.46231 13.6594 3.67931 13.8736 3.9486C14.0879 4.2179 14.238 4.53243 14.3127 4.86836C14.3372 4.98271 14.4008 5.08493 14.4926 5.15742C14.5844 5.22992 14.6986 5.26816 14.8155 5.26555H14.916C15.1041 5.22233 15.2962 5.19874 15.4892 5.19517C16.2419 5.20122 16.9628 5.4996 17.4996 6.02729C18.0364 6.55498 18.3471 7.27066 18.366 8.02316C18.3849 8.77566 18.1106 9.50605 17.601 10.0601C17.0914 10.6141 16.3865 10.9483 15.635 10.9922L15.6451 10.9721Z" fill="#D7E5EA"/>
</svg>
