<svg width="61" height="61" viewBox="0 0 61 61" fill="none" xmlns="http://www.w3.org/2000/svg">
    <path d="M42.4984 58.402C40.6777 59.2134 38.7643 59.8476 36.7816 60.2839L36.7392 60.2922C34.6669 60.7442 32.5157 60.984 30.3129 60.984C13.744 60.984 0.3125 47.5537 0.3125 30.9836C0.3125 22.7 3.67051 15.1988 9.09884 9.76998C14.5272 4.34165 22.0287 0.983643 30.3125 0.983643C38.5962 0.983643 46.0973 4.34165 51.5262 9.76998C56.9545 15.1983 60.3125 22.6999 60.3125 30.9836C60.3125 33.2003 60.0698 35.3648 59.6123 37.4474C59.1761 39.4342 58.5419 41.3475 57.7305 43.1693C57.4838 42.8626 57.2209 42.5691 56.9427 42.2904C56.6827 42.0305 56.4089 41.7838 56.1234 41.5499C56.7201 40.0921 57.1987 38.57 57.5448 36.9965C57.9702 35.0649 58.1952 33.0506 58.1952 30.9837C58.1952 23.2845 55.0746 16.3131 50.0293 11.2675C44.984 6.22218 38.0125 3.10152 30.3131 3.10152C22.6139 3.10152 15.6425 6.22218 10.5968 11.2675C5.55157 16.3127 2.4309 23.2842 2.4309 30.9837C2.4309 37.1083 4.4053 42.7706 7.75247 47.371C8.19954 44.5941 9.52595 42.1011 11.4349 40.1918L11.4975 40.1342C13.8686 37.793 17.1198 36.3434 20.6905 36.3434H22.6241C22.8324 36.3434 23.0259 36.4035 23.1903 36.5079C24.2627 37.0933 25.409 37.5517 26.601 37.8575C27.7758 38.1593 29.0205 38.3203 30.3145 38.3203C31.6085 38.3203 32.8532 38.1593 34.0279 37.8575C35.2416 37.5458 36.4076 37.0761 37.4952 36.4759C37.6567 36.3877 37.831 36.3459 38.0039 36.3459L39.9364 36.3434C41.4662 36.3434 42.9463 36.6137 44.3274 37.1086C45.6873 37.5965 46.9457 38.3026 48.0581 39.1854C45.5554 39.4671 43.3102 40.602 41.6209 42.2909C39.6607 44.251 38.447 46.9605 38.447 49.9516C38.447 52.9427 39.6602 55.6532 41.6199 57.6133C41.8986 57.892 42.1917 58.1553 42.4984 58.402ZM55.446 43.7881C53.8694 42.2115 51.6886 41.2352 49.2815 41.2352C46.8748 41.2352 44.6945 42.212 43.1181 43.7886C41.5415 45.3652 40.5646 47.5455 40.5646 49.9521C40.5646 52.3587 41.541 54.5399 43.1176 56.1165C44.6942 57.6931 46.8749 58.67 49.282 58.67C51.6922 58.67 53.8724 57.6956 55.4465 56.1204C57.0254 54.5423 57.9999 52.3622 57.9999 49.9519C57.9999 47.5452 57.0225 45.3647 55.446 43.7881ZM48.2228 44.1092C48.2228 43.5247 48.697 43.0506 49.2814 43.0506C49.8659 43.0506 50.34 43.5247 50.34 44.1092V48.894H55.1254C55.7098 48.894 56.184 49.3682 56.184 49.9526C56.184 50.5371 55.7098 51.0112 55.1254 51.0112H50.34V55.7966C50.34 56.381 49.8659 56.8552 49.2814 56.8552C48.697 56.8552 48.2228 56.381 48.2228 55.7966V51.0112H43.438C42.8535 51.0112 42.3794 50.5371 42.3794 49.9526C42.3794 49.3682 42.8535 48.894 43.438 48.894H48.2228V44.1092ZM30.3141 11.4101C36.9636 11.4101 42.3545 16.8015 42.3545 23.451C42.3545 30.0945 36.9586 35.4905 30.3141 35.4905C23.6711 35.4905 18.2733 30.0945 18.2733 23.451C18.2733 16.8005 23.6643 11.4101 30.3141 11.4101Z" fill="#2F4050"/>
    <mask id="mask0_1_6776" style="mask-type:alpha" maskUnits="userSpaceOnUse" x="0" y="0" width="61" height="61">
        <path d="M42.4984 58.402C40.6777 59.2134 38.7643 59.8476 36.7816 60.2839L36.7392 60.2922C34.6669 60.7442 32.5157 60.984 30.3129 60.984C13.744 60.984 0.3125 47.5537 0.3125 30.9836C0.3125 22.7 3.67051 15.1988 9.09884 9.76998C14.5272 4.34165 22.0287 0.983643 30.3125 0.983643C38.5962 0.983643 46.0973 4.34165 51.5262 9.76998C56.9545 15.1983 60.3125 22.6999 60.3125 30.9836C60.3125 33.2003 60.0698 35.3648 59.6123 37.4474C59.1761 39.4342 58.5419 41.3475 57.7305 43.1693C57.4838 42.8626 57.2209 42.5691 56.9427 42.2904C56.6827 42.0305 56.4089 41.7838 56.1234 41.5499C56.7201 40.0921 57.1987 38.57 57.5448 36.9965C57.9702 35.0649 58.1952 33.0506 58.1952 30.9837C58.1952 23.2845 55.0746 16.3131 50.0293 11.2675C44.984 6.22218 38.0125 3.10152 30.3131 3.10152C22.6139 3.10152 15.6425 6.22218 10.5968 11.2675C5.55157 16.3127 2.4309 23.2842 2.4309 30.9837C2.4309 37.1083 4.4053 42.7706 7.75247 47.371C8.19954 44.5941 9.52595 42.1011 11.4349 40.1918L11.4975 40.1342C13.8686 37.793 17.1198 36.3434 20.6905 36.3434H22.6241C22.8324 36.3434 23.0259 36.4035 23.1903 36.5079C24.2627 37.0933 25.409 37.5517 26.601 37.8575C27.7758 38.1593 29.0205 38.3203 30.3145 38.3203C31.6085 38.3203 32.8532 38.1593 34.0279 37.8575C35.2416 37.5458 36.4076 37.0761 37.4952 36.4759C37.6567 36.3877 37.831 36.3459 38.0039 36.3459L39.9364 36.3434C41.4662 36.3434 42.9463 36.6137 44.3274 37.1086C45.6873 37.5965 46.9457 38.3026 48.0581 39.1854C45.5554 39.4671 43.3102 40.602 41.6209 42.2909C39.6607 44.251 38.447 46.9605 38.447 49.9516C38.447 52.9427 39.6602 55.6532 41.6199 57.6133C41.8986 57.892 42.1917 58.1553 42.4984 58.402ZM55.446 43.7881C53.8694 42.2115 51.6886 41.2352 49.2815 41.2352C46.8748 41.2352 44.6945 42.212 43.1181 43.7886C41.5415 45.3652 40.5646 47.5455 40.5646 49.9521C40.5646 52.3587 41.541 54.5399 43.1176 56.1165C44.6942 57.6931 46.8749 58.67 49.282 58.67C51.6922 58.67 53.8724 57.6956 55.4465 56.1204C57.0254 54.5423 57.9999 52.3622 57.9999 49.9519C57.9999 47.5452 57.0225 45.3647 55.446 43.7881ZM48.2228 44.1092C48.2228 43.5247 48.697 43.0506 49.2814 43.0506C49.8659 43.0506 50.34 43.5247 50.34 44.1092V48.894H55.1254C55.7098 48.894 56.184 49.3682 56.184 49.9526C56.184 50.5371 55.7098 51.0112 55.1254 51.0112H50.34V55.7966C50.34 56.381 49.8659 56.8552 49.2814 56.8552C48.697 56.8552 48.2228 56.381 48.2228 55.7966V51.0112H43.438C42.8535 51.0112 42.3794 50.5371 42.3794 49.9526C42.3794 49.3682 42.8535 48.894 43.438 48.894H48.2228V44.1092ZM30.3141 11.4101C36.9636 11.4101 42.3545 16.8015 42.3545 23.451C42.3545 30.0945 36.9586 35.4905 30.3141 35.4905C23.6711 35.4905 18.2733 30.0945 18.2733 23.451C18.2733 16.8005 23.6643 11.4101 30.3141 11.4101Z" fill="#2F4050"/>
    </mask>
    <g mask="url(#mask0_1_6776)">
        <circle cx="49" cy="50" r="9" fill="#CF5555"/>
    </g>
</svg>
