<svg width="61" height="61" viewBox="0 0 61 61" fill="none" xmlns="http://www.w3.org/2000/svg">
    <path d="M30.8884 8.82947C18.9092 8.82947 9.16406 18.5756 9.16406 30.5534C9.16406 42.5312 18.9092 52.2774 30.8884 52.2774C42.8677 52.2774 52.6128 42.5312 52.6128 30.5534C52.6128 18.5756 42.8677 8.82947 30.8884 8.82947ZM47.5696 20.2085H38.2052C37.4881 16.5517 36.3752 13.3718 34.8877 11.3091C40.2327 12.4189 44.7734 15.7169 47.5696 20.2085ZM30.8884 50.2092C28.9446 50.2092 26.8581 46.6549 25.6671 40.899H36.108C34.9188 46.6549 32.8325 50.2092 30.8884 50.2092ZM25.2919 38.8296C24.9537 36.6487 24.7446 34.2151 24.6991 31.5881H37.0767C37.0313 34.2145 36.8234 36.6487 36.4851 38.8296H25.2919ZM11.2856 31.5887H22.6225C22.6661 34.0375 22.8667 36.4996 23.2165 38.8302L13.0847 38.8296C12.0482 36.6076 11.4202 34.1653 11.2856 31.5887L11.2856 31.5887ZM30.8887 10.8982C32.8326 10.8982 34.9191 14.4526 36.11 20.2085H25.6673C26.8584 14.4526 28.9447 10.8982 30.8886 10.8982H30.8887ZM36.4853 22.2778C36.8235 24.4588 37.0326 26.8923 37.0769 29.5194L24.7005 29.5188C24.7459 26.8923 24.9538 24.4582 25.2933 22.2772L36.4853 22.2778ZM22.622 29.5187H11.2858C11.4215 26.9421 12.0483 24.4993 13.0861 22.2772H23.2166C22.8675 24.6083 22.6662 27.0706 22.622 29.5187ZM39.1558 31.5881H50.4927C50.3569 34.1647 49.7301 36.6076 48.6923 38.8296H38.5618C38.9103 36.4985 39.1116 34.0362 39.1558 31.5881H39.1558ZM39.1558 29.5187C39.1122 27.07 38.9115 24.6079 38.5618 22.2772H48.6923C49.73 24.4993 50.3569 26.9415 50.4926 29.5187H39.1558ZM26.8898 11.3094C25.4035 13.3709 24.29 16.5519 23.5723 20.2088H14.2078C17.0041 15.7174 21.5446 12.4193 26.8898 11.3094ZM14.2078 40.899H23.5723C24.2894 44.5557 25.4023 47.7357 26.8898 49.7984C21.5448 48.6885 17.0041 45.3906 14.2078 40.899ZM34.8879 49.7984C36.3742 47.7369 37.4877 44.5559 38.2054 40.899H47.5698C44.7736 45.3904 40.233 48.6884 34.8879 49.7984Z" fill="#2F4050"/>
    <path d="M58.633 27.5818C57.251 14.6269 46.8149 4.19133 33.8594 2.80876C33.4885 1.51101 32.3041 0.553345 30.8886 0.553345C29.1775 0.553345 27.7852 1.94565 27.7852 3.65677C27.7852 5.36784 29.1775 6.76019 30.8886 6.76019C32.167 6.76019 33.2659 5.98312 33.7406 4.87626C45.6556 6.19521 55.2462 15.7862 56.5651 27.7004C55.4583 28.175 54.6812 29.2746 54.6812 30.5523C54.6812 32.2633 56.0735 33.6557 57.7847 33.6557C59.4958 33.6557 60.8881 32.2634 60.8881 30.5523C60.8881 29.1369 59.9304 27.9525 58.6321 27.581L58.633 27.5818ZM30.8894 4.69098C30.3196 4.69098 29.8547 4.22728 29.8547 3.6563C29.8547 3.08532 30.319 2.62162 30.8894 2.62162C31.4592 2.62162 31.9241 3.08532 31.9241 3.6563C31.9241 4.22789 31.4592 4.69098 30.8894 4.69098ZM57.7857 31.5883C57.216 31.5883 56.751 31.1246 56.751 30.5537C56.751 29.9827 57.2154 29.519 57.7857 29.519C58.3555 29.519 58.8204 29.9827 58.8204 30.5537C58.8204 31.1246 58.3561 31.5883 57.7857 31.5883Z" fill="#CF5555"/>
    <path d="M30.8875 60.5526C32.5986 60.5526 33.9909 59.1602 33.9909 57.4491C33.9909 55.7381 32.5986 54.3457 30.8875 54.3457C29.6091 54.3457 28.5102 55.1228 28.0355 56.2296C16.1198 54.9107 6.52993 45.3203 5.21096 33.4055C6.31657 32.9309 7.09368 31.8319 7.09368 30.5536C7.09368 28.8426 5.70135 27.4502 3.9902 27.4502C2.2791 27.4502 0.886719 28.8425 0.886719 30.5536C0.886719 31.969 1.84444 33.1534 3.14279 33.5249C4.52481 46.4798 14.9609 56.9153 27.9163 58.2979C28.2873 59.5957 29.4716 60.5533 30.8871 60.5533L30.8875 60.5526ZM3.99113 29.5183C4.56091 29.5183 5.02583 29.982 5.02583 30.553C5.02583 31.124 4.56152 31.5877 3.99113 31.5877C3.42135 31.5877 2.95643 31.124 2.95643 30.553C2.95643 29.982 3.42074 29.5183 3.99113 29.5183ZM30.8875 56.4157C31.4572 56.4157 31.9222 56.8794 31.9222 57.4504C31.9222 58.0214 31.4578 58.4851 30.8875 58.4851C30.3177 58.4851 29.8528 58.0214 29.8528 57.4504C29.8528 56.8788 30.3177 56.4157 30.8875 56.4157Z" fill="#CF5555"/>
</svg>
