<svg xmlns="http://www.w3.org/2000/svg" viewBox="0 0 189.34 23.07">
    <defs>
        <style>.cls-1{fill:#111;}</style>
    </defs>
    <g id="Слой_2" data-name="Слой 2">
        <g id="Layer_1" data-name="Layer 1">
            <path class="cls-1"
                  d="M.59,23.07A.6.6,0,0,1,0,22.48V.6A.6.6,0,0,1,.59,0a.6.6,0,0,1,.6.6V22.48A.6.6,0,0,1,.59,23.07Z"/>
            <path class="cls-1"
                  d="M22.47,23.07a.59.59,0,0,1-.59-.59V.6a.59.59,0,0,1,.59-.6.6.6,0,0,1,.6.6V22.48A.6.6,0,0,1,22.47,23.07Z"/>
            <path class="cls-1" d="M44.35,23.07a.6.6,0,0,1-.6-.59V.6A.6.6,0,0,1,45,.6V22.48A.6.6,0,0,1,44.35,23.07Z"/>
            <path class="cls-1" d="M88.11,23.07a.6.6,0,0,1-.6-.59V.6A.6.6,0,1,1,88.7.6V22.48A.6.6,0,0,1,88.11,23.07Z"/>
            <path class="cls-1"
                  d="M166.86,23.07a.59.59,0,0,1-.59-.59v-11a.59.59,0,0,1,.59-.59.6.6,0,0,1,.6.59v11A.6.6,0,0,1,166.86,23.07Z"/>
            <path class="cls-1"
                  d="M188.74,23.07a.59.59,0,0,1-.59-.59v-11a.59.59,0,0,1,.59-.59.6.6,0,0,1,.6.59v11A.6.6,0,0,1,188.74,23.07Z"/>
            <path class="cls-1"
                  d="M22.47,23.07a.59.59,0,0,1-.42-.18L5.64,6.49a.6.6,0,1,1,.85-.84L22.9,22.05a.6.6,0,0,1-.43,1Z"/>
            <path class="cls-1"
                  d="M66.23,1.19H44.35a.59.59,0,0,1-.6-.59.6.6,0,0,1,.6-.6H66.23a.59.59,0,0,1,.59.6A.58.58,0,0,1,66.23,1.19Z"/>
            <path class="cls-1" d="M66.23,23.07H44.35a.6.6,0,1,1,0-1.19H66.23a.6.6,0,0,1,0,1.19Z"/>
            <path class="cls-1" d="M55.29,12.13H44.35a.6.6,0,1,1,0-1.19H55.29a.6.6,0,1,1,0,1.19Z"/>
            <path class="cls-1"
                  d="M99.24,11.93a.58.58,0,0,1-.42-.17.61.61,0,0,1,0-.85L109.56.17a.6.6,0,0,1,.84.85L99.66,11.76A.55.55,0,0,1,99.24,11.93Z"/>
            <path class="cls-1"
                  d="M110.18,22.87a.63.63,0,0,1-.42-.17L98.82,11.76a.61.61,0,0,1,0-.85.6.6,0,0,1,.84,0L110.6,21.85a.6.6,0,0,1-.42,1Z"/>
            <path class="cls-1"
                  d="M150.16,1.19H128.28a.58.58,0,0,1-.59-.59.59.59,0,0,1,.59-.6h21.88a.6.6,0,0,1,.6.6A.59.59,0,0,1,150.16,1.19Z"/>
            <path class="cls-1" d="M139.22,23.07a.6.6,0,0,1-.6-.59V.6a.6.6,0,1,1,1.2,0V22.48A.6.6,0,0,1,139.22,23.07Z"/>
            <path class="cls-1"
                  d="M188.74,12.13a.59.59,0,0,1-.59-.6,10.35,10.35,0,0,0-20.69,0,.6.6,0,0,1-.6.6.59.59,0,0,1-.59-.6,11.54,11.54,0,0,1,23.07,0A.6.6,0,0,1,188.74,12.13Z"/>
            <path class="cls-1" d="M188.74,13.87H177.8a.6.6,0,0,1,0-1.19h10.94a.6.6,0,1,1,0,1.19Z"/>
        </g>
    </g>
</svg>