<svg width="64" height="64" viewBox="0 0 64 64" fill="none" xmlns="http://www.w3.org/2000/svg">
<path d="M46.0696 37.6575H39.3663C39.4325 37.3255 39.5654 36.9936 39.6316 36.7283C39.9636 35.7991 39.9636 34.8699 39.6978 33.8746C39.233 32.1491 37.8395 30.7552 36.1141 30.357C34.5877 30.025 33.0608 30.357 31.8664 31.2861C30.6719 32.2153 30.008 33.6093 30.008 35.1356C30.008 35.6666 30.0742 36.1977 30.2733 36.662C30.4061 36.994 30.4723 37.3259 30.5385 37.6574H25.0298V30.3564C25.0298 30.0245 24.8969 29.6925 24.6316 29.4273C24.3664 29.2282 24.0344 29.0953 23.6363 29.162C22.5742 29.3611 21.7779 29.5601 20.9817 29.8259C19.9197 30.1578 18.7915 29.8259 18.1941 28.9629C17.6631 28.3657 17.5302 27.5689 17.7293 26.7064C17.9284 25.8435 18.6585 25.1134 19.5214 24.8481C20.0525 24.7152 20.5835 24.7152 20.9816 24.8481C21.7779 25.1133 22.6409 25.3129 23.7029 25.512C24.0348 25.5782 24.3668 25.4458 24.6321 25.2467C24.8973 25.0476 25.0302 24.7157 25.0302 24.3175V16.6175C25.0302 15.9536 24.4992 15.4231 23.8358 15.4231H1.66806C1.00417 15.4231 0.473633 15.9541 0.473633 16.6175V61.0193C0.473633 61.6831 1.00466 62.2137 1.66806 62.2137H46.0699C46.7338 62.2137 47.2643 61.6827 47.2643 61.0193L47.2648 38.8516C47.2648 38.1877 46.7337 37.6571 46.0699 37.6571L46.0696 37.6575ZM44.8752 59.8915H2.86273V17.8127H22.7075V23.0557C22.3755 22.9895 22.0436 22.8567 21.7783 22.7905C20.8492 22.4585 19.92 22.4585 18.9246 22.7243C17.1991 23.1891 15.8714 24.5826 15.407 26.308C15.0751 27.8344 15.407 29.3613 16.3362 30.5557C17.5973 32.1487 19.7209 32.8122 21.712 32.1487C22.044 32.0159 22.3093 31.9497 22.7074 31.8835V38.9186C22.7074 39.5825 23.2384 40.113 23.9018 40.113H32.0653C32.3972 40.113 32.7292 39.9802 32.9945 39.7149C33.1935 39.4496 33.3264 39.1176 33.2597 38.7195C33.0607 37.7241 32.8616 36.8611 32.5958 36.0649C32.5296 35.7997 32.463 35.5339 32.463 35.2686C32.463 34.4723 32.7949 33.7422 33.4583 33.2774C34.0556 32.7464 34.8524 32.6135 35.7148 32.8126C36.5778 33.0117 37.3078 33.7417 37.5732 34.6047C37.7061 35.1357 37.7061 35.6001 37.507 36.1311C37.2417 36.9274 37.0422 37.8566 36.8431 38.7857C36.7769 39.1176 36.9093 39.4496 37.1084 39.7148C37.3074 39.9801 37.6394 40.113 38.0375 40.113H45.0065L45.0079 59.8913L44.8752 59.8915Z" fill="#2F4050"/>
<path d="M63.3921 8.18913C63.2592 7.92385 62.9939 7.72432 62.662 7.65811L41.2244 1.8174C40.8924 1.7512 40.6271 1.7512 40.3614 1.95027C40.0961 2.08315 39.8966 2.34843 39.8304 2.68037L38.1049 9.18455C37.8396 8.98547 37.5076 8.8526 37.2419 8.65352C36.4456 8.1225 35.5826 7.85722 34.5873 7.85722C32.7952 7.79102 31.0697 8.78638 30.2067 10.3794C29.4767 11.7067 29.4104 13.2998 30.0077 14.6932C30.6049 16.0873 31.7998 17.0826 33.2599 17.4808C33.791 17.6137 34.2553 17.6799 34.7863 17.6137H35.7817L34.0562 24.1178C33.8571 24.7151 34.2553 25.379 34.8525 25.578L42.6182 27.7021C42.9501 27.7683 43.3483 27.7021 43.6136 27.503C43.8788 27.3039 44.0784 26.972 44.0784 26.64C44.1446 25.6447 44.1446 24.8479 44.1446 24.0516C44.1446 23.7863 44.1446 23.5206 44.2108 23.2553C44.4099 22.5252 44.9409 21.8613 45.6709 21.596C46.401 21.2641 47.1973 21.3308 47.9274 21.7289C48.7237 22.1271 49.2547 23.0562 49.2547 23.9854C49.2547 24.5164 49.1218 24.9808 48.8566 25.3794C48.3917 26.0433 47.9936 26.7734 47.5954 27.6359C47.4625 27.9678 47.4625 28.2998 47.5954 28.6312C47.7283 28.9632 47.9936 29.1623 48.3255 29.2951L56.2237 31.352C56.3566 31.352 56.4228 31.4182 56.5557 31.4182C57.0867 31.4182 57.551 31.0863 57.6839 30.5553L63.5246 9.11765C63.5908 8.78617 63.5246 8.45422 63.3917 8.18895L63.3921 8.18913ZM55.6935 28.8303L50.3837 27.3702C50.5166 27.1049 50.649 26.9053 50.8486 26.6401C51.3796 25.8438 51.6449 24.9145 51.6449 23.9855C51.7111 22.1934 50.7157 20.4679 49.1227 19.6049C47.7954 18.8748 46.2022 18.8086 44.8088 19.4058C43.4148 20.0031 42.4195 21.198 42.0213 22.6581C41.8884 23.1891 41.8222 23.6535 41.8884 24.1845V25.0475L36.5786 23.5873L38.437 16.8174C38.5032 16.4855 38.437 16.1535 38.2379 15.8221C38.0389 15.4897 37.7069 15.4235 37.3088 15.3572C36.3134 15.291 35.3843 15.2244 34.5212 15.291C34.2559 15.291 33.9902 15.291 33.7249 15.2248C32.9948 15.0258 32.3309 14.4947 32.0656 13.7647C31.7337 13.0346 31.8004 12.2383 32.1985 11.5082C32.6633 10.7119 33.4597 10.1809 34.455 10.1809C34.986 10.1809 35.4504 10.3138 35.849 10.5791C36.5791 11.0439 37.3754 11.5082 38.2383 11.9064C38.5703 12.0392 38.9022 12.0392 39.2337 11.9064C39.5657 11.7735 39.7647 11.5082 39.8976 11.1763L41.756 4.40638L60.937 9.58327L55.6935 28.8303Z" fill="#CF5555"/>
</svg>
