<svg width="64" height="64" viewBox="0 0 64 64" fill="none" xmlns="http://www.w3.org/2000/svg">
<path d="M26.1067 0.23821C20.4951 0.23821 15.2183 2.42428 11.2493 6.3924C3.90574 13.735 2.99422 27.5491 9.27427 35.9201L26.0612 60.1643L31.1626 53.492C31.5307 53.0119 31.4404 52.3226 30.9594 51.9554C30.4784 51.5883 29.7923 51.6786 29.4252 52.161L26.1492 56.4448L11.0511 34.6398C5.35525 27.0454 6.17101 14.5687 12.7993 7.94113C16.3534 4.38747 21.0803 2.42907 26.1077 2.42907C31.1341 2.42907 35.86 4.387 39.415 7.94113C45.3057 13.8319 46.6664 24.894 42.4469 32.6001C42.1557 33.1302 42.3511 33.7982 42.8812 34.0871C43.4113 34.3807 44.0793 34.183 44.3682 33.6529C49.1016 25.0066 47.6057 13.033 40.964 6.39125C36.996 2.42325 31.7201 0.237061 26.1077 0.237061L26.1067 0.23821ZM26.2993 13.3855C22.0716 13.3855 18.6304 16.8267 18.6304 21.0544C18.6304 25.2822 22.0716 28.7234 26.2993 28.7234C30.5271 28.7234 33.9683 25.2822 33.9683 21.0544C33.9683 16.8267 30.5281 13.3855 26.2993 13.3855ZM26.2993 15.5766C29.3197 15.5766 31.7771 18.034 31.7771 21.0544C31.7771 24.0749 29.3198 26.5323 26.2993 26.5323C23.279 26.5323 20.8215 24.0749 20.8215 21.0544C20.8215 18.034 23.2789 15.5766 26.2993 15.5766ZM43.2747 35.2969C36.7526 35.2969 31.446 40.6038 31.446 47.1257C31.446 53.6479 36.7529 58.9525 43.2747 58.9525C45.9492 58.9525 48.4099 58.0507 50.3937 56.5474L56.9691 63.4247C57.1839 63.6492 57.4714 63.7627 57.7608 63.7627C58.0334 63.7627 58.3057 63.6613 58.5182 63.459C58.9552 63.0395 58.97 62.3446 58.5524 61.9076L52.0135 55.0692C53.9265 52.9669 55.1033 50.1849 55.1033 47.126C55.1024 40.6039 49.7964 35.2968 43.2746 35.2968L43.2747 35.2969ZM43.2747 37.4881C48.5882 37.4881 52.9104 41.8121 52.9104 47.126C52.9104 52.4395 48.5882 56.7617 43.2747 56.7617C37.9613 56.7617 33.6368 52.4395 33.6368 47.126C33.6368 41.8126 37.9608 37.4881 43.2747 37.4881Z" fill="#2F4050"/>
<mask id="mask0_1_560" style="mask-type:alpha" maskUnits="userSpaceOnUse" x="5" y="0" width="54" height="64">
<path d="M26.1067 0.23821C20.4951 0.23821 15.2183 2.42428 11.2493 6.3924C3.90574 13.735 2.99422 27.5491 9.27427 35.9201L26.0612 60.1643L31.1626 53.492C31.5307 53.0119 31.4404 52.3226 30.9594 51.9554C30.4784 51.5883 29.7923 51.6786 29.4252 52.161L26.1492 56.4448L11.0511 34.6398C5.35525 27.0454 6.17101 14.5687 12.7993 7.94113C16.3534 4.38747 21.0803 2.42907 26.1077 2.42907C31.1341 2.42907 35.86 4.387 39.415 7.94113C45.3057 13.8319 46.6664 24.894 42.4469 32.6001C42.1557 33.1302 42.3511 33.7982 42.8812 34.0871C43.4113 34.3807 44.0793 34.183 44.3682 33.6529C49.1016 25.0066 47.6057 13.033 40.964 6.39125C36.996 2.42325 31.7201 0.237061 26.1077 0.237061L26.1067 0.23821ZM26.2993 13.3855C22.0716 13.3855 18.6304 16.8267 18.6304 21.0544C18.6304 25.2822 22.0716 28.7234 26.2993 28.7234C30.5271 28.7234 33.9683 25.2822 33.9683 21.0544C33.9683 16.8267 30.5281 13.3855 26.2993 13.3855ZM26.2993 15.5766C29.3197 15.5766 31.7771 18.034 31.7771 21.0544C31.7771 24.0749 29.3198 26.5323 26.2993 26.5323C23.279 26.5323 20.8215 24.0749 20.8215 21.0544C20.8215 18.034 23.2789 15.5766 26.2993 15.5766ZM43.2747 35.2969C36.7526 35.2969 31.446 40.6038 31.446 47.1257C31.446 53.6479 36.7529 58.9525 43.2747 58.9525C45.9492 58.9525 48.4099 58.0507 50.3937 56.5474L56.9691 63.4247C57.1839 63.6492 57.4714 63.7627 57.7608 63.7627C58.0334 63.7627 58.3057 63.6613 58.5182 63.459C58.9552 63.0395 58.97 62.3446 58.5524 61.9076L52.0135 55.0692C53.9265 52.9669 55.1033 50.1849 55.1033 47.126C55.1024 40.6039 49.7964 35.2968 43.2746 35.2968L43.2747 35.2969ZM43.2747 37.4881C48.5882 37.4881 52.9104 41.8121 52.9104 47.126C52.9104 52.4395 48.5882 56.7617 43.2747 56.7617C37.9613 56.7617 33.6368 52.4395 33.6368 47.126C33.6368 41.8126 37.9608 37.4881 43.2747 37.4881Z" fill="#2F4050"/>
</mask>
<g mask="url(#mask0_1_560)">
<path d="M33.5 56.5L31 49.5L30.5 42.5L37 35L41.5 34.5L51.5 36L63.5 48L67 58L64 67L42 62L33.5 56.5Z" fill="#CF5555"/>
</g>
</svg>
