<svg width="60" height="60" viewBox="0 0 60 60" fill="none" xmlns="http://www.w3.org/2000/svg">
    <path d="M29.5761 43.5525C27.7045 43.5482 25.8762 44.1153 24.3359 45.1783L25.4434 46.7648L25.443 46.7643C26.6688 45.9359 28.114 45.4914 29.5933 45.4875C31.0731 45.4837 32.5205 45.9208 33.7506 46.7428L34.8373 45.142H34.8369C33.3001 44.1002 31.4848 43.5465 29.6284 43.5525L29.5761 43.5525Z" fill="#2F4050"/>
    <path d="M22.2111 41.8519L23.2676 43.4729C25.1464 42.2588 27.3367 41.6143 29.5736 41.6174H29.6185C31.8468 41.6057 34.0301 42.2441 35.9012 43.4539L36.9577 41.8324C34.7488 40.4265 32.1845 39.6806 29.5662 39.6824C26.9565 39.6806 24.4021 40.4344 22.2109 41.8519H22.2111Z" fill="#2F4050"/>
    <path d="M26.4297 48.2961L27.4257 49.9551L27.4253 49.9555C28.7603 49.1794 30.4082 49.1733 31.7484 49.9404L32.7293 48.2727C31.77 47.722 30.6824 47.4344 29.5762 47.4383C28.4701 47.4426 27.3847 47.7385 26.4297 48.2961V48.2961Z" fill="#2F4050"/>
    <path d="M29.6589 51.2925C30.1932 51.2925 30.6264 51.8268 30.6264 52.26C30.6264 52.7943 30.1932 53.2275 29.6589 53.2275C29.1246 53.2275 28.6914 52.6932 28.6914 52.26C28.6914 51.7257 29.1246 51.2925 29.6589 51.2925Z" fill="#2F4050"/>
    <path d="M11.7917 30.2894C10.3085 32.3384 9.90682 34.9784 10.7132 37.376C11.2216 38.9093 12.2046 40.2409 13.5208 41.1774C14.8363 42.1142 16.4164 42.6075 18.0313 42.5854V40.6504C16.8289 40.6599 15.654 40.2923 14.6714 39.5986C13.6892 38.905 12.9493 37.921 12.5558 36.7847C11.942 34.975 12.2396 32.9804 13.3557 31.4292C13.9755 30.5641 14.8247 29.889 15.8073 29.48C16.7895 29.0709 17.8667 28.9435 18.9176 29.1133C19.1824 29.153 19.4519 29.0813 19.6618 28.915C19.8722 28.7487 20.0035 28.5025 20.0255 28.2356C20.2769 25.188 21.9557 22.4392 24.5524 20.8239C27.1491 19.2085 30.357 18.9174 33.2021 20.0386C36.0472 21.1604 38.1935 23.5622 38.989 26.5148C39.1195 26.9981 39.5976 27.3022 40.0909 27.2154C41.7352 26.9251 43.7691 27.0081 46.3624 29.8177C47.4426 30.9576 48.0434 32.4689 48.0404 34.0389C47.9886 35.8033 47.2535 37.4791 45.9905 38.7123C44.7276 39.9459 43.035 40.6405 41.2697 40.6503V42.5853C43.5394 42.5728 45.7154 41.6792 47.3395 40.0936C48.9636 38.5076 49.9081 36.3532 49.9742 34.0842C49.9885 32.0123 49.2041 30.0146 47.7843 28.5055C45.4943 26.0242 43.2436 24.9849 40.6058 25.1992C39.4647 21.9365 36.9275 19.3527 33.6864 18.1525C30.4449 16.9518 26.837 17.2593 23.8455 18.9913C20.8544 20.7233 18.7912 23.6988 18.2188 27.1075C15.6839 27.0487 13.282 28.2378 11.7918 30.2894L11.7917 30.2894Z" fill="#2F4050"/>
    <path d="M40.3007 34.8449C40.3003 34.3318 40.096 33.8398 39.7336 33.477C39.3708 33.1146 38.8788 32.9103 38.3657 32.9099H20.9506C20.4375 32.9103 19.9455 33.1146 19.5827 33.477C19.2204 33.8398 19.0161 34.3318 19.0156 34.8449V58.065C19.0161 58.5782 19.2204 59.0701 19.5827 59.4329C19.9455 59.7953 20.4375 59.9996 20.9506 60H38.3657C38.8788 59.9996 39.3708 59.7953 39.7336 59.4329C40.096 59.0701 40.3003 58.5781 40.3007 58.065V34.8449ZM20.9506 58.065V34.8449H38.3657L38.367 58.065H20.9506Z" fill="#2F4050"/>
    <path d="M28.6916 7.61742V15.4948H30.6266V7.61742C31.8533 7.30082 32.8471 6.40367 33.2876 5.2159C33.7282 4.02814 33.5593 2.69995 32.8358 1.66035C32.1124 0.620287 30.9259 0 29.6591 0C28.3923 0 27.2057 0.620243 26.4824 1.66035C25.7589 2.69998 25.59 4.02814 26.0306 5.2159C26.4711 6.40367 27.465 7.30074 28.6916 7.61742H28.6916ZM29.6591 1.94972C30.1722 1.94972 30.6646 2.15359 31.0274 2.5164C31.3902 2.87921 31.5941 3.37161 31.5941 3.88473C31.5941 4.39785 31.3902 4.89025 31.0274 5.25305C30.6646 5.61586 30.1722 5.81974 29.6591 5.81974C29.146 5.81974 28.6536 5.61586 28.2908 5.25305C27.928 4.89025 27.7241 4.39785 27.7241 3.88473C27.7245 3.37161 27.9288 2.87965 28.2912 2.51684C28.654 2.15446 29.146 1.95016 29.6591 1.94973L29.6591 1.94972Z" fill="#CF5555"/>
    <path d="M11.8695 15.1222C12.5589 15.1192 13.2344 14.9304 13.8253 14.5758L19.3954 20.1459L20.7637 18.7776L15.1936 13.2075L15.1932 13.2079C15.6346 12.4728 15.8165 11.6111 15.7098 10.7602C15.6035 9.90973 15.2148 9.1193 14.6058 8.51591C13.8689 7.81187 12.8889 7.41882 11.8696 7.41882C10.8502 7.41882 9.87021 7.81187 9.13336 8.51591C8.40773 9.24154 8 10.2259 8 11.2521C8.00043 12.2784 8.40773 13.2628 9.13336 13.9883C9.85899 14.7144 10.8434 15.1221 11.8696 15.1221L11.8695 15.1222ZM10.5016 9.88429C10.8644 9.52104 11.3564 9.31718 11.8695 9.31718C12.3831 9.31675 12.875 9.52061 13.2383 9.88386C13.6011 10.2467 13.805 10.7391 13.805 11.2522C13.8045 11.7653 13.6007 12.2577 13.2379 12.6205C12.869 12.9725 12.3792 13.1686 11.8695 13.1686C11.3599 13.1686 10.8701 12.9725 10.5016 12.6205C10.1384 12.2577 9.93452 11.7653 9.93452 11.2522C9.93452 10.7391 10.1384 10.2471 10.5016 9.8843L10.5016 9.88429Z" fill="#CF5555"/>
    <path d="M39.9187 20.1465L45.4888 14.5764C46.5781 15.2195 47.9136 15.2882 49.0629 14.7609C50.2126 14.233 51.0312 13.1761 51.254 11.9309C51.4769 10.6856 51.0761 9.41016 50.1807 8.51652C49.4438 7.81248 48.4638 7.41943 47.4445 7.41943C46.4251 7.41943 45.4451 7.81248 44.7083 8.51652C44.0993 9.11991 43.7105 9.91028 43.6043 10.7608C43.4976 11.6117 43.6794 12.4733 44.1208 13.2085L38.5508 18.7786L39.9187 20.1465ZM46.0763 9.88485C46.4391 9.5216 46.9315 9.31773 47.4446 9.31773C47.9577 9.3173 48.4501 9.52116 48.8129 9.88442C49.1762 10.2472 49.38 10.7396 49.3796 11.2527C49.3796 11.7659 49.1757 12.2583 48.8125 12.6211C48.4441 12.9731 47.9543 13.1692 47.4446 13.1692C46.9349 13.1692 46.4451 12.9731 46.0763 12.6211C45.7135 12.2583 45.5096 11.7659 45.5096 11.2527C45.5096 10.7396 45.7135 10.2477 46.0763 9.88486L46.0763 9.88485Z" fill="#CF5555"/>
</svg>
