<svg width="62" height="53" viewBox="0 0 62 53" fill="none" xmlns="http://www.w3.org/2000/svg">
    <path d="M40.2511 33.3632L40.2506 33.3635C38.1627 34.4839 36.644 36.0872 35.7688 38.1153C35.3892 38.9646 34.6672 39.6041 33.7759 39.8561L33.7747 39.8565C32.914 40.1075 32.0003 39.9661 31.2547 39.4584L31.2542 39.4575L31.2375 39.4408L13.8746 22.088L13.8736 22.0864C13.8716 22.0834 13.8675 22.0772 13.863 22.0709C13.8606 22.0676 13.8573 22.0632 13.8531 22.0582C13.3536 21.3217 13.2108 20.398 13.4622 19.5355C13.7241 18.6417 14.3553 17.9203 15.2029 17.5506L15.2032 17.5504C17.2405 16.6567 18.8344 15.1478 19.9552 13.0589L19.9553 13.0588C20.9238 11.2488 20.5503 8.93663 19.0498 7.43618L13.897 2.28381C12.9805 1.36727 11.7707 0.859892 10.4832 0.850004L10.4832 0.85H10.482C9.15724 0.85 7.97488 1.33794 7.06698 2.24593C7.06698 2.24593 7.06697 2.24594 7.06697 2.24594L4.87228 4.44063C4.86447 4.44587 4.84685 4.45866 4.83137 4.47985C4.82941 4.48255 4.82754 4.48528 4.82578 4.48805C2.01093 7.52959 0.677444 11.1463 0.867855 15.217C1.13463 21.0502 4.44316 26.8268 7.72781 31.1861C10.9886 35.5139 14.2435 38.4676 14.5365 38.7274C14.8192 39.0426 17.786 42.3117 22.1221 45.5812C26.4863 48.8718 32.2603 52.1804 38.0929 52.4522L38.0942 52.4523C38.3489 52.4618 38.5976 52.4711 38.8468 52.4711C42.6209 52.4711 45.9851 51.1224 48.8575 48.46L48.8575 48.4601L48.8616 48.4561L51.0646 46.2531C52.9394 44.3782 52.9183 41.3141 51.0267 39.4225L45.883 34.2784C44.3828 32.7783 42.0708 32.3948 40.2511 33.3632ZM10.3997 2.56736L10.4715 2.56815C11.3024 2.5773 12.0875 2.90216 12.6837 3.49795C12.6837 3.49796 12.6837 3.49797 12.6837 3.49798L17.8269 8.64118C18.8045 9.61882 19.0436 11.098 18.4342 12.2366C18.1276 12.807 17.7657 13.3083 17.376 13.7699L7.66931 4.07256L8.28184 3.46004L8.28184 3.46004L8.28267 3.4592C8.84435 2.88864 9.55628 2.56743 10.3997 2.56736ZM38.2726 50.7385L38.2723 50.7378L38.1731 50.7332C32.737 50.4801 27.1802 47.2331 22.9474 44.0071C18.8985 40.9214 16.0847 37.8736 15.7791 37.5426C15.7657 37.528 15.7571 37.5187 15.7534 37.5149L15.7482 37.5094L15.7424 37.5044C15.7424 37.5044 15.7415 37.5036 15.739 37.5014L15.7297 37.4931L15.6976 37.464C15.6703 37.4391 15.6315 37.4036 15.5821 37.3577C15.4832 37.266 15.3417 37.1332 15.1636 36.962C14.8074 36.6196 14.3048 36.1242 13.7035 35.4984C12.5009 34.2467 10.9046 32.4744 9.29679 30.364C6.07665 26.1371 2.82951 20.578 2.57655 15.1378L2.57655 15.1377C2.40832 11.5393 3.58416 8.34589 6.08958 5.65231L6.45431 5.28757L16.1384 14.9716C15.6345 15.368 15.1007 15.717 14.5075 15.9715L14.5065 15.9719C13.1895 16.5478 12.2037 17.6698 11.8034 19.0555L11.8034 19.0556C11.413 20.4117 11.6374 21.8574 12.4189 23.0104L12.4187 23.0104L12.4229 23.016L12.5077 23.1296L12.5108 23.1337C12.5368 23.1685 12.5706 23.2138 12.6067 23.2499L30.0513 40.6945C30.0618 40.705 30.0754 40.7164 30.0849 40.7242C30.0959 40.7333 30.1086 40.7435 30.1203 40.7528L30.1217 40.7539C30.1332 40.7631 30.1438 40.7716 30.1527 40.7789C30.1633 40.7875 30.1667 40.7907 30.1661 40.7902L30.1824 40.8061L30.197 40.8135L30.2017 40.817C30.2085 40.8221 30.2171 40.829 30.2263 40.8365C30.2313 40.8407 30.2362 40.8448 30.2408 40.8487C30.2445 40.8518 30.2479 40.8548 30.251 40.8574L30.2591 40.8646C30.2597 40.8651 30.2602 40.8655 30.2605 40.8658C30.2608 40.8661 30.2609 40.8662 30.2609 40.8662L30.2694 40.8747L30.281 40.8826C31.4437 41.6737 32.8892 41.8982 34.2456 41.5078L34.2458 41.5078C35.6311 41.1075 36.7532 40.1222 37.3385 38.8055L37.3393 38.8037C37.5938 38.2104 37.9428 37.6767 38.3392 37.1729L48.0232 46.8569L47.6681 47.212C44.9898 49.6944 41.839 50.8807 38.2726 50.7385ZM49.8692 45.0085L49.85 45.0278L49.8495 45.0282L49.2369 45.6408L39.5301 35.9339C39.9923 35.5422 40.493 35.1737 41.0618 34.8767L41.0627 34.8762C42.2109 34.2662 43.6909 34.5057 44.668 35.4832L44.7741 35.3771L44.668 35.4832L49.8113 40.6264L49.9173 40.5203L49.8113 40.6264C51.0343 41.849 51.0558 43.8098 49.8692 45.0085Z" fill="#2F4050" stroke="#2F4050" stroke-width="0.3"/>
    <path d="M60.3652 2.56393L60.3623 2.56106H60.2999H49.5972C49.2562 2.56106 48.9345 2.76474 48.806 3.08886C48.668 3.4127 48.7513 3.77741 48.9878 4.02478L48.9878 4.02481L48.9901 4.02719L51.0588 6.09582L35.6213 21.5333C35.2885 21.8661 35.2884 22.4151 35.6214 22.7476M60.3652 2.56393L44.8532 4.02714L44.8531 4.02721L31.4937 17.4056L31.3876 17.2996M60.3652 2.56393C60.8041 2.59687 61.16 2.9612 61.1498 3.42238V14.1136C61.1498 14.4587 60.9427 14.7672 60.6241 14.904L60.6239 14.9041C60.3014 15.042 59.9243 14.9614 59.6837 14.7207L57.615 12.6521M60.3652 2.56393L57.615 12.6521M35.6214 22.7476L35.6213 22.7475L35.7273 22.6414L35.6214 22.7476ZM35.6214 22.7476L36.8308 23.957M36.8308 23.957H29.07M36.8308 23.957L36.9808 24.107H29.07V23.957M36.8308 23.957H37.0429L29.07 15.9841M29.07 23.957V16.1962M29.07 23.957H28.92V16.0462L29.07 16.1962M29.07 16.1962L30.2795 17.4057C30.6122 17.7384 31.1613 17.7385 31.4937 17.4056L31.3876 17.2996M29.07 16.1962V15.9841M31.3876 17.2996C31.1138 17.5738 30.6598 17.5738 30.3855 17.2996L29.07 15.9841M31.3876 17.2996L29.07 15.9841M43.6389 25.4142C43.6389 25.4142 43.6389 25.4142 43.6389 25.4141L43.7449 25.3081L43.6389 25.4142ZM43.6389 25.4142C43.8104 25.5857 44.029 25.6661 44.2459 25.6661C44.4634 25.6661 44.6815 25.5856 44.853 25.4141L57.615 12.6521M43.6389 25.4142L57.615 12.6521M44.853 2.81298C44.5203 2.48034 43.9714 2.48022 43.639 2.81307L44.853 2.81298ZM43.6389 2.81315L30.877 15.5751L28.8083 13.5065C28.5677 13.2658 28.1906 13.1852 27.868 13.3231L27.8679 13.3232C27.5493 13.46 27.3422 13.7685 27.3422 14.1135V24.8071C27.3422 25.2778 27.7311 25.6661 28.2013 25.6661H38.8948C39.2358 25.6661 39.5575 25.4624 39.686 25.1383C39.824 24.8145 39.7407 24.4498 39.5042 24.2024L39.5042 24.2024L39.5019 24.2L37.4332 22.1314L52.8707 6.69387C53.2034 6.36114 53.2036 5.81216 52.8707 5.47972L43.6389 2.81315ZM52.8706 5.47964L51.6612 4.27024H59.422V12.031L58.2125 10.8215C57.8798 10.4888 57.3307 10.4886 56.9983 10.8216L43.6389 24.2L43.6388 24.2001L52.8706 5.47964Z" fill="#CF5555" stroke="#CF5555" stroke-width="0.3"/>
</svg>
