<svg width="62" height="60" viewBox="0 0 62 60" fill="none" xmlns="http://www.w3.org/2000/svg">
    <path d="M18.8078 34.8195L19.9419 35.0744C20.112 35.6982 20.3669 36.3028 20.6883 36.8696L20.0554 37.8523C19.8757 38.1359 19.9136 38.4948 20.1498 38.731L21.7089 40.2901C21.9451 40.5263 22.3135 40.5641 22.5876 40.3844L23.5889 39.7707C24.1558 40.0921 24.7605 40.347 25.3842 40.5171L25.6391 41.6512C25.7148 41.9727 25.998 42.2089 26.329 42.2089H28.5401C28.8707 42.2089 29.1639 41.9823 29.23 41.6512L29.4849 40.5171C30.1087 40.347 30.7134 40.0921 31.2802 39.7707L32.2629 40.4036C32.5465 40.5833 32.9149 40.5454 33.1416 40.3092L34.7006 38.7501C34.9368 38.5139 34.9747 38.1455 34.795 37.8714L34.1621 36.8888C34.4835 36.322 34.7385 35.7172 34.9085 35.0935L36.0426 34.8386C36.3641 34.7629 36.6003 34.4797 36.6003 34.1487L36.5999 31.9284C36.5999 31.5978 36.3732 31.3046 36.0422 31.2384L34.9081 30.9835C34.738 30.3597 34.4831 29.7551 34.1616 29.1883L34.7946 28.2056C34.9742 27.922 34.9364 27.5631 34.7002 27.3269L33.1411 25.7678C32.9049 25.5316 32.5365 25.4938 32.2624 25.6734L31.2798 26.2972C30.7129 25.9758 30.1082 25.7209 29.4845 25.5508L29.2296 24.4167C29.1539 24.0952 28.8707 23.859 28.5397 23.859H26.3289C25.9983 23.859 25.7051 24.0857 25.639 24.4167L25.3841 25.5408C24.7603 25.7108 24.1557 25.9662 23.5888 26.2872L22.5966 25.6639C22.3225 25.4842 21.9541 25.5221 21.7179 25.7583L20.1588 27.3173C19.9226 27.5535 19.8848 27.922 20.0644 28.196L20.6878 29.1883C20.3668 29.7551 20.1114 30.3502 19.9413 30.9835L18.8072 31.2384C18.4766 31.3046 18.25 31.5882 18.25 31.9284V34.1394C18.25 34.4605 18.4766 34.7532 18.8077 34.8193L18.8078 34.8195ZM19.6673 32.4952L20.6783 32.2686C20.9523 32.2116 21.1699 31.9945 21.2264 31.7205C21.3778 30.9553 21.6801 30.2276 22.1147 29.5659C22.2661 29.3297 22.2661 29.0369 22.1147 28.8007L21.5666 27.922L22.3226 27.1659L23.2013 27.7236C23.4375 27.875 23.7399 27.875 23.9665 27.7236C24.6281 27.2795 25.3559 26.9772 26.1211 26.8258C26.3952 26.7692 26.6031 26.5613 26.6692 26.2872L26.8959 25.2763H27.9634L28.19 26.2872C28.2465 26.5613 28.464 26.7692 28.7381 26.8258C29.5033 26.9863 30.231 27.2886 30.8923 27.7236C31.1285 27.875 31.4212 27.875 31.6574 27.7236L32.5362 27.1659L33.2922 27.922L32.7345 28.8007C32.5831 29.0369 32.5831 29.3392 32.7345 29.5659C33.1691 30.2366 33.4714 30.9549 33.6324 31.72C33.6889 31.9941 33.8969 32.2116 34.1709 32.2681L35.1818 32.4948V33.5623L34.1709 33.7889C33.8969 33.8455 33.6889 34.063 33.6324 34.337C33.4719 35.1022 33.1695 35.8299 32.7345 36.4912C32.5831 36.7274 32.5831 37.0202 32.7345 37.2564L33.2922 38.1351L32.5362 38.8911L31.6574 38.3334C31.4212 38.1821 31.1189 38.1821 30.8923 38.3334C30.2311 38.768 29.5033 39.0703 28.7381 39.2313C28.4641 39.2878 28.2561 39.4958 28.19 39.7698L27.9634 40.7808L26.8959 40.7821L26.6692 39.7711C26.6127 39.4971 26.3952 39.2892 26.1211 39.2326C25.3559 39.0717 24.6282 38.7693 23.9665 38.3348C23.7303 38.1834 23.4375 38.1834 23.2013 38.3348L22.3226 38.8924L21.5666 38.1364L22.1243 37.2577C22.2756 37.0215 22.2756 36.7192 22.1243 36.4925C21.6897 35.8313 21.3874 35.1035 21.2264 34.3383C21.1699 34.0643 20.9619 33.8468 20.6879 33.7902L19.6769 33.5636V32.4952L19.6673 32.4952Z" fill="#CF5555"/>
    <path d="M27.4238 37.1636C29.701 37.1636 31.5624 35.3118 31.5624 33.025C31.5624 30.7382 29.7106 28.8864 27.4238 28.8864C25.137 28.8864 23.2852 30.7382 23.2852 33.025C23.2856 35.3118 25.147 37.1636 27.4238 37.1636ZM27.4238 30.3131C28.9263 30.3131 30.1452 31.532 30.1452 33.0346C30.1452 34.5371 28.9264 35.756 27.4238 35.756C25.9213 35.756 24.7023 34.5371 24.7023 33.0346C24.7028 31.5321 25.9308 30.3131 27.4238 30.3131Z" fill="#CF5555"/>
    <path d="M58.4028 57.8148C59.3309 57.8148 60.0837 57.062 60.0837 56.1338V46.5807C60.0837 45.6525 59.331 44.8997 58.4028 44.8997H3.59974C2.6716 44.8997 1.91876 45.6524 1.91876 46.5807V56.1338C1.91876 57.0619 2.67151 57.8148 3.59974 57.8148H58.4028Z" stroke="#2F4050"/>
    <mask id="mask0_1_6908" style="mask-type:alpha" maskUnits="userSpaceOnUse" x="2" y="45" width="58" height="13">
        <path d="M59.5837 56.1338C59.5837 56.7858 59.0548 57.3148 58.4028 57.3148H3.59974C2.94767 57.3148 2.41876 56.7858 2.41876 56.1338V46.5807C2.41876 45.9286 2.94772 45.3997 3.59974 45.3997H58.4028C59.0548 45.3997 59.5837 45.9286 59.5837 46.5807V56.1338Z" fill="black"/>
    </mask>
    <g mask="url(#mask0_1_6908)">
        <path d="M8.38133 47.7617C6.39732 47.7617 4.78125 49.3773 4.78125 51.3618C4.78125 53.3458 6.39688 54.9619 8.38133 54.9619C10.3653 54.9619 11.9814 53.3463 11.9814 51.3618C11.9814 49.3773 10.3562 47.7617 8.38133 47.7617ZM8.38133 53.5347C7.18119 53.5347 6.19843 52.5616 6.19843 51.3518C6.19843 50.1425 7.17154 49.1689 8.38133 49.1689C9.5906 49.1689 10.5642 50.142 10.5642 51.3518C10.5642 52.5616 9.58156 53.5347 8.38133 53.5347Z" fill="#2F4050"/>
        <path d="M19.6899 47.7617C17.7059 47.7617 16.0898 49.3773 16.0898 51.3618C16.0898 53.3458 17.7055 54.9619 19.6899 54.9619C21.6739 54.9619 23.29 53.3463 23.29 51.3618C23.2896 49.3773 21.6739 47.7617 19.6899 47.7617ZM19.6899 53.5347C18.4898 53.5347 17.507 52.5616 17.507 51.3518C17.507 50.1425 18.4801 49.1689 19.6899 49.1689C20.8992 49.1689 21.8728 50.142 21.8728 51.3518C21.8724 52.5615 20.8897 53.5347 19.6899 53.5347Z" fill="#2F4050"/>
        <path d="M31.0024 47.7617C29.0184 47.7617 27.4023 49.3773 27.4023 51.3618C27.4023 53.3458 29.018 54.9619 31.0024 54.9619C32.9864 54.9619 34.6025 53.3463 34.6025 51.3618C34.6025 49.3773 32.9864 47.7617 31.0024 47.7617ZM31.0024 53.5347C29.8023 53.5347 28.8195 52.5616 28.8195 51.3518C28.8195 50.1425 29.7926 49.1689 31.0024 49.1689C32.2117 49.1689 33.1853 50.142 33.1853 51.3518C33.1853 52.5616 32.2027 53.5347 31.0024 53.5347Z" fill="#2F4050"/>
        <path d="M42.311 47.7617C40.327 47.7617 38.7109 49.3773 38.7109 51.3618C38.7109 53.3458 40.3266 54.9619 42.311 54.9619C44.295 54.9619 45.9111 53.3463 45.9111 51.3618C45.9111 49.3773 44.2955 47.7617 42.311 47.7617ZM42.311 53.5347C41.1109 53.5347 40.1281 52.5616 40.1281 51.3518C40.1281 50.1425 41.1012 49.1689 42.311 49.1689C43.5203 49.1689 44.4939 50.142 44.4939 51.3518C44.4939 52.5616 43.5112 53.5347 42.311 53.5347Z" fill="#2F4050"/>
        <path d="M53.6196 47.7617C51.6356 47.7617 50.0195 49.3773 50.0195 51.3618C50.0195 53.3458 51.6352 54.9619 53.6196 54.9619C55.6036 54.9619 57.2197 53.3463 57.2197 51.3618C57.2193 49.3773 55.6036 47.7617 53.6196 47.7617ZM53.6196 53.5347C52.4195 53.5347 51.4367 52.5616 51.4367 51.3518C51.4367 50.1425 52.4098 49.1689 53.6196 49.1689C54.8289 49.1689 55.8025 50.142 55.8025 51.3518C55.8021 52.5615 54.8194 53.5347 53.6196 53.5347Z" fill="#2F4050"/>
    </g>
    <path d="M46.0133 16.0037L36.6777 10.2777C36.3471 10.0698 35.903 10.1738 35.7046 10.5139C35.4967 10.8445 35.6006 11.2791 35.9408 11.487L45.8998 17.6005C46.1078 20.3502 48.4133 22.5326 51.2196 22.5326C52.0039 22.5326 52.7408 22.3625 53.4116 22.0602V31.1783H49.0272V24.0729C49.0272 23.6853 48.7057 23.3643 48.3186 23.3643C47.931 23.3643 47.6099 23.6858 47.6099 24.0729V31.1783H46.7878C45.0587 31.1783 43.651 32.586 43.651 34.3152V41.8647C43.651 42.2522 43.9724 42.5733 44.3596 42.5733C44.7472 42.5733 45.0682 42.2518 45.0682 41.8647L45.0687 34.306C45.0687 33.3612 45.8434 32.5865 46.7882 32.5865H48.3094H48.3189H54.1206H54.1302H55.6514C56.5962 32.5865 57.3709 33.3612 57.3709 34.306V41.8555C57.3709 42.2431 57.6924 42.5641 58.0795 42.5641C58.4671 42.5641 58.7882 42.2427 58.7882 41.8555V34.306C58.7882 32.5769 57.3804 31.1692 55.6513 31.1692H54.8292V21.1154C55.8876 20.1423 56.5583 18.7438 56.5583 17.1847C56.5583 14.2366 54.1584 11.8463 51.2199 11.8463C48.6777 11.8458 46.5518 13.6224 46.0133 16.0036L46.0133 16.0037ZM51.2195 13.2632C53.3832 13.2632 55.1406 15.0206 55.1406 17.1843C55.1406 19.3481 53.3832 21.1055 51.2195 21.1055C49.0557 21.1055 47.2983 19.3481 47.2983 17.1843C47.2983 15.021 49.0557 13.2632 51.2195 13.2632Z" fill="#2F4050"/>
    <path d="M23.7264 18.3656H16.3561C14.9198 18.3656 13.7578 19.528 13.7578 20.9639V25.9434C13.7578 26.331 14.0793 26.652 14.4664 26.652C14.854 26.652 15.1751 26.3306 15.1751 25.9434V20.9639C15.1751 20.3118 15.704 19.7829 16.356 19.7829H23.7355C24.0661 21.3985 25.4929 22.6174 27.2034 22.6174C28.9139 22.6174 30.3498 21.3985 30.6713 19.7829H38.0507C38.7028 19.7829 39.2317 20.3119 39.2317 20.9639V25.9434C39.2317 26.331 39.5532 26.652 39.9403 26.652C40.3279 26.652 40.649 26.3306 40.649 25.9434V20.9639C40.649 19.5276 39.4866 18.3656 38.0507 18.3656H30.6712C30.5486 17.7418 30.2462 17.1846 29.84 16.7308L32.4382 10.8348C34.2522 10.4003 35.6321 8.85995 35.84 6.96069L46.6211 11.7419C46.7155 11.7797 46.8099 11.7984 46.9047 11.7984C47.1787 11.7984 47.4337 11.6379 47.5568 11.3734C47.7173 11.0145 47.5568 10.5987 47.1979 10.4382L35.7266 5.36388C35.2259 3.43633 33.4872 2 31.3992 2C28.9236 2 26.9108 4.01274 26.9108 6.48841C26.9108 7.65993 27.3736 8.71819 28.1109 9.52166L26.344 15.6539C25.0302 15.9845 24.0006 17.0333 23.7265 18.3657L23.7264 18.3656ZM27.2034 21.2001C26.0319 21.2001 25.0776 20.2457 25.0776 19.0742C25.0776 18.0067 25.8714 17.1276 26.9011 16.9766C26.9955 16.9579 27.0994 16.9483 27.2034 16.9483C28.3749 16.9483 29.3293 17.9027 29.3293 19.0742C29.3293 20.2457 28.3753 21.2001 27.2034 21.2001L27.2034 21.2001ZM30.8505 10.9201L28.6676 15.8618C28.4031 15.7391 28.1195 15.6538 27.8267 15.5973L29.3101 10.4382C29.7829 10.6835 30.3028 10.8536 30.8504 10.9201L30.8505 10.9201ZM31.3895 3.41763C32.8541 3.41763 34.0826 4.45685 34.3849 5.83672C34.3849 5.90284 34.3944 5.96896 34.4131 6.03508C34.4318 6.18646 34.4606 6.3374 34.4606 6.48879C34.4606 8.18014 33.0811 9.55945 31.3899 9.55945C30.6056 9.55945 29.897 9.25713 29.3489 8.76557C29.3393 8.756 29.3393 8.756 29.3302 8.756C28.7064 8.1892 28.3096 7.38571 28.3096 6.48836C28.3183 4.78754 29.6977 3.41769 31.3894 3.41769L31.3895 3.41763Z" fill="#2F4050"/>
</svg>
