<svg width="60" height="60" viewBox="0 0 60 60" fill="none" xmlns="http://www.w3.org/2000/svg">
    <path d="M30.0102 51.4725C25.762 51.4735 21.6095 50.2141 18.0771 47.8536C14.5452 45.4937 11.792 42.1391 10.1665 38.2138C8.54058 34.289 8.11526 29.9697 8.94383 25.8031C9.77287 21.6366 11.8184 17.8088 14.8224 14.8052C17.8265 11.8012 21.6537 9.75538 25.82 8.92718C29.9863 8.09896 34.3046 8.52483 38.2288 10.1515C42.153 11.7782 45.507 14.5319 47.8661 18.0653C50.2252 21.5982 51.4839 25.7518 51.4824 30.0003C51.4752 35.6937 49.2106 41.1517 45.1853 45.177C41.1599 49.2025 35.7024 51.4669 30.011 51.4732L30.0102 51.4725ZM30.0102 9.76544V9.76592C24.6462 9.76496 19.5013 11.8952 15.7074 15.6881C11.9136 19.4809 9.78195 24.6258 9.78097 29.9906C9.78001 35.3555 11.9099 40.5012 15.7022 44.2957C19.494 48.09 24.638 50.2221 30.0025 50.2236C35.3665 50.225 40.5114 48.0948 44.3053 44.3024C48.0994 40.51 50.2317 35.3652 50.2332 29.9998C50.2275 24.6363 48.0956 19.4945 44.3043 15.7009C40.5134 11.9076 35.3728 9.77304 30.0101 9.76531L30.0102 9.76544Z" fill="#2F4050"/>
    <path d="M30.004 51.4725C24.228 51.4725 19.7031 42.0399 19.7031 29.9977C19.7031 17.9548 24.229 8.51562 30.004 8.51562C35.779 8.51562 40.3039 17.952 40.3039 30.0002C40.3039 42.0484 35.7804 51.4725 30.004 51.4725ZM30.004 9.76541C25.0978 9.76541 20.9527 19.0307 20.9527 29.9977C20.9527 40.9649 25.0993 50.2239 30.004 50.2239C34.9087 50.2239 39.054 40.9616 39.054 30.0014C39.054 19.0412 34.9107 9.76664 30.004 9.76664V9.76541Z" fill="#2F4050"/>
    <path d="M30.0038 40.2955C17.9638 40.2955 8.53125 35.7712 8.53125 29.9954C8.53125 24.2196 17.9604 19.6929 30.0038 19.6929C42.0473 19.6929 51.4789 24.2185 51.4789 29.9954C51.4789 35.7723 42.0449 40.2955 30.0038 40.2955ZM30.0038 20.9422C19.0422 20.9422 9.78084 25.0881 9.78084 29.9949C9.78084 34.9017 19.0389 39.0448 30.0038 39.0448C40.9688 39.0448 50.2329 34.9004 50.2329 29.9949C50.2329 25.0889 40.9663 20.9422 30.0038 20.9422Z" fill="#2F4050"/>
    <path d="M36.7185 10.8629C36.3733 10.8629 36.0938 10.5834 36.0938 10.2381V9.5566C36.0971 8.91446 36.3536 8.30019 36.8077 7.84594L40.5257 4.13267H40.5262C40.7707 3.88905 41.1663 3.88905 41.4103 4.13363C41.6544 4.37773 41.6539 4.77385 41.4098 5.01795L37.6919 8.73023H37.6914C37.4713 8.9494 37.3462 9.24624 37.3433 9.55653V10.238C37.3433 10.5833 37.0638 10.8629 36.7185 10.8629L36.7185 10.8629Z" fill="#2F4050"/>
    <path d="M42.7111 6.04348C41.9487 6.04252 41.2179 5.739 40.6799 5.1991C40.1415 4.65968 39.8394 3.9284 39.8398 3.16649C39.8408 2.40411 40.1438 1.67337 40.6833 1.13486C41.2227 0.596398 41.9535 0.293833 42.7159 0.294312C43.4778 0.294312 44.209 0.597356 44.7475 1.13678C45.2865 1.67572 45.589 2.4065 45.589 3.1689C45.5871 3.93128 45.2831 4.66202 44.7437 5.20052C44.2043 5.73947 43.4735 6.04251 42.7111 6.04347L42.7111 6.04348ZM42.7111 1.54398C42.0537 1.54541 41.462 1.94291 41.2122 2.55042C40.9619 3.15841 41.1028 3.8566 41.5684 4.32023C42.034 4.78389 42.7331 4.9215 43.3397 4.66833C43.9462 4.41564 44.3409 3.82251 44.3394 3.16514C44.337 2.26801 43.6077 1.54252 42.711 1.54497L42.7111 1.54398Z" fill="#2F4050"/>
    <path d="M23.2885 10.8691C22.9433 10.8691 22.6632 10.5895 22.6632 10.2442V9.55651C22.6647 9.24624 22.5414 8.94842 22.3218 8.72974L18.5981 5.01794H18.5976C18.3608 4.77288 18.3636 4.38299 18.6043 4.14177C18.845 3.90007 19.2349 3.89624 19.4804 4.13266L23.2051 7.84495L23.2046 7.84543C23.6601 8.29814 23.9152 8.91438 23.9133 9.55658V10.2443C23.9133 10.4102 23.8476 10.5689 23.7301 10.686C23.6131 10.8035 23.4539 10.8692 23.2885 10.8692L23.2885 10.8691Z" fill="#2F4050"/>
    <path d="M17.2994 6.04349C16.5375 6.04206 15.8073 5.73854 15.2688 5.19911C14.7308 4.65921 14.4287 3.92804 14.4297 3.16613C14.4302 2.40375 14.7337 1.6735 15.2731 1.13451C15.8121 0.596042 16.5433 0.293955 17.3057 0.294434C18.0676 0.294914 18.7984 0.597957 19.3374 1.1369C19.8758 1.67585 20.1789 2.40662 20.1789 3.16902C20.1769 3.9314 19.8729 4.66214 19.333 5.20114C18.7936 5.74008 18.0623 6.04265 17.2996 6.0436L17.2994 6.04349ZM17.2994 1.54399C16.6425 1.54591 16.0513 1.9434 15.8015 2.55091C15.5517 3.1589 15.6922 3.85709 16.1583 4.32072C16.6239 4.7839 17.3229 4.92151 17.9295 4.66834C18.5361 4.41565 18.9302 3.82205 18.9288 3.16515C18.9278 2.73409 18.7552 2.32125 18.4498 2.01773C18.1443 1.71373 17.7305 1.54351 17.2995 1.54495L17.2994 1.54399Z" fill="#2F4050"/>
    <path d="M30.0193 9.7621C29.6741 9.7621 29.3945 9.48256 29.3945 9.13733V5.1249C29.3945 4.77966 29.6741 4.49963 30.0193 4.49963C30.3645 4.49963 30.6441 4.77965 30.6441 5.1249V9.13684C30.6446 9.30275 30.5784 9.46145 30.4614 9.57894C30.3444 9.69642 30.1852 9.7621 30.0193 9.7621H30.0193Z" fill="#2F4050"/>
    <path d="M30.0192 5.74906C29.2568 5.7481 28.5265 5.44458 27.988 4.90516C27.4496 4.36526 27.1475 3.63409 27.1484 2.87218C27.1489 2.10979 27.4524 1.37906 27.9914 0.840553C28.5308 0.302087 29.2621 -0.000478156 30.024 5.67217e-07C30.7864 0.000480027 31.5171 0.303523 32.0561 0.842467C32.5946 1.38141 32.8976 2.11219 32.8976 2.87459C32.8957 3.63697 32.5917 4.36771 32.0523 4.9067C31.5129 5.44517 30.7816 5.74821 30.0193 5.74917L30.0192 5.74906ZM30.0192 1.24955C29.3623 1.25147 28.771 1.64801 28.5208 2.25552C28.2705 2.86256 28.4105 3.56072 28.8751 4.02484C29.3402 4.4885 30.0388 4.62707 30.6454 4.37535C31.252 4.12362 31.6475 3.53144 31.6475 2.87449C31.6475 2.44295 31.4759 2.02915 31.1704 1.72419C30.865 1.41923 30.4507 1.24854 30.0192 1.24949L30.0192 1.24955Z" fill="#2F4050"/>
    <path d="M19.0386 56.0517C18.786 56.0517 18.5582 55.8992 18.4613 55.6652C18.365 55.4317 18.4187 55.1626 18.5975 54.9842L22.3222 51.2719V51.2715C22.5414 51.0528 22.6646 50.7554 22.6631 50.4452V49.745V49.7455C22.6631 49.4002 22.9432 49.1201 23.2884 49.1201C23.6337 49.1201 23.9132 49.4002 23.9132 49.7455V50.4456V50.4452C23.9151 51.0873 23.66 51.7031 23.205 52.1558L19.4798 55.8691H19.4802C19.3628 55.9861 19.2041 56.0518 19.0386 56.0518L19.0386 56.0517Z" fill="#2F4050"/>
    <path d="M17.2995 59.7044C16.5375 59.7034 15.8068 59.3994 15.2683 58.8595C14.7303 58.3196 14.4282 57.588 14.4297 56.8261C14.4307 56.0637 14.7342 55.3329 15.2741 54.7944C15.814 54.2564 16.5451 53.9544 17.3075 53.9553C18.0699 53.9563 18.8007 54.2598 19.3392 54.7997C19.8776 55.3391 20.1792 56.0708 20.1788 56.8327C20.1768 57.5951 19.8728 58.3258 19.3329 58.8643C18.7935 59.4023 18.0619 59.7049 17.2995 59.7044H17.2995ZM17.2995 55.2049C16.643 55.2068 16.0518 55.6038 15.8015 56.2108C15.5517 56.8184 15.6917 57.5165 16.1568 57.9802C16.6219 58.4438 17.3201 58.5824 17.9266 58.3307C18.5332 58.0789 18.9288 57.4868 18.9288 56.8298C18.9259 55.9322 18.1976 55.2058 17.2995 55.2058L17.2995 55.2049Z" fill="#2F4050"/>
    <path d="M40.9678 56.0518C40.8023 56.0518 40.6431 55.9861 40.5261 55.8691L36.8087 52.1568C36.3541 51.7026 36.0971 51.0878 36.0938 50.4453V49.7508C36.0938 49.406 36.3733 49.126 36.7185 49.126C37.0638 49.126 37.3433 49.406 37.3433 49.7508V50.4448C37.3462 50.7555 37.4713 51.0524 37.6914 51.2715L41.4094 54.9833H41.4098C41.5887 55.1622 41.6424 55.4313 41.546 55.6653C41.4492 55.8988 41.2209 56.0513 40.9678 56.0509V56.0518Z" fill="#2F4050"/>
    <path d="M42.7111 59.7044C41.9487 59.7034 41.2179 59.3994 40.6794 58.86C40.141 58.3201 39.8389 57.5884 39.8398 56.8265C39.8408 56.0642 40.1448 55.3334 40.6842 54.7949C41.2241 54.2564 41.9553 53.9544 42.7177 53.9553C43.4801 53.9563 44.2108 54.2598 44.7493 54.7997C45.2878 55.3391 45.5899 56.0704 45.5889 56.8327C45.5875 57.5951 45.283 58.3253 44.7436 58.8638C44.2041 59.4018 43.4729 59.7044 42.711 59.7044L42.7111 59.7044ZM42.7111 55.2049C42.0542 55.2068 41.4629 55.6033 41.2127 56.2108C40.9624 56.8179 41.1019 57.516 41.567 57.9802C42.0321 58.4438 42.7307 58.5824 43.3373 58.3307C43.9438 58.0789 44.3394 57.4868 44.3394 56.8298C44.3361 55.9327 43.6082 55.2067 42.711 55.2058L42.7111 55.2049Z" fill="#2F4050"/>
    <path d="M29.988 55.4997C29.6428 55.4997 29.3633 55.2197 29.3633 54.8745V50.8501C29.3633 50.5049 29.6428 50.2253 29.988 50.2253C30.3333 50.2253 30.6128 50.5049 30.6128 50.8501V54.8745C30.6128 55.0404 30.5471 55.1991 30.4297 55.3166C30.3127 55.4335 30.1535 55.4997 29.988 55.4997H29.988Z" fill="#2F4050"/>
    <path d="M29.9874 59.999C29.2255 59.9981 28.4948 59.6941 27.9568 59.1547C27.4183 58.6148 27.1167 57.8836 27.1172 57.1217C27.1181 56.3598 27.4217 55.6291 27.9606 55.0906C28.5 54.5521 29.2313 54.2495 29.9932 54.25C30.7556 54.2505 31.4863 54.5535 32.0248 55.0925C32.5638 55.6314 32.8664 56.3627 32.8664 57.1246C32.8654 57.8874 32.5619 58.6187 32.022 59.1576C31.4821 59.6965 30.7504 59.9991 29.9875 59.9991L29.9874 59.999ZM29.9874 55.4995V55.5C29.3305 55.5015 28.7398 55.8985 28.4895 56.506C28.2392 57.113 28.3797 57.8112 28.8443 58.2748C29.3094 58.7385 30.0081 58.877 30.6146 58.6253C31.2212 58.3736 31.6168 57.7814 31.6168 57.1245C31.6139 56.2264 30.8855 55.5 29.9875 55.5L29.9874 55.4995Z" fill="#2F4050"/>
    <path d="M55.4264 41.5936C55.2604 41.5936 55.1013 41.5274 54.9838 41.4099L51.2721 37.6852C51.0529 37.4656 50.7562 37.3404 50.4459 37.338H49.7459C49.4011 37.338 49.1211 37.058 49.1211 36.7128C49.1211 36.368 49.4011 36.088 49.7459 36.088H50.4459C51.088 36.0918 51.7026 36.3484 52.1563 36.8025L55.8695 40.5277C56.0478 40.7065 56.1011 40.975 56.0042 41.2085C55.9069 41.4416 55.6791 41.5936 55.4264 41.5936L55.4264 41.5936Z" fill="#2F4050"/>
    <path d="M56.8352 45.5848C56.0714 45.5872 55.3378 45.2851 54.7965 44.7462C54.2551 44.2072 53.9502 43.4751 53.9492 42.7112C53.9478 41.9469 54.2499 41.2138 54.7898 40.673C55.3292 40.1321 56.0613 39.8276 56.8257 39.8271C57.5895 39.8267 58.3221 40.1297 58.8631 40.6696C59.4035 41.2095 59.707 41.9422 59.707 42.706C59.7065 43.4684 59.404 44.1992 58.8655 44.7386C58.3275 45.2781 57.5977 45.5825 56.8353 45.5849L56.8352 45.5848ZM56.8352 41.0771V41.0775C56.1759 41.0747 55.5795 41.4693 55.3248 42.0782C55.0702 42.6867 55.2078 43.3887 55.6734 43.8561C56.139 44.3236 56.8405 44.4641 57.4499 44.2124C58.0598 43.9602 58.4573 43.3656 58.4569 42.7059C58.4564 41.8097 57.7319 41.0819 56.8352 41.0775L56.8352 41.0771Z" fill="#2F4050"/>
    <path d="M50.4494 23.9063H49.7537C49.4089 23.9063 49.1289 23.6267 49.1289 23.2815C49.1289 22.9363 49.4089 22.6567 49.7537 22.6567H50.4475C50.7577 22.6577 51.0555 22.5345 51.2741 22.3148L54.9853 18.5911C55.2294 18.3466 55.625 18.3456 55.8695 18.5892C56.1141 18.8333 56.1145 19.2288 55.871 19.4734L52.1593 23.1981V23.1976C51.7066 23.6526 51.091 23.9082 50.4494 23.9063L50.4494 23.9063Z" fill="#2F4050"/>
    <path d="M56.8352 20.1716C56.0714 20.1735 55.3378 19.8719 54.7965 19.333C54.2551 18.794 53.9502 18.0619 53.9492 17.2975C53.9478 16.5337 54.2503 15.8006 54.7898 15.2596C55.3292 14.7188 56.0618 14.4143 56.8257 14.4138C57.59 14.4133 58.3226 14.7164 58.8631 15.2568C59.4035 15.7967 59.707 16.5293 59.707 17.2932C59.7065 18.0556 59.404 18.7863 58.8655 19.3258C58.3275 19.8652 57.5977 20.1692 56.8353 20.1716L56.8352 20.1716ZM56.8352 15.6639V15.6643C56.1759 15.6615 55.5795 16.0561 55.3248 16.6645C55.0702 17.273 55.2078 17.975 55.6734 18.4424C56.1385 18.91 56.84 19.0509 57.4494 18.7992C58.0594 18.5474 58.4568 17.9529 58.4568 17.293C58.4568 16.3964 57.7319 15.6686 56.8352 15.6642L56.8352 15.6639Z" fill="#2F4050"/>
    <path d="M54.8757 30.6383H50.8513C50.5061 30.6383 50.2266 30.3583 50.2266 30.0131C50.2266 29.6683 50.5061 29.3883 50.8513 29.3883H54.8757C55.2209 29.3883 55.5009 29.6683 55.5009 30.0131C55.5009 30.3583 55.2209 30.6383 54.8757 30.6383Z" fill="#2F4050"/>
    <path d="M57.1287 32.8941C56.3644 32.896 55.6313 32.5944 55.0899 32.055C54.5481 31.516 54.2436 30.7839 54.2422 30.0201C54.2408 29.2562 54.5433 28.5231 55.0827 27.9822C55.6222 27.4408 56.3543 27.1368 57.1187 27.1359C57.8825 27.1354 58.6156 27.4384 59.1561 27.9783C59.6964 28.5182 60 29.2509 60 30.0152C59.9995 30.7771 59.6969 31.5079 59.1589 32.0474C58.6205 32.5868 57.8907 32.8913 57.1288 32.8941L57.1287 32.8941ZM57.1287 28.3864C56.4689 28.3835 55.8725 28.7786 55.6178 29.3871C55.3636 29.9955 55.5012 30.6975 55.9663 31.165C56.4319 31.6325 57.1334 31.773 57.7429 31.5212C58.3528 31.2695 58.7503 30.6744 58.7503 30.0151C58.7493 29.1184 58.0248 28.3911 57.1286 28.3862L57.1287 28.3864Z" fill="#2F4050"/>
    <path d="M10.2535 23.9062H9.56586H9.56634C8.92191 23.911 8.30288 23.654 7.85165 23.1942L4.14327 19.4734C3.89968 19.2288 3.90016 18.8333 4.14471 18.5892C4.38925 18.3456 4.78531 18.3466 5.02888 18.5911L8.74058 22.3158V22.3153C8.95779 22.5369 9.25603 22.6601 9.56627 22.6567H10.2539H10.2534C10.5986 22.6567 10.8786 22.9363 10.8786 23.2815C10.8786 23.6267 10.5986 23.9063 10.2534 23.9063L10.2535 23.9062Z" fill="#2F4050"/>
    <path d="M3.17667 20.1716C2.41284 20.173 1.67974 19.8705 1.13879 19.331C0.597929 18.7916 0.293927 18.0595 0.292969 17.2956C0.29249 16.5318 0.595043 15.7992 1.13496 15.2582C1.67486 14.7178 2.40701 14.4143 3.17088 14.4138C3.93471 14.4133 4.66732 14.7169 5.20779 15.2568C5.74769 15.7971 6.05121 16.5293 6.05121 17.2932C6.05121 18.056 5.74866 18.7878 5.2097 19.3276C4.67028 19.8671 3.939 20.1711 3.17672 20.1715L3.17667 20.1716ZM3.17667 15.6639V15.6643C2.51737 15.6624 1.92181 16.0585 1.66821 16.6669C1.41456 17.2754 1.55313 17.9769 2.01872 18.444C2.48431 18.9105 3.18532 19.051 3.79478 18.7988C4.40373 18.5471 4.80123 17.953 4.80123 17.2932C4.80267 16.8616 4.63197 16.4474 4.32701 16.1419C4.02205 15.836 3.60825 15.6643 3.17671 15.6643L3.17667 15.6639Z" fill="#2F4050"/>
    <path d="M4.58599 41.5936C4.3333 41.5936 4.10554 41.4416 4.00869 41.208C3.91184 40.975 3.96506 40.7065 4.14343 40.5276L7.85513 36.8029C8.30777 36.3465 8.92344 36.089 9.56639 36.088H10.2583C10.603 36.088 10.8831 36.368 10.8831 36.7128C10.8831 37.058 10.603 37.338 10.2583 37.338H9.56447C9.2552 37.338 8.95935 37.4618 8.74215 37.6818L5.02701 41.4099C4.91001 41.5269 4.7513 41.593 4.58587 41.5935L4.58599 41.5936Z" fill="#2F4050"/>
    <path d="M3.17667 45.5848C2.41284 45.5862 1.67974 45.2837 1.13879 44.7442C0.597929 44.2048 0.293927 43.4727 0.292969 42.7088C0.29249 41.945 0.595043 41.2124 1.13496 40.6719C1.67438 40.1315 2.40652 39.8275 3.17039 39.827C3.93422 39.8265 4.66683 40.1296 5.20729 40.67C5.74767 41.2099 6.0512 41.942 6.0512 42.7059C6.0512 43.4688 5.74864 44.2005 5.20969 44.7403C4.67074 45.2803 3.93948 45.5838 3.17671 45.5847L3.17667 45.5848ZM3.17667 41.077V41.0775C2.5169 41.0756 1.92181 41.4717 1.66821 42.0801C1.41456 42.6891 1.55313 43.3906 2.01872 43.8572C2.48431 44.3242 3.1858 44.4642 3.79478 44.212C4.40421 43.9598 4.80171 43.3652 4.80123 42.7059C4.80219 42.2743 4.63149 41.8601 4.32653 41.5546C4.02205 41.2492 3.60825 41.0775 3.17671 41.0775L3.17667 41.077Z" fill="#2F4050"/>
    <path d="M9.15312 30.6065H5.13308C4.78784 30.6065 4.50781 30.3269 4.50781 29.9817C4.50781 29.6365 4.78783 29.3569 5.13308 29.3569H9.15116C9.49639 29.3569 9.77593 29.6365 9.77593 29.9817C9.77593 30.3269 9.49639 30.6065 9.15116 30.6065H9.15312Z" fill="#2F4050"/>
    <path d="M2.88323 32.8623C2.1194 32.8632 1.3863 32.5611 0.845341 32.0217C0.304961 31.4823 0.000480992 30.7497 2.26889e-06 29.9858C-0.00095665 29.2219 0.302077 28.4893 0.841512 27.9489C1.38141 27.4085 2.11406 27.1045 2.87793 27.1045C3.64176 27.104 4.37437 27.4075 4.91434 27.9474C5.45472 28.4873 5.75776 29.22 5.75776 29.9839C5.75776 30.7467 5.45521 31.478 4.91626 32.0178C4.37731 32.5577 3.64604 32.8612 2.88328 32.8622L2.88323 32.8623ZM2.88323 28.3545C2.22393 28.3531 1.62836 28.7487 1.37476 29.3576C1.12159 29.9661 1.25968 30.6676 1.72527 31.1342C2.19086 31.6012 2.89187 31.7412 3.50133 31.4895C4.11076 31.2377 4.50778 30.6432 4.50778 29.9838C4.50922 29.5523 4.33852 29.138 4.03356 28.8321C3.72908 28.5267 3.3148 28.3545 2.88327 28.3545H2.88323Z" fill="#2F4050"/>
    <path d="M23.5585 28.3054C23.3058 28.3054 23.0781 28.1529 22.9812 27.9194C22.8844 27.6859 22.9381 27.4174 23.1164 27.2385C24.9404 25.4194 27.4117 24.3975 29.9876 24.3975C32.5639 24.3975 35.0352 25.4193 36.8591 27.2385C37.1037 27.4826 37.1041 27.8786 36.8601 28.1236C36.616 28.3682 36.22 28.3687 35.9754 28.1246C34.3859 26.5389 32.2325 25.6485 29.9876 25.6485C27.7426 25.6485 25.5897 26.5389 24.0002 28.1246C23.8827 28.2411 23.724 28.3058 23.5586 28.3054H23.5585Z" fill="#CF5555"/>
    <path d="M34.6219 30.1003C34.4565 30.0999 34.2973 30.0342 34.1803 29.9172C33.0674 28.8062 31.5593 28.1824 29.9867 28.1824C28.4144 28.1824 26.9064 28.8062 25.7935 29.9172C25.548 30.154 25.1587 30.1507 24.9175 29.9095C24.6763 29.6683 24.673 29.2785 24.9098 29.0335C26.2573 27.6885 28.0831 26.9329 29.9866 26.9329C31.8907 26.9329 33.7166 27.6885 35.0639 29.0335C35.2428 29.2123 35.296 29.4808 35.1991 29.7144C35.1028 29.9479 34.875 30.0999 34.6218 30.1003H34.6219Z" fill="#CF5555"/>
    <path d="M27.1442 31.8941C26.8915 31.8941 26.6638 31.7416 26.5669 31.5081C26.4706 31.2746 26.5238 31.0061 26.7026 30.8272C27.5739 29.9574 28.7549 29.4689 29.9862 29.4689C31.2175 29.4689 32.3985 29.9575 33.2697 30.8272C33.5066 31.0727 33.5032 31.4621 33.2621 31.7032C33.0209 31.9444 32.6311 31.9478 32.386 31.7109C31.7488 31.0756 30.8857 30.7184 29.9862 30.7184C29.0862 30.7184 28.2231 31.0756 27.5863 31.7109C27.4693 31.8289 27.3101 31.8946 27.1442 31.8941H27.1442Z" fill="#CF5555"/>
    <path d="M29.9879 36.1429C29.4739 36.1429 28.9815 35.9387 28.618 35.5757C28.2546 35.2122 28.0508 34.7193 28.0508 34.2058C28.0508 33.6918 28.2546 33.1994 28.618 32.8359C28.9815 32.4725 29.4739 32.2687 29.9879 32.2687C30.5014 32.2687 30.9944 32.4725 31.3578 32.8359C31.7208 33.1994 31.925 33.6918 31.925 34.2058C31.925 34.7193 31.7208 35.2122 31.3578 35.5757C30.9943 35.9387 30.5014 36.1429 29.9879 36.1429ZM29.9879 33.5134C29.7103 33.5134 29.46 33.6802 29.3531 33.9363C29.2466 34.1928 29.3046 34.4882 29.4998 34.6848C29.6954 34.8819 29.9903 34.9418 30.2473 34.8373C30.5043 34.7322 30.6731 34.4834 30.675 34.2058C30.6764 34.0226 30.6045 33.8462 30.4755 33.7162C30.3466 33.5863 30.1711 33.5134 29.9879 33.5134L29.9879 33.5134Z" fill="#CF5555"/>
</svg>
