<svg width="60" height="60" viewBox="0 0 60 60" fill="none" xmlns="http://www.w3.org/2000/svg">
    <path d="M58.9878 30.9864L31.7924 3.78963C31.3351 3.33237 30.6715 3.1 30.0021 3.1C29.3327 3.1 28.6688 3.33236 28.2109 3.78963L58.9878 30.9864ZM58.9878 30.9864H58.9863L59.1571 31.1572C59.8837 31.8833 60.1 32.9661 59.705 33.9172L59.7049 33.9174C59.3142 34.8644 58.3961 35.4789 57.3666 35.4789H49.9197H49.8197V35.5789V54.6797C49.8197 56.0763 48.6847 57.2117 47.2889 57.2117H12.7115C11.3155 57.2117 10.179 56.0756 10.179 54.6797V35.5789V35.4789H10.079H2.63382C1.60492 35.4789 0.686744 34.8655 0.293873 33.9156L0.293836 33.9155C-0.0990063 32.9682 0.115693 31.8849 0.843425 31.1571L28.2109 3.78967L58.9878 30.9864ZM57.6892 33.0835C57.7435 32.9516 57.715 32.8017 57.6135 32.7021L2.45712 32.7718C2.38675 32.8444 2.36515 32.9496 2.40338 33.0427C2.44326 33.1363 2.53358 33.1967 2.63443 33.1967L11.2715 33.1973C11.9297 33.1973 12.4628 33.7303 12.4628 34.3886V54.6794C12.4628 54.8163 12.5747 54.9282 12.7121 54.9282H47.291C47.4273 54.9282 47.5387 54.8169 47.5387 54.6794V34.3871C47.5387 33.7289 48.0717 33.1959 48.7299 33.1959H57.368C57.4682 33.1959 57.5574 33.1379 57.596 33.047L57.6881 33.0861L57.6886 33.0849L57.6765 33.0797L57.6886 33.0848C57.6888 33.0844 57.689 33.084 57.6892 33.0835Z"
          fill="#2F4050" stroke="white" stroke-width="0.2"/>
    <path d="M38.6954 36.0179H38.654H35.8591H35.7591V35.9179V34.9769C35.7591 34.4528 35.3382 34.0297 34.8199 34.0297C34.3016 34.0297 33.8807 34.4528 33.8807 34.9769V35.9179V36.0179H33.7807H32.5037H32.4037V35.9179V34.9769C32.4037 34.4528 31.9827 34.0297 31.4644 34.0297C30.9461 34.0297 30.5252 34.4528 30.5252 34.9769V35.9179V36.0179H30.4252H28.9021H28.8021V35.9179V34.9769C28.8021 34.4528 28.3811 34.0297 27.8628 34.0297C27.3445 34.0297 26.9236 34.4528 26.9236 34.9769V35.9179V36.0179H26.8236H25.6519H25.5519V35.9179V34.9769C25.5519 34.4528 25.131 34.0297 24.6127 34.0297C24.0944 34.0297 23.6735 34.4528 23.6735 34.9769V35.9179V36.0179H23.5735H21.3486C19.4902 36.0179 17.9806 34.4951 17.9806 32.625C17.9806 30.8776 19.2793 29.4264 21.0024 29.25C21.2578 29.2236 21.4915 29.0934 21.6493 28.889C21.8067 28.6846 21.8745 28.4232 21.8369 28.1675C21.8369 28.1675 21.8369 28.1674 21.8369 28.1674L21.9359 28.1528L38.6954 36.0179ZM38.6954 36.0179L38.6956 36.0176M38.6954 36.0179L38.6956 36.0176M38.6956 36.0176C40.534 35.995 42.022 34.4806 42.0245 32.6241V32.6239C42.0245 30.801 40.6066 29.3137 38.7959 29.2403C38.3028 29.2201 37.9086 28.8194 37.8946 28.321C37.8399 26.3726 36.282 24.8442 34.3487 24.8442C33.3971 24.8442 32.5024 25.2188 31.8311 25.8992C31.6138 26.119 31.3053 26.2182 31.0008 26.1628L31.0005 26.1627C30.6977 26.1087 30.4403 25.9081 30.3117 25.6256C30.3117 25.6256 30.3117 25.6256 30.3117 25.6256L30.2207 25.667L38.6956 36.0176ZM39.6745 27.3794L39.6892 27.4573L39.7603 27.4604C42.1419 27.9701 43.9009 30.0875 43.9 32.6244V32.6245C43.9 35.5409 41.5451 37.9122 38.653 37.9122H35.8582H35.7582V38.0122V40.6745V40.7745H35.8582H36.9482H37.0126L37.0392 40.7158C37.4204 39.8761 38.2571 39.2895 39.2292 39.2895C40.5595 39.2895 41.6427 40.3802 41.6427 41.7221C41.6427 43.0644 40.5591 44.1547 39.2292 44.1547C38.2571 44.1547 37.4203 43.568 37.0392 42.7284L37.0126 42.6697H36.9482H34.8189C34.3007 42.6697 33.8797 42.2466 33.8797 41.7225V38.0127V37.9127H33.7797H32.5027H32.4027V38.0127V39.7578C32.4027 40.2819 31.9818 40.7049 31.4635 40.7049C30.9452 40.7049 30.5242 40.2819 30.5242 39.7578V38.0127V37.9127H30.4242H28.9011H28.8011V38.0127V44.169V44.233L28.8593 44.2598C29.6924 44.6436 30.2744 45.4867 30.2744 46.4674C30.2744 47.8097 29.1911 48.9 27.8618 48.9C26.5324 48.9 25.4492 47.8093 25.4492 46.4674C25.4492 45.4867 26.0316 44.644 26.8644 44.2598L26.9225 44.233L26.9225 44.169L26.922 38.0132L26.922 37.9132H26.822H25.6503H25.5503V38.0132V41.723C25.5503 42.2471 25.1294 42.6702 24.6111 42.6702H22.4819H22.4175L22.3908 42.7288C22.0096 43.5685 21.1729 44.1552 20.2008 44.1552C18.8706 44.1552 17.7874 43.0644 17.7874 41.7226C17.7874 40.3803 18.871 39.29 20.2008 39.29C21.173 39.29 22.0092 39.8766 22.3908 40.7164L22.4175 40.775H22.4819H23.5719H23.6719V40.675V38.0127V37.9127H23.5719H21.347C18.4544 37.9127 16.1 35.5409 16.1 32.625C16.1 30.2432 17.6477 28.2169 19.8291 27.5599L19.8999 27.5386L19.9002 27.4646C19.9178 23.9517 22.76 21.1 26.2488 21.1C28.2905 21.1 30.1918 22.1009 31.3731 23.7297L31.4278 23.805L31.5068 23.756C32.3523 23.231 33.3268 22.9508 34.3455 22.9508C37.0023 22.9508 39.1945 24.8346 39.6745 27.3794ZM38.379 41.8471L38.3768 41.863L38.3796 41.8788C38.4541 42.2872 38.7957 42.6101 39.2306 42.6101C39.7172 42.6101 40.1117 42.212 40.1117 41.723C40.1117 41.234 39.7177 40.8359 39.2306 40.8359C38.7958 40.8359 38.4536 41.1582 38.3796 41.5684L38.3768 41.5841L38.379 41.5999C38.3801 41.6081 38.3812 41.616 38.3823 41.6235C38.3877 41.6615 38.392 41.6915 38.392 41.7235C38.392 41.7555 38.3877 41.7855 38.3823 41.8235C38.3812 41.831 38.3801 41.8389 38.379 41.8471ZM19.3194 41.723C19.3194 42.212 19.7134 42.6101 20.2005 42.6101C20.6868 42.6101 21.0807 42.2119 21.0807 41.723C21.0807 41.2341 20.6868 40.8359 20.2005 40.8359C19.7139 40.8359 19.3194 41.234 19.3194 41.723ZM26.9817 46.4679C26.9817 46.9568 27.3756 47.355 27.8619 47.355C28.3481 47.355 28.742 46.9568 28.742 46.4679C28.742 45.979 28.3481 45.5808 27.8619 45.5808C27.3756 45.5808 26.9817 45.979 26.9817 46.4679Z"
          fill="#CF5555" stroke="white" stroke-width="0.2"/>
</svg>
