<svg width="60" height="60" viewBox="0 0 60 60" fill="none" xmlns="http://www.w3.org/2000/svg">
    <path fill-rule="evenodd" clip-rule="evenodd" d="M13.5 2C14.3285 2 15.0002 2.67168 15.0002 3.50018V11.0002C15.0002 11.8287 14.3285 12.5 13.5 12.5H8.24999V14.75H10.5C10.9143 14.75 11.2503 15.0857 11.2503 15.4999V16.2502H3.75027V15.4999C3.75027 15.0857 4.08591 14.75 4.50015 14.75H6.75017V12.5H1.50018C0.671707 12.5 0 11.8287 0 11.0002V3.50018C0 2.67171 0.671677 2 1.50018 2H13.5ZM1.50011 3.50018H13.5V11.0002H1.50011V3.50018Z" fill="#2F4050"/>
    <path fill-rule="evenodd" clip-rule="evenodd" d="M46.5003 44.7498C39.8726 44.7498 34.5005 39.3771 34.5005 32.7499C34.5005 26.1225 39.8728 20.75 46.5003 20.75C53.1277 20.75 58.5002 26.1227 58.5002 32.7499C58.5002 39.3773 53.1279 44.7498 46.5003 44.7498ZM46.5003 46.2499C39.0445 46.2499 33 40.2056 33 32.7496C33 25.2936 39.0443 19.2502 46.5003 19.2502C53.9559 19.2502 59.9997 25.2942 59.9997 32.7496C59.9997 40.205 53.9554 46.2499 46.5003 46.2499Z" fill="#2F4050"/>
    <path fill-rule="evenodd" clip-rule="evenodd" d="M7.50002 40.9996C4.18648 40.9996 1.50018 38.3136 1.50018 34.9998C1.50018 31.6862 4.18648 28.9999 7.50002 28.9999C10.814 28.9999 13.4999 31.6862 13.4999 34.9998C13.4999 38.3137 10.8139 40.9996 7.50002 40.9996ZM7.50002 42.4998C3.35804 42.4998 0 39.1418 0 34.9998C0 30.8578 3.35804 27.4998 7.50002 27.4998C11.642 27.4998 15 30.8578 15 34.9998C15 39.1418 11.642 42.4998 7.50002 42.4998Z" fill="#2F4050"/>
    <path fill-rule="evenodd" clip-rule="evenodd" d="M47.2502 9.49996C46.0075 9.49996 45.0002 8.49263 45.0002 7.24993C45.0002 6.00723 46.0075 4.99991 47.2502 4.99991C48.4929 4.99991 49.5002 6.00723 49.5002 7.24993C49.5002 8.49263 48.4929 9.49996 47.2502 9.49996ZM47.2502 11.0001C45.1791 11.0001 43.5 9.32117 43.5 7.24993C43.5 5.1788 45.179 3.50012 47.2502 3.50012C49.321 3.50012 51 5.1788 51 7.24993C51 9.32107 49.321 11.0001 47.2502 11.0001Z" fill="#2F4050"/>
    <path fill-rule="evenodd" clip-rule="evenodd" d="M18.7502 19.2496C17.5075 19.2496 16.5002 18.2423 16.5002 16.9996C16.5002 15.7569 17.5075 14.7496 18.7502 14.7496C19.9925 14.7496 20.9998 15.7569 20.9998 16.9996C20.9998 18.2423 19.9925 19.2496 18.7502 19.2496ZM18.7502 20.7494C16.6791 20.7494 15 19.0707 15 16.9996C15 14.9285 16.679 13.2494 18.7502 13.2494C20.821 13.2494 22.5 14.9284 22.5 16.9996C22.5 19.0707 20.821 20.7494 18.7502 20.7494Z" fill="#2F4050"/>
    <path fill-rule="evenodd" clip-rule="evenodd" d="M29.2501 55.9995C28.0074 55.9995 27.0001 54.9921 27.0001 53.7498C27.0001 52.5071 28.0074 51.4998 29.2501 51.4998C30.4928 51.4998 31.5001 52.5071 31.5001 53.7498C31.5001 54.9921 30.4928 55.9995 29.2501 55.9995ZM29.2501 57.4997C27.1789 57.4997 25.4999 55.8207 25.4999 53.7498C25.4999 51.6787 27.1788 49.9996 29.2501 49.9996C31.3209 49.9996 32.9999 51.6786 32.9999 53.7498C32.9999 55.8207 31.3209 57.4997 29.2501 57.4997Z" fill="#2F4050"/>
    <path d="M8.24979 17.7501H6.75V28.2505H8.24979V17.7501Z" fill="#2F4050"/>
    <path d="M18.0015 20.1109L16.7731 19.2502L10.1445 28.7111L11.3733 29.5717L18.0015 20.1109Z" fill="#2F4050"/>
    <path d="M21.8401 18.5004L21.0898 19.7992L35.2502 27.9743L36.0001 26.6751L21.8401 18.5004Z" fill="#2F4050"/>
    <path d="M13.9102 35.283L14.0457 36.777L33.7501 34.9934L33.615 33.4995L13.9102 35.283Z" fill="#2F4050"/>
    <path d="M21.418 15.5817L21.9619 16.9793L44.6614 8.14864L44.1174 6.75073L21.418 15.5817Z" fill="#2F4050"/>
    <path d="M45.7188 20.0503L47.2143 20.1703L47.9998 10.3695L46.5046 10.2495L45.7188 20.0503Z" fill="#2F4050"/>
    <path d="M30.7306 51.1957L31.9195 52.1101L38.8624 43.0856L37.6735 42.1711L30.7306 51.1957Z" fill="#2F4050"/>
    <path d="M26.4401 53.2205L27.3828 52.0537L12.0985 39.7109L11.1562 40.8777L26.4401 53.2205Z" fill="#2F4050"/>
    <g clip-path="url(#clip0_1_6849)">
        <path d="M39.9 38V38.1H40H41.0156H41.1156V38C41.1156 35.0311 43.5311 32.6156 46.5 32.6156C49.4689 32.6156 51.8844 35.0311 51.8844 38V38.1H51.9844H53H53.1V38C53.1 36.2373 52.4133 34.5795 51.1669 33.3331L51.0962 33.4038L51.1669 33.3331C50.4944 32.6606 49.7019 32.1513 48.8376 31.8246C49.7607 31.1193 50.3578 30.0072 50.3578 28.7578C50.3578 26.6305 48.6273 24.9 46.5 24.9C44.3727 24.9 42.6422 26.6305 42.6422 28.7578C42.6422 30.0072 43.2393 31.1193 44.1624 31.8246C43.2982 32.1513 42.5056 32.6606 41.8331 33.3331L41.9038 33.4038L41.8331 33.3331C40.5867 34.5795 39.9 36.2373 39.9 38ZM46.5 31.4C45.0432 31.4 43.8578 30.2146 43.8578 28.7578C43.8578 27.301 45.0432 26.1156 46.5 26.1156C47.9568 26.1156 49.1422 27.301 49.1422 28.7578C49.1422 30.2146 47.9568 31.4 46.5 31.4Z" fill="#CF5555" stroke="#CF5555" stroke-width="0.2"/>
    </g>
    <defs>
        <clipPath id="clip0_1_6849">
            <rect width="15" height="15" fill="white" transform="translate(39 24)"/>
        </clipPath>
    </defs>
</svg>
