<svg width="61" height="60" viewBox="0 0 61 60" fill="none" xmlns="http://www.w3.org/2000/svg">
    <path d="M8.66431 4H10.6643V6H8.66431V4Z" fill="#2F4050"/>
    <path d="M12.6641 4H14.6641V6H12.6641V4Z" fill="#2F4050"/>
    <path d="M4.66418 4H6.66418V6H4.66418V4Z" fill="#2F4050"/>
    <path d="M56.6641 0H4.66406C3.60335 0 2.58589 0.421429 1.83549 1.17143C1.08549 1.92187 0.664062 2.93931 0.664062 4V56C0.664062 57.0607 1.08549 58.0782 1.83549 58.8286C2.58594 59.5786 3.60338 60 4.66406 60H56.6641C57.7248 60 58.7422 59.5786 59.4926 58.8286C60.2426 58.0781 60.6641 57.0607 60.6641 56V4C60.6641 2.93929 60.2426 1.92183 59.4926 1.17143C58.7422 0.421429 57.7247 0 56.6641 0ZM4.66406 2H56.6641C57.1944 2 57.7034 2.21072 58.0784 2.58571C58.4533 2.96071 58.6641 3.46965 58.6641 4V8H2.66406V4C2.66406 3.46965 2.87478 2.96071 3.24978 2.58571C3.62477 2.21072 4.13371 2 4.66406 2ZM56.6641 58H4.66406C4.13371 58 3.62477 57.7893 3.24978 57.4143C2.87478 57.0393 2.66406 56.5304 2.66406 56V10H58.6641V56C58.6641 56.5304 58.4533 57.0393 58.0784 57.4143C57.7034 57.7893 57.1944 58 56.6641 58Z" fill="#2F4050"/>
    <path d="M50.6643 30H47.1812C46.7718 28.2862 46.0946 26.6478 45.1754 25.1451L47.6351 22.6862C48.0253 22.2955 48.0253 21.6625 47.6351 21.2719L43.3923 17.029C42.9954 16.654 42.3749 16.654 41.978 17.029L39.519 19.4888C38.0164 18.5696 36.378 17.8923 34.6642 17.483V13.9999C34.6642 13.7347 34.5588 13.4802 34.3713 13.2927C34.1838 13.1052 33.9294 12.9999 33.6642 12.9999H27.6642C27.1119 12.9999 26.6642 13.4476 26.6642 13.9999V17.483C24.9503 17.8923 23.3119 18.5696 21.8093 19.4888L19.3503 17.029C18.9597 16.6388 18.3267 16.6388 17.9361 17.029L13.6932 21.2719C13.303 21.6625 13.303 22.2955 13.6932 22.6862L16.153 25.1451C15.2338 26.6478 14.5565 28.2862 14.1471 30H10.6641C10.1118 30 9.66406 30.4478 9.66406 31V37C9.66406 37.2652 9.76942 37.5196 9.95692 37.7071C10.1444 37.8946 10.3989 38 10.6641 38H14.1471C14.5565 39.7138 15.2338 41.3522 16.153 42.8548L13.6932 45.3138C13.303 45.7044 13.303 46.3375 13.6932 46.7281L17.9361 50.971C18.3329 51.346 18.9535 51.346 19.3503 50.971L21.8093 48.5112C23.3119 49.4304 24.9503 50.1076 26.6642 50.517V54.0001C26.6642 54.2653 26.7695 54.5198 26.957 54.7072C27.1445 54.8947 27.399 55.0001 27.6642 55.0001H33.6642C33.9294 55.0001 34.1838 54.8947 34.3713 54.7072C34.5588 54.5197 34.6642 54.2653 34.6642 54.0001V50.517C36.378 50.1076 38.0164 49.4304 39.519 48.5112L41.978 50.971C42.3686 51.3611 43.0017 51.3611 43.3923 50.971L47.6351 46.7281C48.0253 46.3375 48.0253 45.7044 47.6351 45.3138L45.1754 42.8548C46.0946 41.3522 46.7718 39.7138 47.1812 38H50.6643C50.9295 38 51.1839 37.8946 51.3714 37.7071C51.5589 37.5196 51.6643 37.2652 51.6643 37V31C51.6643 30.7348 51.5589 30.4803 51.3714 30.2928C51.1839 30.1054 50.9295 30 50.6643 30ZM49.6643 36H46.3732C45.8933 36 45.4812 36.3415 45.3911 36.8129C45.0134 38.8249 44.2236 40.7371 43.0714 42.4291C42.8013 42.8259 42.8513 43.3585 43.1901 43.6982L45.5143 46.0214L42.6852 48.85L40.3642 46.5259C40.0245 46.187 39.4919 46.137 39.0951 46.4071C37.4031 47.5593 35.4911 48.349 33.4794 48.7268C33.0075 48.8169 32.6665 49.229 32.666 49.7089V53H28.6642V49.7089C28.6642 49.229 28.3227 48.8169 27.8512 48.7268C25.8392 48.3491 23.9271 47.5593 22.2351 46.4071C21.8382 46.137 21.3057 46.187 20.966 46.5259L18.6432 48.85L15.8142 46.0209L18.1383 43.6999C18.4772 43.3602 18.5272 42.8276 18.2571 42.4308C17.1049 40.7388 16.3151 38.8268 15.9374 36.8151C15.8481 36.3423 15.4361 36.0004 14.9553 35.9999H11.6642V31.9999H14.9553C15.4352 31.9999 15.8472 31.6584 15.9374 31.187C16.3151 29.175 17.1049 27.2629 18.2571 25.5709C18.5272 25.174 18.4772 24.6414 18.1383 24.3017L15.8142 21.979L18.6432 19.15L20.9643 21.4741C21.304 21.8129 21.8366 21.8629 22.2334 21.5928C23.9254 20.4406 25.8374 19.6509 27.8491 19.2732C28.3218 19.1839 28.6638 18.7718 28.6642 18.291V14.9999H32.6642V18.291C32.6642 18.7709 33.0058 19.183 33.4772 19.2732C35.4892 19.6509 37.4013 20.4406 39.0933 21.5928C39.4902 21.8629 40.0228 21.8129 40.3624 21.4741L42.6856 19.15L45.5147 21.979L43.1901 24.3C42.8513 24.6398 42.8013 25.1723 43.0714 25.5692C44.2236 27.2612 45.0133 29.1732 45.391 31.1848C45.4812 31.6567 45.8932 31.9978 46.3732 31.9982H49.6642L49.6643 36Z" fill="#2F4050"/>
    <path d="M30.6643 21C27.2165 21 23.9098 22.3696 21.4719 24.8075C19.0339 27.2455 17.6643 30.5522 17.6643 34C17.6643 37.4478 19.0339 40.7545 21.4719 43.1925C23.9098 45.6304 27.2165 47 30.6643 47C34.1121 47 37.4188 45.6304 39.8568 43.1925C42.2947 40.7545 43.6643 37.4478 43.6643 34C43.6603 30.5536 42.2893 27.2491 39.8523 24.812C37.4153 22.3749 34.1108 21.004 30.6643 21ZM30.6643 45C27.7469 45 24.9491 43.841 22.8861 41.7782C20.8232 39.7152 19.6643 36.9175 19.6643 34C19.6643 31.0825 20.8233 28.2848 22.8861 26.2218C24.9491 24.1589 27.7468 23 30.6643 23C33.5818 23 36.3795 24.159 38.4425 26.2218C40.5054 28.2848 41.6643 31.0825 41.6643 34C41.6607 36.9166 40.5009 39.712 38.4388 41.7745C36.3763 43.8366 33.5808 44.9963 30.6643 45Z" fill="#2F4050"/>
    <path d="M26.0641 30.2L22.0641 33.2C21.8123 33.3888 21.6641 33.6852 21.6641 34C21.6641 34.3147 21.8123 34.6111 22.0641 34.8L26.0641 37.8L27.2641 36.2L24.331 34L27.2641 31.8L26.0641 30.2Z" fill="#CF5555"/>
    <path d="M34.0625 31.8L36.9955 34L34.0625 36.2L35.2625 37.8L39.2625 34.8C39.5143 34.6111 39.6625 34.3147 39.6625 34C39.6625 33.6852 39.5143 33.3888 39.2625 33.2L35.2625 30.2L34.0625 31.8Z" fill="#CF5555"/>
    <path d="M27.7344 38.6286L31.7353 28.6295L33.5929 29.3728L29.592 39.3719L27.7344 38.6286Z" fill="#CF5555"/>
</svg>
