<svg width="60" height="62" viewBox="0 0 60 62" fill="none" xmlns="http://www.w3.org/2000/svg">
    <mask id="path-1-outside-1_1_6871" maskUnits="userSpaceOnUse" x="2" y="0" width="56" height="62" fill="black">
        <rect fill="white" x="2" width="56" height="62"/>
        <path d="M55.3665 23.7365C55.3606 23.7122 55.3542 23.6874 55.3422 23.6691C56.6096 22.6408 57.3565 21.1039 57.3565 19.4574C57.3565 16.4699 54.9264 14.0397 51.9388 14.0397C51.4247 14.0397 50.9105 14.1131 50.4083 14.266C46.5758 9.60717 41.2679 6.4177 35.3847 5.23608V2.40791C35.3847 1.6303 34.754 1 33.9768 1H26.459C25.6814 1 25.0511 1.63071 25.0511 2.40791V5.24843C19.2474 6.41169 13.9827 9.54005 10.1685 14.1007C9.6053 13.9047 9.01775 13.8069 8.4177 13.8069C5.43025 13.8069 3 16.237 3 19.2246C3 20.9203 3.78957 22.4999 5.13039 23.5221C4.43862 25.8973 4.08376 28.3646 4.08376 30.8563C4.08376 32.7048 4.27977 34.5599 4.67134 36.3657H4.66494C3.88732 36.3657 3.25703 36.9964 3.25703 37.7736V45.2914C3.25703 46.069 3.88774 46.6993 4.66494 46.6993H9.43394C13.2601 51.7194 18.7328 55.1659 24.873 56.4394C25.2893 59.0289 27.5606 61 30.2172 61C32.8742 61 35.145 59.0289 35.5614 56.4394C40.8506 55.3376 45.7605 52.5458 49.4394 48.5608C49.5128 48.4814 49.5739 48.3955 49.629 48.3037H54.404C55.1816 48.3037 55.8119 47.673 55.8119 46.8958L55.8123 39.3717C55.8123 38.9369 55.6044 38.533 55.2734 38.27C55.9836 35.8641 56.3448 33.3665 56.3448 30.8504C56.3448 28.4382 56.0143 26.0382 55.3652 23.7366L55.3665 23.7365ZM56.3034 19.4573C56.3034 20.9019 55.5873 22.2487 54.3874 23.063L52.9731 23.6873C52.6242 23.7732 52.2753 23.8218 51.9384 23.8218C50.6039 23.8218 49.3613 23.2159 48.5226 22.1688L48.5043 22.1505C48.5043 22.1505 48.5043 22.1445 48.4983 22.1445C48.1861 21.808 47.88 21.0611 47.7822 20.7852C47.6476 20.3565 47.5742 19.9098 47.5742 19.4627C47.5742 18.232 48.1007 17.0568 49.0252 16.2242L50.4454 15.3671C50.9293 15.1895 51.431 15.0977 51.9332 15.0977C54.3442 15.0921 56.3034 17.0513 56.3034 19.4572L56.3034 19.4573ZM49.4283 14.7494L48.4427 15.3434L48.4368 15.3493C48.4244 15.3553 48.4124 15.3677 48.4 15.3801C48.3876 15.3925 48.3693 15.3985 48.3573 15.4108L48.3454 15.4228C47.1881 16.4511 46.5271 17.9264 46.5271 19.4633C46.5271 20.0206 46.6129 20.5774 46.7842 21.1099V21.1158V21.1282C46.7965 21.1649 46.8452 21.3059 46.9251 21.4895L41.8623 24.1216C41.7889 24.0055 41.7214 23.8829 41.648 23.7728C41.5989 23.6993 41.5318 23.6382 41.4584 23.6015C39.1811 20.3446 35.5202 18.1164 31.3392 17.7795C31.2782 17.7487 31.2107 17.7304 31.1372 17.7244C31.0027 17.7184 30.8742 17.712 30.7576 17.706L30.7572 11.3271H33.9834C34.761 11.3271 35.3913 10.6964 35.3913 9.91917V6.31976C40.864 7.47055 45.8106 10.4397 49.4288 14.7492L49.4283 14.7494ZM31.0814 44.0423L29.0796 44.0115C24.8247 43.6319 21.1028 41.1834 19.0705 37.394L18.3668 35.8328C17.8403 34.4184 17.5772 32.9372 17.5772 31.4251C17.5772 29.65 17.9385 27.9294 18.6606 26.3131L19.4566 24.795C21.783 21.024 25.8047 18.7774 30.2248 18.7774C37.1977 18.7774 42.8729 24.4521 42.8729 31.4255C42.8665 38.0619 37.6936 43.5959 31.0819 44.043L31.0814 44.0423ZM13.5851 38.508V37.7736C13.5851 36.9959 12.9543 36.3657 12.1771 36.3657H5.75514C5.35118 34.5597 5.14278 32.7107 5.14278 30.8562C5.14278 28.5545 5.46092 26.2832 6.07327 24.0853C6.42813 24.2565 6.87522 24.4465 7.26724 24.514H7.27322C7.2792 24.514 7.29158 24.52 7.29756 24.52H7.30354C7.67676 24.5994 8.0504 24.6425 8.4176 24.6425C9.87459 24.6425 11.2398 24.0669 12.2681 23.0263H12.2741C12.3966 22.9161 12.5252 22.7632 12.6473 22.5975L17.8814 25.524L17.7101 25.8485C17.7101 25.8545 17.7041 25.8609 17.7041 25.8669C17.7041 25.8729 17.6982 25.8793 17.6982 25.8793C16.9206 27.636 16.5226 29.5034 16.5226 31.4319C16.5226 33.0784 16.8104 34.6888 17.3856 36.2253C17.3856 36.2312 17.3916 36.2312 17.3916 36.2376C17.3916 36.2436 17.3975 36.25 17.3975 36.262L17.5504 36.6049L13.5834 38.6251C13.5851 38.6247 13.5851 38.5081 13.5851 38.5081L13.5851 38.508ZM26.1107 2.4079C26.1107 2.21189 26.27 2.05902 26.4596 2.05902H33.977C34.173 2.05902 34.3259 2.2183 34.3259 2.4079V9.92571C34.3259 10.1217 34.1666 10.2746 33.977 10.2746H26.4656C26.2696 10.2746 26.1167 10.1153 26.1167 9.92571V2.4079H26.1107ZM25.0577 6.32586V9.91926C25.0577 10.6969 25.6884 11.3272 26.4656 11.3272H29.6977V17.7001C29.5751 17.7061 29.4466 17.7125 29.3057 17.7244C29.2382 17.7304 29.1772 17.7428 29.1221 17.7735C24.7699 18.1164 20.8703 20.4856 18.5502 24.2626C18.5443 24.2685 18.5443 24.2749 18.5443 24.2809C18.5383 24.2869 18.5383 24.2933 18.5319 24.2993L18.3726 24.5991L13.218 21.7158C13.3039 21.5689 13.359 21.4587 13.3773 21.422C13.3833 21.416 13.3833 21.4096 13.3833 21.4036C13.3833 21.3977 13.3893 21.3977 13.3893 21.3912C13.689 20.7055 13.8423 19.9769 13.8423 19.2365C13.8423 17.7735 13.2607 16.4019 12.2077 15.3676C11.9263 15.0495 11.5283 14.7552 11.2038 14.5413C14.7976 10.3415 19.6764 7.45224 25.0577 6.32582L25.0577 6.32586ZM4.05986 19.2188C4.05986 16.813 6.01906 14.8538 8.42493 14.8538C9.01892 14.8538 9.59409 14.9699 10.139 15.2086C10.2125 15.2394 10.2919 15.2454 10.3718 15.2454C10.6779 15.435 11.1494 15.7535 11.4184 16.0533C11.4244 16.0593 11.4308 16.0657 11.4368 16.0716C11.4368 16.0716 11.4427 16.0776 11.4427 16.084C12.3058 16.9167 12.7836 18.0309 12.7836 19.2244C12.7836 19.8184 12.6611 20.4 12.4224 20.9509C12.2204 21.3365 11.8164 22.0159 11.5594 22.2486C11.5534 22.2546 11.5534 22.261 11.547 22.261C11.541 22.267 11.541 22.267 11.5346 22.267C10.488 23.3384 9.00618 23.8158 7.48217 23.4853H7.46381C7.45783 23.4853 7.45143 23.4793 7.44545 23.4793C7.00476 23.4119 6.27629 23.0203 6.01917 22.867C4.80082 22.0531 4.05997 20.6878 4.05997 19.2189L4.05986 19.2188ZM4.31693 45.2858V37.7744C4.31693 37.5784 4.47621 37.4255 4.66581 37.4255H12.1832C12.3792 37.4255 12.5321 37.5848 12.5321 37.7744V45.2922C12.5321 45.4882 12.3728 45.6411 12.1832 45.6411H9.82049C9.80212 45.6411 9.78376 45.6471 9.7654 45.6471C9.75302 45.6471 9.74106 45.6411 9.72868 45.6411H4.66626C4.47025 45.6411 4.31696 45.4818 4.31696 45.2858L4.31693 45.2858ZM10.788 46.6941H12.184C12.2207 46.6941 12.2575 46.6881 12.2882 46.6817C13.0107 46.6266 13.5859 46.0267 13.5859 45.2857V39.8006L17.9877 37.554L18.1222 37.8538C18.1222 37.8597 18.1282 37.8597 18.1282 37.8661C18.1342 37.8721 18.1342 37.8785 18.1342 37.8845C20.3138 41.9553 24.3051 44.6063 28.8657 45.0529C28.9025 45.0589 28.9392 45.0653 28.9819 45.0653H29.031C29.1228 45.0713 29.2146 45.0837 29.3124 45.0897H29.3491C29.3982 45.0897 29.4469 45.0837 29.4901 45.0653H29.698V50.1956C29.4837 50.214 29.3248 50.2324 29.2817 50.2383C29.2757 50.2383 29.2693 50.2383 29.2693 50.2443H29.2509C27.2491 50.6116 25.596 52.1052 25.0268 54.0644V54.0704C25.0144 54.1012 24.8372 54.6704 24.8064 55.3314C19.291 54.1195 14.3631 51.083 10.7885 46.694L10.788 46.6941ZM30.2182 59.9413C27.9716 59.9413 26.0616 58.1905 25.878 55.9499C25.878 55.9439 25.878 55.9439 25.872 55.9375V55.9067C25.7618 55.2577 26.0189 54.419 26.0249 54.3947V54.3887V54.3827C26.4779 52.8032 27.8124 51.5973 29.4223 51.2974C29.8446 51.2483 30.6222 51.1996 30.9651 51.285H30.9774C30.9834 51.285 30.9898 51.291 30.9958 51.291C32.6057 51.5848 33.9342 52.7847 34.3932 54.3579C34.4974 54.9455 34.5828 55.7047 34.5585 55.9251V55.9435V55.9495C34.3748 58.184 32.4648 59.9413 30.2182 59.9413L30.2182 59.9413ZM35.5992 55.3435C35.5565 54.8413 35.4647 54.2904 35.4339 54.1435C35.4339 54.1311 35.428 54.1251 35.428 54.1192C35.428 54.1132 35.428 54.1008 35.422 54.0948C34.8647 52.1421 33.2181 50.6483 31.2287 50.2687C31.2163 50.2687 31.2103 50.2627 31.1979 50.2627C31.0634 50.232 30.9165 50.2136 30.7572 50.2016V45.1022L31.1001 45.1081H31.1061H31.1428C35.4528 44.8267 39.199 42.543 41.5012 39.2126C41.5379 39.1819 41.5686 39.1451 41.5989 39.1084C41.6784 38.9923 41.7518 38.8697 41.8253 38.7472L45.4861 40.7922V46.8956C45.4861 47.6365 46.0617 48.2365 46.7838 48.2916C46.8206 48.2976 46.8513 48.304 46.888 48.304H48.2285C44.8127 51.8176 40.3742 54.2968 35.599 55.3435L35.5992 55.3435ZM54.7605 46.8892C54.7605 47.0853 54.6012 47.2381 54.4116 47.2381H46.8938C46.6978 47.2381 46.5449 47.0788 46.5449 46.8892V39.3779C46.5449 39.1819 46.7042 39.029 46.8938 39.029H52.8196C52.8687 39.029 52.9238 39.0166 52.9665 39.0047L54.5337 39.0598C54.6682 39.1148 54.754 39.2374 54.754 39.3779V46.8893L54.7605 46.8892ZM54.2523 37.9883L52.8444 37.9392H52.8261H52.8077C52.7466 37.9392 52.6916 37.9452 52.6365 37.97H46.8939C46.1163 37.97 45.486 38.6007 45.486 39.3779V39.5863L42.3456 37.8295C42.4007 37.7253 42.4617 37.6275 42.5108 37.5233C42.5352 37.4742 42.5535 37.4256 42.5599 37.3765C43.4294 35.5765 43.9192 33.5563 43.9192 31.4383C43.9192 29.3505 43.4478 27.3734 42.615 25.6043C42.615 25.5249 42.5967 25.439 42.56 25.3656C42.5049 25.2554 42.4438 25.1512 42.3887 25.0475L47.4088 22.4397C47.5006 22.5866 47.5984 22.7211 47.7026 22.8377C47.7086 22.8436 47.721 22.856 47.727 22.862L47.7329 22.868C48.7676 24.1538 50.2981 24.8882 51.9446 24.8882C52.3734 24.8882 52.8077 24.8331 53.2488 24.7229H53.2548C53.2608 24.7229 53.2672 24.7229 53.2731 24.7169C53.2915 24.711 53.3039 24.7046 53.3223 24.6986C53.3346 24.6926 53.3466 24.6926 53.359 24.6862L54.4056 24.2207C54.9996 26.3755 55.2994 28.6101 55.2994 30.869C55.293 33.2745 54.9381 35.6743 54.2523 37.9884L54.2523 37.9883Z"/>
    </mask>
    <path d="M55.3665 23.7365C55.3606 23.7122 55.3542 23.6874 55.3422 23.6691C56.6096 22.6408 57.3565 21.1039 57.3565 19.4574C57.3565 16.4699 54.9264 14.0397 51.9388 14.0397C51.4247 14.0397 50.9105 14.1131 50.4083 14.266C46.5758 9.60717 41.2679 6.4177 35.3847 5.23608V2.40791C35.3847 1.6303 34.754 1 33.9768 1H26.459C25.6814 1 25.0511 1.63071 25.0511 2.40791V5.24843C19.2474 6.41169 13.9827 9.54005 10.1685 14.1007C9.6053 13.9047 9.01775 13.8069 8.4177 13.8069C5.43025 13.8069 3 16.237 3 19.2246C3 20.9203 3.78957 22.4999 5.13039 23.5221C4.43862 25.8973 4.08376 28.3646 4.08376 30.8563C4.08376 32.7048 4.27977 34.5599 4.67134 36.3657H4.66494C3.88732 36.3657 3.25703 36.9964 3.25703 37.7736V45.2914C3.25703 46.069 3.88774 46.6993 4.66494 46.6993H9.43394C13.2601 51.7194 18.7328 55.1659 24.873 56.4394C25.2893 59.0289 27.5606 61 30.2172 61C32.8742 61 35.145 59.0289 35.5614 56.4394C40.8506 55.3376 45.7605 52.5458 49.4394 48.5608C49.5128 48.4814 49.5739 48.3955 49.629 48.3037H54.404C55.1816 48.3037 55.8119 47.673 55.8119 46.8958L55.8123 39.3717C55.8123 38.9369 55.6044 38.533 55.2734 38.27C55.9836 35.8641 56.3448 33.3665 56.3448 30.8504C56.3448 28.4382 56.0143 26.0382 55.3652 23.7366L55.3665 23.7365ZM56.3034 19.4573C56.3034 20.9019 55.5873 22.2487 54.3874 23.063L52.9731 23.6873C52.6242 23.7732 52.2753 23.8218 51.9384 23.8218C50.6039 23.8218 49.3613 23.2159 48.5226 22.1688L48.5043 22.1505C48.5043 22.1505 48.5043 22.1445 48.4983 22.1445C48.1861 21.808 47.88 21.0611 47.7822 20.7852C47.6476 20.3565 47.5742 19.9098 47.5742 19.4627C47.5742 18.232 48.1007 17.0568 49.0252 16.2242L50.4454 15.3671C50.9293 15.1895 51.431 15.0977 51.9332 15.0977C54.3442 15.0921 56.3034 17.0513 56.3034 19.4572L56.3034 19.4573ZM49.4283 14.7494L48.4427 15.3434L48.4368 15.3493C48.4244 15.3553 48.4124 15.3677 48.4 15.3801C48.3876 15.3925 48.3693 15.3985 48.3573 15.4108L48.3454 15.4228C47.1881 16.4511 46.5271 17.9264 46.5271 19.4633C46.5271 20.0206 46.6129 20.5774 46.7842 21.1099V21.1158V21.1282C46.7965 21.1649 46.8452 21.3059 46.9251 21.4895L41.8623 24.1216C41.7889 24.0055 41.7214 23.8829 41.648 23.7728C41.5989 23.6993 41.5318 23.6382 41.4584 23.6015C39.1811 20.3446 35.5202 18.1164 31.3392 17.7795C31.2782 17.7487 31.2107 17.7304 31.1372 17.7244C31.0027 17.7184 30.8742 17.712 30.7576 17.706L30.7572 11.3271H33.9834C34.761 11.3271 35.3913 10.6964 35.3913 9.91917V6.31976C40.864 7.47055 45.8106 10.4397 49.4288 14.7492L49.4283 14.7494ZM31.0814 44.0423L29.0796 44.0115C24.8247 43.6319 21.1028 41.1834 19.0705 37.394L18.3668 35.8328C17.8403 34.4184 17.5772 32.9372 17.5772 31.4251C17.5772 29.65 17.9385 27.9294 18.6606 26.3131L19.4566 24.795C21.783 21.024 25.8047 18.7774 30.2248 18.7774C37.1977 18.7774 42.8729 24.4521 42.8729 31.4255C42.8665 38.0619 37.6936 43.5959 31.0819 44.043L31.0814 44.0423ZM13.5851 38.508V37.7736C13.5851 36.9959 12.9543 36.3657 12.1771 36.3657H5.75514C5.35118 34.5597 5.14278 32.7107 5.14278 30.8562C5.14278 28.5545 5.46092 26.2832 6.07327 24.0853C6.42813 24.2565 6.87522 24.4465 7.26724 24.514H7.27322C7.2792 24.514 7.29158 24.52 7.29756 24.52H7.30354C7.67676 24.5994 8.0504 24.6425 8.4176 24.6425C9.87459 24.6425 11.2398 24.0669 12.2681 23.0263H12.2741C12.3966 22.9161 12.5252 22.7632 12.6473 22.5975L17.8814 25.524L17.7101 25.8485C17.7101 25.8545 17.7041 25.8609 17.7041 25.8669C17.7041 25.8729 17.6982 25.8793 17.6982 25.8793C16.9206 27.636 16.5226 29.5034 16.5226 31.4319C16.5226 33.0784 16.8104 34.6888 17.3856 36.2253C17.3856 36.2312 17.3916 36.2312 17.3916 36.2376C17.3916 36.2436 17.3975 36.25 17.3975 36.262L17.5504 36.6049L13.5834 38.6251C13.5851 38.6247 13.5851 38.5081 13.5851 38.5081L13.5851 38.508ZM26.1107 2.4079C26.1107 2.21189 26.27 2.05902 26.4596 2.05902H33.977C34.173 2.05902 34.3259 2.2183 34.3259 2.4079V9.92571C34.3259 10.1217 34.1666 10.2746 33.977 10.2746H26.4656C26.2696 10.2746 26.1167 10.1153 26.1167 9.92571V2.4079H26.1107ZM25.0577 6.32586V9.91926C25.0577 10.6969 25.6884 11.3272 26.4656 11.3272H29.6977V17.7001C29.5751 17.7061 29.4466 17.7125 29.3057 17.7244C29.2382 17.7304 29.1772 17.7428 29.1221 17.7735C24.7699 18.1164 20.8703 20.4856 18.5502 24.2626C18.5443 24.2685 18.5443 24.2749 18.5443 24.2809C18.5383 24.2869 18.5383 24.2933 18.5319 24.2993L18.3726 24.5991L13.218 21.7158C13.3039 21.5689 13.359 21.4587 13.3773 21.422C13.3833 21.416 13.3833 21.4096 13.3833 21.4036C13.3833 21.3977 13.3893 21.3977 13.3893 21.3912C13.689 20.7055 13.8423 19.9769 13.8423 19.2365C13.8423 17.7735 13.2607 16.4019 12.2077 15.3676C11.9263 15.0495 11.5283 14.7552 11.2038 14.5413C14.7976 10.3415 19.6764 7.45224 25.0577 6.32582L25.0577 6.32586ZM4.05986 19.2188C4.05986 16.813 6.01906 14.8538 8.42493 14.8538C9.01892 14.8538 9.59409 14.9699 10.139 15.2086C10.2125 15.2394 10.2919 15.2454 10.3718 15.2454C10.6779 15.435 11.1494 15.7535 11.4184 16.0533C11.4244 16.0593 11.4308 16.0657 11.4368 16.0716C11.4368 16.0716 11.4427 16.0776 11.4427 16.084C12.3058 16.9167 12.7836 18.0309 12.7836 19.2244C12.7836 19.8184 12.6611 20.4 12.4224 20.9509C12.2204 21.3365 11.8164 22.0159 11.5594 22.2486C11.5534 22.2546 11.5534 22.261 11.547 22.261C11.541 22.267 11.541 22.267 11.5346 22.267C10.488 23.3384 9.00618 23.8158 7.48217 23.4853H7.46381C7.45783 23.4853 7.45143 23.4793 7.44545 23.4793C7.00476 23.4119 6.27629 23.0203 6.01917 22.867C4.80082 22.0531 4.05997 20.6878 4.05997 19.2189L4.05986 19.2188ZM4.31693 45.2858V37.7744C4.31693 37.5784 4.47621 37.4255 4.66581 37.4255H12.1832C12.3792 37.4255 12.5321 37.5848 12.5321 37.7744V45.2922C12.5321 45.4882 12.3728 45.6411 12.1832 45.6411H9.82049C9.80212 45.6411 9.78376 45.6471 9.7654 45.6471C9.75302 45.6471 9.74106 45.6411 9.72868 45.6411H4.66626C4.47025 45.6411 4.31696 45.4818 4.31696 45.2858L4.31693 45.2858ZM10.788 46.6941H12.184C12.2207 46.6941 12.2575 46.6881 12.2882 46.6817C13.0107 46.6266 13.5859 46.0267 13.5859 45.2857V39.8006L17.9877 37.554L18.1222 37.8538C18.1222 37.8597 18.1282 37.8597 18.1282 37.8661C18.1342 37.8721 18.1342 37.8785 18.1342 37.8845C20.3138 41.9553 24.3051 44.6063 28.8657 45.0529C28.9025 45.0589 28.9392 45.0653 28.9819 45.0653H29.031C29.1228 45.0713 29.2146 45.0837 29.3124 45.0897H29.3491C29.3982 45.0897 29.4469 45.0837 29.4901 45.0653H29.698V50.1956C29.4837 50.214 29.3248 50.2324 29.2817 50.2383C29.2757 50.2383 29.2693 50.2383 29.2693 50.2443H29.2509C27.2491 50.6116 25.596 52.1052 25.0268 54.0644V54.0704C25.0144 54.1012 24.8372 54.6704 24.8064 55.3314C19.291 54.1195 14.3631 51.083 10.7885 46.694L10.788 46.6941ZM30.2182 59.9413C27.9716 59.9413 26.0616 58.1905 25.878 55.9499C25.878 55.9439 25.878 55.9439 25.872 55.9375V55.9067C25.7618 55.2577 26.0189 54.419 26.0249 54.3947V54.3887V54.3827C26.4779 52.8032 27.8124 51.5973 29.4223 51.2974C29.8446 51.2483 30.6222 51.1996 30.9651 51.285H30.9774C30.9834 51.285 30.9898 51.291 30.9958 51.291C32.6057 51.5848 33.9342 52.7847 34.3932 54.3579C34.4974 54.9455 34.5828 55.7047 34.5585 55.9251V55.9435V55.9495C34.3748 58.184 32.4648 59.9413 30.2182 59.9413L30.2182 59.9413ZM35.5992 55.3435C35.5565 54.8413 35.4647 54.2904 35.4339 54.1435C35.4339 54.1311 35.428 54.1251 35.428 54.1192C35.428 54.1132 35.428 54.1008 35.422 54.0948C34.8647 52.1421 33.2181 50.6483 31.2287 50.2687C31.2163 50.2687 31.2103 50.2627 31.1979 50.2627C31.0634 50.232 30.9165 50.2136 30.7572 50.2016V45.1022L31.1001 45.1081H31.1061H31.1428C35.4528 44.8267 39.199 42.543 41.5012 39.2126C41.5379 39.1819 41.5686 39.1451 41.5989 39.1084C41.6784 38.9923 41.7518 38.8697 41.8253 38.7472L45.4861 40.7922V46.8956C45.4861 47.6365 46.0617 48.2365 46.7838 48.2916C46.8206 48.2976 46.8513 48.304 46.888 48.304H48.2285C44.8127 51.8176 40.3742 54.2968 35.599 55.3435L35.5992 55.3435ZM54.7605 46.8892C54.7605 47.0853 54.6012 47.2381 54.4116 47.2381H46.8938C46.6978 47.2381 46.5449 47.0788 46.5449 46.8892V39.3779C46.5449 39.1819 46.7042 39.029 46.8938 39.029H52.8196C52.8687 39.029 52.9238 39.0166 52.9665 39.0047L54.5337 39.0598C54.6682 39.1148 54.754 39.2374 54.754 39.3779V46.8893L54.7605 46.8892ZM54.2523 37.9883L52.8444 37.9392H52.8261H52.8077C52.7466 37.9392 52.6916 37.9452 52.6365 37.97H46.8939C46.1163 37.97 45.486 38.6007 45.486 39.3779V39.5863L42.3456 37.8295C42.4007 37.7253 42.4617 37.6275 42.5108 37.5233C42.5352 37.4742 42.5535 37.4256 42.5599 37.3765C43.4294 35.5765 43.9192 33.5563 43.9192 31.4383C43.9192 29.3505 43.4478 27.3734 42.615 25.6043C42.615 25.5249 42.5967 25.439 42.56 25.3656C42.5049 25.2554 42.4438 25.1512 42.3887 25.0475L47.4088 22.4397C47.5006 22.5866 47.5984 22.7211 47.7026 22.8377C47.7086 22.8436 47.721 22.856 47.727 22.862L47.7329 22.868C48.7676 24.1538 50.2981 24.8882 51.9446 24.8882C52.3734 24.8882 52.8077 24.8331 53.2488 24.7229H53.2548C53.2608 24.7229 53.2672 24.7229 53.2731 24.7169C53.2915 24.711 53.3039 24.7046 53.3223 24.6986C53.3346 24.6926 53.3466 24.6926 53.359 24.6862L54.4056 24.2207C54.9996 26.3755 55.2994 28.6101 55.2994 30.869C55.293 33.2745 54.9381 35.6743 54.2523 37.9884L54.2523 37.9883Z" fill="#2F4050"/>
    <path d="M55.3665 23.7365C55.3606 23.7122 55.3542 23.6874 55.3422 23.6691C56.6096 22.6408 57.3565 21.1039 57.3565 19.4574C57.3565 16.4699 54.9264 14.0397 51.9388 14.0397C51.4247 14.0397 50.9105 14.1131 50.4083 14.266C46.5758 9.60717 41.2679 6.4177 35.3847 5.23608V2.40791C35.3847 1.6303 34.754 1 33.9768 1H26.459C25.6814 1 25.0511 1.63071 25.0511 2.40791V5.24843C19.2474 6.41169 13.9827 9.54005 10.1685 14.1007C9.6053 13.9047 9.01775 13.8069 8.4177 13.8069C5.43025 13.8069 3 16.237 3 19.2246C3 20.9203 3.78957 22.4999 5.13039 23.5221C4.43862 25.8973 4.08376 28.3646 4.08376 30.8563C4.08376 32.7048 4.27977 34.5599 4.67134 36.3657H4.66494C3.88732 36.3657 3.25703 36.9964 3.25703 37.7736V45.2914C3.25703 46.069 3.88774 46.6993 4.66494 46.6993H9.43394C13.2601 51.7194 18.7328 55.1659 24.873 56.4394C25.2893 59.0289 27.5606 61 30.2172 61C32.8742 61 35.145 59.0289 35.5614 56.4394C40.8506 55.3376 45.7605 52.5458 49.4394 48.5608C49.5128 48.4814 49.5739 48.3955 49.629 48.3037H54.404C55.1816 48.3037 55.8119 47.673 55.8119 46.8958L55.8123 39.3717C55.8123 38.9369 55.6044 38.533 55.2734 38.27C55.9836 35.8641 56.3448 33.3665 56.3448 30.8504C56.3448 28.4382 56.0143 26.0382 55.3652 23.7366L55.3665 23.7365ZM56.3034 19.4573C56.3034 20.9019 55.5873 22.2487 54.3874 23.063L52.9731 23.6873C52.6242 23.7732 52.2753 23.8218 51.9384 23.8218C50.6039 23.8218 49.3613 23.2159 48.5226 22.1688L48.5043 22.1505C48.5043 22.1505 48.5043 22.1445 48.4983 22.1445C48.1861 21.808 47.88 21.0611 47.7822 20.7852C47.6476 20.3565 47.5742 19.9098 47.5742 19.4627C47.5742 18.232 48.1007 17.0568 49.0252 16.2242L50.4454 15.3671C50.9293 15.1895 51.431 15.0977 51.9332 15.0977C54.3442 15.0921 56.3034 17.0513 56.3034 19.4572L56.3034 19.4573ZM49.4283 14.7494L48.4427 15.3434L48.4368 15.3493C48.4244 15.3553 48.4124 15.3677 48.4 15.3801C48.3876 15.3925 48.3693 15.3985 48.3573 15.4108L48.3454 15.4228C47.1881 16.4511 46.5271 17.9264 46.5271 19.4633C46.5271 20.0206 46.6129 20.5774 46.7842 21.1099V21.1158V21.1282C46.7965 21.1649 46.8452 21.3059 46.9251 21.4895L41.8623 24.1216C41.7889 24.0055 41.7214 23.8829 41.648 23.7728C41.5989 23.6993 41.5318 23.6382 41.4584 23.6015C39.1811 20.3446 35.5202 18.1164 31.3392 17.7795C31.2782 17.7487 31.2107 17.7304 31.1372 17.7244C31.0027 17.7184 30.8742 17.712 30.7576 17.706L30.7572 11.3271H33.9834C34.761 11.3271 35.3913 10.6964 35.3913 9.91917V6.31976C40.864 7.47055 45.8106 10.4397 49.4288 14.7492L49.4283 14.7494ZM31.0814 44.0423L29.0796 44.0115C24.8247 43.6319 21.1028 41.1834 19.0705 37.394L18.3668 35.8328C17.8403 34.4184 17.5772 32.9372 17.5772 31.4251C17.5772 29.65 17.9385 27.9294 18.6606 26.3131L19.4566 24.795C21.783 21.024 25.8047 18.7774 30.2248 18.7774C37.1977 18.7774 42.8729 24.4521 42.8729 31.4255C42.8665 38.0619 37.6936 43.5959 31.0819 44.043L31.0814 44.0423ZM13.5851 38.508V37.7736C13.5851 36.9959 12.9543 36.3657 12.1771 36.3657H5.75514C5.35118 34.5597 5.14278 32.7107 5.14278 30.8562C5.14278 28.5545 5.46092 26.2832 6.07327 24.0853C6.42813 24.2565 6.87522 24.4465 7.26724 24.514H7.27322C7.2792 24.514 7.29158 24.52 7.29756 24.52H7.30354C7.67676 24.5994 8.0504 24.6425 8.4176 24.6425C9.87459 24.6425 11.2398 24.0669 12.2681 23.0263H12.2741C12.3966 22.9161 12.5252 22.7632 12.6473 22.5975L17.8814 25.524L17.7101 25.8485C17.7101 25.8545 17.7041 25.8609 17.7041 25.8669C17.7041 25.8729 17.6982 25.8793 17.6982 25.8793C16.9206 27.636 16.5226 29.5034 16.5226 31.4319C16.5226 33.0784 16.8104 34.6888 17.3856 36.2253C17.3856 36.2312 17.3916 36.2312 17.3916 36.2376C17.3916 36.2436 17.3975 36.25 17.3975 36.262L17.5504 36.6049L13.5834 38.6251C13.5851 38.6247 13.5851 38.5081 13.5851 38.5081L13.5851 38.508ZM26.1107 2.4079C26.1107 2.21189 26.27 2.05902 26.4596 2.05902H33.977C34.173 2.05902 34.3259 2.2183 34.3259 2.4079V9.92571C34.3259 10.1217 34.1666 10.2746 33.977 10.2746H26.4656C26.2696 10.2746 26.1167 10.1153 26.1167 9.92571V2.4079H26.1107ZM25.0577 6.32586V9.91926C25.0577 10.6969 25.6884 11.3272 26.4656 11.3272H29.6977V17.7001C29.5751 17.7061 29.4466 17.7125 29.3057 17.7244C29.2382 17.7304 29.1772 17.7428 29.1221 17.7735C24.7699 18.1164 20.8703 20.4856 18.5502 24.2626C18.5443 24.2685 18.5443 24.2749 18.5443 24.2809C18.5383 24.2869 18.5383 24.2933 18.5319 24.2993L18.3726 24.5991L13.218 21.7158C13.3039 21.5689 13.359 21.4587 13.3773 21.422C13.3833 21.416 13.3833 21.4096 13.3833 21.4036C13.3833 21.3977 13.3893 21.3977 13.3893 21.3912C13.689 20.7055 13.8423 19.9769 13.8423 19.2365C13.8423 17.7735 13.2607 16.4019 12.2077 15.3676C11.9263 15.0495 11.5283 14.7552 11.2038 14.5413C14.7976 10.3415 19.6764 7.45224 25.0577 6.32582L25.0577 6.32586ZM4.05986 19.2188C4.05986 16.813 6.01906 14.8538 8.42493 14.8538C9.01892 14.8538 9.59409 14.9699 10.139 15.2086C10.2125 15.2394 10.2919 15.2454 10.3718 15.2454C10.6779 15.435 11.1494 15.7535 11.4184 16.0533C11.4244 16.0593 11.4308 16.0657 11.4368 16.0716C11.4368 16.0716 11.4427 16.0776 11.4427 16.084C12.3058 16.9167 12.7836 18.0309 12.7836 19.2244C12.7836 19.8184 12.6611 20.4 12.4224 20.9509C12.2204 21.3365 11.8164 22.0159 11.5594 22.2486C11.5534 22.2546 11.5534 22.261 11.547 22.261C11.541 22.267 11.541 22.267 11.5346 22.267C10.488 23.3384 9.00618 23.8158 7.48217 23.4853H7.46381C7.45783 23.4853 7.45143 23.4793 7.44545 23.4793C7.00476 23.4119 6.27629 23.0203 6.01917 22.867C4.80082 22.0531 4.05997 20.6878 4.05997 19.2189L4.05986 19.2188ZM4.31693 45.2858V37.7744C4.31693 37.5784 4.47621 37.4255 4.66581 37.4255H12.1832C12.3792 37.4255 12.5321 37.5848 12.5321 37.7744V45.2922C12.5321 45.4882 12.3728 45.6411 12.1832 45.6411H9.82049C9.80212 45.6411 9.78376 45.6471 9.7654 45.6471C9.75302 45.6471 9.74106 45.6411 9.72868 45.6411H4.66626C4.47025 45.6411 4.31696 45.4818 4.31696 45.2858L4.31693 45.2858ZM10.788 46.6941H12.184C12.2207 46.6941 12.2575 46.6881 12.2882 46.6817C13.0107 46.6266 13.5859 46.0267 13.5859 45.2857V39.8006L17.9877 37.554L18.1222 37.8538C18.1222 37.8597 18.1282 37.8597 18.1282 37.8661C18.1342 37.8721 18.1342 37.8785 18.1342 37.8845C20.3138 41.9553 24.3051 44.6063 28.8657 45.0529C28.9025 45.0589 28.9392 45.0653 28.9819 45.0653H29.031C29.1228 45.0713 29.2146 45.0837 29.3124 45.0897H29.3491C29.3982 45.0897 29.4469 45.0837 29.4901 45.0653H29.698V50.1956C29.4837 50.214 29.3248 50.2324 29.2817 50.2383C29.2757 50.2383 29.2693 50.2383 29.2693 50.2443H29.2509C27.2491 50.6116 25.596 52.1052 25.0268 54.0644V54.0704C25.0144 54.1012 24.8372 54.6704 24.8064 55.3314C19.291 54.1195 14.3631 51.083 10.7885 46.694L10.788 46.6941ZM30.2182 59.9413C27.9716 59.9413 26.0616 58.1905 25.878 55.9499C25.878 55.9439 25.878 55.9439 25.872 55.9375V55.9067C25.7618 55.2577 26.0189 54.419 26.0249 54.3947V54.3887V54.3827C26.4779 52.8032 27.8124 51.5973 29.4223 51.2974C29.8446 51.2483 30.6222 51.1996 30.9651 51.285H30.9774C30.9834 51.285 30.9898 51.291 30.9958 51.291C32.6057 51.5848 33.9342 52.7847 34.3932 54.3579C34.4974 54.9455 34.5828 55.7047 34.5585 55.9251V55.9435V55.9495C34.3748 58.184 32.4648 59.9413 30.2182 59.9413L30.2182 59.9413ZM35.5992 55.3435C35.5565 54.8413 35.4647 54.2904 35.4339 54.1435C35.4339 54.1311 35.428 54.1251 35.428 54.1192C35.428 54.1132 35.428 54.1008 35.422 54.0948C34.8647 52.1421 33.2181 50.6483 31.2287 50.2687C31.2163 50.2687 31.2103 50.2627 31.1979 50.2627C31.0634 50.232 30.9165 50.2136 30.7572 50.2016V45.1022L31.1001 45.1081H31.1061H31.1428C35.4528 44.8267 39.199 42.543 41.5012 39.2126C41.5379 39.1819 41.5686 39.1451 41.5989 39.1084C41.6784 38.9923 41.7518 38.8697 41.8253 38.7472L45.4861 40.7922V46.8956C45.4861 47.6365 46.0617 48.2365 46.7838 48.2916C46.8206 48.2976 46.8513 48.304 46.888 48.304H48.2285C44.8127 51.8176 40.3742 54.2968 35.599 55.3435L35.5992 55.3435ZM54.7605 46.8892C54.7605 47.0853 54.6012 47.2381 54.4116 47.2381H46.8938C46.6978 47.2381 46.5449 47.0788 46.5449 46.8892V39.3779C46.5449 39.1819 46.7042 39.029 46.8938 39.029H52.8196C52.8687 39.029 52.9238 39.0166 52.9665 39.0047L54.5337 39.0598C54.6682 39.1148 54.754 39.2374 54.754 39.3779V46.8893L54.7605 46.8892ZM54.2523 37.9883L52.8444 37.9392H52.8261H52.8077C52.7466 37.9392 52.6916 37.9452 52.6365 37.97H46.8939C46.1163 37.97 45.486 38.6007 45.486 39.3779V39.5863L42.3456 37.8295C42.4007 37.7253 42.4617 37.6275 42.5108 37.5233C42.5352 37.4742 42.5535 37.4256 42.5599 37.3765C43.4294 35.5765 43.9192 33.5563 43.9192 31.4383C43.9192 29.3505 43.4478 27.3734 42.615 25.6043C42.615 25.5249 42.5967 25.439 42.56 25.3656C42.5049 25.2554 42.4438 25.1512 42.3887 25.0475L47.4088 22.4397C47.5006 22.5866 47.5984 22.7211 47.7026 22.8377C47.7086 22.8436 47.721 22.856 47.727 22.862L47.7329 22.868C48.7676 24.1538 50.2981 24.8882 51.9446 24.8882C52.3734 24.8882 52.8077 24.8331 53.2488 24.7229H53.2548C53.2608 24.7229 53.2672 24.7229 53.2731 24.7169C53.2915 24.711 53.3039 24.7046 53.3223 24.6986C53.3346 24.6926 53.3466 24.6926 53.359 24.6862L54.4056 24.2207C54.9996 26.3755 55.2994 28.6101 55.2994 30.869C55.293 33.2745 54.9381 35.6743 54.2523 37.9884L54.2523 37.9883Z" stroke="#2F4050" mask="url(#path-1-outside-1_1_6871)"/>
    <path d="M22.753 28.7086C22.4485 28.7086 22.1741 28.5249 22.0574 28.2435C21.9407 27.9622 22.0054 27.6386 22.2203 27.4231C24.4179 25.2313 27.3956 24 30.4993 24C33.6034 24 36.581 25.2311 38.7787 27.4231C39.0733 27.7172 39.0739 28.1944 38.7798 28.4896C38.4857 28.7843 38.0085 28.7848 37.7139 28.4908C35.7988 26.5802 33.2042 25.5073 30.4992 25.5073C27.7943 25.5073 25.2003 26.5802 23.2852 28.4908C23.1436 28.6312 22.9524 28.7092 22.7531 28.7086H22.753Z" fill="#CF5555"/>
    <path d="M36.0813 30.8713C35.882 30.8707 35.6902 30.7915 35.5492 30.6506C34.2083 29.312 32.3912 28.5603 30.4964 28.5603C28.6019 28.5603 26.785 29.3119 25.4441 30.6506C25.1483 30.936 24.6792 30.9319 24.3886 30.6413C24.098 30.3507 24.094 29.881 24.3794 29.5858C26.0029 27.9653 28.2029 27.0548 30.4963 27.0548C32.7905 27.0548 34.9905 27.9653 36.6139 29.5858C36.8294 29.8013 36.8935 30.1248 36.7768 30.4062C36.6607 30.6875 36.3863 30.8707 36.0812 30.8713H36.0813Z" fill="#CF5555"/>
    <path d="M27.073 33.0326C26.7685 33.0326 26.4941 32.8489 26.3774 32.5675C26.2613 32.2862 26.3254 31.9626 26.5409 31.7471C27.5907 30.6991 29.0137 30.1105 30.4972 30.1105C31.9808 30.1105 33.4037 30.6992 34.4535 31.7471C34.7389 32.0429 34.7349 32.512 34.4443 32.8026C34.1537 33.0932 33.684 33.0973 33.3888 32.8119C32.621 32.0464 31.581 31.616 30.4972 31.616C29.4128 31.616 28.3729 32.0464 27.6056 32.8119C27.4647 32.954 27.2729 33.0331 27.073 33.0326H27.073Z" fill="#CF5555"/>
    <path d="M30.4981 38.1519C29.8787 38.1519 29.2854 37.9058 28.8475 37.4685C28.4096 37.0305 28.1641 36.4366 28.1641 35.8179C28.1641 35.1986 28.4096 34.6052 28.8475 34.1673C29.2854 33.7294 29.8788 33.4839 30.4981 33.4839C31.1168 33.4839 31.7107 33.7294 32.1486 34.1673C32.586 34.6053 32.8321 35.1986 32.8321 35.8179C32.8321 36.4366 32.586 37.0306 32.1486 37.4685C31.7107 37.9058 31.1168 38.1519 30.4981 38.1519ZM30.4981 34.9836C30.1636 34.9836 29.862 35.1847 29.7332 35.4932C29.6049 35.8022 29.6748 36.1581 29.9099 36.395C30.1457 36.6325 30.501 36.7047 30.8106 36.5787C31.1203 36.4522 31.3236 36.1524 31.326 35.8179C31.3277 35.5972 31.241 35.3846 31.0856 35.228C30.9302 35.0714 30.7188 34.9836 30.4981 34.9836L30.4981 34.9836Z" fill="#CF5555"/>
</svg>
