<svg width="60" height="60" viewBox="0 0 60 60" fill="none" xmlns="http://www.w3.org/2000/svg">
    <path d="M46.9487 8.57771C46.77 8.44055 46.5391 8.38321 46.3188 8.42287C46.0961 8.46063 45.9016 8.58966 45.7764 8.77651L42.9769 13.0206C42.7446 13.3743 42.8202 13.8493 43.1537 14.1093C48.4946 18.3019 51.5566 24.5947 51.5566 31.3727C51.5566 43.4654 41.7192 53.3023 29.627 53.3023C17.5349 53.3023 7.69746 43.4649 7.69746 31.3727C7.69746 19.8565 16.4879 10.4121 27.8616 9.5117L27.8655 11.5642C27.8674 11.9241 28.1039 12.2399 28.4475 12.3413C28.7935 12.4464 29.1629 12.3073 29.3617 12.0072C29.3775 11.9814 31.0926 9.40846 34.9355 6.86892C35.162 6.7179 35.2991 6.46366 35.3011 6.19126C35.3011 5.91886 35.1639 5.66271 34.9374 5.51169C31.1047 2.95637 29.4015 0.397245 29.3857 0.371431C29.1888 0.069397 28.8194 -0.0734845 28.4715 0.0373806C28.1279 0.138693 27.8913 0.454587 27.8894 0.814439L27.8856 2.79721C12.7471 3.69804 1 16.1005 1 31.3723C1 47.1567 13.8433 60 29.6277 60C45.4121 60 58.2554 47.1567 58.2554 31.3723C58.2554 22.3554 54.1345 14.0477 46.9494 8.5778L46.9487 8.57771ZM29.6265 58.3703C14.7376 58.3703 2.62714 46.2601 2.62714 31.371C2.62714 16.7207 14.0898 4.86712 28.7224 4.38632C29.1635 4.37246 29.5114 4.00879 29.5114 3.57151V3.56959V3.0788C30.3281 3.94905 31.4942 5.04775 33.0583 6.1865C31.4846 7.32532 30.3084 8.42594 29.4874 9.29994V8.64427C29.4855 8.42396 29.3961 8.21129 29.2351 8.05789C29.0759 7.90496 28.8633 7.84523 28.6391 7.83329C15.9818 8.35562 6.06731 18.6938 6.06731 31.3704C6.06731 44.3617 16.6359 54.9295 29.6264 54.9295C42.6169 54.9295 53.1856 44.3609 53.1856 31.3704C53.1856 24.3386 50.1175 17.7955 44.7408 13.3007L46.648 10.4099C53.0002 15.5663 56.6246 23.1566 56.6246 31.3705C56.6255 46.2594 44.5148 58.3699 29.6264 58.3699L29.6265 58.3703Z" fill="#2F4050"/>
    <path d="M33.3904 14.3767C33.3268 13.9814 32.987 13.689 32.5856 13.689H27.0081C26.6067 13.689 26.2669 13.981 26.2033 14.3767L25.4721 19.0123C24.8303 19.2029 24.2024 19.4395 23.5984 19.7176L19.5889 16.8025C19.2692 16.5659 18.82 16.6037 18.5337 16.8842L14.5897 20.8282C14.3073 21.1121 14.2719 21.5594 14.508 21.8834L17.2659 25.6784C16.94 26.2767 16.6618 26.8865 16.4353 27.5025L11.5432 28.2734C11.1479 28.3369 10.8555 28.6767 10.8555 29.0781V34.6575C10.8555 35.0589 11.1475 35.3987 11.5432 35.4622L16.1788 36.1934C16.3714 36.841 16.606 37.467 16.8841 38.0654L13.969 42.0748C13.7324 42.3988 13.7683 42.8457 14.0507 43.13L17.9947 47.076C18.281 47.3584 18.7259 47.3938 19.0499 47.1577L22.843 44.3998C23.4413 44.7238 24.0511 45 24.669 45.2284L25.4399 50.1206C25.5034 50.5158 25.8432 50.8083 26.2446 50.8083H31.824C32.2254 50.8083 32.5652 50.5163 32.6288 50.1206L33.3599 45.485C34.0056 45.2943 34.6317 45.0578 35.2319 44.7796L39.2413 47.6967C39.5653 47.9352 40.0103 47.8993 40.2965 47.615L44.2425 43.671C44.5249 43.3871 44.5603 42.9398 44.3242 42.6158L41.5663 38.8208C41.8903 38.2249 42.1665 37.6146 42.395 36.9967L47.2871 36.2258C47.6823 36.1623 47.9748 35.8225 47.9748 35.4211V29.8417C47.9748 29.4403 47.6828 29.1005 47.2871 29.037L42.6515 28.3058C42.4608 27.6582 42.2243 27.0322 41.9461 26.4339L44.8632 22.4224C45.0998 22.0984 45.0639 21.6516 44.7815 21.3672L40.8355 17.4232C40.5493 17.1394 40.1024 17.1035 39.7803 17.3415L35.9873 20.0994C35.3933 19.7773 34.7811 19.4992 34.1612 19.2708L33.3904 14.3767ZM36.5201 21.7247L40.176 19.0662L43.1385 22.0267L40.3427 25.8714C40.1621 26.1199 40.1363 26.4477 40.2753 26.7216C40.6768 27.5025 40.9927 28.345 41.2192 29.2291C41.3009 29.543 41.5609 29.7796 41.8811 29.8312L46.3455 30.5366V34.7253L41.6584 35.4646C41.3564 35.5124 41.106 35.7269 41.0109 36.0189C40.7428 36.8476 40.369 37.6681 39.9002 38.459C39.7334 38.7391 39.7492 39.0889 39.9418 39.3532L42.6003 43.0109L39.6378 45.9714L35.7951 43.1757C35.549 42.995 35.2187 42.9692 34.9468 43.1083C34.1621 43.5097 33.3177 43.8256 32.4355 44.0521C32.1216 44.1339 31.885 44.3938 31.8334 44.714L31.1299 49.1785H26.9412L26.2019 44.4932C26.1541 44.1912 25.9396 43.9408 25.6495 43.8476C24.8189 43.5752 23.9964 43.2019 23.2055 42.7331C22.9231 42.5644 22.5756 42.584 22.3113 42.7747L18.6554 45.4332L15.6949 42.4707L18.4887 38.628C18.6693 38.3795 18.6951 38.0516 18.5561 37.7778C18.1547 36.9969 17.8388 36.1543 17.6142 35.2723C17.5348 34.9564 17.2744 34.7198 16.9523 34.6682L12.4854 33.9628V29.7741L17.1725 29.0348C17.4745 28.987 17.7249 28.7725 17.82 28.4805C18.0862 27.658 18.4618 26.8351 18.9326 26.0404C19.0994 25.7604 19.0836 25.4086 18.891 25.1463L16.2325 21.4885L19.193 18.528L23.0358 21.3218C23.2819 21.5024 23.6097 21.5306 23.884 21.3892C24.6769 20.9858 25.5213 20.668 26.3935 20.4472C26.7094 20.3679 26.9459 20.1075 26.9975 19.7853L27.7029 15.3184H31.8893L32.6286 20.0056C32.6764 20.3076 32.8909 20.558 33.181 20.6512C34.0154 20.9236 34.8384 21.2987 35.625 21.7656C35.906 21.9348 36.2558 21.9152 36.5201 21.7245L36.5201 21.7247Z" fill="#CF5555"/>
    <path d="M19.7656 32.2493C19.7656 37.5683 24.0954 41.898 29.4162 41.898C34.7352 41.898 39.0649 37.5682 39.0649 32.2493C39.0649 26.9305 34.7351 22.6007 29.4162 22.6007C24.0954 22.6007 19.7656 26.9305 19.7656 32.2493ZM37.4353 32.2493C37.4353 36.6722 33.8387 40.2689 29.4157 40.2689C24.9929 40.2689 21.3943 36.6723 21.3943 32.2493C21.3943 27.8264 24.9929 24.2298 29.4157 24.2298C33.8391 24.2303 37.4353 27.8264 37.4353 32.2493Z" fill="#CF5555"/>
    <path d="M27.2837 31.842C27.0749 31.4444 26.5865 31.2915 26.185 31.4941C25.7874 31.7006 25.6307 32.1938 25.8371 32.5928L26.9855 34.8083C27.0949 35.019 27.2914 35.172 27.5241 35.2255C27.5838 35.2393 27.6474 35.2475 27.709 35.2475C27.8801 35.2475 28.0488 35.192 28.1898 35.0883L34.7746 30.2659C35.1383 30.0016 35.2157 29.4912 34.9496 29.1295C34.6853 28.7639 34.1725 28.6845 33.8131 28.9546L27.9952 33.2145L27.2837 31.842Z" fill="#CF5555"/>
</svg>
