<svg width="48" height="48" viewBox="0 0 48 48" fill="none" xmlns="http://www.w3.org/2000/svg">
    <path d="M24.0527 15.773C19.5462 15.773 15.8781 19.4411 15.8781 23.9476C15.8781 28.4542 19.5462 32.1223 24.0527 32.1223C28.5593 32.1223 32.2274 28.4542 32.2274 23.9476C32.2274 19.4414 28.5593 15.773 24.0527 15.773ZM43.8083 21.6945C42.8129 12.5242 35.4765 5.2403 26.306 4.19226V0H22.3759V4.13958C12.9435 4.92546 5.3976 12.3669 4.29716 21.6943H0V25.6244H4.24447C5.08299 35.2664 12.7339 42.9695 22.3756 43.7555V48H26.3057V43.7028C35.6857 42.6549 43.0744 35.0567 43.8604 25.6241H48V21.694L43.8083 21.6945ZM24.0527 39.8781C15.2494 39.8781 8.12251 32.6991 8.12251 23.9478C8.12251 15.1445 15.3015 8.01761 24.0527 8.01761C32.8561 8.01761 39.983 15.1966 39.983 23.9478C40.0356 32.7512 32.8563 39.8781 24.0527 39.8781Z" fill="#2F4050"/>
    <mask id="mask0_27_2509" style="mask-type:alpha" maskUnits="userSpaceOnUse" x="0" y="0" width="48" height="48">
        <path d="M24.0527 15.773C19.5462 15.773 15.8781 19.4411 15.8781 23.9476C15.8781 28.4542 19.5462 32.1223 24.0527 32.1223C28.5593 32.1223 32.2274 28.4542 32.2274 23.9476C32.2274 19.4414 28.5593 15.773 24.0527 15.773ZM43.8083 21.6945C42.8129 12.5242 35.4765 5.2403 26.306 4.19226V0H22.3759V4.13958C12.9435 4.92546 5.3976 12.3669 4.29716 21.6943H0V25.6244H4.24447C5.08299 35.2664 12.7339 42.9695 22.3756 43.7555V48H26.3057V43.7028C35.6857 42.6549 43.0744 35.0567 43.8604 25.6241H48V21.694L43.8083 21.6945ZM24.0527 39.8781C15.2494 39.8781 8.12251 32.6991 8.12251 23.9478C8.12251 15.1445 15.3015 8.01761 24.0527 8.01761C32.8561 8.01761 39.983 15.1966 39.983 23.9478C40.0356 32.7512 32.8563 39.8781 24.0527 39.8781Z" fill="#2F4050"/>
    </mask>
    <g mask="url(#mask0_27_2509)">
        <circle cx="24" cy="24" r="10.5" fill="#CF5555"/>
    </g>
</svg>
