<svg width="48" height="48" viewBox="0 0 48 48" fill="none" xmlns="http://www.w3.org/2000/svg">
    <path d="M23.2612 30.7117L30.9703 23.0026C31.3818 22.5814 31.5392 21.9735 31.3844 21.4053C31.23 20.8372 30.7858 20.3929 30.2177 20.2385C29.6495 20.0838 29.0416 20.2411 28.6204 20.6526L22.0862 27.1782L19.7192 24.8197C19.2976 24.4097 18.6904 24.253 18.123 24.4082C17.5556 24.563 17.1125 25.0061 16.9578 25.5734C16.8026 26.1408 16.9593 26.748 17.3693 27.1696L20.9113 30.7116C21.2216 31.026 21.6446 31.2027 22.0863 31.2027C22.5279 31.2027 22.9509 31.026 23.2612 30.7116V30.7117Z" fill="#CF5555"/>
    <path d="M46.0823 36.0312C45.926 35.8749 45.714 35.7871 45.4929 35.7871H38.034C35.9583 38.1326 33.2775 39.8626 30.2852 40.7876H45.4932C45.7142 40.7876 45.9263 40.6998 46.0826 40.5435C48.6382 37.9718 48.6401 38.604 46.0826 36.0312H46.0823Z" fill="#2F4050"/>
    <path d="M35.7203 36.8962C39.1038 34.0522 41.2205 29.9822 41.6063 25.5789C41.9925 21.1759 40.6159 16.7998 37.7789 13.4102C32.3818 6.72498 21.8241 5.50839 15.0349 10.8016L13.0931 9.5099C12.8386 9.3369 12.5093 9.31978 12.2381 9.46489C11.9669 9.61036 11.7987 9.89387 11.8013 10.2016V20.553C11.8013 20.8492 11.9583 21.123 12.2139 21.2722C12.4695 21.4218 12.7854 21.424 13.0432 21.2781L21.4525 16.5277C21.7044 16.3852 21.864 16.1222 21.8744 15.8331C21.8844 15.544 21.7434 15.2705 21.5023 15.1109L19.5605 13.8192C32.0798 7.62849 42.9627 23.7877 32.5113 33.0629V33.0625C30.4266 34.8097 27.7973 35.7737 25.0775 35.7878H1.66678C1.22515 35.7889 0.801751 35.9653 0.489627 36.2774C0.177502 36.5896 0.00111439 37.013 0 37.4546V39.1214C0.0011162 39.563 0.177474 39.9864 0.489627 40.2985C0.80178 40.6107 1.22519 40.7871 1.66678 40.7882C1.66678 40.7882 25.3023 40.7882 25.3023 40.78C29.1171 40.7156 32.7944 39.345 35.7204 36.8961L35.7203 36.8962Z" fill="#2F4050"/>
</svg>
