<svg width="60" height="60" viewBox="0 0 60 60" fill="none" xmlns="http://www.w3.org/2000/svg">
    <path d="M35.8191 0.287433L35.729 0.227579V0.227132C35.6629 0.162365 35.5848 0.111447 35.4991 0.0770509C35.2526 -0.0256836 34.9754 -0.0256836 34.729 0.0770509C34.6156 0.121271 34.5133 0.189611 34.429 0.277159L10.309 24.2902C10.2166 24.3844 10.1451 24.497 10.0991 24.6207C10.0433 24.7333 10.0094 24.8557 9.99915 24.9807V25.0406C10.0023 25.1509 10.0259 25.2594 10.0692 25.3608C10.1103 25.4788 10.1791 25.5851 10.2692 25.6713C10.363 25.7637 10.4755 25.8352 10.5991 25.8812C10.7241 25.9419 10.8603 25.9759 10.9991 25.9813H19.9991C20.2643 25.9813 20.5188 25.8758 20.7063 25.6882C20.8938 25.5006 20.9991 25.246 20.9991 24.9807C21.0567 23.8672 21.5183 22.813 22.2969 22.0157C23.0754 21.2184 24.1179 20.7319 25.229 20.6484C26.2642 20.6404 27.2606 21.0433 27.999 21.7696C28.7379 22.4954 29.1585 23.4848 29.1691 24.5207C29.1691 24.786 29.2744 25.0401 29.4619 25.2282C29.6494 25.4158 29.9039 25.5212 30.1691 25.5212H34.119V28.4727C32.3078 28.7997 30.7561 29.9611 29.9307 31.607C29.1048 33.2526 29.1017 35.1911 29.9213 36.8398C30.7414 38.4885 32.2892 39.6551 34.099 39.9888L33.999 48.9937C33.999 49.259 34.1044 49.5136 34.2919 49.7012C34.4794 49.8888 34.7339 49.9942 34.999 49.9942C35.312 49.9889 35.6044 49.837 35.7892 49.5842L59.7092 25.2213C60.0971 24.8309 60.0971 24.2006 59.7092 23.8102L35.8191 0.287433ZM49.9391 23.5206C49.3865 23.5206 48.9391 23.9682 48.9391 24.5211C48.9391 25.9294 48.1878 27.2306 46.9691 27.935C45.7499 28.6389 44.2481 28.6389 43.0289 27.935C41.8101 27.2306 41.0588 25.9294 41.0588 24.5211C41.0588 24.2558 40.9534 24.0012 40.7659 23.8136C40.5784 23.626 40.324 23.5206 40.0588 23.5206H36.119V20.5691C37.9633 20.2707 39.5543 19.1088 40.4003 17.4423C41.2467 15.7758 41.2467 13.8055 40.4003 12.139C39.5543 10.4725 37.9633 9.31118 36.119 9.01273V3.38957L56.559 23.5205L49.9391 23.5206ZM31.0797 23.5206H31.0793C30.8306 22.1507 30.1083 20.9121 29.0387 20.021C27.9695 19.1303 26.6209 18.6444 25.2293 18.6479C23.757 18.7167 22.3507 19.2808 21.2382 20.2488C20.1262 21.2162 19.3722 22.5313 19.0994 23.9807H13.4195L34.1189 3.39929V9.97291C34.1189 10.2382 34.2243 10.4928 34.4118 10.6804C34.5993 10.868 34.8537 10.9735 35.1189 10.9735C36.4979 10.9735 37.7721 11.7096 38.4618 12.9044C39.1511 14.0993 39.1511 15.5715 38.4618 16.7668C37.772 17.9616 36.4979 18.6978 35.1189 18.6978C34.5667 18.6978 34.1189 19.1458 34.1189 19.6983V23.5705L31.0797 23.5206ZM31.1699 34.2564H31.1694C31.1824 33.2196 31.6056 32.2302 32.3458 31.5045C33.086 30.7791 34.0833 30.3762 35.1195 30.3842C35.3847 30.3842 35.6391 30.2788 35.8266 30.0912C36.0141 29.9036 36.1195 29.649 36.1195 29.3837V25.5218H39.1195C39.5253 27.3031 40.72 28.803 42.3654 29.5964C44.0109 30.3892 45.928 30.3892 47.5734 29.5964C49.2186 28.8031 50.4137 27.3031 50.8194 25.5218H56.5894L35.9997 46.4932L36.0899 39.1294C36.0944 39.0691 36.0944 39.0093 36.0899 38.949C36.0953 38.8824 36.0953 38.8154 36.0899 38.7488C36.0591 38.6885 36.0221 38.6318 35.9796 38.5791C35.9796 38.5791 35.9198 38.4692 35.8796 38.429C35.8238 38.383 35.7636 38.3428 35.6997 38.3089L35.5595 38.2088H35.3596C35.2997 38.2039 35.2395 38.2039 35.1796 38.2088C34.1185 38.2361 33.0916 37.8305 32.3354 37.085C31.5792 36.3395 31.1586 35.3189 31.1698 34.2567L31.1699 34.2564Z" fill="#2F4050"/>
    <path d="M24.9983 33.9855H20.9983C20.7385 32.6187 20.0077 31.3864 18.9332 30.5033C17.8586 29.6202 16.5086 29.1423 15.1184 29.153C13.7104 29.1257 12.3381 29.5952 11.2412 30.4787C10.1439 31.3622 9.39249 32.6035 9.11843 33.9855H0.998321C0.594755 33.9878 0.231807 34.2321 0.0782294 34.606C-0.0784677 34.9785 0.00456862 35.4086 0.288492 35.6963L24.2885 59.7093C24.4769 59.8969 24.7327 60.001 24.9983 59.9997C25.1296 60.0032 25.2595 59.9755 25.3782 59.9197C25.7519 59.766 25.9961 59.4029 25.9983 58.9991V49.494C25.9983 49.2286 25.893 48.974 25.7055 48.7864C25.518 48.5988 25.2635 48.4934 24.9983 48.4934C23.9474 48.547 22.9201 48.1669 22.1573 47.4415C21.3944 46.7161 20.9627 45.7094 20.9627 44.6566C20.9627 43.6033 21.3943 42.5965 22.1573 41.8712C22.9202 41.1459 23.9475 40.7657 24.9983 40.8193C25.2635 40.8193 25.518 40.7138 25.7055 40.5262C25.893 40.3386 25.9983 40.084 25.9983 39.8187V34.9862C25.9983 34.7208 25.893 34.4662 25.7055 34.2786C25.518 34.091 25.2635 33.9856 24.9983 33.9856L24.9983 33.9855ZM23.9983 38.9083C22.1398 39.1777 20.526 40.3292 19.6662 41.9993C18.8064 43.6698 18.8064 45.653 19.6662 47.3232C20.526 48.9937 22.1399 50.1453 23.9983 50.4146V56.588L3.40861 35.9871H9.99878C10.264 35.9871 10.5184 35.8817 10.7059 35.6941C10.8934 35.5065 10.9988 35.2519 10.9988 34.9865C11.043 33.9427 11.4934 32.9573 12.2541 32.2413C13.0144 31.5253 14.0246 31.1353 15.0688 31.1545C16.0961 31.1465 17.0854 31.5445 17.8215 32.2618C18.5572 32.9796 18.9805 33.9587 18.9988 34.9865C18.9988 35.2518 19.1041 35.5064 19.2916 35.694C19.4791 35.8816 19.7336 35.987 19.9988 35.987H23.9988L23.9983 38.9083Z" fill="#CF5555"/>
    <path d="M32.9983 14.9753H27.9983C27.4461 14.9753 26.9983 15.4234 26.9983 15.9759C26.9983 16.5284 27.4461 16.9764 27.9983 16.9764H32.9983C33.5505 16.9764 33.9983 16.5284 33.9983 15.9759C33.9983 15.4234 33.5505 14.9753 32.9983 14.9753Z" fill="#CF5555"/>
    <path d="M32.9983 11.9736H27.9983C27.4461 11.9736 26.9983 12.4216 26.9983 12.9742C26.9983 13.5267 27.4461 13.9747 27.9983 13.9747H32.9983C33.5505 13.9747 33.9983 13.5267 33.9983 12.9742C33.9983 12.4216 33.5505 11.9736 32.9983 11.9736Z" fill="#CF5555"/>
    <path d="M36.9983 36.9872H41.9983C42.5505 36.9872 42.9983 36.5392 42.9983 35.9866C42.9983 35.4341 42.5505 34.9861 41.9983 34.9861H36.9983C36.4461 34.9861 35.9983 35.4341 35.9983 35.9866C35.9983 36.5392 36.4461 36.9872 36.9983 36.9872Z" fill="#CF5555"/>
    <path d="M36.9983 33.9856H41.9983C42.5505 33.9856 42.9983 33.5376 42.9983 32.985C42.9983 32.4325 42.5505 31.9845 41.9983 31.9845H36.9983C36.4461 31.9845 35.9983 32.4325 35.9983 32.985C35.9983 33.5376 36.4461 33.9856 36.9983 33.9856Z" fill="#CF5555"/>
</svg>
