<svg width="60" height="60" viewBox="0 0 60 60" fill="none" xmlns="http://www.w3.org/2000/svg">
    <path d="M30.1559 16.4294C28.8721 16.4294 27.6407 16.9395 26.7324 17.8472C25.8247 18.7553 25.3147 19.9868 25.3147 21.2706C25.3147 22.5545 25.8248 23.7858 26.7324 24.6941C27.6406 25.6018 28.8721 26.1118 30.1559 26.1118C31.4397 26.1118 32.6711 25.6018 33.5794 24.6941C34.4871 23.786 34.9971 22.5545 34.9971 21.2706C34.9958 19.9872 34.4849 18.7566 33.5776 17.8489C32.6699 16.9416 31.4393 16.4308 30.1559 16.4294ZM30.1559 24.1753C29.3856 24.1753 28.6464 23.8693 28.1019 23.3247C27.5574 22.78 27.2512 22.0409 27.2512 21.2707C27.2512 20.5005 27.5573 19.7612 28.1019 19.2167C28.6465 18.6722 29.3857 18.366 30.1559 18.366C30.9261 18.366 31.6653 18.6721 32.2099 19.2167C32.7544 19.7613 33.0605 20.5005 33.0605 21.2707C33.0597 22.041 32.7532 22.7793 32.209 23.3239C31.6644 23.8681 30.9261 24.1746 30.1558 24.1754L30.1559 24.1753Z" fill="#CF5555"/>
    <path d="M40.7731 18.5949C40.2686 16.7142 39.2545 15.0094 37.842 13.6689C37.5347 13.3772 37.073 13.3188 36.7026 13.525L35.6509 14.112H35.6514C35.5377 14.1811 35.3959 14.1846 35.2788 14.1215C34.8556 13.8366 34.4091 13.5877 33.9444 13.3776C33.8484 13.3261 33.7896 13.2246 33.7931 13.1156V11.9438C33.7935 11.5055 33.4991 11.1221 33.0755 11.0088C32.0801 10.7318 31.0492 10.6012 30.0157 10.6211C29.0768 10.6358 28.1432 10.7676 27.2368 11.0136C26.8132 11.1264 26.5179 11.5103 26.5184 11.9486V13.1156C26.5218 13.2254 26.4622 13.3274 26.3649 13.3784C25.9007 13.5885 25.4546 13.8371 25.0319 14.1215C24.9147 14.1854 24.7725 14.1811 24.6593 14.1111L23.6137 13.5276C23.2432 13.3222 22.782 13.3802 22.4742 13.6715C21.0608 15.0114 20.0446 16.7154 19.5384 18.5957C19.4239 19.0241 19.6145 19.4749 20.0014 19.691L21.2285 20.3766H21.229C21.162 20.9709 21.162 21.5709 21.229 22.1652L20.0018 22.8507H20.0014C19.6145 23.0669 19.4234 23.5186 19.5384 23.9465C20.0429 25.8276 21.0569 27.5324 22.4695 28.8729C22.7768 29.1651 23.2384 29.2234 23.6089 29.0168L24.6606 28.4298H24.6601C24.7738 28.3607 24.9156 28.3572 25.0327 28.4203C25.4559 28.7052 25.9024 28.9541 26.3671 29.1642C26.4631 29.2157 26.5219 29.3172 26.5184 29.4262V30.598C26.518 31.0363 26.8123 31.4197 27.2359 31.533C28.1886 31.7897 29.1711 31.9203 30.1575 31.9216C30.2029 31.9216 30.2491 31.9216 30.2954 31.9207H30.2958C31.2346 31.906 32.1683 31.7742 33.0747 31.5282C33.4983 31.4154 33.7935 31.0315 33.7931 30.5933V29.4262C33.7896 29.3164 33.8493 29.2144 33.9465 29.1634C34.4108 28.9533 34.8569 28.7047 35.2796 28.4203C35.3968 28.3568 35.539 28.3611 35.6522 28.4307L36.6978 29.0142L36.6983 29.0138C37.0683 29.2213 37.5303 29.1629 37.8372 28.8703C39.2506 27.5304 40.2669 25.8264 40.7735 23.9457C40.8876 23.5177 40.697 23.0669 40.3101 22.8508L39.0829 22.1652H39.0825C39.1495 21.5709 39.1495 20.9709 39.0825 20.3766L40.3097 19.6911H40.3101C40.697 19.4745 40.8876 19.0232 40.7731 18.5949V18.5949ZM37.0729 20.0407H37.0734C37.2372 20.8525 37.2372 21.6893 37.0734 22.501C36.9947 22.9112 37.1879 23.3253 37.5527 23.5289L38.6788 24.1578V24.1574C38.3006 25.1909 37.7283 26.1427 36.993 26.961L36.5967 26.7405V26.741C36.2288 26.5313 35.81 26.4276 35.3863 26.4406C34.9632 26.4535 34.5516 26.5828 34.1968 26.8145C33.8648 27.0379 33.5147 27.2329 33.1503 27.398C32.7626 27.5761 32.4341 27.8618 32.205 28.2214C31.9754 28.5815 31.8544 28.9995 31.8566 29.4261V29.8216C31.3344 29.9224 30.8041 29.9768 30.272 29.9842C29.6625 29.9915 29.0534 29.9383 28.4548 29.8251V29.4261C28.457 28.9999 28.3364 28.5819 28.1073 28.2223C27.8782 27.8631 27.5505 27.577 27.1628 27.3989C26.798 27.2342 26.4474 27.0384 26.1155 26.8145C25.7606 26.5837 25.3491 26.4544 24.9259 26.441C24.5027 26.428 24.0839 26.5314 23.7156 26.7401L23.3136 26.964C22.5796 26.1445 22.0086 25.1918 21.6326 24.1575L22.7578 23.5285V23.529C23.1217 23.3258 23.3149 22.9126 23.2371 22.5028C23.0746 21.6898 23.0746 20.8521 23.2371 20.039C23.3149 19.6292 23.1217 19.216 22.7578 19.0128L21.6326 18.3839V18.3843C22.0108 17.3508 22.5831 16.399 23.3183 15.5807L23.7147 15.8012V15.8008C24.0825 16.0104 24.5014 16.1141 24.9251 16.1012C25.3482 16.0882 25.7597 15.9589 26.1146 15.7273C26.4466 15.5038 26.7967 15.3084 27.1611 15.1437C27.5488 14.9656 27.8773 14.6799 28.1064 14.3203C28.3359 13.9602 28.457 13.5423 28.4548 13.1156V12.7205C28.977 12.6194 29.5073 12.5649 30.0394 12.5576C30.6489 12.5463 31.2584 12.5999 31.8566 12.7166V13.1156C31.8544 13.5418 31.975 13.9598 32.2041 14.3194C32.4332 14.679 32.7608 14.9648 33.1486 15.1428C33.5134 15.3075 33.8639 15.5033 34.1959 15.7272C34.5508 15.9585 34.9623 16.0882 35.3855 16.1016C35.8086 16.1145 36.2275 16.0108 36.5958 15.802L36.9978 15.5781V15.5777C37.7318 16.3972 38.3028 17.35 38.6788 18.3843L37.5527 19.0132V19.0127C37.1879 19.2163 36.9947 19.6304 37.0734 20.0406L37.0729 20.0407Z" fill="#CF5555"/>
    <path d="M39.4641 46.52C36.1315 47.9184 33.0012 49.7563 30.1561 51.9845C27.311 49.7563 24.1807 47.9184 20.8481 46.52C14.5804 43.9248 7.77297 42.9029 1.01965 43.5436L1.19731 45.4723H1.19774C7.63481 44.8611 14.1234 45.8337 20.0989 48.3053C23.361 49.6804 26.4192 51.4967 29.1873 53.7037V57.7349C25.113 56.5056 20.9366 55.6454 16.7076 55.1643C11.4882 54.5821 6.21997 54.5821 1 55.1643L1.21569 57.0895H1.21526C10.8584 56.0106 20.6199 56.9867 29.8585 59.9536C30.0513 60.0154 30.2579 60.0154 30.4507 59.9536C39.6891 56.9867 49.4514 56.0106 59.0939 57.0895L59.3096 55.1643H59.3092C49.8368 54.0971 40.2465 54.9716 31.123 57.7349V53.7037C33.8911 51.4967 36.9492 49.6804 40.2115 48.3053C46.1869 45.8346 52.6757 44.8621 59.1126 45.4723L59.2902 43.5436H59.2907C52.5372 42.9034 45.7298 43.9253 39.4622 46.52H39.4641Z" fill="#2F4050"/>
    <path d="M44.4656 49.3727C40.6873 50.2294 37.0322 51.5586 33.5859 53.3286L34.4708 55.0515H34.4712C37.7723 53.3554 41.2735 52.0824 44.8927 51.2616C49.5693 50.2786 54.3607 49.9596 59.1264 50.3141L59.2794 48.3832V48.3837C54.3198 48.0145 49.3325 48.3474 44.4659 49.3727L44.4656 49.3727Z" fill="#2F4050"/>
    <path d="M15.4188 51.2628C19.038 52.0836 22.5398 53.3566 25.8404 55.0527L26.7252 53.3298H26.7256C23.2793 51.5598 19.6242 50.2306 15.846 49.3739C10.9793 48.3503 5.99195 48.0174 1.03247 48.3849L1.18549 50.3157V50.3153C5.95099 49.9604 10.7425 50.2794 15.4191 51.2628L15.4188 51.2628Z" fill="#2F4050"/>
    <path d="M29.1874 35.7942H31.1239V46.4448H29.1874V35.7942Z" fill="#CF5555"/>
    <path d="M34.9968 32.8894H36.9333V42.5718H34.9968V32.8894Z" fill="#CF5555"/>
    <path d="M23.3779 32.8894H25.3144V42.5718H23.3779V32.8894Z" fill="#CF5555"/>
    <path d="M5.94993 28.0482C5.69317 28.0482 5.44679 28.1502 5.26524 28.3318C5.0837 28.5133 4.98169 28.7597 4.98169 29.0165V35.7941C4.98169 36.0509 5.0837 36.2973 5.26524 36.4788C5.44679 36.6603 5.69317 36.7624 5.94993 36.7624H12.7276C12.9843 36.7624 13.2307 36.6603 13.4123 36.4788C13.5938 36.2973 13.6958 36.0509 13.6958 35.7941V29.0165C13.6958 28.7597 13.5938 28.5133 13.4123 28.3318C13.2307 28.1502 12.9843 28.0482 12.7276 28.0482H5.94993ZM11.7594 34.8259H6.91817V29.9847H11.7594V34.8259Z" fill="#2F4050"/>
    <path d="M49.9709 27.8624C49.7893 27.6809 49.5434 27.5789 49.2862 27.5789C49.0294 27.5789 48.7835 27.6809 48.6019 27.8624L44.4934 31.971C44.3119 32.1525 44.2098 32.3984 44.2098 32.6552C44.2098 32.9124 44.3119 33.1583 44.4934 33.3399L48.6019 37.4475C48.7835 37.6291 49.0294 37.7311 49.2862 37.7311C49.5434 37.7311 49.7893 37.6291 49.9709 37.4475L54.0785 33.3399C54.2601 33.1583 54.3621 32.9124 54.3621 32.6552C54.3621 32.3984 54.2601 32.1525 54.0785 31.971L49.9709 27.8624ZM49.2862 35.3935L46.547 32.6552L49.2862 29.9161L52.0245 32.6552L49.2862 35.3935Z" fill="#2F4050"/>
    <path d="M17.5685 7.23109C17.5685 6.07574 17.1095 4.96741 16.2925 4.15C15.4752 3.33305 14.3669 2.87402 13.2114 2.87402C12.056 2.87402 10.9478 3.33307 10.1303 4.15C9.31339 4.96738 8.85437 6.07563 8.85437 7.23109C8.85437 8.38656 9.31342 9.49478 10.1303 10.3122C10.9477 11.1291 12.056 11.5882 13.2114 11.5882C14.3665 11.5869 15.4742 11.1274 16.2908 10.3104C17.1077 9.49391 17.5672 8.38601 17.5685 7.23109ZM13.2114 9.65169C12.5695 9.65169 11.9536 9.39666 11.4997 8.94281C11.0458 8.48895 10.7908 7.87299 10.7908 7.23107C10.7908 6.58916 11.0459 5.97325 11.4997 5.51934C11.9536 5.06543 12.5695 4.81046 13.2114 4.81046C13.8534 4.81046 14.4693 5.06548 14.9232 5.51934C15.3771 5.97319 15.6321 6.58916 15.6321 7.23107C15.6316 7.87296 15.3762 8.48801 14.9223 8.94192C14.4684 9.39579 13.8533 9.65125 13.2115 9.65168L13.2114 9.65169Z" fill="#2F4050"/>
    <path d="M48.4052 0.424033C48.2163 0.158205 47.9107 0 47.5844 0C47.258 0 46.9524 0.158205 46.7635 0.424033L41.9223 8.16994C41.7356 8.46862 41.7257 8.84468 41.896 9.15287C42.0667 9.46063 42.3909 9.65169 42.7432 9.65169H52.4255C52.7778 9.65169 53.102 9.46063 53.2727 9.15287C53.4431 8.84467 53.4331 8.46862 53.2464 8.16994L48.4052 0.424033ZM44.4908 7.71525L47.5844 2.76429L50.678 7.71525H44.4908Z" fill="#2F4050"/>
</svg>
