<svg width="60" height="60" viewBox="0 0 60 60" fill="none" xmlns="http://www.w3.org/2000/svg">
    <path d="M52.4657 29.2552C54.9983 27.8012 56.8036 25.3508 57.4423 22.5014C58.081 19.6519 57.4941 16.6654 55.8244 14.2695C54.1548 11.8741 51.556 10.2893 48.6615 9.90207C45.7672 9.51486 42.8429 10.3606 40.6021 12.2335C41.1405 9.20063 40.308 6.08525 38.3291 3.7242C36.3504 1.36373 33.4283 0 30.3483 0C27.2677 0 24.3457 1.36362 22.3669 3.7242C20.3882 6.08514 19.556 9.20063 20.0939 12.2335C17.7352 10.2624 14.6261 9.43398 11.5997 9.97006C8.57318 10.5062 5.93798 12.3524 4.39959 15.0134C2.86166 17.6744 2.57787 20.8793 3.62424 23.7696C4.67059 26.6599 6.94031 28.94 9.82559 29.9995C6.93985 31.0591 4.66921 33.3397 3.62238 36.2299C2.57558 39.1202 2.8593 42.3255 4.39773 44.9875C5.93566 47.6489 8.57178 49.4951 11.5987 50.0312C14.6261 50.5669 17.7352 49.7384 20.0939 47.7665C19.556 50.7994 20.3881 53.9148 22.3669 56.2758C24.3456 58.6363 27.2677 60 30.3483 60C33.4283 60 36.3503 58.6364 38.3291 56.2758C40.3079 53.9153 41.1404 50.7994 40.6021 47.7665C41.056 48.1456 41.5409 48.4851 42.0516 48.782L42.3771 48.2186L42.0516 48.782C44.5765 50.2478 47.6007 50.5859 50.3866 49.7149C53.173 48.8442 55.4658 46.8436 56.7065 44.2012C57.9471 41.5588 58.0215 38.5169 56.9121 35.8169C55.8022 33.1168 53.6101 31.0063 50.8701 29.9995C51.4221 29.797 51.9554 29.5478 52.4656 29.255L52.4657 29.2552ZM20.0941 31.7561C19.1853 31.0021 18.1547 30.4083 17.0467 29.9998C18.1548 29.5917 19.1852 28.9979 20.0941 28.2439C19.8816 29.4047 19.8816 30.5949 20.0941 31.7562V31.7561ZM23.7021 38.0155H23.7016C24.6122 38.7668 25.6441 39.3579 26.7531 39.7632C25.6432 40.1686 24.6104 40.7605 23.6994 41.5132C23.9041 40.3566 23.905 39.1726 23.7017 38.0155H23.7021ZM23.9054 36.4435H23.905C21.9017 34.4403 20.9443 31.6194 21.3138 28.8104C21.6838 26.0018 23.3389 23.5246 25.7925 22.1083C28.2456 20.6915 31.2185 20.4968 33.836 21.5808C36.4534 22.6652 38.4177 24.905 39.1508 27.6414C39.8839 30.3778 39.3024 33.2998 37.5779 35.5473C35.8533 37.7948 33.1814 39.1126 30.3483 39.1122C27.931 39.1158 25.6118 38.1553 23.905 36.4434L23.9054 36.4435ZM23.7021 21.9846H23.7016C23.905 20.8275 23.9041 19.6435 23.6993 18.4869C24.6104 19.2396 25.6432 19.831 26.753 20.2369C25.644 20.6418 24.6122 21.2329 23.7015 21.9846H23.7021ZM33.944 20.2369C35.054 19.8311 36.0867 19.2396 36.9977 18.4869C36.793 19.6436 36.7921 20.8275 36.9954 21.9846C36.0848 21.2329 35.053 20.6418 33.944 20.2369H33.944ZM36.9955 38.016C36.7921 39.1731 36.793 40.357 36.9978 41.5137C36.0867 40.761 35.0539 40.1691 33.9441 39.7637C35.0531 39.3587 36.0849 38.7677 36.9956 38.016H36.9955ZM40.7628 30.0006C40.7592 29.4118 40.7061 28.824 40.6035 28.2443C41.5118 28.9983 42.5423 29.5921 43.6504 30.0006C42.5423 30.4087 41.5119 31.0025 40.6035 31.7564C40.7061 31.1767 40.7592 30.5893 40.7628 30.0006ZM23.9053 4.02984C25.9085 2.0266 28.7294 1.06914 31.5385 1.43869C34.3471 1.80866 36.8242 3.46377 38.2406 5.91686C39.6573 8.37042 39.8521 11.3429 38.7681 13.9604C37.6841 16.5778 35.4442 18.5421 32.7079 19.2752C29.9715 20.0087 27.0495 19.4277 24.802 17.7032C22.5545 15.9786 21.2367 13.3067 21.2367 10.4736C21.233 8.0563 22.1936 5.73662 23.9054 4.02984H23.9053ZM8.8816 28.1284C6.30904 26.6431 4.62225 23.9966 4.36159 21.0377C4.10057 18.0784 5.29899 15.1782 7.5719 13.2657C9.84487 11.3532 12.9076 10.6686 15.7784 11.4318C18.6491 12.1944 20.9679 14.3089 21.9916 17.0975C23.0157 19.8861 22.6157 22.9988 20.9202 25.4379C19.2252 27.8774 16.4471 29.3369 13.4768 29.3496C13.4609 29.3496 13.445 29.3482 13.4292 29.3482C13.4128 29.3482 13.3969 29.3496 13.3806 29.3496H13.3801C11.7999 29.3419 10.2488 28.9206 8.8815 28.1284H8.8816ZM17.9941 47.6553C15.5451 49.0694 12.5785 49.2659 9.96422 48.1878C7.34948 47.1097 5.38389 44.8789 4.64351 42.1498C3.90312 39.4207 4.47146 36.5022 6.18237 34.2502C7.89334 31.9986 10.5525 30.669 13.3802 30.6508C13.3966 30.6508 13.4125 30.6521 13.4288 30.6521C13.4447 30.6521 13.4606 30.6508 13.4765 30.6508H13.4769C16.1661 30.6617 18.7133 31.8601 20.4364 33.9251C22.1596 35.9902 22.8823 38.7112 22.4111 41.359C21.9403 44.0069 20.3238 46.3111 17.9941 47.6553H17.9941ZM36.7924 55.9698V55.9703C34.7891 57.9735 31.9682 58.931 29.1597 58.561C26.3506 58.1914 23.8739 56.5363 22.4571 54.0828C21.0407 51.6292 20.8461 48.6568 21.9301 46.0393C23.0145 43.4222 25.2543 41.458 27.9907 40.725C30.7271 39.9919 33.6487 40.5729 35.8961 42.2974C38.1436 44.0224 39.4615 46.6939 39.4615 49.527C39.4647 51.9443 38.5041 54.2635 36.7922 55.9703L36.7924 55.9698ZM51.8149 31.8724C54.6344 33.5003 56.3712 36.5081 56.3712 39.7638C56.3716 43.0195 54.6349 46.0278 51.8154 47.6557C48.9959 49.2835 45.5223 49.2835 42.7028 47.6557C40.3741 46.3111 38.7581 44.0069 38.2873 41.3594C37.8166 38.7115 38.5392 35.9915 40.262 33.9264C41.9842 31.8613 44.5308 30.663 47.2201 30.6511C47.236 30.6511 47.2518 30.6525 47.2677 30.6525C47.2841 30.6525 47.3 30.6511 47.3163 30.6511C48.8965 30.6593 50.4476 31.0801 51.8149 31.8723L51.8149 31.8724ZM51.8149 28.1287C50.4476 28.9208 48.897 29.342 47.3163 29.3498C47.2999 29.3498 47.2841 29.3484 47.2677 29.3484C47.2518 29.3484 47.2359 29.3498 47.2201 29.3498C44.2481 29.3375 41.4686 27.8776 39.7721 25.4372C38.0752 22.9968 37.6753 19.8827 38.6994 17.0927C39.7235 14.3027 42.0432 12.1869 44.9158 11.4234C47.7879 10.6603 50.852 11.3449 53.1263 13.2582C55.4005 15.1721 56.599 18.0741 56.338 21.0348C56.077 23.9951 54.3888 26.6429 51.8148 28.1287L52.1403 28.6925L51.8149 28.1287Z" fill="#2F4050"/>
    <path d="M46.977 34.6171L40.9409 45.0734H53.5765L47.2589 34.1292L46.977 34.6171ZM42.068 44.4224L47.2585 35.4306L52.4489 44.4224H42.068Z" fill="#CF5555"/>
    <path d="M18.7447 23.3006L18.7456 17.1723L13.4385 14.1068L13.276 14.2008L8.13007 17.1723L8.13143 23.3005L13.4385 26.3661L18.7447 23.3006ZM13.4381 19.8397L9.12467 17.3493L13.4381 14.8584L17.751 17.3497L13.4381 19.8397ZM13.7635 25.4268V20.4034L18.0947 17.9026L18.0943 22.9251L13.7635 25.4268ZM8.78054 17.9022L13.113 20.4034V25.4268L8.78147 22.9252L8.78054 17.9022Z" fill="#CF5555"/>
    <path d="M18.7438 42.6218V36.7019L13.6219 33.7445C13.6074 33.734 13.592 33.7254 13.5756 33.7177L13.4363 33.6373L13.2915 33.7209C13.2824 33.7254 13.2747 33.7299 13.2665 33.7354L8.12872 36.7019L8.13008 42.8311L13.4367 45.8966L18.7438 42.8311V42.6545V42.6549C18.7443 42.6436 18.7443 42.6327 18.7438 42.6218L18.7438 42.6218ZM18.0929 41.4161L14.336 34.9078L18.0933 37.0777L18.0929 41.4161ZM17.8591 42.3131L9.02021 42.3127L13.4398 34.6573L17.8591 42.3131ZM12.547 34.9024L8.78058 41.4265L8.77967 37.0777L12.547 34.9024ZM9.6603 42.9635H17.2135L13.4367 45.1452L9.6603 42.9635Z" fill="#CF5555"/>
    <path d="M33.5745 45.2586L32.4301 44.5995L28.2651 44.5999L27.1221 45.2618L25.0394 48.8684L25.0407 50.1889L27.1235 53.796L28.2679 54.4551H32.4329L33.5759 53.7937L35.6586 50.1866L35.6563 48.8657L33.5745 45.2586ZM34.9486 48.9411L33.57 51.011L30.6743 49.3391V45.9962L33.1556 45.8346L34.9486 48.9411ZM32.1436 53.8043H28.557L27.4535 51.5744L30.3487 49.903L33.2445 51.5749L32.1436 53.8043ZM30.3488 45.3654L28.5584 45.2506H32.1155L30.3488 45.3654ZM27.5416 45.8371L30.0237 45.9964L30.0233 49.3393L27.128 51.0112L25.748 48.9435L27.5416 45.8371ZM25.7644 50.1392L26.7449 51.6082L27.5379 53.2106L25.7644 50.1392ZM33.1705 53.1947L33.954 51.6082L34.9499 50.1125L33.1705 53.1947Z" fill="#CF5555"/>
    <path d="M52.568 17.1728L47.2609 14.1073L47.0984 14.2013L41.9525 17.1728L41.9538 23.301L47.2609 26.3665L52.5676 23.301L52.568 17.1728ZM51.9166 22.5507L50.4218 21.6873L51.917 18.7271L51.9166 22.5507ZM44.5458 21.1307L42.7922 17.6575L46.6776 17.4396L44.5458 21.1307ZM47.2599 17.7316L49.4293 21.4893H45.09L47.2599 17.7316ZM49.3907 22.1404L47.2594 25.3966L45.1281 22.1404H49.3907ZM47.8423 17.4393L51.7277 17.6576L49.9732 21.1313L47.8423 17.4393ZM47.585 16.7729L47.5854 15.0461L50.8965 16.9586L47.585 16.7729ZM46.934 16.7729L43.6229 16.9586L46.9345 15.0461L46.934 16.7729ZM44.0968 21.6864L42.6038 22.5484L42.6028 18.7271L44.0968 21.6864ZM44.4223 22.2497L46.2381 25.0243L42.9284 23.1127L44.4223 22.2497ZM50.0962 22.2497L51.5901 23.1127L48.2795 25.0252L50.0962 22.2497Z" fill="#CF5555"/>
    <path d="M30.3485 16.5534C31.9609 16.5534 33.5071 15.9129 34.6474 14.7726C35.7872 13.6323 36.4277 12.0862 36.4277 10.4737C36.4277 8.86132 35.7872 7.31514 34.6474 6.17488C33.507 5.03501 31.9609 4.39453 30.3485 4.39453C28.7361 4.39453 27.1899 5.03505 26.0496 6.17488C24.9098 7.3152 24.2693 8.86132 24.2693 10.4737C24.2693 12.0862 24.9098 13.6323 26.0496 14.7726C27.19 15.9129 28.7361 16.5534 30.3485 16.5534ZM25.0114 11.4461C25.1031 11.4992 25.1866 11.555 25.2915 11.6041V11.6036C26.3179 12.0108 27.4024 12.2532 28.5045 12.3222C28.5685 13.1016 28.6997 13.8738 28.8972 14.63C29.0043 15.0409 29.1618 15.4367 29.3661 15.8093C28.2821 15.6119 27.2843 15.0885 26.5063 14.3086C25.7282 13.5287 25.2066 12.53 25.0114 11.4455L25.0114 11.4461ZM34.1871 14.3128V14.3123C33.1702 15.3323 31.7888 15.9043 30.3485 15.9025C30.2999 15.8994 30.2532 15.8803 30.2164 15.8485C30.0366 15.6865 29.8973 15.4844 29.8097 15.2588C29.4465 14.3351 29.2268 13.3613 29.1587 12.3712C29.5441 12.3935 29.939 12.4085 30.3485 12.4089C31.7489 12.4293 33.1466 12.2664 34.5049 11.925C34.9157 11.8179 35.3115 11.6604 35.6838 11.4565C35.4868 12.5383 34.9648 13.5347 34.1871 14.3123L34.1871 14.3128ZM34.1871 6.63565V6.6352C35.2071 7.65204 35.779 9.0339 35.7773 10.4738V10.4742C35.7736 10.5228 35.755 10.5691 35.7228 10.6058C35.5612 10.7861 35.3592 10.925 35.1336 11.0126C33.6006 11.5641 31.9764 11.8174 30.3485 11.7584C29.9209 11.7584 29.5055 11.7439 29.1052 11.7189C29.0797 11.3172 29.0634 10.9027 29.0638 10.4742V10.4737C29.0443 9.13233 29.1987 7.79405 29.5237 6.4926C29.6231 6.09132 29.7815 5.70637 29.9935 5.35138C30.0525 5.25514 30.1284 5.1698 30.2164 5.09944C30.2532 5.06721 30.2995 5.04814 30.3485 5.04496C31.789 5.04315 33.1702 5.61511 34.1871 6.63519L34.1871 6.63565ZM26.5099 6.63565V6.6352C27.2903 5.85532 28.2903 5.33236 29.3762 5.13666C29.3231 5.22836 29.2672 5.31189 29.2182 5.41629L29.2186 5.41674C28.6253 7.03416 28.3516 8.75187 28.4133 10.4738C28.4133 10.8819 28.4256 11.2795 28.4478 11.6645C27.7451 11.6014 27.0492 11.4788 26.3674 11.2986C25.9661 11.1992 25.5812 11.0407 25.2262 10.8287C25.13 10.7697 25.0446 10.6939 24.9738 10.6058C24.942 10.5691 24.923 10.5228 24.9198 10.4738C24.918 9.03379 25.4899 7.65204 26.51 6.6352L26.5099 6.63565Z" fill="#CF5555"/>
</svg>
