<svg width="60" height="60" viewBox="0 0 60 60" fill="none" xmlns="http://www.w3.org/2000/svg">
    <path d="M15.6 52.8H1.2C0.536255 52.8 0 53.3379 0 54.0001V58.8001C0 59.4622 0.536255 60.0001 1.2 60.0001H15.6C16.2637 60.0001 16.8 59.4622 16.8 58.8001V54.0001C16.8 53.3379 16.2637 52.8 15.6 52.8ZM14.4 57.6001H2.4V55.2001H14.4V57.6001Z" fill="#2F4050"/>
    <path d="M37.2001 52.8H22.8001C22.1364 52.8 21.6001 53.3379 21.6001 54.0001V58.8001C21.6001 59.4622 22.1364 60.0001 22.8001 60.0001H37.2001C37.8639 60.0001 38.4001 59.4622 38.4001 58.8001V54.0001C38.4001 53.3379 37.8639 52.8 37.2001 52.8ZM36.0001 57.6001H24.0001V55.2001H36.0001V57.6001Z" fill="#2F4050"/>
    <path d="M58.8002 52.8H44.4002C43.7365 52.8 43.2002 53.3379 43.2002 54.0001V58.8001C43.2002 59.4622 43.7365 60.0001 44.4002 60.0001H58.8002C59.4639 60.0001 60.0002 59.4622 60.0002 58.8001V54.0001C60.0002 53.3379 59.4639 52.8 58.8002 52.8ZM57.6002 57.6001H45.6002V55.2001H57.6002V57.6001Z" fill="#2F4050"/>
    <path d="M37.2001 43.2H22.8001C22.1364 43.2 21.6001 43.7378 21.6001 44.4V49.2C21.6001 49.8621 22.1364 50.4 22.8001 50.4H37.2001C37.8639 50.4 38.4001 49.8621 38.4001 49.2V44.4C38.4001 43.7378 37.8639 43.2 37.2001 43.2ZM36.0001 48H24.0001V45.6H36.0001V48Z" fill="#2F4050"/>
    <path d="M58.8002 43.2H44.4002C43.7365 43.2 43.2002 43.7378 43.2002 44.4V49.2C43.2002 49.8621 43.7365 50.4 44.4002 50.4H58.8002C59.4639 50.4 60.0002 49.8621 60.0002 49.2V44.4C60.0002 43.7378 59.4639 43.2 58.8002 43.2ZM57.6002 48H45.6002V45.6H57.6002V48Z" fill="#2F4050"/>
    <path d="M58.8002 33.6001H44.4002C43.7365 33.6001 43.2002 34.138 43.2002 34.8001V39.6001C43.2002 40.2622 43.7365 40.8001 44.4002 40.8001H58.8002C59.4639 40.8001 60.0002 40.2622 60.0002 39.6001V34.8001C60.0002 34.138 59.4639 33.6001 58.8002 33.6001ZM57.6002 38.4001H45.6002V36.0001H57.6002V38.4001Z" fill="#2F4050"/>
    <path d="M58.8002 0H45.6002C45.1154 0 44.6761 0.293033 44.4913 0.740352C44.3054 1.18928 44.4082 1.70518 44.7516 2.04857L48.7035 5.99993L33.6 21.1035L26.0486 13.5521C25.5793 13.0828 24.8208 13.0828 24.352 13.5521L2.04847 35.8543C1.36919 36.5346 0.993652 37.4395 0.993652 38.4005C0.993652 39.3614 1.36919 40.2663 2.04847 40.9457L2.25472 41.152C2.95651 41.8527 3.87685 42.2046 4.79996 42.2046C5.72139 42.2046 6.6433 41.8543 7.34519 41.1525L25.1998 23.2965L32.7512 30.8479C33.2205 31.3171 33.979 31.3171 34.4478 30.8479L54.0003 11.2968L57.9516 15.2481C58.2961 15.5926 58.8109 15.696 59.2598 15.5085C59.7088 15.3231 60.0002 14.8849 60.0002 14.4001V1.2001C60.0002 0.537957 59.4639 9.62612e-05 58.8002 9.62612e-05L58.8002 0ZM57.6002 11.5034L54.8488 8.75205C54.3795 8.28276 53.621 8.28276 53.1522 8.75205L33.5998 28.3031L26.0484 20.7518C25.5791 20.2825 24.8206 20.2825 24.3518 20.7518L5.64827 39.4539C5.17898 39.9232 4.42042 39.9222 3.95168 39.4539L3.74543 39.2477C3.51829 39.0216 3.39346 38.7205 3.39346 38.4002C3.39346 38.0798 3.51828 37.7788 3.74489 37.5516L25.1995 16.097L32.7509 23.6484C33.2202 24.1176 33.9787 24.1176 34.4475 23.6484L51.2475 6.84835C51.7168 6.37906 51.7168 5.6205 51.2475 5.15176L48.4961 2.4004H57.5995L57.6002 11.5034Z" fill="#CF5555"/>
</svg>
