<svg width="60" height="60" viewBox="0 0 60 60" fill="none" xmlns="http://www.w3.org/2000/svg">
    <path d="M50.5402 16.6934C49.0967 16.6934 47.6904 17.0123 46.4341 17.6308C45.3652 13.7681 41.85 11.0592 37.7342 11.0592C37.3592 11.0592 36.9842 11.0872 36.6188 11.1342C35.7376 5.39695 30.6846 1 24.7972 1C18.216 1 12.8629 6.3439 12.8441 12.9155C12.366 12.8497 11.8787 12.8216 11.3817 12.8216C5.10964 12.8216 0 17.9216 0 24.1931C0 30.1932 4.51885 35.0303 10.3969 35.5273V54.4181C10.3969 56.6683 12.2252 58.4961 14.4657 58.4961H45.5155C45.5247 58.4961 45.5344 58.4869 45.5528 58.4869C47.7842 58.468 49.6026 56.6495 49.6026 54.4181L49.6031 35.5831H50.5501C55.7532 35.5831 60 31.3363 60 26.1332C60 20.921 55.7532 16.693 50.5405 16.693L50.5402 16.6934ZM41.4465 32.4896H11.8027V27.0054C11.8027 26.5645 12.14 26.2272 12.5717 26.2272H18.2997C18.8528 26.2272 19.359 26.4992 19.6498 26.9492L20.8872 28.8148C21.4495 29.6679 22.3873 30.1741 23.4186 30.1741H40.6679C41.0991 30.1741 41.4461 30.5211 41.4461 30.9523L41.4465 32.4896ZM14.4662 57.0889C12.9941 57.0889 11.8037 55.8888 11.8037 54.4173V33.8949H41.4475V54.4074C41.4475 54.5104 41.4664 54.6135 41.4756 54.7166C41.4848 54.8758 41.4944 55.0258 41.5225 55.1855C41.5414 55.2978 41.5786 55.4013 41.6164 55.5044C41.6536 55.6452 41.6914 55.7855 41.7475 55.9264C41.7848 56.0202 41.8414 56.1136 41.8883 56.2075C41.9541 56.3387 42.0195 56.4795 42.1042 56.6014C42.1603 56.6856 42.2164 56.7606 42.2731 56.8356C42.3292 56.9198 42.3853 57.0045 42.4511 57.0795H14.4674L14.4662 57.0889ZM45.5247 57.0797C44.5777 57.0797 43.7531 56.5827 43.2745 55.8423C43.0122 55.43 42.8525 54.9423 42.8525 54.4172V32.7428H47.4182C47.8494 32.7428 48.1963 33.0897 48.1963 33.5209V34.8613V34.8802V34.8991V54.4179C48.1871 55.8804 46.9962 57.0804 45.5247 57.0804V57.0797ZM50.5399 34.1764H49.5934V33.5202C49.5934 32.3201 48.6183 31.3358 47.409 31.3358H42.8433V30.9515C42.8433 29.7514 41.859 28.7671 40.6589 28.7671H23.4096C22.8564 28.7671 22.3503 28.4952 22.0595 28.0451L20.8221 26.1796C20.2598 25.3264 19.322 24.8202 18.2907 24.8202H12.5626C11.3625 24.8202 10.3874 25.8045 10.3874 27.0046V33.1828V33.2016V33.2205V34.1206C5.29658 33.6333 1.39677 29.4146 1.39677 24.2018C1.39677 18.7079 5.86867 14.2366 11.3718 14.2366C12.0841 14.2366 12.75 14.3024 13.425 14.4428C13.6408 14.4897 13.8562 14.4336 14.025 14.2928C14.1939 14.152 14.2781 13.9458 14.2781 13.7305L14.2689 13.4396C14.2598 13.2707 14.2501 13.1115 14.2501 12.9426C14.2501 7.13034 18.9842 2.40536 24.797 2.40536C30.2159 2.40536 34.8373 6.62416 35.3062 12.0144C35.3251 12.2113 35.4281 12.3986 35.5873 12.5206C35.7466 12.6425 35.9624 12.6895 36.1497 12.6425C36.6655 12.5302 37.1998 12.4736 37.7248 12.4736C41.4844 12.4736 44.6434 15.1453 45.2434 18.8206C45.2806 19.0548 45.4306 19.2518 45.6465 19.3457C45.8623 19.4395 46.1057 19.4299 46.3118 19.2987C47.5588 18.5206 49.0213 18.0986 50.5307 18.0986C54.9744 18.0986 58.5835 21.6985 58.5835 26.133C58.5936 30.5671 54.9841 34.1762 50.5403 34.1762L50.5399 34.1764Z" fill="#2F4050"/>
    <path d="M9.63815 15.8026C5.6821 16.6277 2.81299 20.1525 2.81299 24.1932C2.81299 27.2588 4.47239 30.1085 7.1537 31.6367C7.26596 31.7026 7.38791 31.7306 7.50066 31.7306C7.74456 31.7306 7.97878 31.5995 8.10992 31.3745C8.30686 31.0372 8.18493 30.6055 7.84764 30.4182C5.6071 29.1431 4.21975 26.7526 4.21975 24.1932C4.21975 20.8184 6.61947 17.8747 9.92898 17.19C10.3132 17.115 10.5571 16.7399 10.4729 16.3557C10.3882 15.9715 10.0132 15.7276 9.63814 15.8026L9.63815 15.8026Z" fill="#2F4050"/>
    <path d="M24.7974 3.81204C20.7847 3.81204 17.1758 6.50264 16.0317 10.3555C15.9194 10.7305 16.1348 11.1148 16.5098 11.2275C16.8849 11.3398 17.2691 11.1244 17.3818 10.7494C18.3473 7.48685 21.3945 5.20903 24.7973 5.20903C28.1818 5.20903 31.2377 7.48734 32.2128 10.7494C32.3066 11.0586 32.5878 11.2464 32.8878 11.2464C32.9536 11.2464 33.019 11.2372 33.094 11.2183C33.469 11.1061 33.6752 10.7121 33.5629 10.3463C32.4097 6.50261 28.8099 3.81201 24.7972 3.81201L24.7974 3.81204Z" fill="#2F4050"/>
    <path d="M51.2538 19.5427C50.8696 19.5055 50.5226 19.7866 50.4849 20.1709C50.4476 20.5551 50.7191 20.9021 51.113 20.9398C53.7754 21.221 55.791 23.4523 55.791 26.124C55.791 27.9992 54.769 29.7427 53.1285 30.6709C52.7912 30.8581 52.6693 31.2898 52.8663 31.6271C52.9974 31.8521 53.2321 31.9832 53.4755 31.9832C53.5975 31.9832 53.7097 31.9552 53.8225 31.8894C55.9038 30.7081 57.1973 28.4956 57.1973 26.1144C57.1881 22.7304 54.6287 19.8989 51.2538 19.5428L51.2538 19.5427Z" fill="#2F4050"/>
    <path d="M33.4409 40.3178L30.9193 39.9336H30.8443C30.7973 39.9336 30.7504 39.9336 30.7131 39.9428C30.6662 39.952 30.6289 39.9617 30.582 39.98C30.535 39.9989 30.4978 40.0173 30.46 40.0362C30.4411 40.0551 30.4223 40.0551 30.4034 40.0739L30.3473 40.1301C30.3284 40.1489 30.3003 40.1581 30.2911 40.177C30.2819 40.1959 30.2723 40.2143 30.2631 40.2239C30.235 40.2612 30.2161 40.2989 30.1973 40.3459C30.1784 40.3832 30.16 40.4301 30.1503 40.4678C30.1503 40.4867 30.1314 40.5051 30.1314 40.524L29.7472 43.0554C29.6911 43.4396 29.9534 43.7958 30.3376 43.8524C30.3748 43.8616 30.4126 43.8616 30.4407 43.8616C30.778 43.8616 31.078 43.6085 31.1346 43.2615L31.2938 42.2022C31.9592 43.1492 32.325 44.2836 32.325 45.474C32.325 48.6238 29.7656 51.1929 26.6158 51.1929C26.1377 51.1929 25.6688 51.1367 25.2284 51.0148C24.8534 50.9209 24.4692 51.1459 24.3753 51.5209C24.2814 51.896 24.5064 52.2802 24.8815 52.3741C25.4438 52.5241 26.0254 52.5899 26.625 52.5899C30.5529 52.5899 33.7405 49.3931 33.7405 45.4652C33.7405 44.0682 33.3282 42.7369 32.5874 41.5934L33.2344 41.6873C33.6186 41.7434 33.9748 41.4811 34.0314 41.0969C34.088 40.7393 33.8252 40.3739 33.441 40.3178L33.4409 40.3178Z" fill="#CF5555"/>
    <path d="M22.9132 47.1151C22.529 47.059 22.1728 47.3213 22.1162 47.7055L21.957 48.7648C21.2916 47.8085 20.9166 46.6743 20.9166 45.4834C20.9166 42.3335 23.476 39.7741 26.6258 39.7741C27.1039 39.7741 27.554 39.8303 28.0321 39.943C28.4164 40.0369 28.7914 39.8022 28.8761 39.4272C28.9699 39.0521 28.7352 38.6679 28.3602 38.5832C27.779 38.4424 27.2162 38.3771 26.6259 38.3771C22.6979 38.3771 19.5103 41.5646 19.5103 45.4926C19.5103 46.88 19.9226 48.2209 20.6635 49.3644L20.0165 49.2706C19.6323 49.2047 19.2761 49.4767 19.2195 49.8609C19.1633 50.2452 19.4256 50.6013 19.8098 50.6579L22.3315 51.033H22.3876C22.4065 51.033 22.4249 51.0422 22.4345 51.0422C22.4815 51.0422 22.5284 51.0233 22.5846 51.0141C22.6218 51.0049 22.6596 51.0049 22.6968 50.9952C22.7341 50.9763 22.7718 50.958 22.7999 50.9294C22.8468 50.9013 22.8841 50.8733 22.9218 50.8355C22.931 50.8263 22.9499 50.8167 22.9591 50.8075C22.978 50.7886 22.978 50.7605 22.9964 50.7416C23.0244 50.7044 23.0433 50.6666 23.0622 50.6197C23.081 50.5824 23.0902 50.5447 23.0994 50.5074C23.1086 50.4886 23.1183 50.4702 23.1183 50.4416L23.5025 47.9102C23.5601 47.5279 23.2974 47.1713 22.9131 47.1151L22.9132 47.1151Z" fill="#CF5555"/>
</svg>
