<svg width="60" height="60" viewBox="0 0 60 60" fill="none" xmlns="http://www.w3.org/2000/svg">
    <path d="M25.6374 32.8204C25.6374 32.4424 25.3407 32.1306 24.9576 32.1119C17.5737 31.7339 13.4458 26.1031 13.4074 26.0465C13.2734 25.8578 13.0529 25.7443 12.8232 25.7443C12.5935 25.7443 12.3731 25.8578 12.239 26.0465C12.2007 26.1031 8.09236 31.7339 0.67987 32.1119C0.296728 32.1306 0 32.4424 0 32.8204V47.7942C0 48.9846 0.363751 50.1277 1.05332 51.1006C2.91129 53.7268 6.89531 57.4304 12.5357 59.9339C12.6314 59.9717 12.7271 60 12.8325 60C12.9378 60 13.0335 59.9813 13.1292 59.9339C18.7604 57.4304 22.7541 53.7268 24.6026 51.1006C25.2921 50.1276 25.6559 48.9842 25.6559 47.7942L25.6563 32.8204H25.6374ZM24.2009 47.7853C24.2009 48.6921 23.9232 49.552 23.406 50.2888C21.6917 52.7167 18.0238 56.118 12.8137 58.5079C7.60397 56.1179 3.9361 52.717 2.22135 50.2888C1.70418 49.552 1.4264 48.6921 1.4264 47.7853L1.42684 33.4818C7.54662 32.9242 11.4155 29.2019 12.8235 27.5962C14.2216 29.2025 18.091 32.9246 24.2111 33.4818L24.2106 47.7853H24.2009Z" fill="#CF5555"/>
    <path d="M20.3608 4.72345H48.8902C49.283 4.72345 49.6084 4.40203 49.6084 4.01492C49.6084 3.62738 49.2826 3.3064 48.8902 3.3064H20.3608C19.968 3.3064 19.6426 3.62782 19.6426 4.01492C19.6426 4.41159 19.9587 4.72345 20.3608 4.72345Z" fill="#2F4050"/>
    <path d="M39.3142 6.53711H20.3608C19.968 6.53711 19.6426 6.85853 19.6426 7.24564C19.6426 7.63318 19.9684 7.95416 20.3608 7.95416H39.313C39.7059 7.95416 40.0313 7.63274 40.0313 7.24564C40.0317 6.84897 39.7059 6.53711 39.3135 6.53711H39.3142Z" fill="#2F4050"/>
    <path d="M39.3142 9.75879H20.3608C19.968 9.75879 19.6426 10.0802 19.6426 10.4673C19.6426 10.8549 19.9684 11.1758 20.3608 11.1758H39.313C39.7059 11.1758 40.0313 10.8544 40.0313 10.4673C40.0317 10.0802 39.7059 9.75879 39.3135 9.75879H39.3142Z" fill="#2F4050"/>
    <path d="M8.60052 38.4322V40.5391H7.78661C6.99166 40.5391 6.3501 41.1719 6.3501 41.9562V50.0527C6.3501 50.8369 6.99161 51.4698 7.78661 51.4698H17.8423C18.6373 51.4698 19.2788 50.837 19.2788 50.0527V41.9562C19.2788 41.172 18.6373 40.5391 17.8423 40.5391H17.0284V38.4322C17.0284 36.1366 15.1321 34.2659 12.805 34.2659C10.4775 34.2659 8.60054 36.1366 8.60054 38.4322H8.60052ZM17.8423 50.0434H7.7866V41.9468H17.8423V50.0434ZM15.6013 38.4322V40.5391H10.037V38.4322C10.037 36.9208 11.2821 35.683 12.8239 35.683C14.3658 35.683 15.6011 36.9208 15.6011 38.4322H15.6013Z" fill="#CF5555"/>
    <path d="M12.8144 44.3469C12.4216 44.3469 12.0962 44.6683 12.0962 45.0554V46.9449C12.0962 47.3324 12.422 47.6534 12.8144 47.6534C13.2073 47.6534 13.5327 47.332 13.5327 46.9449V45.0554C13.5327 44.6679 13.2165 44.3469 12.8144 44.3469Z" fill="#CF5555"/>
    <path d="M60.0001 11.2238C60.0001 9.22087 58.3432 7.58632 56.3128 7.58632H55.4125V2.6645C55.4125 1.20008 54.2058 0.000434945 52.7119 0.000434945L16.5299 0C15.0454 0 13.8293 1.1904 13.8293 2.66406V13.2454H12.929C10.8987 13.2454 9.2417 14.8799 9.2417 16.8828V25.4329C9.2417 25.8205 9.56752 26.1415 9.95993 26.1415C10.3528 26.1415 10.6782 25.8201 10.6782 25.4329V22.3057H58.5627V50.4784C58.5627 51.7067 57.5478 52.7079 56.3027 52.7079H25.5125C25.1197 52.7079 24.7943 53.0293 24.7943 53.4164C24.7943 53.804 25.1201 54.1249 25.5125 54.1249H56.3027C58.3427 54.1249 59.9992 52.4904 59.9992 50.4784L60.0001 11.2238ZM15.2658 2.6645C15.2658 1.97467 15.831 1.41753 16.5298 1.41753H52.7209C53.4202 1.41753 53.985 1.97513 53.985 2.6645V7.58676H48.4688C47.6642 7.58676 46.9076 7.93645 46.3904 8.55059L42.828 12.7926C42.5886 13.0762 42.2341 13.2463 41.8606 13.2463L15.2659 13.2454L15.2658 2.6645ZM58.5633 20.8885H10.6877V16.8922C10.6877 15.6639 11.6934 14.6721 12.9381 14.6721H41.8513C42.6559 14.6721 43.4125 14.3224 43.9297 13.7083L47.4921 9.46626C47.7316 9.18267 48.086 9.01261 48.4595 9.01261H56.3124C57.5575 9.01261 58.5628 10.0047 58.5628 11.2326L58.5633 20.8885Z" fill="#2F4050"/>
</svg>
