<svg width="60" height="60" viewBox="0 0 60 60" fill="none" xmlns="http://www.w3.org/2000/svg">
    <path d="M13.9494 27.8588L22.2304 34.1048L19.252 44.0169H19.251C19.0671 44.6252 19.2884 45.2834 19.8016 45.6567C20.3158 46.0299 21.0098 46.0362 21.5303 45.6723L30.02 39.7103L38.5097 45.6723H38.5087C39.0292 46.0362 39.7231 46.03 40.2363 45.6567C40.7506 45.2834 40.9719 44.6252 40.7869 44.0169L37.8085 34.1048L46.0895 27.8588C46.5986 27.4772 46.8084 26.8148 46.6141 26.2087C46.4188 25.6035 45.861 25.1886 45.2252 25.1762L34.8001 24.9973L31.3749 15.1589C31.1671 14.5589 30.602 14.1555 29.9672 14.1555C29.3325 14.1555 28.7673 14.5589 28.5595 15.1589L25.179 24.9973L14.7539 25.1762C14.1181 25.1886 13.5602 25.6035 13.366 26.2087C13.1707 26.8148 13.3816 27.4772 13.8896 27.8588H13.9494ZM26.2809 27.9628V27.9638C26.9063 27.9544 27.46 27.5552 27.6657 26.9646L29.9595 20.257L32.2679 26.9646C32.4746 27.5552 33.0273 27.9545 33.6527 27.9638L40.7276 28.0834L35.0679 32.3466V32.3455C34.5713 32.7251 34.3635 33.3728 34.5463 33.9707L36.6168 40.7531L30.8231 36.6834C30.3099 36.3226 29.6242 36.3226 29.111 36.6834L23.3172 40.7531L25.3877 33.9707C25.5716 33.3728 25.3628 32.7251 24.8662 32.3455L19.2065 28.0823L26.2809 27.9628Z" fill="#CF5555"/>
    <path d="M29.9597 54.4825C36.4298 54.4825 42.635 51.91 47.2102 47.332C51.7843 42.7528 54.3544 36.5422 54.3544 30.0665C54.3544 23.5908 51.7842 17.3802 47.2102 12.801C42.635 8.22291 36.4298 5.65051 29.9597 5.65051C23.4896 5.65051 17.2844 8.22294 12.7092 12.801C8.13511 17.3802 5.56494 23.5908 5.56494 30.0665C5.57221 36.5401 8.14551 42.7456 12.7185 47.3227C17.2916 51.8997 23.4917 54.4753 29.9597 54.4825ZM29.9597 8.61633C35.6391 8.61633 41.085 10.8747 45.1014 14.8935C49.1178 18.9123 51.3752 24.3627 51.3763 30.0473C51.3774 35.7319 49.123 41.1834 45.1089 45.2041C41.0946 49.2248 35.6489 51.4844 29.9703 51.4874C24.2909 51.4894 18.8429 49.2352 14.8246 45.2174C10.8074 41.2007 8.5476 35.7514 8.54361 30.0668C8.55088 24.3843 10.8104 18.9371 14.8246 14.9182C18.84 10.9005 24.2824 8.63896 29.96 8.63177L29.9597 8.61633Z" fill="#2F4050"/>
    <path d="M54.8315 44.1812C54.1407 43.7383 53.2213 43.9379 52.7766 44.6283C47.7257 52.5358 38.945 57.2638 29.5691 57.1225C20.1932 56.9811 11.558 51.9923 6.74719 43.936C1.93638 35.8797 1.63586 25.9063 5.95141 17.5734C6.16854 17.2209 6.2288 16.7946 6.11867 16.3953C6.00855 15.9961 5.7374 15.6612 5.36964 15.4699C5.00292 15.2796 4.57282 15.2495 4.18326 15.3888C3.79369 15.5271 3.47994 15.8224 3.3158 16.203C-1.42454 25.4435 -1.06204 36.4798 4.27366 45.39C9.61026 54.3 19.1627 59.8222 29.5413 59.9947C39.9187 60.1673 49.6496 54.9662 55.2783 46.2394C55.7219 45.5469 55.5214 44.6267 54.8315 44.1817L54.8315 44.1812Z" fill="#2F4050"/>
    <path d="M57.943 35.9083C57.1503 35.6993 56.3379 36.1724 56.126 36.9668C55.7624 38.3435 55.2887 39.6891 54.711 40.9907C54.3786 41.7445 54.7183 42.6252 55.4715 42.959C56.2236 43.2917 57.1036 42.9517 57.437 42.1989C58.0749 40.7515 58.5985 39.2562 59.0005 37.7268C59.2094 36.9324 58.7356 36.1192 57.943 35.9082V35.9083Z" fill="#2F4050"/>
    <path d="M29.9596 0C21.5778 0.0114376 13.5806 3.51762 7.88763 9.67418C7.32871 10.2793 7.36509 11.2245 7.9697 11.7839C8.57432 12.3433 9.51763 12.3069 10.0766 11.7018C15.0299 6.33337 21.9394 3.19532 29.2376 2.99994C36.5356 2.80551 43.6033 5.57027 48.8351 10.6663C54.0669 15.7632 57.0185 22.759 57.0214 30.0666C57.0214 30.9015 57.0214 31.7209 56.9175 32.5413H56.9165C56.8386 33.3596 57.439 34.0874 58.2566 34.1654H58.3907C59.1636 34.1685 59.8108 33.58 59.8804 32.8095C59.9552 31.9007 59.9999 30.9764 59.9999 30.0665C59.9916 22.0946 56.8241 14.4522 51.1923 8.81545C45.5605 3.17874 37.9248 0.00849133 29.9598 0.000239637L29.9596 0Z" fill="#2F4050"/>
</svg>
