<svg width="60" height="60" viewBox="0 0 60 60" fill="none" xmlns="http://www.w3.org/2000/svg">
    <path d="M58.9969 21.3961L54.6384 16.9491C53.2487 15.5313 50.9748 15.5313 49.6485 16.9491L19.5184 47.6908C19.0761 48.1421 18.7606 48.722 18.6342 49.3019L16.9286 55.7467C16.6126 56.9066 16.9286 58.1312 17.8129 59.0335C18.4447 59.6781 19.2656 60 20.1499 60C20.4658 60 20.7183 59.9357 21.0342 59.871L27.3507 58.1308C27.9191 57.9375 28.4875 57.6151 28.9299 57.2285L59.0599 26.4869C60.3236 25.1342 60.3236 22.8141 58.9969 21.3962L58.9969 21.3961ZM45.4795 25.8432L50.2799 30.7411L30.4459 50.9777L25.6454 46.0798L45.4795 25.8432ZM26.5929 54.9091C26.5299 54.9734 26.5299 54.9734 26.4664 54.9734L20.0234 56.649L21.7921 50.0113L23.3712 48.4001L28.1717 53.298L26.5929 54.9091ZM56.6598 24.1675L52.5542 28.3564L47.7538 23.4585L51.8593 19.2696C51.9223 19.2053 51.9858 19.2053 52.0488 19.2053C52.1118 19.2053 52.2382 19.2053 52.2382 19.2696L56.5968 23.7166C56.7862 23.8452 56.7862 24.0389 56.6598 24.1675Z" fill="#CF5555"/>
    <path d="M20.3395 41.2461C20.592 40.3438 20.0236 39.4416 19.2028 39.2483C17.7501 38.8617 16.4234 38.2818 15.1602 37.5081C14.5918 37.1858 13.8335 37.1858 13.3286 37.6371L10.6127 39.7639L7.58085 36.6705L9.66531 33.8995C10.1077 33.3839 10.1077 32.6107 9.79177 32.0308C8.97048 30.6771 8.40212 29.1949 8.02313 27.6485C7.83367 27.0039 7.32829 26.4887 6.63349 26.4239L3.22276 25.9726V21.5903L6.63349 21.139C7.32833 21.0747 7.83375 20.559 8.02313 19.9144C8.40206 18.3675 8.97044 16.8853 9.79177 15.5321C10.1077 14.9522 10.1077 14.1785 9.66531 13.6634L7.58085 10.8923L10.6127 7.79896L13.3286 9.92574C13.834 10.3124 14.5918 10.3771 15.1602 10.0548C16.4869 9.2168 17.9396 8.63691 19.4552 8.25022C20.0871 8.05691 20.592 7.54127 20.6555 6.83237L21.0978 3.35242H25.3929L25.8353 6.83237C25.8983 7.54132 26.4037 8.05699 27.0355 8.25022C28.5516 8.63684 30.0043 9.21675 31.3306 10.0548C31.899 10.4414 32.5938 10.3771 33.1622 9.92574L35.8781 7.79896L38.9099 10.8923L36.8254 13.6634C36.3831 14.179 36.3831 14.9522 36.699 15.5321C37.4568 16.7568 38.0257 18.1746 38.4046 19.6568C38.657 20.559 39.5413 21.0746 40.3626 20.8166C41.2469 20.559 41.7522 19.6568 41.4993 18.8189C41.1204 17.401 40.615 16.112 39.9832 14.8232L41.7519 12.4387C42.5732 11.4075 42.5097 9.92528 41.5624 8.95879L37.6463 4.96314C36.699 3.99661 35.2459 3.93187 34.2985 4.76983L31.9615 6.63859C30.9507 6.12295 29.9399 5.67205 28.8032 5.28495L28.4242 2.2559C28.2348 0.967063 27.161 0 25.8978 0H20.4025C19.1393 0 18.0655 0.966533 17.8761 2.2559L17.4972 5.28495C16.4235 5.60728 15.3497 6.05819 14.3389 6.63859L12.0019 4.83405C10.9912 3.99609 9.53844 4.06081 8.59118 5.02736L4.67502 9.02301C3.79072 9.92526 3.66427 11.4075 4.48556 12.4387L6.31714 14.8232C5.81175 15.8545 5.36983 16.8858 4.99043 18.0456L2.21103 18.367C0.947825 18.5603 0 19.6559 0 20.9447V26.5516C0 27.8404 0.947306 28.936 2.21103 29.1292L5.11688 29.5159C5.43279 30.6114 5.87473 31.707 6.44358 32.7383L4.612 35.1227C3.85415 36.154 3.91716 37.6362 4.80146 38.5384L8.71763 42.5341C9.22301 43.0497 9.85438 43.3073 10.5492 43.3073C11.1176 43.3073 11.623 43.114 12.1283 42.7274L14.4654 40.8586C15.6656 41.5033 16.9918 42.0185 18.3815 42.4055C19.2024 42.664 20.0867 42.0836 20.3396 41.2461L20.3395 41.2461Z" fill="#2F4050"/>
    <path d="M32.1516 28.2276C32.9729 28.4852 33.9202 28.0343 34.1731 27.1321C34.489 26.0365 34.6785 24.941 34.6785 23.7163C34.6785 17.2715 29.5622 12.0513 23.2455 12.0513C16.9288 12.0513 11.8125 17.2714 11.8125 23.7163C11.8125 30.1612 16.9288 35.3814 23.2455 35.3814C24.3193 35.3814 25.393 35.1881 26.4668 34.8657C27.2247 34.7367 27.73 34.0278 27.73 33.2546C27.73 32.159 26.6563 31.3858 25.6456 31.7077C24.8243 31.9653 24.0664 32.0943 23.2452 32.0943C18.7602 32.0943 15.097 28.3563 15.097 23.7808C15.097 19.2047 18.7606 15.4672 23.2452 15.4672C27.7302 15.4672 31.4568 19.2052 31.4568 23.7808C31.4568 24.6187 31.3304 25.4563 31.1409 26.2299C30.8254 27.0031 31.3308 27.9696 32.1516 28.2277L32.1516 28.2276Z" fill="#2F4050"/>
</svg>
