<svg width="60" height="60" viewBox="0 0 60 60" fill="none" xmlns="http://www.w3.org/2000/svg">
    <path d="M30.001 2C16.9797 2 6.45829 12.4755 6.35291 25.4889H6.35335C6.35247 25.4973 6.3516 25.5056 6.35116 25.5139V26.9757H4.94678C2.22154 26.9757 0 29.2012 0 31.9282V35.5647C0 38.2917 2.22154 40.5172 4.94678 40.5172L6.35116 40.5177V41.972V41.9716C6.35247 42.5111 6.78864 42.9486 7.32816 42.9508H13.7581C14.2977 42.9486 14.7343 42.5116 14.7351 41.972V25.5146C14.7343 24.975 14.2977 24.538 13.7581 24.5358H8.34364C8.9357 13.0234 18.3546 3.96504 30.0007 3.96504C41.6476 3.96504 51.0659 13.024 51.6578 24.5358H46.2416C45.7021 24.538 45.2655 24.975 45.2646 25.5146V41.972C45.2655 42.5116 45.7021 42.9486 46.2416 42.9508H51.6867V49.9957C51.6867 52.2939 49.8733 54.117 47.5808 54.117H36.0986C35.6651 52.4972 34.1827 51.2929 32.4332 51.2929H27.5671C25.4808 51.2929 23.7659 53.0069 23.7659 55.094C23.7659 57.1812 25.4808 58.8952 27.5671 58.8952H32.4337C34.1801 58.8952 35.6607 57.6944 36.0969 56.0789H47.5813C50.9283 56.0789 53.651 53.3454 53.651 49.9957V40.5173H55.0475C57.7727 40.5173 60 38.2917 60 35.5648V31.9282C60 29.2013 57.7727 26.9757 55.0475 26.9757H53.651V25.5139H53.6505C53.6501 25.5056 53.6492 25.4977 53.6488 25.4894C53.5428 12.4759 43.0217 2.00048 30.0007 2.00048L30.001 2ZM23.006 24.5349C20.7625 24.5349 18.929 26.375 18.929 28.6199V38.1421C18.929 40.3866 20.7625 42.2192 23.006 42.2192H25.9239V44.9856V44.9851C25.9234 45.3298 26.1039 45.649 26.399 45.8268C26.6938 46.0046 27.0603 46.0147 27.3647 45.8531L34.1642 42.2188H37.5612C39.8047 42.2188 41.6366 40.386 41.6366 38.1417V28.6195C41.6366 26.3751 39.8047 24.5345 37.5612 24.5345L23.006 24.5349ZM8.31312 26.4986H12.7734V40.9863H8.31312V26.4986ZM23.006 26.4986H37.5611C38.7496 26.4986 39.6745 27.4265 39.6745 28.6194V38.1417C39.6745 39.3346 38.7501 40.2626 37.5611 40.2626H33.9171C33.7586 40.2617 33.6018 40.2989 33.4608 40.3716L27.8856 43.3491V41.2418C27.8852 40.9812 27.781 40.7316 27.5962 40.5481C27.4118 40.3642 27.1613 40.2617 26.9007 40.2626H23.0059C21.8173 40.2626 20.8907 39.3346 20.8907 38.1417V28.6195C20.8907 27.4265 21.8174 26.4986 23.0059 26.4986L23.006 26.4986ZM47.227 26.4986H51.6873V40.9863H47.227V26.4986ZM4.94651 28.9374H6.35089V38.5537H4.94651C3.27587 38.5537 1.96163 37.2408 1.96163 35.5649V31.9283C1.96163 30.2524 3.27587 28.9377 4.94651 28.9377V28.9374ZM53.6508 28.9374H55.0474C56.718 28.9374 58.038 30.2524 58.038 31.928V35.5646C58.038 37.2405 56.7181 38.5534 55.0474 38.5534L53.6508 38.5538V28.9374ZM25.3143 32.0966C24.6496 32.1316 24.0977 32.7057 24.0977 33.3784C24.0977 34.0725 24.6846 34.6603 25.3774 34.6603C26.0706 34.6603 26.6592 34.0726 26.6592 33.3784C26.6592 32.6843 26.0706 32.0966 25.3774 32.0966C25.3664 32.0966 25.3555 32.0962 25.3449 32.0966C25.3344 32.097 25.3248 32.0962 25.3143 32.0966H25.3143ZM30.2191 32.0966C29.5543 32.1316 29.0025 32.7057 29.0025 33.3784C29.0025 34.0725 29.5893 34.6603 30.2821 34.6603C30.9753 34.6603 31.5639 34.0726 31.5639 33.3784C31.5639 32.6843 30.9754 32.0966 30.2821 32.0966C30.2711 32.0966 30.2602 32.0962 30.2497 32.0966C30.2392 32.097 30.2295 32.0962 30.219 32.0966H30.2191ZM35.1238 32.0966C34.4591 32.1316 33.9072 32.7057 33.9072 33.3784C33.9072 34.0725 34.494 34.6603 35.1868 34.6603C35.8801 34.6603 36.4687 34.0726 36.4687 33.3784C36.4687 32.6843 35.8801 32.0966 35.1868 32.0966C35.1759 32.0966 35.1649 32.0962 35.1544 32.0966C35.1439 32.097 35.1343 32.0962 35.1238 32.0966H35.1238ZM27.5675 53.2548H32.4341C33.4659 53.2548 34.2655 54.0584 34.2655 55.094C34.2655 56.1297 33.4654 56.9333 32.4341 56.9333H27.5675C26.5358 56.9333 25.7283 56.1297 25.7283 55.094C25.7283 54.0584 26.5358 53.2548 27.5675 53.2548Z" fill="#2F4050"/>
    <mask id="mask0_27_2776" style="mask-type:alpha" maskUnits="userSpaceOnUse" x="0" y="2" width="60" height="57">
        <path d="M30.001 2C16.9797 2 6.45829 12.4755 6.35291 25.4889H6.35335C6.35247 25.4973 6.3516 25.5056 6.35116 25.5139V26.9757H4.94678C2.22154 26.9757 0 29.2012 0 31.9282V35.5647C0 38.2917 2.22154 40.5172 4.94678 40.5172L6.35116 40.5177V41.972V41.9716C6.35247 42.5111 6.78864 42.9486 7.32816 42.9508H13.7581C14.2977 42.9486 14.7343 42.5116 14.7351 41.972V25.5146C14.7343 24.975 14.2977 24.538 13.7581 24.5358H8.34364C8.9357 13.0234 18.3546 3.96504 30.0007 3.96504C41.6476 3.96504 51.0659 13.024 51.6578 24.5358H46.2416C45.7021 24.538 45.2655 24.975 45.2646 25.5146V41.972C45.2655 42.5116 45.7021 42.9486 46.2416 42.9508H51.6867V49.9957C51.6867 52.2939 49.8733 54.117 47.5808 54.117H36.0986C35.6651 52.4972 34.1827 51.2929 32.4332 51.2929H27.5671C25.4808 51.2929 23.7659 53.0069 23.7659 55.094C23.7659 57.1812 25.4808 58.8952 27.5671 58.8952H32.4337C34.1801 58.8952 35.6607 57.6944 36.0969 56.0789H47.5813C50.9283 56.0789 53.651 53.3454 53.651 49.9957V40.5173H55.0475C57.7727 40.5173 60 38.2917 60 35.5648V31.9282C60 29.2013 57.7727 26.9757 55.0475 26.9757H53.651V25.5139H53.6505C53.6501 25.5056 53.6492 25.4977 53.6488 25.4894C53.5428 12.4759 43.0217 2.00048 30.0007 2.00048L30.001 2ZM23.006 24.5349C20.7625 24.5349 18.929 26.375 18.929 28.6199V38.1421C18.929 40.3866 20.7625 42.2192 23.006 42.2192H25.9239V44.9856V44.9851C25.9234 45.3298 26.1039 45.649 26.399 45.8268C26.6938 46.0046 27.0603 46.0147 27.3647 45.8531L34.1642 42.2188H37.5612C39.8047 42.2188 41.6366 40.386 41.6366 38.1417V28.6195C41.6366 26.3751 39.8047 24.5345 37.5612 24.5345L23.006 24.5349ZM8.31312 26.4986H12.7734V40.9863H8.31312V26.4986ZM23.006 26.4986H37.5611C38.7496 26.4986 39.6745 27.4265 39.6745 28.6194V38.1417C39.6745 39.3346 38.7501 40.2626 37.5611 40.2626H33.9171C33.7586 40.2617 33.6018 40.2989 33.4608 40.3716L27.8856 43.3491V41.2418C27.8852 40.9812 27.781 40.7316 27.5962 40.5481C27.4118 40.3642 27.1613 40.2617 26.9007 40.2626H23.0059C21.8173 40.2626 20.8907 39.3346 20.8907 38.1417V28.6195C20.8907 27.4265 21.8174 26.4986 23.0059 26.4986L23.006 26.4986ZM47.227 26.4986H51.6873V40.9863H47.227V26.4986ZM4.94651 28.9374H6.35089V38.5537H4.94651C3.27587 38.5537 1.96163 37.2408 1.96163 35.5649V31.9283C1.96163 30.2524 3.27587 28.9377 4.94651 28.9377V28.9374ZM53.6508 28.9374H55.0474C56.718 28.9374 58.038 30.2524 58.038 31.928V35.5646C58.038 37.2405 56.7181 38.5534 55.0474 38.5534L53.6508 38.5538V28.9374ZM25.3143 32.0966C24.6496 32.1316 24.0977 32.7057 24.0977 33.3784C24.0977 34.0725 24.6846 34.6603 25.3774 34.6603C26.0706 34.6603 26.6592 34.0726 26.6592 33.3784C26.6592 32.6843 26.0706 32.0966 25.3774 32.0966C25.3664 32.0966 25.3555 32.0962 25.3449 32.0966C25.3344 32.097 25.3248 32.0962 25.3143 32.0966H25.3143ZM30.2191 32.0966C29.5543 32.1316 29.0025 32.7057 29.0025 33.3784C29.0025 34.0725 29.5893 34.6603 30.2821 34.6603C30.9753 34.6603 31.5639 34.0726 31.5639 33.3784C31.5639 32.6843 30.9754 32.0966 30.2821 32.0966C30.2711 32.0966 30.2602 32.0962 30.2497 32.0966C30.2392 32.097 30.2295 32.0962 30.219 32.0966H30.2191ZM35.1238 32.0966C34.4591 32.1316 33.9072 32.7057 33.9072 33.3784C33.9072 34.0725 34.494 34.6603 35.1868 34.6603C35.8801 34.6603 36.4687 34.0726 36.4687 33.3784C36.4687 32.6843 35.8801 32.0966 35.1868 32.0966C35.1759 32.0966 35.1649 32.0962 35.1544 32.0966C35.1439 32.097 35.1343 32.0962 35.1238 32.0966H35.1238ZM27.5675 53.2548H32.4341C33.4659 53.2548 34.2655 54.0584 34.2655 55.094C34.2655 56.1297 33.4654 56.9333 32.4341 56.9333H27.5675C26.5358 56.9333 25.7283 56.1297 25.7283 55.094C25.7283 54.0584 26.5358 53.2548 27.5675 53.2548Z" fill="#2F4050"/>
    </mask>
    <g mask="url(#mask0_27_2776)">
        <rect x="17" y="22" width="26" height="26" fill="#CF5555"/>
    </g>
</svg>
