<svg width="48" height="48" viewBox="0 0 48 48" fill="none" xmlns="http://www.w3.org/2000/svg">
    <rect width="48" height="48" rx="4" fill="white"/>
    <path d="M24.1082 6.35303C14.3249 6.35303 6.35254 14.2581 6.35254 23.9588C6.35254 33.6595 14.3249 41.5646 24.1082 41.5646C33.8915 41.5646 41.8638 33.6595 41.8638 23.9588C41.8638 14.2581 33.9123 6.35303 24.1082 6.35303ZM24.1082 7.55013C33.2254 7.55013 40.6565 14.9186 40.6565 23.9588C40.6565 32.999 33.2254 40.3675 24.1082 40.3675C14.991 40.3675 7.55984 32.999 7.55984 23.9588C7.55984 14.9186 14.991 7.55013 24.1082 7.55013Z" fill="#2F4050"/>
    <path d="M18.592 30.0475C18.925 30.0475 19.1957 29.7792 19.1957 29.4489V18.5098C19.1957 18.1796 18.925 17.8906 18.592 17.8906C18.259 17.8906 17.9884 18.1589 17.9884 18.5098V29.4489C17.9884 29.7792 18.259 30.0475 18.592 30.0475Z" fill="#2F4050"/>
    <path d="M29.2083 29.8618C29.2499 29.903 29.3123 29.9443 29.3748 29.9856C29.3748 29.9856 29.3956 29.9856 29.3956 30.0062C29.4164 30.0062 29.4373 30.0269 29.4581 30.0269C29.4788 30.0269 29.4997 30.0475 29.5205 30.0475C29.5621 30.0475 29.6038 30.0681 29.6454 30.0681C29.687 30.0681 29.7286 30.0681 29.7703 30.0475C29.8952 30.0269 29.9992 29.9649 30.0825 29.8824C30.1242 29.8411 30.1658 29.7792 30.2074 29.7173L30.2283 29.6966C30.2283 29.676 30.249 29.6553 30.249 29.6553C30.249 29.6347 30.2699 29.6141 30.2699 29.5935C30.2699 29.5521 30.2907 29.5315 30.2907 29.4902V18.5511C30.2907 18.2209 30.0201 17.9319 29.687 17.9319C29.354 17.9319 29.0834 18.2002 29.0834 18.5511V28.0248L21.7979 20.8008C21.569 20.5738 21.1526 20.5738 20.9237 20.8008C20.7988 20.9247 20.7363 21.0691 20.7363 21.2343C20.7363 21.3994 20.7988 21.5439 20.9237 21.6677L29.2083 29.8618Z" fill="#2F4050"/>
</svg>
