<svg width="48" height="48" viewBox="0 0 48 48" fill="none" xmlns="http://www.w3.org/2000/svg">
    <rect width="48" height="48" rx="4" fill="#CF5555"/>
    <path d="M21.6462 5.94629C12.232 5.94629 4.56055 13.553 4.56055 22.8877C4.56055 32.2223 12.232 39.8291 21.6462 39.8291C31.0603 39.8291 38.7318 32.2223 38.7318 22.8877C38.7318 13.553 31.0803 5.94629 21.6462 5.94629ZM21.6462 7.09822C30.4193 7.09822 37.5701 14.1886 37.5701 22.8877C37.5701 31.5868 30.4193 38.6772 21.6462 38.6772C12.873 38.6772 5.72229 31.5868 5.72229 22.8877C5.72229 14.1886 12.873 7.09822 21.6462 7.09822Z" fill="#DCEAF0"/>
    <path d="M41.0957 40.8223C40.3345 40.8223 39.7336 41.4379 39.7336 42.1728C39.7336 42.9275 40.3545 43.5233 41.0957 43.5233C41.8368 43.5233 42.4577 42.9076 42.4577 42.1728C42.4577 41.4379 41.8568 40.8223 41.0957 40.8223Z" fill="#DCEAF0"/>
    <path d="M16.3385 28.7469C16.6589 28.7469 16.9194 28.4888 16.9194 28.1709V17.6446C16.9194 17.3269 16.6589 17.0488 16.3385 17.0488C16.018 17.0488 15.7576 17.307 15.7576 17.6446V28.1709C15.7576 28.4888 16.018 28.7469 16.3385 28.7469Z" fill="#DCEAF0"/>
    <path d="M26.5536 28.5681C26.5937 28.6078 26.6537 28.6475 26.7138 28.6872C26.7138 28.6872 26.7339 28.6872 26.7339 28.7071C26.7539 28.7071 26.774 28.7269 26.794 28.7269C26.814 28.7269 26.834 28.7468 26.854 28.7468C26.8941 28.7468 26.9342 28.7666 26.9743 28.7666C27.0143 28.7666 27.0543 28.7666 27.0944 28.7468C27.2146 28.7269 27.3147 28.6673 27.3949 28.5879C27.435 28.5482 27.475 28.4886 27.515 28.4291L27.5351 28.4091C27.5351 28.3893 27.5551 28.3694 27.5551 28.3694C27.5551 28.3496 27.5752 28.3297 27.5752 28.3099C27.5752 28.2701 27.5952 28.2503 27.5952 28.2106V17.6842C27.5952 17.3665 27.3348 17.0884 27.0143 17.0884C26.6938 17.0884 26.4334 17.3466 26.4334 17.6842V26.8005L19.4229 19.8491C19.2026 19.6306 18.802 19.6306 18.5817 19.8491C18.4614 19.9682 18.4014 20.1072 18.4014 20.2662C18.4014 20.4251 18.4614 20.5641 18.5817 20.6832L26.5536 28.5681Z" fill="#DCEAF0"/>
</svg>
