<svg width="48" height="48" viewBox="0 0 48 48" fill="none" xmlns="http://www.w3.org/2000/svg">
    <rect width="48" height="48" rx="4" fill="#CF8C55"/>
    <path d="M37.0627 20.875V33.4375" stroke="white" stroke-width="0.928074" stroke-miterlimit="10"/>
    <path d="M28.4376 38.0625V36.0625L23.2501 22.0625L20.5626 22.125L14.7501 35.5625V38.0625" stroke="white" stroke-width="0.928074" stroke-miterlimit="10"/>
    <path d="M28.25 35.5L18.6875 25.9375" stroke="white" stroke-width="0.928074" stroke-miterlimit="10"/>
    <path d="M14.8125 35.6875L24.625 25.875" stroke="white" stroke-width="0.928074" stroke-miterlimit="10"/>
    <path d="M11.1252 22.125V31.3125" stroke="white" stroke-width="0.928074" stroke-miterlimit="10"/>
    <path d="M12.625 32.8125H9.6875V38.0624H12.625V32.8125Z" stroke="white" stroke-width="0.928074" stroke-miterlimit="10"/>
    <path d="M31.5002 14.0625L10.8127 22.6876" stroke="white" stroke-width="0.928074" stroke-miterlimit="10"/>
    <path d="M31.9375 16.375L24.1251 19.6875" stroke="white" stroke-width="0.928074" stroke-miterlimit="10"/>
    <path d="M11.1252 25.0624L19.1251 21.8125" stroke="white" stroke-width="0.928074" stroke-miterlimit="10"/>
    <path d="M39.6876 38.0625H8.31268" stroke="white" stroke-width="0.928074" stroke-miterlimit="10"/>
    <path d="M32.9376 16.375L36.6876 19.8125L37.4375 19.4999L37.5 14.4375L36 11L33.6876 9.9375L32.3125 10.5625L31.5 13L32.9376 16.375Z" stroke="white" stroke-width="0.928074" stroke-miterlimit="10"/>
    <path d="M28.1874 35.75H14.8125" stroke="white" stroke-width="0.928074" stroke-miterlimit="10"/>
    <path d="M21.0625 25.0625H22.1874" stroke="white" stroke-width="0.928074" stroke-miterlimit="10"/>
    <path d="M38.6253 38.0625H35.7502L36.3753 34.75H38.0002L38.6253 38.0625Z" stroke="white" stroke-width="0.928074" stroke-miterlimit="10"/>
    <path d="M22.6875 22.1251V20.375H21.0625V22.1251" stroke="white" stroke-width="0.928074" stroke-miterlimit="10"/>
</svg>
