<svg width="48" height="48" viewBox="0 0 48 48" fill="none" xmlns="http://www.w3.org/2000/svg">
    <path d="M47.9885 14.7079C47.9885 14.7027 47.9891 14.6975 47.9891 14.6923C47.9891 8.38173 42.8734 3.26611 36.5628 3.26611C30.2522 3.26611 25.1367 8.38164 25.1367 14.6923C25.1367 21.003 30.2528 26.1186 36.5629 26.1186C37.8599 26.1186 39.1013 25.8925 40.263 25.4941C37.6923 40.2415 26.1921 49.7521 36.8526 41.9247C48.6737 33.245 48.0017 15.041 47.9885 14.7079Z" fill="#DBE8EE"/>
    <path d="M11.4262 26.1185C12.7232 26.1185 13.9646 25.8924 15.1268 25.494C12.5554 40.2414 1.05525 49.752 11.7159 41.9246C23.537 33.245 22.8651 15.041 22.8518 14.7079C22.8518 14.7027 22.8524 14.6975 22.8524 14.6923C22.8524 8.38173 17.7368 3.26611 11.4262 3.26611C5.11553 3.26611 0 8.38164 0 14.6923C0 21.003 5.11609 26.1185 11.4262 26.1185Z" fill="#DBE8EE"/>
</svg>
