<svg width="48" height="48" viewBox="0 0 48 48" fill="none" xmlns="http://www.w3.org/2000/svg">
    <path d="M24.0008 1.59998C13.5837 1.59998 5.16664 9.98038 5.08233 20.3911H5.08268C5.08198 20.3978 5.08128 20.4044 5.08093 20.4111V21.5805H3.95742C1.77723 21.5805 0 23.361 0 25.5425V28.4518C0 30.6333 1.77723 32.4138 3.95742 32.4138L5.08093 32.4141V33.5776V33.5773C5.08198 34.0089 5.43091 34.3589 5.86253 34.3606H11.0065C11.4381 34.3589 11.7874 34.0092 11.7881 33.5776V20.4116C11.7874 19.98 11.4381 19.6304 11.0065 19.6286H6.67491C7.14856 10.4187 14.6837 3.17201 24.0006 3.17201C33.3181 3.17201 40.8527 10.4191 41.3262 19.6286H36.9933C36.5617 19.6304 36.2124 19.98 36.2117 20.4116V33.5776C36.2124 34.0092 36.5617 34.3589 36.9933 34.3606H41.3494V39.9965C41.3494 41.8351 39.8986 43.2936 38.0646 43.2936H28.8789C28.5321 41.9977 27.3462 41.0343 25.9466 41.0343H22.0537C20.3847 41.0343 19.0127 42.4055 19.0127 44.0752C19.0127 45.7449 20.3847 47.1161 22.0537 47.1161H25.947C27.3441 47.1161 28.5286 46.1555 28.8776 44.8631H38.0651C40.7426 44.8631 42.9208 42.6763 42.9208 39.9965V32.4138H44.038C46.2182 32.4138 48 30.6333 48 28.4518V25.5425C48 23.361 46.2182 21.5805 44.038 21.5805H42.9208V20.4111H42.9204C42.9201 20.4045 42.9194 20.3982 42.919 20.3915C42.8342 9.98068 34.4174 1.60036 24.0005 1.60036L24.0008 1.59998ZM18.4048 19.6279C16.61 19.6279 15.1432 21.1 15.1432 22.8959V30.5137C15.1432 32.3092 16.61 33.7753 18.4048 33.7753H20.7391V35.9884V35.9881C20.7388 36.2638 20.8831 36.5192 21.1192 36.6614C21.355 36.8037 21.6482 36.8117 21.8917 36.6825L27.3314 33.775H30.049C31.8438 33.775 33.3093 32.3088 33.3093 30.5134V22.8956C33.3093 21.1 31.8438 19.6276 30.049 19.6276L18.4048 19.6279ZM6.6505 21.1988H10.2187V32.789H6.6505V21.1988ZM18.4048 21.1988H30.0488C30.9997 21.1988 31.7396 21.9412 31.7396 22.8955V30.5133C31.7396 31.4677 31.0001 32.21 30.0488 32.21H27.1337C27.0068 32.2093 26.8814 32.2391 26.7686 32.2973L22.3085 34.6792V32.9934C22.3082 32.785 22.2248 32.5853 22.0769 32.4385C21.9294 32.2913 21.729 32.2094 21.5206 32.21H18.4047C17.4538 32.21 16.7126 31.4677 16.7126 30.5134V22.8956C16.7126 21.9412 17.4539 21.1989 18.4047 21.1989L18.4048 21.1988ZM37.7816 21.1988H41.3498V32.789H37.7816V21.1988ZM3.95721 23.1499H5.08071V30.8429H3.95721C2.6207 30.8429 1.5693 29.7926 1.5693 28.4519V25.5426C1.5693 24.2019 2.6207 23.1502 3.95721 23.1502V23.1499ZM42.9207 23.1499H44.0379C45.3744 23.1499 46.4304 24.2019 46.4304 25.5424V28.4516C46.4304 29.7923 45.3745 30.8427 44.0379 30.8427L42.9207 30.843V23.1499ZM20.2515 25.6772C19.7197 25.7053 19.2782 26.1646 19.2782 26.7027C19.2782 27.258 19.7477 27.7282 20.3019 27.7282C20.8565 27.7282 21.3274 27.2581 21.3274 26.7027C21.3274 26.1474 20.8565 25.6772 20.3019 25.6772C20.2931 25.6772 20.2844 25.6769 20.276 25.6772C20.2675 25.6776 20.2598 25.6769 20.2514 25.6772H20.2515ZM24.1753 25.6772C23.6435 25.7053 23.202 26.1646 23.202 26.7027C23.202 27.258 23.6714 27.7282 24.2257 27.7282C24.7803 27.7282 25.2511 27.2581 25.2511 26.7027C25.2511 26.1474 24.7803 25.6772 24.2257 25.6772C24.2169 25.6772 24.2082 25.6769 24.1997 25.6772C24.1913 25.6776 24.1836 25.6769 24.1752 25.6772H24.1753ZM28.0991 25.6772C27.5672 25.7053 27.1258 26.1646 27.1258 26.7027C27.1258 27.258 27.5952 27.7282 28.1495 27.7282C28.7041 27.7282 29.1749 27.2581 29.1749 26.7027C29.1749 26.1474 28.7041 25.6772 28.1495 25.6772C28.1407 25.6772 28.1319 25.6769 28.1235 25.6772C28.1151 25.6776 28.1074 25.6769 28.099 25.6772H28.0991ZM22.054 42.6038H25.9473C26.7727 42.6038 27.4124 43.2467 27.4124 44.0752C27.4124 44.9037 26.7724 45.5466 25.9473 45.5466H22.054C21.2286 45.5466 20.5826 44.9037 20.5826 44.0752C20.5826 43.2467 21.2286 42.6038 22.054 42.6038Z" fill="white"/>
    <mask id="mask0_401_212" style="mask-type:alpha" maskUnits="userSpaceOnUse" x="0" y="1" width="48" height="47">
        <path d="M24.0008 1.59998C13.5837 1.59998 5.16664 9.98038 5.08233 20.3911H5.08268C5.08198 20.3978 5.08128 20.4044 5.08093 20.4111V21.5805H3.95742C1.77723 21.5805 0 23.361 0 25.5425V28.4518C0 30.6333 1.77723 32.4138 3.95742 32.4138L5.08093 32.4141V33.5776V33.5773C5.08198 34.0089 5.43091 34.3589 5.86253 34.3606H11.0065C11.4381 34.3589 11.7874 34.0092 11.7881 33.5776V20.4116C11.7874 19.98 11.4381 19.6304 11.0065 19.6286H6.67491C7.14856 10.4187 14.6837 3.17201 24.0006 3.17201C33.3181 3.17201 40.8527 10.4191 41.3262 19.6286H36.9933C36.5617 19.6304 36.2124 19.98 36.2117 20.4116V33.5776C36.2124 34.0092 36.5617 34.3589 36.9933 34.3606H41.3494V39.9965C41.3494 41.8351 39.8986 43.2936 38.0646 43.2936H28.8789C28.5321 41.9977 27.3462 41.0343 25.9466 41.0343H22.0537C20.3847 41.0343 19.0127 42.4055 19.0127 44.0752C19.0127 45.7449 20.3847 47.1161 22.0537 47.1161H25.947C27.3441 47.1161 28.5286 46.1555 28.8776 44.8631H38.0651C40.7426 44.8631 42.9208 42.6763 42.9208 39.9965V32.4138H44.038C46.2182 32.4138 48 30.6333 48 28.4518V25.5425C48 23.361 46.2182 21.5805 44.038 21.5805H42.9208V20.4111H42.9204C42.9201 20.4045 42.9194 20.3982 42.919 20.3915C42.8342 9.98068 34.4174 1.60036 24.0005 1.60036L24.0008 1.59998ZM18.4048 19.6279C16.61 19.6279 15.1432 21.1 15.1432 22.8959V30.5137C15.1432 32.3092 16.61 33.7753 18.4048 33.7753H20.7391V35.9884V35.9881C20.7388 36.2638 20.8831 36.5192 21.1192 36.6614C21.355 36.8037 21.6482 36.8117 21.8917 36.6825L27.3314 33.775H30.049C31.8438 33.775 33.3093 32.3088 33.3093 30.5134V22.8956C33.3093 21.1 31.8438 19.6276 30.049 19.6276L18.4048 19.6279ZM6.6505 21.1988H10.2187V32.789H6.6505V21.1988ZM18.4048 21.1988H30.0488C30.9997 21.1988 31.7396 21.9412 31.7396 22.8955V30.5133C31.7396 31.4677 31.0001 32.21 30.0488 32.21H27.1337C27.0068 32.2093 26.8814 32.2391 26.7686 32.2973L22.3085 34.6792V32.9934C22.3082 32.785 22.2248 32.5853 22.0769 32.4385C21.9294 32.2913 21.729 32.2094 21.5206 32.21H18.4047C17.4538 32.21 16.7126 31.4677 16.7126 30.5134V22.8956C16.7126 21.9412 17.4539 21.1989 18.4047 21.1989L18.4048 21.1988ZM37.7816 21.1988H41.3498V32.789H37.7816V21.1988ZM3.95721 23.1499H5.08071V30.8429H3.95721C2.6207 30.8429 1.5693 29.7926 1.5693 28.4519V25.5426C1.5693 24.2019 2.6207 23.1502 3.95721 23.1502V23.1499ZM42.9207 23.1499H44.0379C45.3744 23.1499 46.4304 24.2019 46.4304 25.5424V28.4516C46.4304 29.7923 45.3745 30.8427 44.0379 30.8427L42.9207 30.843V23.1499ZM20.2515 25.6772C19.7197 25.7053 19.2782 26.1646 19.2782 26.7027C19.2782 27.258 19.7477 27.7282 20.3019 27.7282C20.8565 27.7282 21.3274 27.2581 21.3274 26.7027C21.3274 26.1474 20.8565 25.6772 20.3019 25.6772C20.2931 25.6772 20.2844 25.6769 20.276 25.6772C20.2675 25.6776 20.2598 25.6769 20.2514 25.6772H20.2515ZM24.1753 25.6772C23.6435 25.7053 23.202 26.1646 23.202 26.7027C23.202 27.258 23.6714 27.7282 24.2257 27.7282C24.7803 27.7282 25.2511 27.2581 25.2511 26.7027C25.2511 26.1474 24.7803 25.6772 24.2257 25.6772C24.2169 25.6772 24.2082 25.6769 24.1997 25.6772C24.1913 25.6776 24.1836 25.6769 24.1752 25.6772H24.1753ZM28.0991 25.6772C27.5672 25.7053 27.1258 26.1646 27.1258 26.7027C27.1258 27.258 27.5952 27.7282 28.1495 27.7282C28.7041 27.7282 29.1749 27.2581 29.1749 26.7027C29.1749 26.1474 28.7041 25.6772 28.1495 25.6772C28.1407 25.6772 28.1319 25.6769 28.1235 25.6772C28.1151 25.6776 28.1074 25.6769 28.099 25.6772H28.0991ZM22.054 42.6038H25.9473C26.7727 42.6038 27.4124 43.2467 27.4124 44.0752C27.4124 44.9037 26.7724 45.5466 25.9473 45.5466H22.054C21.2286 45.5466 20.5826 44.9037 20.5826 44.0752C20.5826 43.2467 21.2286 42.6038 22.054 42.6038Z" fill="#2F4050"/>
    </mask>
    <g mask="url(#mask0_401_212)">
        <rect x="14" y="18" width="20" height="20" fill="#CF5555"/>
    </g>
</svg>
