<svg width="48" height="48" viewBox="0 0 48 48" fill="none" xmlns="http://www.w3.org/2000/svg">
    <path d="M47.4 0H0.60035C0.240417 0 0.000183105 0.239816 0.000183105 0.600167V47.3998C0.000183105 47.7598 0.239999 48 0.60035 48H47.4C47.76 48 48.0002 47.7602 48.0002 47.3998L47.9998 0.600167C47.9998 0.239816 47.76 0 47.4 0ZM46.7999 46.7997H1.20018L1.20059 1.19999H46.8003L46.7999 46.7997Z" fill="white"/>
    <path d="M5.94031 22.4398H12.5405C12.9004 22.4398 13.1406 22.2 13.1406 21.8397L13.1402 5.45979C13.1402 5.09985 12.9004 4.85962 12.5401 4.85962H5.94032C5.58038 4.85962 5.34015 5.09944 5.34015 5.45979V21.7797C5.34015 22.1396 5.64023 22.4397 5.94032 22.4397L5.94031 22.4398ZM6.54047 6.05995H11.9402V21.1798H6.54047V6.05995Z" fill="#CF5555"/>
    <path d="M15.3621 12.6599H21.9622C22.3222 12.6599 22.5624 12.4201 22.5624 12.0597V5.45954C22.5624 5.09961 22.3226 4.85938 21.9622 4.85938H15.3621C15.0021 4.85938 14.7619 5.09919 14.7619 5.45954V12.0597C14.7619 12.4201 15.0017 12.6599 15.3621 12.6599ZM15.9618 6.05971H21.3616V11.4595H15.9618V6.05971Z" fill="#CF5555"/>
    <path d="M15.3621 22.4397H21.9622C22.3222 22.4397 22.5624 22.1998 22.5624 21.8395V15.2393C22.5624 14.8794 22.3226 14.6392 21.9622 14.6392H15.3621C15.0021 14.6392 14.7619 14.879 14.7619 15.2393V21.8395C14.7619 22.1396 15.0017 22.4397 15.3621 22.4397ZM15.9618 15.7797H21.3616V21.1795H15.9618V15.7797Z" fill="#CF5555"/>
    <path d="M5.94032 42.7197H21.9602C22.3201 42.7197 22.5604 42.4799 22.5604 42.1196V25.7397C22.5604 25.3798 22.3206 25.1395 21.9602 25.1395L5.94032 25.1399C5.58038 25.1399 5.34015 25.3798 5.34015 25.7401V42.06C5.34015 42.4199 5.64023 42.7196 5.94032 42.7196V42.7197ZM6.54048 26.3399H21.3604V41.4598H6.54048V26.3399Z" fill="white"/>
    <path d="M26.5808 25.1396C26.2209 25.1396 25.9807 25.3795 25.9807 25.7398V38.3997C25.9807 38.7597 26.2205 38.9999 26.5808 38.9999H33.3007C33.6606 38.9999 33.9008 38.7601 33.9008 38.3997V25.7398C33.9008 25.3799 33.661 25.1396 33.3007 25.1396H26.5808ZM32.7009 37.7996H27.1809L27.1805 26.3396H32.7005L32.7009 37.7996Z" fill="#CF5555"/>
    <path d="M42.6599 25.1399H35.9401C35.5801 25.1399 35.3399 25.3797 35.3399 25.7401V38.4C35.3399 38.7599 35.5797 39.0001 35.9401 39.0001H42.6599C43.0198 39.0001 43.2601 38.7603 43.2601 38.4V25.7401C43.2601 25.4404 43.0198 25.1403 42.6599 25.1403V25.1399ZM42.0602 37.7998H36.5402V26.3399H42.0602V37.7998Z" fill="#CF5555"/>
    <path d="M26.4597 6.0602H32.8196C33.1795 6.0602 33.4197 5.82038 33.4197 5.46003C33.4197 5.1001 33.1799 4.85986 32.8196 4.85986L26.4597 4.86028C26.0998 4.86028 25.8596 5.1001 25.8596 5.46045C25.86 5.82038 26.1596 6.0602 26.4597 6.0602V6.0602Z" fill="white"/>
    <path d="M26.4597 9.90004H42.6596C43.0195 9.90004 43.2598 9.66023 43.2598 9.29988C43.2598 8.93994 43.02 8.69971 42.6596 8.69971H26.4597C26.0998 8.69971 25.8596 8.93952 25.8596 9.29988C25.86 9.66023 26.1596 9.90004 26.4597 9.90004Z" fill="white"/>
    <path d="M26.4597 14.0997H42.6596C43.0195 14.0997 43.2598 13.8599 43.2598 13.4996C43.2598 13.1396 43.02 12.8994 42.6596 12.8994H26.4597C26.0998 12.8994 25.8596 13.1392 25.8596 13.4996C25.86 13.8595 26.1596 14.0997 26.4597 14.0997Z" fill="white"/>
    <path d="M26.4597 18.2399H42.6596C43.0195 18.2399 43.2598 18.0001 43.2598 17.6397C43.2598 17.2798 43.02 17.0396 42.6596 17.0396H26.4597C26.0998 17.0396 25.8596 17.2794 25.8596 17.6397C25.86 18.0001 26.1596 18.2399 26.4597 18.2399Z" fill="white"/>
    <path d="M26.4597 22.32H42.6596C43.0195 22.32 43.2598 22.0801 43.2598 21.7198C43.2598 21.3599 43.02 21.1196 42.6596 21.1196H26.4597C26.0998 21.1196 25.8596 21.3594 25.8596 21.7198C25.86 22.0797 26.1596 22.32 26.4597 22.32Z" fill="white"/>
    <path d="M26.4597 42.7199H42.6596C43.0195 42.7199 43.2598 42.48 43.2598 42.1197C43.2598 41.7598 43.02 41.5195 42.6596 41.5195H26.4597C26.0998 41.5195 25.8596 41.7593 25.8596 42.1197C25.86 42.48 26.1596 42.7199 26.4597 42.7199Z" fill="white"/>
    <path d="M36.2996 6.0602H42.6594C43.0194 6.0602 43.2596 5.82038 43.2596 5.46003C43.2596 5.1001 43.0198 4.85986 42.6594 4.85986L36.2996 4.86028C35.9396 4.86028 35.6994 5.1001 35.6994 5.46045C35.6998 5.82038 35.9995 6.0602 36.2996 6.0602V6.0602Z" fill="white"/>
</svg>
