<svg width="48" height="48" viewBox="0 0 48 48" fill="none" xmlns="http://www.w3.org/2000/svg">
    <g clip-path="url(#clip0_401_184)">
        <path d="M23.9982 4.06393L44.9411 15.0642L23.9982 26.0645L3.05532 15.0632L23.9982 4.06393ZM0.519267 15.9203L23.5453 28.0171C23.6872 28.0936 23.8398 28.1263 23.998 28.1263C24.1563 28.1263 24.3088 28.0883 24.4507 28.0171L47.4768 15.9203C47.7929 15.7513 47.9949 15.4238 47.9949 15.0639C47.9949 14.704 47.7933 14.3711 47.4768 14.2075L24.4498 2.11066C24.1663 1.96344 23.8281 1.96344 23.55 2.11066L0.518147 14.2017C0.202007 14.3706 0 14.6982 0 15.0581C0 15.4179 0.201627 15.7508 0.518147 15.9144L0.519267 15.9203Z" fill="white"/>
        <path d="M0.520557 21.9688L23.5466 34.0657C23.6885 34.1422 23.8411 34.1749 23.9993 34.1749C24.1576 34.1749 24.3101 34.1368 24.452 34.0657L47.4781 21.9688C47.9525 21.7181 48.1324 21.1345 47.887 20.6598C47.6363 20.1854 47.0528 20.0054 46.578 20.2508L24.0039 32.1071L1.42483 20.2508C0.950429 20.0001 0.366875 20.1854 0.115802 20.6598C-0.134901 21.1342 0.0503673 21.7177 0.524765 21.9688H0.520557Z" fill="#CF5555"/>
        <path d="M46.5732 26.2992L23.999 38.1555L1.42483 26.2992C0.950429 26.0484 0.366875 26.2337 0.115802 26.7081C-0.134901 27.1825 0.0503673 27.7661 0.524765 28.0171L23.5508 40.114C23.6927 40.1905 23.8453 40.2232 24.0035 40.2232C24.1618 40.2232 24.3143 40.1852 24.4562 40.114L47.4823 28.0171C47.9567 27.7664 48.1366 27.1829 47.8913 26.7081C47.6406 26.2337 47.057 26.0538 46.5822 26.2992H46.5732Z" fill="white"/>
        <path d="M46.5732 32.348L23.999 44.2043L1.42483 32.348C0.950429 32.0973 0.366875 32.2825 0.115802 32.7569C-0.134901 33.2313 0.0503673 33.8149 0.524765 34.066L23.5508 46.1628C23.6927 46.2393 23.8453 46.272 24.0035 46.272C24.1618 46.272 24.3143 46.234 24.4562 46.1628L47.4823 34.066C47.9567 33.8153 48.1366 33.2317 47.8913 32.7569C47.6406 32.2825 47.057 32.1026 46.5822 32.348H46.5732Z" fill="#CF5555"/>
    </g>
    <defs>
        <clipPath id="clip0_401_184">
            <rect width="48" height="48" fill="white" transform="translate(0 0.000244141)"/>
        </clipPath>
    </defs>
</svg>
