<svg width="48" height="48" viewBox="0 0 48 48" fill="none" xmlns="http://www.w3.org/2000/svg">
    <path d="M26.5112 19.9361H27.2599V33.5593C27.2599 35.2134 28.1501 36.147 29.933 36.3606V37.1093L19.5393 37.1097V36.361C20.6518 36.148 21.3893 35.8341 21.752 35.4201C22.1157 35.0075 22.2974 34.273 22.2974 33.2174V24.4058C22.2974 23.3938 22.1053 22.6881 21.7194 22.2888C21.3348 21.89 20.5358 21.5761 19.3242 21.348V20.5992L26.5112 19.9361ZM21.9128 12.5366C21.9128 11.7523 22.1941 11.0822 22.7578 10.5255C23.3208 9.96973 24.0009 9.69141 24.7999 9.69141C25.5842 9.69141 26.2542 9.96638 26.8109 10.5146C27.3667 11.0638 27.6451 11.7376 27.6451 12.5361C27.6451 13.3346 27.3667 14.0152 26.8109 14.5781C26.2543 15.1415 25.5838 15.4232 24.7999 15.4232C24.0013 15.4232 23.3208 15.1381 22.7578 14.5677C22.1941 13.9976 21.9128 13.3204 21.9128 12.5366V12.5366Z" fill="#CF5555"/>
    <path d="M24 48C10.7668 48 0 37.2332 0 24C0 10.7657 10.7668 0 24 0C37.2343 0 48 10.7668 48 24C48 37.2332 37.2343 48 24 48ZM24 1.8C11.7589 1.8 1.8 11.7588 1.8 24C1.8 36.2412 11.7588 46.2 24 46.2C36.2412 46.2 46.2 36.2412 46.2 24C46.2004 11.7589 36.2416 1.8 24 1.8Z" fill="white"/>
</svg>
