<svg width="48" height="48" viewBox="0 0 48 48" fill="none" xmlns="http://www.w3.org/2000/svg">
    <path d="M47.413 7.00039H0.585222C0.262226 7.00039 0 7.26263 0 7.58561V30.9995C0 31.3225 0.262236 31.5847 0.585222 31.5847H47.414C47.737 31.5847 47.9992 31.3225 47.9992 30.9995V7.58561C47.9992 7.26223 47.737 7 47.4136 7L47.413 7.00039ZM46.8278 30.4153H1.17004V8.17144H46.8278V30.4153Z" fill="white"/>
    <path d="M19.3157 25.7322C19.4047 25.7322 19.4948 25.711 19.5779 25.6702L31.2854 19.8168C31.4833 19.7172 31.6084 19.5146 31.6084 19.2931C31.6084 19.0721 31.4829 18.8694 31.2854 18.7698L19.5779 12.9164C19.3976 12.8251 19.1801 12.8357 19.0088 12.9423C18.8359 13.0485 18.7305 13.2371 18.7305 13.4397V25.1471C18.7305 25.3498 18.8359 25.5383 19.008 25.6446C19.1017 25.703 19.2083 25.7324 19.3157 25.7324V25.7322ZM19.9013 14.387L29.7141 19.2934L19.9013 24.1999V14.387Z" fill="#CF5555"/>
    <path d="M47.4138 37.4393H11.6472C11.3756 36.1046 10.1934 35.098 8.78033 35.098C7.36725 35.098 6.18506 36.105 5.91343 37.4393H0.585222C0.262226 37.4393 0 37.7015 0 38.0245C0 38.3475 0.262236 38.6098 0.585222 38.6098H5.91302C6.18466 39.9445 7.36685 40.951 8.77993 40.951C10.193 40.951 11.3752 39.9441 11.6468 38.6098H47.4134C47.7364 38.6098 47.9986 38.3475 47.9986 38.0245C47.999 37.7015 47.7367 37.4393 47.4134 37.4393H47.4138ZM8.78033 39.7806C7.81214 39.7806 7.02426 38.9927 7.02426 38.0245C7.02426 37.0563 7.81214 36.2685 8.78033 36.2685C9.74851 36.2685 10.5364 37.0563 10.5364 38.0245C10.5364 38.9927 9.74851 39.7806 8.78033 39.7806Z" fill="white"/>
</svg>
