<svg width="48" height="48" viewBox="0 0 48 48" fill="none" xmlns="http://www.w3.org/2000/svg">
    <path d="M38.9688 38.5358V6.17916C38.9688 5.98241 38.869 5.79938 38.7037 5.69272C38.5385 5.58607 38.3304 5.57031 38.1514 5.65111L11.6262 17.6209C11.4185 17.7146 11.2852 17.9211 11.2852 18.149V25.9792C11.2852 26.2035 11.414 26.4071 11.6164 26.5028L32.2598 36.2756C32.3119 36.3124 32.3701 36.3398 32.4319 36.3568L38.141 39.0597C38.3204 39.1445 38.5309 39.1316 38.6986 39.0254C38.8662 38.9195 38.968 38.7349 38.968 38.5361L38.9688 38.5358ZM12.4435 18.5223L32.0049 9.6949V34.8725L12.4435 25.6116V18.5223ZM37.8104 37.6204L33.1641 35.4209L33.1637 9.17176L37.81 7.07495L37.8104 37.6204Z" fill="white"/>
    <path d="M8.11068 40.1752C8.18139 40.424 8.40885 40.5957 8.66782 40.5957H11.866H11.8656C12.0192 40.5957 12.1666 40.5347 12.2753 40.4265C12.384 40.3178 12.445 40.1703 12.445 40.0168V30.709L37.5523 42.7957C37.8403 42.9343 38.1866 42.8131 38.3252 42.525C38.4637 42.2365 38.3425 41.8907 38.0545 41.7521L12.1177 29.2652C11.9383 29.1787 11.727 29.1908 11.5581 29.2967C11.3896 29.4025 11.287 29.588 11.2874 29.7872V39.4372H9.10571L5.96168 28.391H9.6092C9.76273 28.391 9.9102 28.33 10.0189 28.2213C10.1271 28.1126 10.1881 27.9652 10.1881 27.8116V18.0764C10.1881 17.9229 10.1271 17.7754 10.0189 17.6668C9.91018 17.5581 9.76272 17.4971 9.6092 17.4971H0.579366C0.259378 17.4971 0 17.7564 0 18.0764V27.8117C0 27.9652 0.0610065 28.1126 0.169685 28.2213C0.278368 28.33 0.425433 28.391 0.579355 28.391H4.75735L8.11068 40.1752ZM1.15749 18.6558H9.02892V27.2327H1.15749V18.6558Z" fill="white"/>
    <path d="M44.1856 15.3366C44.0769 15.4453 44.0159 15.5923 44.0159 15.7463C44.0159 15.8998 44.0769 16.0468 44.1856 16.1555C45.8813 17.7708 46.8416 20.0099 46.8428 22.3519C46.8444 24.6937 45.8865 26.9339 44.1924 28.5508C43.9621 28.7734 43.9561 29.1403 44.1787 29.3702C44.4009 29.6001 44.7677 29.6061 44.9976 29.3835C46.9151 27.5508 47.9998 25.0141 48.0011 22.3616C48.0027 19.7089 46.92 17.1712 45.0045 15.3366C44.8958 15.2279 44.7487 15.1669 44.5948 15.1669C44.4413 15.1669 44.2938 15.2279 44.1855 15.3366L44.1856 15.3366Z" fill="#CF5555"/>
    <path d="M43.0515 19.0755C42.8252 18.8497 42.4584 18.8497 42.2321 19.0755C42.0063 19.3018 42.0063 19.6686 42.2321 19.8949C42.8959 20.5336 43.2769 21.4115 43.2906 22.3327C43.2938 23.268 42.9136 24.1637 42.2389 24.8118C42.009 25.034 42.003 25.4008 42.2256 25.6307C42.4478 25.8606 42.8147 25.8666 43.0445 25.6444C43.9403 24.7871 44.4477 23.6013 44.4489 22.3614C44.4501 21.1215 43.9455 19.9349 43.0514 19.0755L43.0515 19.0755Z" fill="#CF5555"/>
</svg>
