<svg xmlns="http://www.w3.org/2000/svg" display="none">

    <symbol id="fb" viewBox="0 0 9 16">
        <path d="M6.66476 2.65667H8.12542V0.112667C7.87342 0.078 7.00676 0 5.99742 0C3.89142 0 2.44876 1.32467 2.44876 3.75933V6H0.124756V8.844H2.44876V16H5.29809V8.84466H7.52809L7.88209 6.00066H5.29742V4.04133C5.29809 3.21933 5.51942 2.65667 6.66476 2.65667V2.65667Z"/>
    </symbol>

    <symbol id="in" viewBox="0 0 16 16">
        <path d="M2.31124 0.8125C1.21133 0.8125 0.492188 1.53476 0.492188 2.48407C0.492188 3.41241 1.18991 4.15527 2.26904 4.15527H2.28991C3.41134 4.15527 4.10925 3.41241 4.10925 2.48407C4.08828 1.53476 3.41134 0.8125 2.31124 0.8125Z"/>
        <path d="M0.682373 5.47656H3.8979V15.1506H0.682373V5.47656Z"/>
        <path d="M11.7905 5.24902C10.0558 5.24902 8.89262 6.87903 8.89262 6.87903V5.47607H5.677V15.1501H8.89244V9.74776C8.89244 9.45854 8.9134 9.16978 8.99836 8.96296C9.23082 8.38545 9.75981 7.78715 10.6481 7.78715C11.8117 7.78715 12.2771 8.6743 12.2771 9.97481V15.1501H15.4923V9.60319C15.4923 6.63175 13.9059 5.24902 11.7905 5.24902Z"/>
    </symbol>

    <symbol id="vk" viewBox="0 0 16 10">
        <path d="M13.2767 5.68501C13.018 5.35835 13.092 5.21301 13.2767 4.92101C13.28 4.91768 15.4153 1.96701 15.6353 0.966342L15.6367 0.965675C15.746 0.601008 15.6367 0.333008 15.108 0.333008H13.3587C12.9133 0.333008 12.708 0.563008 12.598 0.820342C12.598 0.820342 11.7073 2.95234 10.4473 4.33434C10.0407 4.73368 9.85266 4.86168 9.63066 4.86168C9.52133 4.86168 9.35133 4.73368 9.35133 4.36901V0.965675C9.35133 0.528341 9.22666 0.333008 8.858 0.333008H6.10733C5.828 0.333008 5.662 0.537008 5.662 0.727008C5.662 1.14168 6.292 1.23701 6.35733 2.40368V4.93501C6.35733 5.48968 6.25666 5.59168 6.03333 5.59168C5.43866 5.59168 3.99533 3.45101 3.14 1.00101C2.96733 0.525675 2.79867 0.333674 2.35 0.333674H0.6C0.100667 0.333674 0 0.563675 0 0.821008C0 1.27568 0.594666 3.53634 2.76533 6.52301C4.212 8.56168 6.24933 9.66635 8.10266 9.66635C9.21666 9.66635 9.35266 9.42102 9.35266 8.99902C9.35266 7.05101 9.252 6.86701 9.81 6.86701C10.0687 6.86701 10.514 6.99501 11.554 7.97835C12.7427 9.14435 12.938 9.66635 13.6033 9.66635H15.3527C15.8513 9.66635 16.104 9.42102 15.9587 8.93702C15.626 7.91901 13.378 5.82501 13.2767 5.68501Z"/>
    </symbol>

    <symbol id="ok" viewBox="0 0 16 16">
        <g>
            <path d="M7.99995 0C5.79398 0 4 1.79397 4 3.99994C4 6.2059 5.79398 7.99988 7.99995 7.99988C10.2059 7.99988 11.9999 6.2059 11.9999 3.99994C11.9999 1.79397 10.2059 0 7.99995 0ZM7.99995 5.99991C6.89696 5.99991 5.99997 5.10292 5.99997 3.99994C5.99997 2.89695 6.89696 1.99997 7.99995 1.99997C9.10293 1.99997 9.99992 2.89695 9.99992 3.99994C9.99992 5.10292 9.10293 5.99991 7.99995 5.99991Z"/>
            <path d="M13.3034 7.88895C12.9124 7.49795 12.2804 7.49795 11.8894 7.88895C9.74546 10.0329 6.25551 10.0329 4.11054 7.88895C3.71955 7.49795 3.08756 7.49795 2.69657 7.88895C2.30557 8.27994 2.30557 8.91193 2.69657 9.30393C3.94055 10.5479 5.51752 11.2569 7.1435 11.4419L4.29254 14.2928C3.90155 14.6838 3.90155 15.3158 4.29254 15.7068C4.68353 16.0978 5.31553 16.0978 5.70652 15.7068L7.99948 13.4139L10.2924 15.7068C10.4874 15.9018 10.7434 15.9998 10.9994 15.9998C11.2554 15.9998 11.5114 15.9018 11.7064 15.7068C12.0974 15.3158 12.0974 14.6838 11.7064 14.2928L8.85547 11.4419C10.4814 11.2569 12.0584 10.5479 13.3024 9.30393C13.6934 8.91293 13.6934 8.27994 13.3034 7.88895Z"/>
        </g>
    </symbol>


    <symbol id="twitter" viewBox="0 0 16 14">
        <path d="M16 2.039C15.405 2.3 14.771 2.473 14.11 2.557C14.79 2.151 15.309 1.513 15.553 0.744C14.919 1.122 14.219 1.389 13.473 1.538C12.871 0.897 12.013 0.5 11.077 0.5C9.261 0.5 7.799 1.974 7.799 3.781C7.799 4.041 7.821 4.291 7.875 4.529C5.148 4.396 2.735 3.089 1.114 1.098C0.831 1.589 0.665 2.151 0.665 2.756C0.665 3.892 1.25 4.899 2.122 5.482C1.595 5.472 1.078 5.319 0.64 5.078C0.64 5.088 0.64 5.101 0.64 5.114C0.64 6.708 1.777 8.032 3.268 8.337C3.001 8.41 2.71 8.445 2.408 8.445C2.198 8.445 1.986 8.433 1.787 8.389C2.212 9.688 3.418 10.643 4.852 10.674C3.736 11.547 2.319 12.073 0.785 12.073C0.516 12.073 0.258 12.061 0 12.028C1.453 12.965 3.175 13.5 5.032 13.5C11.068 13.5 14.368 8.5 14.368 4.166C14.368 4.021 14.363 3.881 14.356 3.742C15.007 3.28 15.554 2.703 16 2.039Z"/>
    </symbol>

    <symbol id="instagram" viewBox="0 0 16 16">
        <g>
            <path d="M8.00255 3.8916C5.73388 3.8916 3.89722 5.73027 3.89722 7.99693C3.89722 10.2656 5.73588 12.1023 8.00255 12.1023C10.2712 12.1023 12.1079 10.2636 12.1079 7.99693C12.1079 5.72827 10.2692 3.8916 8.00255 3.8916V3.8916ZM8.00255 10.6616C6.52989 10.6616 5.33788 9.46892 5.33788 7.99693C5.33788 6.52493 6.53055 5.33227 8.00255 5.33227C9.47455 5.33227 10.6672 6.52493 10.6672 7.99693C10.6679 9.46892 9.47522 10.6616 8.00255 10.6616V10.6616Z"/>
            <path d="M11.2986 0.0502578C9.82657 -0.0184089 6.18057 -0.0150756 4.70724 0.0502578C3.41257 0.110925 2.27057 0.423591 1.34991 1.34426C-0.188759 2.88293 0.00790737 4.95626 0.00790737 7.99693C0.00790737 11.1089 -0.165426 13.1343 1.34991 14.6496C2.89457 16.1936 4.99791 15.9916 8.00257 15.9916C11.0852 15.9916 12.1492 15.9936 13.2392 15.5716C14.7212 14.9963 15.8399 13.6716 15.9492 11.2923C16.0186 9.8196 16.0146 6.17426 15.9492 4.70093C15.8172 1.89226 14.3099 0.188925 11.2986 0.0502578V0.0502578ZM13.6286 13.6316C12.6199 14.6403 11.2206 14.5503 7.98324 14.5503C4.64991 14.5503 3.31324 14.5996 2.33791 13.6216C1.21457 12.5036 1.41791 10.7083 1.41791 7.98627C1.41791 4.30293 1.03991 1.65026 4.73657 1.46093C5.58591 1.43093 5.83591 1.42093 7.97391 1.42093L8.0039 1.44093C11.5566 1.44093 14.3439 1.06893 14.5112 4.76493C14.5492 5.60826 14.5579 5.8616 14.5579 7.99627C14.5572 11.2909 14.6199 12.6356 13.6286 13.6316V13.6316Z"/>
            <path d="M12.2706 4.68918C12.8004 4.68918 13.2299 4.25967 13.2299 3.72984C13.2299 3.20002 12.8004 2.77051 12.2706 2.77051C11.7408 2.77051 11.3113 3.20002 11.3113 3.72984C11.3113 4.25967 11.7408 4.68918 12.2706 4.68918Z"/>
        </g>
    </symbol>

    <symbol id="youtube" viewBox="0 0 16 12">
        <path d="M15.1831 2.25079C15.0102 1.60818 14.5036 1.10162 13.8611 0.928588C12.6873 0.607422 7.992 0.607422 7.992 0.607422C7.992 0.607422 3.2969 0.607422 2.12311 0.916411C1.49295 1.08926 0.973938 1.60827 0.801086 2.25079C0.492188 3.42449 0.492188 5.8586 0.492188 5.8586C0.492188 5.8586 0.492188 8.30497 0.801086 9.4664C0.974121 10.1089 1.48059 10.6155 2.1232 10.7885C3.30926 11.1098 7.99218 11.1098 7.99218 11.1098C7.99218 11.1098 12.6873 11.1098 13.8611 10.8008C14.5037 10.6278 15.0102 10.1213 15.1833 9.47876C15.4921 8.30497 15.4921 5.87096 15.4921 5.87096C15.4921 5.87096 15.5044 3.42449 15.1831 2.25079ZM6.49713 8.10731V3.60988L10.4015 5.8586L6.49713 8.10731Z"/>
    </symbol>

    <symbol id="user" viewBox="0 0 16 16">
        <path d="M13.6569 10.3431C12.7855 9.47181 11.7484 8.82678 10.6168 8.43631C11.8288 7.60159 12.625 6.20463 12.625 4.625C12.625 2.07478 10.5502 0 8 0C5.44978 0 3.375 2.07478 3.375 4.625C3.375 6.20463 4.17122 7.60159 5.38319 8.43631C4.25163 8.82678 3.2145 9.47181 2.34316 10.3431C0.832156 11.8542 0 13.8631 0 16H1.25C1.25 12.278 4.27803 9.25 8 9.25C11.722 9.25 14.75 12.278 14.75 16H16C16 13.8631 15.1678 11.8542 13.6569 10.3431ZM8 8C6.13903 8 4.625 6.486 4.625 4.625C4.625 2.764 6.13903 1.25 8 1.25C9.86097 1.25 11.375 2.764 11.375 4.625C11.375 6.486 9.86097 8 8 8Z"/>
    </symbol>

    <symbol id="arrow-right" viewBox="0 0 41 12">
        <path d="M40.5303 6.53033C40.8232 6.23744 40.8232 5.76256 40.5303 5.46967L35.7574 0.696699C35.4645 0.403806 34.9896 0.403806 34.6967 0.696699C34.4038 0.989593 34.4038 1.46447 34.6967 1.75736L38.9393 6L34.6967 10.2426C34.4038 10.5355 34.4038 11.0104 34.6967 11.3033C34.9896 11.5962 35.4645 11.5962 35.7574 11.3033L40.5303 6.53033ZM0 6.75H40V5.25H0V6.75Z"/>
    </symbol>

    <symbol id="arrow-left" viewBox="0 0 41 12">
        <path d="M0.469669 6.53033C0.176777 6.23744 0.176777 5.76256 0.469669 5.46967L5.24264 0.696699C5.53553 0.403806 6.01041 0.403806 6.3033 0.696699C6.5962 0.989593 6.5962 1.46447 6.3033 1.75736L2.06066 6L6.3033 10.2426C6.5962 10.5355 6.5962 11.0104 6.3033 11.3033C6.01041 11.5962 5.53553 11.5962 5.24264 11.3033L0.469669 6.53033ZM41 6.75H1V5.25H41V6.75Z"/>
    </symbol>

    <symbol id="close" viewBox="0 0 16 16">
        <path d="M16 1.4L14.6 0L8 6.6L1.4 0L0 1.4L6.6 8L0 14.6L1.4 16L8 9.4L14.6 16L16 14.6L9.4 8L16 1.4Z"/>
    </symbol>

    <symbol id="pin" viewBox="0 0 16 16">
        <path d="M8 0C4.63991 0 1.90625 2.73366 1.90625 6.09375C1.90625 8.26288 2.56609 9.13275 5.73691 13.3128C6.28731 14.0384 6.91119 14.8608 7.625 15.8125C7.71353 15.9305 7.85247 16 8.00003 16C8.14759 16 8.2865 15.9305 8.37503 15.8124C9.08466 14.8659 9.70581 14.0466 10.2539 13.3237C13.4323 9.13153 14.0938 8.25912 14.0938 6.09375C14.0938 2.73366 11.3601 0 8 0ZM9.50684 12.7573C9.05672 13.351 8.55737 14.0097 7.99991 14.7507C7.43862 14.0049 6.93644 13.3429 6.48381 12.7462C3.3995 8.68019 2.84375 7.94753 2.84375 6.09375C2.84375 3.25059 5.15684 0.9375 8 0.9375C10.8432 0.9375 13.1562 3.25059 13.1562 6.09375C13.1562 7.94391 12.5991 8.67881 9.50684 12.7573Z"/>
        <path d="M8 2.8125C6.19072 2.8125 4.71875 4.28447 4.71875 6.09375C4.71875 7.90303 6.19072 9.375 8 9.375C9.80928 9.375 11.2812 7.90303 11.2812 6.09375C11.2812 4.28447 9.80928 2.8125 8 2.8125ZM8 8.4375C6.70766 8.4375 5.65625 7.38609 5.65625 6.09375C5.65625 4.80141 6.70766 3.75 8 3.75C9.29234 3.75 10.3438 4.80141 10.3438 6.09375C10.3438 7.38609 9.29234 8.4375 8 8.4375Z"/>
    </symbol>


</svg>