<svg xmlns="http://www.w3.org/2000/svg" display="none">

    <symbol id="fb" viewBox="0 0 9 16">
        <path d="M6.66476 2.65667H8.12542V0.112667C7.87342 0.078 7.00676 0 5.99742 0C3.89142 0 2.44876 1.32467 2.44876 3.75933V6H0.124756V8.844H2.44876V16H5.29809V8.84466H7.52809L7.88209 6.00066H5.29742V4.04133C5.29809 3.21933 5.51942 2.65667 6.66476 2.65667V2.65667Z"/>
    </symbol>

    <symbol id="in" viewBox="0 0 16 16">
        <path d="M2.31124 0.8125C1.21133 0.8125 0.492188 1.53476 0.492188 2.48407C0.492188 3.41241 1.18991 4.15527 2.26904 4.15527H2.28991C3.41134 4.15527 4.10925 3.41241 4.10925 2.48407C4.08828 1.53476 3.41134 0.8125 2.31124 0.8125Z"/>
        <path d="M0.682373 5.47656H3.8979V15.1506H0.682373V5.47656Z"/>
        <path d="M11.7905 5.24902C10.0558 5.24902 8.89262 6.87903 8.89262 6.87903V5.47607H5.677V15.1501H8.89244V9.74776C8.89244 9.45854 8.9134 9.16978 8.99836 8.96296C9.23082 8.38545 9.75981 7.78715 10.6481 7.78715C11.8117 7.78715 12.2771 8.6743 12.2771 9.97481V15.1501H15.4923V9.60319C15.4923 6.63175 13.9059 5.24902 11.7905 5.24902Z"/>
    </symbol>


    <symbol id="vk" viewBox="0 0 16 10">
        <path d="M13.2767 5.68501C13.018 5.35835 13.092 5.21301 13.2767 4.92101C13.28 4.91768 15.4153 1.96701 15.6353 0.966342L15.6367 0.965675C15.746 0.601008 15.6367 0.333008 15.108 0.333008H13.3587C12.9133 0.333008 12.708 0.563008 12.598 0.820342C12.598 0.820342 11.7073 2.95234 10.4473 4.33434C10.0407 4.73368 9.85266 4.86168 9.63066 4.86168C9.52133 4.86168 9.35133 4.73368 9.35133 4.36901V0.965675C9.35133 0.528341 9.22666 0.333008 8.858 0.333008H6.10733C5.828 0.333008 5.662 0.537008 5.662 0.727008C5.662 1.14168 6.292 1.23701 6.35733 2.40368V4.93501C6.35733 5.48968 6.25666 5.59168 6.03333 5.59168C5.43866 5.59168 3.99533 3.45101 3.14 1.00101C2.96733 0.525675 2.79867 0.333674 2.35 0.333674H0.6C0.100667 0.333674 0 0.563675 0 0.821008C0 1.27568 0.594666 3.53634 2.76533 6.52301C4.212 8.56168 6.24933 9.66635 8.10266 9.66635C9.21666 9.66635 9.35266 9.42102 9.35266 8.99902C9.35266 7.05101 9.252 6.86701 9.81 6.86701C10.0687 6.86701 10.514 6.99501 11.554 7.97835C12.7427 9.14435 12.938 9.66635 13.6033 9.66635H15.3527C15.8513 9.66635 16.104 9.42102 15.9587 8.93702C15.626 7.91901 13.378 5.82501 13.2767 5.68501Z"/>
    </symbol>

    <symbol id="ok" viewBox="0 0 16 16">
        <g>
            <path d="M7.99995 0C5.79398 0 4 1.79397 4 3.99994C4 6.2059 5.79398 7.99988 7.99995 7.99988C10.2059 7.99988 11.9999 6.2059 11.9999 3.99994C11.9999 1.79397 10.2059 0 7.99995 0ZM7.99995 5.99991C6.89696 5.99991 5.99997 5.10292 5.99997 3.99994C5.99997 2.89695 6.89696 1.99997 7.99995 1.99997C9.10293 1.99997 9.99992 2.89695 9.99992 3.99994C9.99992 5.10292 9.10293 5.99991 7.99995 5.99991Z"/>
            <path d="M13.3034 7.88895C12.9124 7.49795 12.2804 7.49795 11.8894 7.88895C9.74546 10.0329 6.25551 10.0329 4.11054 7.88895C3.71955 7.49795 3.08756 7.49795 2.69657 7.88895C2.30557 8.27994 2.30557 8.91193 2.69657 9.30393C3.94055 10.5479 5.51752 11.2569 7.1435 11.4419L4.29254 14.2928C3.90155 14.6838 3.90155 15.3158 4.29254 15.7068C4.68353 16.0978 5.31553 16.0978 5.70652 15.7068L7.99948 13.4139L10.2924 15.7068C10.4874 15.9018 10.7434 15.9998 10.9994 15.9998C11.2554 15.9998 11.5114 15.9018 11.7064 15.7068C12.0974 15.3158 12.0974 14.6838 11.7064 14.2928L8.85547 11.4419C10.4814 11.2569 12.0584 10.5479 13.3024 9.30393C13.6934 8.91293 13.6934 8.27994 13.3034 7.88895Z"/>
        </g>
    </symbol>


    <symbol id="twitter" viewBox="0 0 16 14">
        <path d="M16 2.039C15.405 2.3 14.771 2.473 14.11 2.557C14.79 2.151 15.309 1.513 15.553 0.744C14.919 1.122 14.219 1.389 13.473 1.538C12.871 0.897 12.013 0.5 11.077 0.5C9.261 0.5 7.799 1.974 7.799 3.781C7.799 4.041 7.821 4.291 7.875 4.529C5.148 4.396 2.735 3.089 1.114 1.098C0.831 1.589 0.665 2.151 0.665 2.756C0.665 3.892 1.25 4.899 2.122 5.482C1.595 5.472 1.078 5.319 0.64 5.078C0.64 5.088 0.64 5.101 0.64 5.114C0.64 6.708 1.777 8.032 3.268 8.337C3.001 8.41 2.71 8.445 2.408 8.445C2.198 8.445 1.986 8.433 1.787 8.389C2.212 9.688 3.418 10.643 4.852 10.674C3.736 11.547 2.319 12.073 0.785 12.073C0.516 12.073 0.258 12.061 0 12.028C1.453 12.965 3.175 13.5 5.032 13.5C11.068 13.5 14.368 8.5 14.368 4.166C14.368 4.021 14.363 3.881 14.356 3.742C15.007 3.28 15.554 2.703 16 2.039Z"/>
    </symbol>

    <symbol id="instagram" viewBox="0 0 16 16">
        <g>
            <path d="M8.00255 3.8916C5.73388 3.8916 3.89722 5.73027 3.89722 7.99693C3.89722 10.2656 5.73588 12.1023 8.00255 12.1023C10.2712 12.1023 12.1079 10.2636 12.1079 7.99693C12.1079 5.72827 10.2692 3.8916 8.00255 3.8916V3.8916ZM8.00255 10.6616C6.52989 10.6616 5.33788 9.46892 5.33788 7.99693C5.33788 6.52493 6.53055 5.33227 8.00255 5.33227C9.47455 5.33227 10.6672 6.52493 10.6672 7.99693C10.6679 9.46892 9.47522 10.6616 8.00255 10.6616V10.6616Z"/>
            <path d="M11.2986 0.0502578C9.82657 -0.0184089 6.18057 -0.0150756 4.70724 0.0502578C3.41257 0.110925 2.27057 0.423591 1.34991 1.34426C-0.188759 2.88293 0.00790737 4.95626 0.00790737 7.99693C0.00790737 11.1089 -0.165426 13.1343 1.34991 14.6496C2.89457 16.1936 4.99791 15.9916 8.00257 15.9916C11.0852 15.9916 12.1492 15.9936 13.2392 15.5716C14.7212 14.9963 15.8399 13.6716 15.9492 11.2923C16.0186 9.8196 16.0146 6.17426 15.9492 4.70093C15.8172 1.89226 14.3099 0.188925 11.2986 0.0502578V0.0502578ZM13.6286 13.6316C12.6199 14.6403 11.2206 14.5503 7.98324 14.5503C4.64991 14.5503 3.31324 14.5996 2.33791 13.6216C1.21457 12.5036 1.41791 10.7083 1.41791 7.98627C1.41791 4.30293 1.03991 1.65026 4.73657 1.46093C5.58591 1.43093 5.83591 1.42093 7.97391 1.42093L8.0039 1.44093C11.5566 1.44093 14.3439 1.06893 14.5112 4.76493C14.5492 5.60826 14.5579 5.8616 14.5579 7.99627C14.5572 11.2909 14.6199 12.6356 13.6286 13.6316V13.6316Z"/>
            <path d="M12.2706 4.68918C12.8004 4.68918 13.2299 4.25967 13.2299 3.72984C13.2299 3.20002 12.8004 2.77051 12.2706 2.77051C11.7408 2.77051 11.3113 3.20002 11.3113 3.72984C11.3113 4.25967 11.7408 4.68918 12.2706 4.68918Z"/>
        </g>
    </symbol>

    <symbol id="youtube" viewBox="0 0 16 12">
        <path d="M15.1831 2.25079C15.0102 1.60818 14.5036 1.10162 13.8611 0.928588C12.6873 0.607422 7.992 0.607422 7.992 0.607422C7.992 0.607422 3.2969 0.607422 2.12311 0.916411C1.49295 1.08926 0.973938 1.60827 0.801086 2.25079C0.492188 3.42449 0.492188 5.8586 0.492188 5.8586C0.492188 5.8586 0.492188 8.30497 0.801086 9.4664C0.974121 10.1089 1.48059 10.6155 2.1232 10.7885C3.30926 11.1098 7.99218 11.1098 7.99218 11.1098C7.99218 11.1098 12.6873 11.1098 13.8611 10.8008C14.5037 10.6278 15.0102 10.1213 15.1833 9.47876C15.4921 8.30497 15.4921 5.87096 15.4921 5.87096C15.4921 5.87096 15.5044 3.42449 15.1831 2.25079ZM6.49713 8.10731V3.60988L10.4015 5.8586L6.49713 8.10731Z"/>
    </symbol>

    <symbol id="user" viewBox="0 0 16 16">
        <path d="M13.6569 10.3431C12.7855 9.47181 11.7484 8.82678 10.6168 8.43631C11.8288 7.60159 12.625 6.20463 12.625 4.625C12.625 2.07478 10.5502 0 8 0C5.44978 0 3.375 2.07478 3.375 4.625C3.375 6.20463 4.17122 7.60159 5.38319 8.43631C4.25163 8.82678 3.2145 9.47181 2.34316 10.3431C0.832156 11.8542 0 13.8631 0 16H1.25C1.25 12.278 4.27803 9.25 8 9.25C11.722 9.25 14.75 12.278 14.75 16H16C16 13.8631 15.1678 11.8542 13.6569 10.3431ZM8 8C6.13903 8 4.625 6.486 4.625 4.625C4.625 2.764 6.13903 1.25 8 1.25C9.86097 1.25 11.375 2.764 11.375 4.625C11.375 6.486 9.86097 8 8 8Z"/>
    </symbol>

    <symbol id="arrow-right" viewBox="0 0 41 12">
        <path d="M40.5303 6.53033C40.8232 6.23744 40.8232 5.76256 40.5303 5.46967L35.7574 0.696699C35.4645 0.403806 34.9896 0.403806 34.6967 0.696699C34.4038 0.989593 34.4038 1.46447 34.6967 1.75736L38.9393 6L34.6967 10.2426C34.4038 10.5355 34.4038 11.0104 34.6967 11.3033C34.9896 11.5962 35.4645 11.5962 35.7574 11.3033L40.5303 6.53033ZM0 6.75H40V5.25H0V6.75Z"/>
    </symbol>

    <symbol id="arrow-left" viewBox="0 0 41 12">
        <path d="M0.469669 6.53033C0.176777 6.23744 0.176777 5.76256 0.469669 5.46967L5.24264 0.696699C5.53553 0.403806 6.01041 0.403806 6.3033 0.696699C6.5962 0.989593 6.5962 1.46447 6.3033 1.75736L2.06066 6L6.3033 10.2426C6.5962 10.5355 6.5962 11.0104 6.3033 11.3033C6.01041 11.5962 5.53553 11.5962 5.24264 11.3033L0.469669 6.53033ZM41 6.75H1V5.25H41V6.75Z"/>
    </symbol>

    <symbol id="arrow-bottom" viewBox="0 0 15 16">
        <path fill-rule="evenodd" clip-rule="evenodd"
              d="M7.00126 0C7.26648 0 7.52083 0.105357 7.70837 0.292893C7.89591 0.48043 8.00126 0.734784 8.00126 1V12.586L12.2933 8.292C12.3862 8.19902 12.4966 8.12527 12.6181 8.07495C12.7396 8.02463 12.8698 7.99874 13.0013 7.99874C13.1328 7.99874 13.263 8.02463 13.3844 8.07495C13.5059 8.12527 13.6163 8.19902 13.7093 8.292C13.8022 8.38498 13.876 8.49535 13.9263 8.61683C13.9766 8.73831 14.0025 8.86851 14.0025 9C14.0025 9.13149 13.9766 9.26169 13.9263 9.38317C13.876 9.50465 13.8022 9.61502 13.7093 9.708L7.70926 15.708C7.61637 15.8011 7.50602 15.875 7.38453 15.9254C7.26304 15.9758 7.1328 16.0018 7.00126 16.0018C6.86973 16.0018 6.73949 15.9758 6.618 15.9254C6.49651 15.875 6.38615 15.8011 6.29326 15.708L0.293263 9.708C0.200288 9.61502 0.126535 9.50465 0.0762167 9.38317C0.0258985 9.26169 0 9.13149 0 9C0 8.86851 0.0258985 8.73831 0.0762167 8.61683C0.126535 8.49535 0.200288 8.38498 0.293263 8.292C0.481037 8.10423 0.735712 7.99874 1.00126 7.99874C1.13275 7.99874 1.26295 8.02463 1.38443 8.07495C1.50591 8.12527 1.61629 8.19902 1.70926 8.292L6.00126 12.586V1C6.00126 0.734784 6.10662 0.48043 6.29416 0.292893C6.48169 0.105357 6.73605 0 7.00126 0V0Z"/>
    </symbol>

    <symbol id="close" viewBox="0 0 16 16">
        <path d="M16 1.4L14.6 0L8 6.6L1.4 0L0 1.4L6.6 8L0 14.6L1.4 16L8 9.4L14.6 16L16 14.6L9.4 8L16 1.4Z"/>
    </symbol>

    <symbol id="pin" viewBox="0 0 16 16">
        <path d="M8 0C4.63991 0 1.90625 2.73366 1.90625 6.09375C1.90625 8.26288 2.56609 9.13275 5.73691 13.3128C6.28731 14.0384 6.91119 14.8608 7.625 15.8125C7.71353 15.9305 7.85247 16 8.00003 16C8.14759 16 8.2865 15.9305 8.37503 15.8124C9.08466 14.8659 9.70581 14.0466 10.2539 13.3237C13.4323 9.13153 14.0938 8.25912 14.0938 6.09375C14.0938 2.73366 11.3601 0 8 0ZM9.50684 12.7573C9.05672 13.351 8.55737 14.0097 7.99991 14.7507C7.43862 14.0049 6.93644 13.3429 6.48381 12.7462C3.3995 8.68019 2.84375 7.94753 2.84375 6.09375C2.84375 3.25059 5.15684 0.9375 8 0.9375C10.8432 0.9375 13.1562 3.25059 13.1562 6.09375C13.1562 7.94391 12.5991 8.67881 9.50684 12.7573Z"/>
        <path d="M8 2.8125C6.19072 2.8125 4.71875 4.28447 4.71875 6.09375C4.71875 7.90303 6.19072 9.375 8 9.375C9.80928 9.375 11.2812 7.90303 11.2812 6.09375C11.2812 4.28447 9.80928 2.8125 8 2.8125ZM8 8.4375C6.70766 8.4375 5.65625 7.38609 5.65625 6.09375C5.65625 4.80141 6.70766 3.75 8 3.75C9.29234 3.75 10.3438 4.80141 10.3438 6.09375C10.3438 7.38609 9.29234 8.4375 8 8.4375Z"/>
    </symbol>

    <symbol id="arrow-bottom" viewBox="0 0 10 6">
        <path d="M5.35692 5.60686L9.85238 1.1099C10.0492 0.91258 10.0492 0.592885 9.85238 0.395063C9.65556 0.197739 9.33586 0.197739 9.13904 0.395063L5.00027 4.53532L0.861503 0.395561C0.664678 0.198237 0.344982 0.198237 0.147658 0.395561C-0.0491667 0.592884 -0.0491667 0.913078 0.147658 1.1104L4.64312 5.60736C4.83791 5.80169 5.16263 5.80169 5.35692 5.60686Z"/>
    </symbol>

    <symbol id="tab-list" viewBox="0 0 24 24">
        <path d="M3 18H21V16H3V18ZM3 13H21V11H3V13ZM3 6V8H21V6H3Z"/>
    </symbol>

    <symbol id="tab-card" viewBox="0 0 24 24">
        <path d="M4 4H8V8H4V4ZM4 10H8V14H4V10ZM8 16H4V20H8V16ZM10 4H14V8H10V4ZM14 10H10V14H14V10ZM10 16H14V20H10V16ZM20 4H16V8H20V4ZM16 10H20V14H16V10ZM20 16H16V20H20V16Z"/>
    </symbol>

    <symbol id="play" viewBox="0 0 15 18">
        <path d="M14.9141 8.99975L0.0444976 17.4435L0.0444984 0.556008L14.9141 8.99975Z"/>
    </symbol>

    <symbol id="next" viewBox="0 0 16 16">
        <path d="M12.1385 7.56094L4.73802 0.180933C4.49555 -0.0607219 4.10299 -0.0603156 3.86093 0.182183C3.61906 0.424651 3.61968 0.817431 3.86218 1.05927L10.8222 8.00003L3.86193 14.9407C3.61946 15.1826 3.61884 15.5752 3.86068 15.8177C3.98202 15.9392 4.14099 16 4.29996 16C4.45852 16 4.61686 15.9396 4.73799 15.8189L12.1385 8.43909C12.2553 8.3229 12.3208 8.16478 12.3208 8.00003C12.3208 7.83528 12.2551 7.67734 12.1385 7.56094Z"/>
    </symbol>

    <symbol id="prev" viewBox="0 0 16 16">
        <path d="M5.1775 8.0037L12.1304 1.05081C12.3708 0.810408 12.3708 0.420653 12.1304 0.180249C11.8899 -0.060083 11.5002 -0.060083 11.2598 0.180249L3.87166 7.56842C3.63132 7.80882 3.63132 8.19858 3.87166 8.43898L11.2598 15.8271C11.5044 16.0634 11.8942 16.0566 12.1304 15.812C12.3608 15.5734 12.3608 15.1951 12.1304 14.9566L5.1775 8.0037Z"/>
    </symbol>


    <symbol id="arrow-bottom2" viewBox="0 0 8 41">
        <path d="M3.64645 40.3536C3.84171 40.5488 4.15829 40.5488 4.35355 40.3536L7.53553 37.1716C7.7308 36.9763 7.7308 36.6597 7.53553 36.4645C7.34027 36.2692 7.02369 36.2692 6.82843 36.4645L4 39.2929L1.17157 36.4645C0.976311 36.2692 0.659728 36.2692 0.464466 36.4645C0.269204 36.6597 0.269204 36.9763 0.464466 37.1716L3.64645 40.3536ZM4.5 40L4.5 -2.18557e-08L3.5 2.18557e-08L3.5 40L4.5 40Z"/>
    </symbol>

</svg>