<svg width="48" height="48" viewBox="0 0 48 48" fill="none" xmlns="http://www.w3.org/2000/svg">
    <path d="M34.2668 0H14.2668C13.8988 0 13.6001 0.298733 13.6001 0.666667V2.66667H9.6001C7.39438 2.66667 5.6001 4.46095 5.6001 6.66667V44C5.6001 46.2057 7.39438 48 9.6001 48H38.9334C41.1391 48 42.9334 46.2057 42.9334 44V6.66667C42.9334 4.46095 41.1391 2.66667 38.9334 2.66667H34.9334V0.666667C34.9334 0.298733 34.6347 0 34.2668 0ZM14.9334 1.33333H33.6001V4.66667C33.6001 5.76971 32.7031 6.66667 31.6001 6.66667H16.9334C15.8304 6.66667 14.9334 5.76971 14.9334 4.66667V1.33333ZM38.9334 5.33333C39.6686 5.33333 40.2668 5.93154 40.2668 6.66667V44C40.2668 44.7351 39.6686 45.3333 38.9334 45.3333H9.6001C8.86497 45.3333 8.26676 44.7351 8.26676 44V6.66667C8.26676 5.93154 8.86497 5.33333 9.6001 5.33333H13.6674C13.9773 6.85267 15.3241 8 16.9334 8H31.6001C33.2098 8 34.5562 6.85267 34.8661 5.33333H38.9334Z" fill="#2F4050"/>
    <path d="M19.1285 12.195L14.2665 17.057L12.0711 14.8617C11.8107 14.6013 11.3888 14.6013 11.1281 14.8617C10.8673 15.1221 10.8676 15.544 11.1281 15.8048L13.7947 18.4714C13.9249 18.6013 14.0957 18.6664 14.2665 18.6664C14.4372 18.6664 14.608 18.6013 14.7378 18.4711L20.0711 13.1377C20.3316 12.8773 20.3316 12.4554 20.0711 12.1946C19.8111 11.9342 19.3885 11.9346 19.1284 12.195H19.1285Z" fill="#CF5555"/>
    <path d="M22.9336 12.6667C22.9336 13.0346 23.2323 13.3333 23.6003 13.3333H36.9336C37.3015 13.3333 37.6003 13.0346 37.6003 12.6667C37.6003 12.2987 37.3015 12 36.9336 12H23.6003C23.2323 12 22.9336 12.2987 22.9336 12.6667Z" fill="#CF5555"/>
    <path d="M36.9336 14.6665H23.6003C23.2323 14.6665 22.9336 14.9652 22.9336 15.3332C22.9336 15.7011 23.2323 15.9998 23.6003 15.9998H36.9336C37.3015 15.9998 37.6003 15.7011 37.6003 15.3332C37.6003 14.9652 37.3015 14.6665 36.9336 14.6665Z" fill="#CF5555"/>
    <path d="M23.6003 18.6668H30.2669C30.6349 18.6668 30.9336 18.3681 30.9336 18.0002C30.9336 17.6322 30.6349 17.3335 30.2669 17.3335H23.6003C23.2323 17.3335 22.9336 17.6322 22.9336 18.0002C22.9336 18.3681 23.2323 18.6668 23.6003 18.6668Z" fill="#CF5555"/>
    <path d="M36.9336 22.6665H23.6003C23.2323 22.6665 22.9336 22.9652 22.9336 23.3332C22.9336 23.7011 23.2323 23.9998 23.6003 23.9998H36.9336C37.3015 23.9998 37.6003 23.7011 37.6003 23.3332C37.6003 22.9652 37.3015 22.6665 36.9336 22.6665Z" fill="#2F4050"/>
    <path d="M36.9336 25.3335H23.6003C23.2323 25.3335 22.9336 25.6322 22.9336 26.0002C22.9336 26.3681 23.2323 26.6668 23.6003 26.6668H36.9336C37.3015 26.6668 37.6003 26.3681 37.6003 26.0002C37.6003 25.6322 37.3015 25.3335 36.9336 25.3335Z" fill="#2F4050"/>
    <path d="M23.6003 29.3333H32.9336C33.3015 29.3333 33.6003 29.0346 33.6003 28.6667C33.6003 28.2987 33.3015 28 32.9336 28H23.6003C23.2323 28 22.9336 28.2987 22.9336 28.6667C22.9336 29.0346 23.2323 29.3333 23.6003 29.3333Z" fill="#2F4050"/>
    <path d="M36.9336 33.3335H23.6003C23.2323 33.3335 22.9336 33.6322 22.9336 34.0002C22.9336 34.3681 23.2323 34.6668 23.6003 34.6668H36.9336C37.3015 34.6668 37.6003 34.3681 37.6003 34.0002C37.6003 33.6322 37.3015 33.3335 36.9336 33.3335Z" fill="#2F4050"/>
    <path d="M36.9336 36H23.6003C23.2323 36 22.9336 36.2987 22.9336 36.6667C22.9336 37.0346 23.2323 37.3333 23.6003 37.3333H36.9336C37.3015 37.3333 37.6003 37.0346 37.6003 36.6667C37.6003 36.2987 37.3015 36 36.9336 36Z" fill="#2F4050"/>
    <path d="M36.9336 38.6665H23.6003C23.2323 38.6665 22.9336 38.9652 22.9336 39.3332C22.9336 39.7011 23.2323 39.9998 23.6003 39.9998H36.9336C37.3015 39.9998 37.6003 39.7011 37.6003 39.3332C37.6003 38.9652 37.3015 38.6665 36.9336 38.6665Z" fill="#2F4050"/>
    <path d="M18.7384 33.5283C18.478 33.2679 18.0561 33.2679 17.7953 33.5283L15.6 35.7237L13.4046 33.5283C13.1442 33.2679 12.7223 33.2679 12.4616 33.5283C12.2008 33.7887 12.2011 34.2106 12.4616 34.4714L14.6569 36.6667L12.4616 38.8621C12.2011 39.1225 12.2011 39.5444 12.4616 39.8051C12.5921 39.9346 12.7629 39.9997 12.9337 39.9997C13.1044 39.9997 13.2752 39.9346 13.405 39.8044L15.6003 37.6091L17.7957 39.8044C17.9255 39.9346 18.0963 39.9997 18.267 39.9997C18.4378 39.9997 18.6085 39.9346 18.7384 39.8044C18.9988 39.544 18.9988 39.1221 18.7384 38.8613L16.543 36.666L18.7384 34.4707C18.9988 34.211 18.9988 33.7884 18.7384 33.5283Z" fill="#2F4050"/>
    <path d="M18.7384 22.8618C18.478 22.6014 18.0561 22.6014 17.7953 22.8618L15.6 25.0572L13.4046 22.8618C13.1442 22.6014 12.7223 22.6014 12.4616 22.8618C12.2008 23.1222 12.2011 23.5441 12.4616 23.8049L14.6569 26.0002L12.4616 28.1956C12.2011 28.456 12.2011 28.8779 12.4616 29.1386C12.5921 29.2681 12.7629 29.3332 12.9337 29.3332C13.1044 29.3332 13.2752 29.2681 13.405 29.1379L15.6003 26.9426L17.7957 29.1379C17.9255 29.2681 18.0963 29.3332 18.267 29.3332C18.4378 29.3332 18.6085 29.2681 18.7384 29.1379C18.9988 28.8775 18.9988 28.4556 18.7384 28.1948L16.543 25.9995L18.7384 23.8042C18.9988 23.5445 18.9988 23.1219 18.7384 22.8618Z" fill="#2F4050"/>
</svg>
