<svg width="48" height="48" viewBox="0 0 48 48" fill="none" xmlns="http://www.w3.org/2000/svg">
    <path d="M43.6551 13.1346L41.0302 10.5097L40.4998 9.97937L39.9695 10.5097L33.7098 16.7694C33.0089 15.8215 32.1751 14.988 31.2269 14.2875L37.4924 7.96766L38.0181 7.43734L37.4901 6.9093L34.8692 4.28846L46.9343 1.06135L43.6551 13.1346Z" fill="#2F4050" stroke="white" stroke-width="1.5"/>
    <path d="M6.91021 37.4901L7.43827 38.0181L7.9686 37.4923L14.288 31.2269C14.9893 32.1763 15.824 33.0109 16.7733 33.7123L10.5079 40.0321L9.98215 40.5624L10.5102 41.0905L13.131 43.7113L1.06038 46.9399L4.28935 34.8692L6.91021 37.4901Z" fill="#2F4050" stroke="white" stroke-width="1.5"/>
    <path d="M7.96832 10.5072L7.43803 9.98146L6.90997 10.5095L4.28848 13.1306L1.05986 1.05989L13.1306 4.28886L10.5097 6.90973L9.97706 7.44237L10.512 7.97269L16.8391 14.2449C15.8808 14.9703 15.0109 15.8127 14.2901 16.775L7.96832 10.5072Z" fill="#2F4050" stroke="white" stroke-width="1.5"/>
    <path d="M40.0318 37.4923L40.5621 38.0181L41.0901 37.4901L43.7113 34.869L46.9403 46.9411L34.8103 43.7096L37.4301 41.0898L37.9604 40.5595L37.4301 40.0292L31.1579 33.757C32.1174 33.0311 32.9884 32.1879 33.7099 31.2245L40.0318 37.4923Z" fill="#2F4050" stroke="white" stroke-width="1.5"/>
    <path d="M31.5601 23.9997C31.5601 28.1749 28.1755 31.5596 24.0003 31.5596C19.8251 31.5596 16.4404 28.1749 16.4404 23.9997C16.4404 19.8245 19.8251 16.4399 24.0003 16.4399C28.1755 16.4399 31.5601 19.8245 31.5601 23.9997Z" fill="#CF5555"/>
</svg>
