<svg width="48" height="48" viewBox="0 0 48 48" fill="none" xmlns="http://www.w3.org/2000/svg">
    <path d="M47.172 16.6976H35.2886C36.9962 13.0707 36.7379 8.8136 34.6048 5.42372C32.4716 2.03374 28.7626 -0.0141393 24.7822 7.34995e-05C20.8011 0.0146048 17.1064 2.08887 14.9974 5.49421C12.8886 8.89945 12.6603 13.158 14.3937 16.7728L13.4753 22.173L13.4749 22.1726C13.418 22.4454 13.4993 22.7286 13.6922 22.9279C13.885 23.1273 14.1636 23.2167 14.4351 23.166L19.036 22.3314V35.8945C19.036 36.1159 19.1232 36.3283 19.2784 36.4848C19.4335 36.6412 19.6441 36.7292 19.8636 36.7292H23.9518L21.0802 39.6336C21.0092 39.6348 20.939 39.6489 20.8733 39.6754C19.417 40.1844 15.9081 38.6906 12.5979 35.327C9.28779 31.9635 7.78158 28.4163 8.28661 26.9806H8.28625C8.29881 26.9117 8.29881 26.8409 8.28625 26.772L11.3976 23.6421H11.398C11.5546 23.4852 11.6425 23.2721 11.6425 23.0493C11.6425 22.8268 11.5546 22.6137 11.398 22.4568L6.16784 17.1818C6.01231 17.0238 5.80099 16.9351 5.58044 16.9351C5.35952 16.9351 5.1482 17.0238 4.99267 17.1818C4.50428 17.8246 1.45092 20.4705 1.31009 21.0878C-1.7847 25.6702 0.755569 34.0167 7.32632 40.6099C12.0185 45.3337 17.5632 47.9965 22.0148 47.9965C23.6625 48.0449 25.2862 47.5911 26.6738 46.6946C26.7732 46.9033 30.3564 43.1642 30.588 42.9555V42.9552C30.7446 42.7987 30.8329 42.5852 30.8329 42.3627C30.8329 42.1403 30.7446 41.9268 30.588 41.7703L25.6228 36.7624H47.1718C47.3913 36.7624 47.6018 36.6745 47.757 36.518C47.9122 36.3611 47.9994 36.1491 47.9994 35.9278V17.5657C48.0082 17.3384 47.9251 17.1174 47.7688 16.9535C47.6129 16.7899 47.3972 16.6975 47.1718 16.6975L47.172 16.6976ZM25.9701 45.1593C22.1882 48.0139 14.5085 45.4932 8.50104 39.4253C2.49294 33.3574 0.0022011 25.6704 2.81582 21.8063C2.81582 21.5808 5.29843 19.3023 5.58802 18.9186L9.65108 23.0165L6.74657 25.946C5.79495 28.6921 7.7729 32.7152 11.3974 36.5206C14.8978 39.9091 18.8947 42.1962 21.866 41.1946L24.7705 38.2652L28.8339 42.3631L25.9701 45.1593ZM46.3445 18.3669V19.5938L33.5096 28.2238L25.9872 23.3248C28.6431 23.0621 31.1278 21.8828 33.0212 19.9863C33.5019 19.4967 33.9393 18.9661 34.3287 18.4004L46.3445 18.3669ZM15.9905 16.2635C14.5383 13.4081 14.5304 10.0234 15.9698 7.16139C17.4091 4.299 20.1215 2.30597 23.2635 1.80109C26.406 1.2962 29.5979 2.34062 31.8482 4.60977C34.098 6.87933 35.1335 10.0987 34.6329 13.2681C34.1323 16.4372 32.1562 19.1728 29.3183 20.6245C26.4806 22.0762 23.1247 22.0684 20.2937 20.6036C20.1308 20.5284 19.9505 20.4997 19.7724 20.5202L15.3037 21.2963L16.0732 16.7892C16.0991 16.6096 16.0703 16.4263 15.9905 16.2635L15.9905 16.2635ZM20.6908 35.0596V22.5896C21.3358 22.8452 22.0038 23.0378 22.685 23.1656L33.1034 29.918C33.2523 29.918 33.2771 30.2101 34.0056 29.918L46.4186 21.5716V35.0594L20.6908 35.0596Z" fill="#2F4050"/>
    <path d="M20.6908 10.0204H28.9662C29.4232 10.0204 29.7937 9.64663 29.7937 9.18572C29.7937 8.7248 29.4232 8.35107 28.9662 8.35107H20.6908C20.2338 8.35107 19.8633 8.7248 19.8633 9.18572C19.8633 9.64663 20.2338 10.0204 20.6908 10.0204Z" fill="#CF5555"/>
    <path d="M19.0355 14.1937H30.621C31.078 14.1937 31.4486 13.82 31.4486 13.3591C31.4486 12.8981 31.078 12.5244 30.621 12.5244H19.0355C18.5786 12.5244 18.208 12.8981 18.208 13.3591C18.208 13.82 18.5786 14.1937 19.0355 14.1937Z" fill="#CF5555"/>
</svg>
