<svg width="48" height="48" viewBox="0 0 48 48" fill="none" xmlns="http://www.w3.org/2000/svg">
    <path d="M44.8001 16.0004H30.4001C29.5513 16.0004 28.7374 16.3375 28.1374 16.9376C27.5371 17.5376 27.1999 18.3515 27.1999 19.2002V27.2001H26.4C25.9758 27.2001 25.5686 27.0317 25.2686 26.7317C24.9687 26.4317 24.7999 26.0246 24.7999 25.6004V21.6003C24.7999 20.7515 24.4627 19.9376 23.8627 19.3376C23.2627 18.7376 22.4487 18.4004 21.6 18.4004H20.8001V3.1998C20.8001 2.35136 20.463 1.53737 19.8626 0.937109C19.2626 0.337109 18.4486 -9.15527e-05 17.5999 -9.15527e-05H3.19989C2.35145 -9.15527e-05 1.53746 0.337074 0.937201 0.937109C0.337201 1.53744 0 2.3514 0 3.1998V28.8001C0 29.6489 0.337166 30.4628 0.937201 31.0628C1.53754 31.6628 2.35149 32 3.19989 32H17.5999C18.4487 32 19.2626 31.6628 19.8626 31.0628C20.4629 30.4628 20.8001 29.6488 20.8001 28.8001V19.9998H21.6C22.0242 19.9998 22.4314 20.1686 22.7313 20.4686C23.0313 20.7686 23.2001 21.1757 23.2001 21.5999V25.6C23.2001 26.4484 23.5373 27.2624 24.1373 27.8627C24.7373 28.4627 25.5512 28.7999 26.4 28.7999H27.1999V44.8002C27.1999 45.6486 27.537 46.4626 28.1374 47.0629C28.7374 47.6629 29.5514 48.0001 30.4001 48.0001H44.8001C45.6485 48.0001 46.4625 47.6629 47.0628 47.0629C47.6628 46.4625 48 45.6486 48 44.8002V19.1999C48 18.3511 47.6628 17.5372 47.0628 16.9372C46.4625 16.3372 45.6485 16 44.8001 16V16.0004ZM3.19953 1.60035H17.5995C18.0241 1.60035 18.4309 1.76876 18.7309 2.06876C19.0312 2.36876 19.1996 2.7759 19.1996 3.2001V6.40033H1.59991V3.2001C1.59991 2.77589 1.76832 2.36874 2.06832 2.06876C2.36832 1.76878 2.77546 1.60035 3.19966 1.60035H3.19953ZM17.5995 30.4004H3.19953C2.77531 30.4004 2.36817 30.2316 2.06818 29.9316C1.7682 29.6316 1.59977 29.2245 1.59977 28.8003V25.6004H19.1995V28.8003C19.1995 29.2245 19.0311 29.6316 18.7307 29.9316C18.4307 30.2316 18.0239 30.4004 17.5994 30.4004H17.5995ZM19.1996 24.0002H1.59993V7.99995H19.1996V18.4005H15.8524C15.6877 17.9341 15.3827 17.53 14.9795 17.2437C14.576 16.9575 14.0942 16.8024 13.5997 16.8004H7.19956C6.34207 16.8004 5.5499 17.2578 5.12098 18.0004C4.69241 18.7431 4.69241 19.6578 5.12098 20.4004C5.54989 21.1431 6.34207 21.6004 7.19956 21.6004H13.5997C14.0942 21.5984 14.576 21.4434 14.9795 21.1571C15.3826 20.8708 15.6876 20.4667 15.8524 20.0003H19.1996V24.0002ZM14.3996 19.2002C14.3996 19.4125 14.3153 19.6158 14.1653 19.7661C14.0153 19.9161 13.8117 20.0001 13.5997 20.0001H7.19963C6.75767 20.0001 6.39975 19.6422 6.39975 19.2003C6.39975 18.7583 6.75767 18.4004 7.19963 18.4004H13.5997C13.8117 18.4004 14.0153 18.4844 14.1653 18.6344C14.3153 18.7847 14.3996 18.988 14.3996 19.2003V19.2002ZM30.3999 17.6001H44.7999C45.2242 17.6001 45.6313 17.7689 45.9313 18.0689C46.2313 18.3689 46.3997 18.776 46.3997 19.2002V22.4001H28.8V19.2002C28.8 18.776 28.9684 18.3689 29.2687 18.0689C29.5687 17.7689 29.9755 17.6001 30.4001 17.6001H30.3999ZM32.2344 30.1658L32.2341 30.1662C32.5464 30.4782 33.053 30.4782 33.3654 30.1662L34.9655 28.5661C35.0402 28.4914 35.0991 28.403 35.139 28.3052C35.22 28.1097 35.22 27.8897 35.139 27.6942C35.0991 27.5964 35.0402 27.5077 34.9655 27.4334L33.3654 25.8332C33.0513 25.5299 32.5525 25.5342 32.2441 25.843C31.9354 26.1517 31.931 26.6505 32.234 26.9643L32.4684 27.1986L28.7998 27.199V24.0005H46.3995V40.0008H28.7998V28.8005H32.4684L32.234 29.0348C31.922 29.3472 31.922 29.8538 32.234 30.1662L32.2344 30.1658ZM44.8001 46.4001H30.4001C29.9756 46.4001 29.5687 46.2317 29.2688 45.9317C28.9684 45.6317 28.8 45.2246 28.8 44.8004V41.6002H46.3997V44.8004C46.3997 45.2246 46.2313 45.6317 45.9313 45.9317C45.6313 46.2317 45.2242 46.4001 44.8 46.4001H44.8001Z" fill="#2F4050"/>
    <path d="M11.2003 27.1999H9.60018C9.15822 27.1999 8.80029 27.5581 8.80029 28.0001C8.80029 28.4417 9.15822 28.8 9.60018 28.8H11.2003C11.6419 28.8 12.0002 28.4417 12.0002 28.0001C12.0002 27.5581 11.6419 27.1999 11.2003 27.1999Z" fill="#CF5555"/>
    <path d="M12.7994 4.79997H13.5996C14.0412 4.79997 14.3995 4.44171 14.3995 4.00008C14.3995 3.55812 14.0412 3.19986 13.5996 3.19986H12.7994C12.3578 3.19986 11.9995 3.55812 11.9995 4.00008C11.9995 4.44171 12.3578 4.79997 12.7994 4.79997Z" fill="#CF5555"/>
    <path d="M7.19979 4.79997H9.59979C10.0417 4.79997 10.3997 4.44171 10.3997 4.00008C10.3997 3.55812 10.0417 3.19986 9.59979 3.19986H7.19979C6.75783 3.19986 6.3999 3.55812 6.3999 4.00008C6.3999 4.44171 6.75783 4.79997 7.19979 4.79997Z" fill="#CF5555"/>
    <path d="M38.4 43.2001H36.7999C36.3583 43.2001 36 43.5584 36 44C36 44.4419 36.3583 44.8002 36.7999 44.8002H38.4C38.842 44.8002 39.1999 44.4419 39.1999 44C39.1999 43.5584 38.842 43.2001 38.4 43.2001Z" fill="#CF5555"/>
    <path d="M39.9999 20.8005H40.7998C41.2418 20.8005 41.5997 20.4422 41.5997 20.0002C41.5997 19.5586 41.2418 19.2003 40.7998 19.2003H39.9999C39.558 19.2003 39.1997 19.5586 39.1997 20.0002C39.1997 20.4422 39.558 20.8005 39.9999 20.8005Z" fill="#CF5555"/>
    <path d="M34.3995 20.8004H36.7995C37.2415 20.8004 37.5997 20.4421 37.5997 20.0001C37.5997 19.5585 37.2415 19.2003 36.7995 19.2003H34.3995C33.9579 19.2003 33.5996 19.5585 33.5996 20.0001C33.5996 20.4421 33.9579 20.8004 34.3995 20.8004Z" fill="#CF5555"/>
</svg>
