<svg width="48" height="48" viewBox="0 0 48 48" fill="none" xmlns="http://www.w3.org/2000/svg">
    <path d="M45.3888 2.39999H2.61125C1.17124 2.39999 0 3.57124 0 5.02081V38.5823C0 40.0223 1.17124 41.1935 2.61125 41.1935H15.9169C15.5714 42.1152 14.7935 43.4206 13.104 44.2367H11.5583C11.0304 44.2367 10.5985 44.6686 10.5985 45.1965C10.5985 45.7245 11.0304 46.1564 11.5583 46.1564H36.4417C36.9696 46.1564 37.4015 45.7245 37.4015 45.1965C37.4015 44.6686 36.9696 44.2367 36.4417 44.2367H34.896C33.2162 43.4206 32.4287 42.1152 32.0831 41.1935H45.3888C46.8288 41.1935 48 40.0223 48 38.5823V5.02081C48 3.57113 46.8288 2.39999 45.3888 2.39999ZM2.61125 4.32014H45.3795C45.7636 4.32014 46.0706 4.62751 46.0706 5.01122V32.141H28.9633V23.5777C28.9633 23.4623 28.9343 23.3567 28.8962 23.2514C28.8865 23.2225 28.8769 23.2036 28.8673 23.1747C28.8576 23.1554 28.848 23.1269 28.8383 23.1076L24.8349 16.0036C24.499 15.3989 23.5005 15.3989 23.1647 16.0036L19.1613 23.1076C19.1516 23.1269 19.142 23.1554 19.1323 23.1747C19.1227 23.2036 19.113 23.2225 19.1034 23.2514C19.0648 23.3571 19.0363 23.4724 19.0363 23.5777V32.141H1.91975V5.02048C1.91975 4.63637 2.22712 4.31976 2.61123 4.31976L2.61125 4.32014ZM20.957 32.1411V24.5377H23.0402V32.1411H20.957ZM21.6384 22.6272L24.0001 18.4321L26.3618 22.6272H21.6384ZM24.96 24.5473H27.0433V32.1508H24.96V24.5473ZM31.7378 44.2374H16.2628C17.2516 43.1429 17.7125 41.9717 17.9238 41.1942H30.0579C30.2785 41.9717 30.749 43.1429 31.7378 44.2374ZM45.3891 39.2741H2.61156C2.22745 39.2741 1.92048 38.9667 1.92048 38.583V34.0709H46.0804V38.583C46.0804 38.9575 45.773 39.2741 45.3889 39.2741H45.3891Z" fill="#2F4050"/>
    <path d="M25.8427 35.7029H22.1659C21.638 35.7029 21.2061 36.1349 21.2061 36.6628C21.2061 37.1908 21.638 37.6227 22.1659 37.6227H25.8427C26.3706 37.6227 26.8025 37.1908 26.8025 36.6628C26.8025 36.1349 26.3706 35.7029 25.8427 35.7029Z" fill="#2F4050"/>
    <path d="M13.3147 16.8101C11.5484 16.9732 10.1562 18.4518 10.1562 20.2566C10.1562 22.1768 11.7212 23.7414 13.641 23.7414C15.5611 23.7414 17.1257 22.1764 17.1257 20.2566C17.1257 18.903 16.3482 17.7415 15.2152 17.1653C16.1944 14.5637 18.2584 12.5379 20.8792 11.6166C21.4457 12.7782 22.6265 13.5942 24.0087 13.5942C25.3912 13.5942 26.5721 12.7879 27.1383 11.6166C29.7495 12.5383 31.8231 14.5637 32.8022 17.1653C31.6788 17.7414 30.8918 18.903 30.8918 20.2566C30.8918 22.1768 32.4567 23.7414 34.3765 23.7414C36.2966 23.7414 37.8612 22.1764 37.8612 20.2566C37.8612 18.4518 36.469 16.9732 34.7027 16.8101C33.8867 14.4387 32.3314 12.4326 30.2866 11.0694H36.9013C37.4293 11.0694 37.8612 10.6375 37.8612 10.1095C37.8612 9.58157 37.4293 9.14965 36.9013 9.14965H27.3492C26.927 7.69997 25.6019 6.6248 24.018 6.6248C22.4342 6.6248 21.1091 7.69997 20.6867 9.14965H11.1346C10.6067 9.14965 10.1748 9.58157 10.1748 10.1095C10.1748 10.6375 10.6067 11.0694 11.1346 11.0694H17.7493C15.6858 12.4423 14.1308 14.4388 13.3148 16.8101H13.3147ZM13.641 21.8308C12.7771 21.8308 12.076 21.1301 12.076 20.2658C12.076 19.402 12.7767 18.7008 13.641 18.7008C14.5048 18.7008 15.2059 19.4015 15.2059 20.2658C15.2059 21.1301 14.5048 21.8308 13.641 21.8308ZM35.923 20.2662C35.923 21.13 35.2223 21.8312 34.3581 21.8312C33.4942 21.8312 32.7931 21.1305 32.7931 20.2662C32.7931 19.4024 33.4938 18.7012 34.3581 18.7012C35.2219 18.7012 35.923 19.4019 35.923 20.2662ZM23.9998 8.5538C24.8636 8.5538 25.5647 9.25451 25.5647 10.1188C25.5647 10.9826 24.8636 11.6833 23.9998 11.6833C23.1359 11.6833 22.4348 10.9826 22.4348 10.1184C22.4348 9.25452 23.1359 8.5538 23.9998 8.5538Z" fill="#CF5555"/>
</svg>
