<svg width="48" height="48" viewBox="0 0 48 48" fill="none" xmlns="http://www.w3.org/2000/svg">
    <path d="M32.3487 31.5468C31.9211 31.5468 31.5745 31.8935 31.5745 32.321V46.4516H8.77468V40C8.77468 39.5724 8.42805 39.2258 8.00049 39.2258H1.54887V1.54839H31.5745V15.679C31.5745 16.1065 31.9211 16.4532 32.3487 16.4532C32.7762 16.4532 33.1229 16.1065 33.1229 15.679V0.774194C33.1229 0.346632 32.7762 0 32.3487 0H0.774682C0.34712 0 0.000488281 0.346632 0.000488281 0.774194V40C0.000488281 40.0259 0.00183022 40.0517 0.00441086 40.0773C0.00626893 40.0961 0.00946892 40.1144 0.0126689 40.1327C0.0138044 40.1393 0.0144238 40.146 0.0156625 40.1525C0.019998 40.1741 0.0255721 40.1954 0.0316625 40.2164C0.0325915 40.2195 0.0331076 40.2227 0.0340367 40.2258C0.0405399 40.2471 0.0482818 40.268 0.0565399 40.2885C0.0576754 40.2913 0.0585012 40.2942 0.0596367 40.297C0.0676883 40.3164 0.0769786 40.3354 0.0865786 40.354C0.0885399 40.3578 0.0900883 40.3617 0.0921528 40.3655C0.10134 40.3828 0.111662 40.3993 0.122191 40.4156C0.125288 40.4205 0.128075 40.4257 0.131275 40.4306C0.141701 40.4461 0.153262 40.461 0.164721 40.4758C0.168746 40.4809 0.172256 40.4864 0.176385 40.4914C0.192488 40.5109 0.209417 40.5298 0.227275 40.5476L7.45277 47.7731C7.47063 47.791 7.48942 47.808 7.50903 47.8241C7.51409 47.8282 7.51956 47.8317 7.52462 47.8358C7.53938 47.8473 7.55424 47.8588 7.56983 47.8692C7.57468 47.8725 7.57984 47.8752 7.5848 47.8783C7.60121 47.8887 7.61773 47.899 7.63496 47.9083C7.63868 47.9104 7.64271 47.9119 7.64652 47.9139C7.66521 47.9235 7.6841 47.9328 7.70351 47.9408C7.70629 47.942 7.70918 47.9428 7.71187 47.9438C7.73241 47.9521 7.75326 47.9598 7.77463 47.9664C7.77773 47.9673 7.78093 47.9679 7.78402 47.9687C7.80498 47.9749 7.82624 47.9805 7.84792 47.9848C7.85442 47.9862 7.86113 47.9867 7.86763 47.9878C7.88601 47.991 7.90428 47.9942 7.92307 47.9961C7.94867 47.9987 7.97447 48 8.00038 48H32.3486C32.7761 48 33.1227 47.6534 33.1227 47.2258V32.321C33.1229 31.8935 32.7762 31.5468 32.3487 31.5468ZM7.22629 45.3568L2.64369 40.7742H7.22629V45.3568Z" fill="#2F4050"/>
    <path d="M27.1872 41.8064C27.6147 41.8064 27.9614 41.4598 27.9614 41.0322C27.9614 40.6047 27.6147 40.2581 27.1872 40.2581H20.5393C20.1118 40.2581 19.7651 40.6047 19.7651 41.0322C19.7651 41.4598 20.1118 41.8064 20.5393 41.8064H27.1872Z" fill="#2F4050"/>
    <path d="M27.1872 7.2258H5.93581C5.50825 7.2258 5.16162 7.57243 5.16162 7.99999C5.16162 8.42755 5.50825 8.77419 5.93581 8.77419H27.1872C27.6148 8.77419 27.9614 8.42755 27.9614 7.99999C27.9614 7.57243 27.6148 7.2258 27.1872 7.2258Z" fill="#2F4050"/>
    <path d="M27.1872 11.3547H5.93581C5.50825 11.3547 5.16162 11.7014 5.16162 12.1289C5.16162 12.5565 5.50825 12.9031 5.93581 12.9031H27.1872C27.6148 12.9031 27.9614 12.5565 27.9614 12.1289C27.9614 11.7014 27.6148 11.3547 27.1872 11.3547Z" fill="#2F4050"/>
    <path d="M27.1872 15.4838H5.93581C5.50825 15.4838 5.16162 15.8304 5.16162 16.258C5.16162 16.6856 5.50825 17.0322 5.93581 17.0322H27.1872C27.6148 17.0322 27.9614 16.6856 27.9614 16.258C27.9614 15.8304 27.6148 15.4838 27.1872 15.4838Z" fill="#2F4050"/>
    <path d="M27.9614 20.387C27.9614 19.9594 27.6148 19.6128 27.1872 19.6128H5.93581C5.50825 19.6128 5.16162 19.9594 5.16162 20.387C5.16162 20.8145 5.50825 21.1612 5.93581 21.1612H27.1872C27.6148 21.1612 27.9614 20.8145 27.9614 20.387Z" fill="#2F4050"/>
    <path d="M24.2854 24.5161C24.2854 24.0886 23.9388 23.7419 23.5112 23.7419H5.93581C5.50825 23.7419 5.16162 24.0886 5.16162 24.5161C5.16162 24.9437 5.50825 25.2903 5.93581 25.2903H23.5113C23.9389 25.2903 24.2854 24.9437 24.2854 24.5161Z" fill="#2F4050"/>
    <path d="M5.93581 27.8708C5.50825 27.8708 5.16162 28.2175 5.16162 28.645C5.16162 29.0726 5.50825 29.4192 5.93581 29.4192H16.5616C16.9891 29.4192 17.3358 29.0726 17.3358 28.645C17.3358 28.2175 16.9891 27.8708 16.5616 27.8708H5.93581Z" fill="#2F4050"/>
    <path d="M46.9585 9.39003C46.2867 8.71824 45.3924 8.34818 44.4403 8.34818C43.4881 8.34818 42.5939 8.71814 41.9221 9.38993L39.5134 11.7987H39.5133H39.5132L37.3237 13.9882H37.3236C37.3235 13.9883 37.3235 13.9883 37.3235 13.9883L21.6731 29.639C21.6513 29.6607 21.6316 29.6837 21.613 29.7073C21.6083 29.7133 21.6039 29.7197 21.5993 29.7259C21.5853 29.7447 21.5722 29.7639 21.5603 29.7835C21.5581 29.7871 21.5555 29.7901 21.5534 29.7937L16.994 37.5375C16.8014 37.7686 16.6968 38.057 16.6968 38.3615C16.6968 38.7062 16.831 39.0302 17.0747 39.2739C17.3184 39.5176 17.6424 39.6518 17.9871 39.6518C18.2916 39.6518 18.58 39.5471 18.8112 39.3546L26.5549 34.7952C26.5586 34.793 26.5617 34.7904 26.5653 34.7882C26.5849 34.7763 26.6039 34.7633 26.6226 34.7494C26.6289 34.7448 26.6353 34.7403 26.6414 34.7355C26.665 34.7169 26.6879 34.6972 26.7096 34.6754L42.3598 19.025C42.3598 19.025 42.3599 19.025 42.3599 19.0249C42.3599 19.0248 42.3601 19.0248 42.3601 19.0248L44.5497 16.8352H44.5498H44.5499L46.9586 14.4265C48.347 13.0379 48.347 10.7785 46.9585 9.39003ZM41.8125 17.3826L38.9659 14.5358L40.0608 13.441L42.9076 16.2877L41.8125 17.3826ZM26.1621 33.0331L23.3154 30.1864L37.8711 15.6308L40.7177 18.4774L26.1621 33.0331ZM21.6916 35.8618L20.4868 34.657L22.3803 31.4411L24.9075 33.9683L21.6916 35.8618ZM18.7618 37.5868L19.6754 36.0352L20.3134 36.6732L18.7618 37.5868ZM45.8636 13.3315L44.0024 15.1928L41.1556 12.3461L43.017 10.4847C43.3963 10.1054 43.9018 9.89646 44.4404 9.89646C44.9789 9.89646 45.4843 10.1054 45.8637 10.4847C46.2431 10.8641 46.452 11.3696 46.452 11.9081C46.452 12.4467 46.243 12.9523 45.8636 13.3315Z" fill="#CF5555"/>
</svg>
