<svg width="48" height="48" viewBox="0 0 48 48" fill="none" xmlns="http://www.w3.org/2000/svg">
    <path d="M17.0286 17.6709C16.888 17.5299 16.6971 17.4509 16.4979 17.4509C16.299 17.4509 16.1082 17.5299 15.9676 17.6709L10.7177 22.9208C10.5767 23.0614 10.4977 23.2523 10.4977 23.4515C10.4977 23.6504 10.5767 23.8412 10.7177 23.9818L15.9676 29.2317C16.2605 29.525 16.7356 29.525 17.0286 29.2317C17.3216 28.9388 17.3216 28.4637 17.0286 28.1707L12.3114 23.4495L17.0286 18.7282C17.3196 18.4359 17.3196 17.9632 17.0286 17.6709L17.0286 17.6709Z" fill="#CF5555"/>
    <path d="M28.0604 14.5175C27.8789 14.4351 27.672 14.4284 27.4855 14.4988C27.299 14.5691 27.1484 14.7107 27.0667 14.8925L19.5668 31.3922C19.4747 31.5744 19.461 31.7866 19.529 31.9795C19.597 32.172 19.7406 32.3287 19.9267 32.4131C20.1126 32.4974 20.3252 32.5021 20.515 32.4261C20.7045 32.3505 20.8552 32.2005 20.9315 32.011L28.4314 15.5112C28.5141 15.3301 28.5215 15.1239 28.4518 14.9374C28.3822 14.7509 28.2412 14.5999 28.0604 14.5175L28.0604 14.5175Z" fill="#CF5555"/>
    <path d="M32.0281 17.6709C31.7351 17.378 31.26 17.378 30.967 17.6709C30.6737 17.9639 30.6737 18.439 30.967 18.732L35.6879 23.4495L30.9707 28.1708C30.6778 28.4637 30.6778 28.9388 30.9707 29.2318C31.2637 29.5251 31.7388 29.5251 32.0318 29.2318L37.2817 23.9819C37.4226 23.8413 37.5016 23.6504 37.5016 23.4515C37.5016 23.2523 37.4226 23.0615 37.2817 22.9209L32.0281 17.6709Z" fill="#CF5555"/>
    <path d="M45.7492 3.2H2.24996C1.65466 3.20502 1.08547 3.4434 0.664274 3.86427C0.243407 4.28547 0.00502277 4.85468 0 5.44996V36.9494C0.00502225 37.5447 0.243407 38.1139 0.664274 38.5351C1.08547 38.9559 1.65468 39.1943 2.24996 39.1994H23.2496V43.6993H11.6252C11.2111 43.6993 10.8752 44.0351 10.8752 44.4493C10.8752 44.8634 11.2111 45.1992 11.6252 45.1992H36.3748C36.7889 45.1992 37.1248 44.8634 37.1248 44.4493C37.1248 44.0351 36.7889 43.6993 36.3748 43.6993H24.7504V39.1994H45.75C46.3453 39.1943 46.9145 38.9559 47.3357 38.5351C47.7566 38.1139 47.995 37.5447 48 36.9494V5.44996C47.995 4.85466 47.7566 4.28546 47.3357 3.86427C46.9145 3.4434 46.3453 3.20502 45.75 3.2H45.7492ZM2.24996 4.69997H45.7492C45.9481 4.69997 46.1389 4.77899 46.2795 4.91961C46.4202 5.06023 46.4992 5.25108 46.4992 5.44996V9.19989H1.49997V5.44996C1.49997 5.03579 1.8358 4.69997 2.24996 4.69997ZM45.7492 37.6994H2.24996C1.8358 37.6994 1.49997 37.3636 1.49997 36.9494V10.6999H46.4992V36.9494C46.4992 37.1483 46.4202 37.3391 46.2795 37.4797C46.1389 37.6204 45.9481 37.6994 45.7492 37.6994Z" fill="#2F4050"/>
    <path d="M44.249 6.94998C44.249 7.36415 43.9132 7.69997 43.499 7.69997C43.0848 7.69997 42.749 7.36415 42.749 6.94998C42.749 6.53582 43.0848 6.2 43.499 6.2C43.9132 6.2 44.249 6.53582 44.249 6.94998Z" fill="#2F4050"/>
    <path d="M41.2495 6.94998C41.2495 7.36415 40.9137 7.69997 40.4995 7.69997C40.0853 7.69997 39.7495 7.36415 39.7495 6.94998C39.7495 6.53582 40.0853 6.2 40.4995 6.2C40.9137 6.2 41.2495 6.53582 41.2495 6.94998Z" fill="#2F4050"/>
    <path d="M38.2495 6.94998C38.2495 7.36415 37.9137 7.69997 37.4995 7.69997C37.0853 7.69997 36.7495 7.36415 36.7495 6.94998C36.7495 6.53582 37.0853 6.2 37.4995 6.2C37.9137 6.2 38.2495 6.53582 38.2495 6.94998Z" fill="#2F4050"/>
</svg>
