<svg width="60" height="60" viewBox="0 0 60 60" fill="none" xmlns="http://www.w3.org/2000/svg">
    <g clip-path="url(#clip0_401_288)">
        <mask id="path-1-outside-1_401_288" maskUnits="userSpaceOnUse" x="-1" y="-1" width="62" height="62" fill="black">
            <rect fill="white" x="-1" y="-1" width="62" height="62"/>
            <path d="M57.1014 24.4485H52.2939C51.7452 22.2163 50.8719 20.1069 49.6921 18.1631L53.0967 14.7586C54.2253 13.6304 54.2253 11.794 53.0967 10.6658L49.3342 6.90333C48.2055 5.7747 46.3696 5.77517 45.2414 6.90333L41.8369 10.3079C39.8931 9.12807 37.7837 8.25476 35.5515 7.70607V2.89857C35.5515 1.30024 34.2508 0 32.6525 0H27.347C25.7492 0 24.4485 1.30024 24.4485 2.89857V7.70607C22.2163 8.25481 20.1069 9.12809 18.1631 10.3079L14.7586 6.90333C13.6304 5.77517 11.794 5.7747 10.6658 6.90333L6.90333 10.6658C5.7747 11.794 5.7747 13.6304 6.90333 14.7586L10.3079 18.1631C9.12807 20.1069 8.25476 22.2163 7.70607 24.4485H2.89857C1.30024 24.4485 0 25.7492 0 27.3475V32.653C0 34.2508 1.30024 35.5515 2.89857 35.5515H7.70607C8.25481 37.7837 9.12809 39.8931 10.3079 41.8369L6.90333 45.2414C5.7747 46.3696 5.7747 48.206 6.90333 49.3342L10.6658 53.0967C11.2299 53.6608 11.9712 53.9435 12.712 53.9435C13.4533 53.9435 14.1945 53.6617 14.7586 53.0967L18.1631 49.6921C20.1069 50.8719 22.2163 51.7452 24.4485 52.2939V57.1014C24.4485 58.6993 25.7492 60 27.347 60H32.6525C34.2504 60 35.5511 58.6998 35.5511 57.1014V52.2939C37.7832 51.7452 39.8926 50.8719 41.8364 49.6921L45.241 53.0967C45.805 53.6608 46.5463 53.9435 47.2875 53.9435C48.0283 53.9435 48.7695 53.6617 49.3337 53.0967L53.0962 49.3342C54.2248 48.206 54.2248 46.3696 53.0962 45.2414L49.6917 41.8369C50.8715 39.8931 51.7448 37.7837 52.2935 35.5515H57.101C58.6988 35.5515 59.9995 34.2508 59.9995 32.653V27.3475C60 25.7492 58.6998 24.4485 57.1014 24.4485ZM58.6667 32.6525C58.6667 33.5161 57.9645 34.2177 57.1014 34.2177H51.7704C51.7504 34.2177 51.7332 34.228 51.7136 34.2289C51.6657 34.2331 51.6211 34.2429 51.5755 34.2568C51.5374 34.2689 51.5016 34.2814 51.4667 34.2996C51.4267 34.32 51.3914 34.3456 51.3565 34.3735C51.3244 34.3996 51.2951 34.4256 51.2686 34.4568C51.2407 34.4893 51.2184 34.5242 51.1979 34.5623C51.176 34.6019 51.1579 34.6405 51.144 34.6837C51.1374 34.7037 51.124 34.719 51.1193 34.7395C50.5771 37.1902 49.6251 39.4902 48.2887 41.5764C48.2776 41.5945 48.2762 41.615 48.2669 41.6331C48.2455 41.6745 48.2301 41.715 48.218 41.7587C48.2069 41.7992 48.198 41.8387 48.1939 41.8801C48.1906 41.9228 48.192 41.9633 48.1966 42.0061C48.2013 42.0489 48.2078 42.0889 48.2208 42.1303C48.2329 42.1702 48.2501 42.2061 48.2701 42.2442C48.2915 42.2842 48.3148 42.3209 48.345 42.3563C48.3585 42.3721 48.3636 42.3921 48.3789 42.407L52.1541 46.1821C52.7628 46.7908 52.7628 47.7809 52.1541 48.3896L48.3916 52.1521C47.7828 52.7608 46.7937 52.7613 46.1841 52.1521L42.4089 48.3769C42.3941 48.3621 42.3741 48.3565 42.3582 48.3435C42.3224 48.3132 42.2848 48.2895 42.2443 48.2677C42.2076 48.2481 42.1722 48.2319 42.1336 48.2198C42.0909 48.2063 42.049 48.1993 42.0044 48.1947C41.9639 48.1905 41.9248 48.1886 41.8844 48.1919C41.8411 48.1951 41.7998 48.2044 41.757 48.2165C41.7142 48.2286 41.6751 48.2439 41.6351 48.2644C41.6165 48.2746 41.5956 48.2751 41.5779 48.2872C39.4919 49.6237 37.1913 50.5765 34.741 51.1178C34.7206 51.1224 34.7052 51.1364 34.6852 51.1424C34.641 51.1564 34.602 51.1745 34.5625 51.1964C34.5253 51.2168 34.4913 51.2392 34.4592 51.2657C34.4267 51.2936 34.3992 51.3238 34.3727 51.3568C34.3462 51.3903 34.322 51.4233 34.302 51.4615C34.2825 51.4982 34.2695 51.5363 34.2569 51.5763C34.2435 51.6196 34.2342 51.6623 34.2304 51.7088C34.2286 51.7293 34.2183 51.747 34.2183 51.7684V57.0994C34.2183 57.9621 33.5162 58.6647 32.6531 58.6647H27.3476C26.4841 58.6647 25.7824 57.9625 25.7824 57.0994V51.7684C25.7824 51.7479 25.7722 51.7298 25.7703 51.7088C25.7661 51.6628 25.7568 51.62 25.7438 51.5763C25.7317 51.5359 25.7178 51.4982 25.6987 51.4615C25.6787 51.4233 25.6545 51.3903 25.628 51.3568C25.6015 51.3233 25.5741 51.2936 25.5415 51.2657C25.5094 51.2382 25.4755 51.2168 25.4383 51.1964C25.3987 51.1745 25.3597 51.1564 25.3155 51.1424C25.2955 51.1359 25.2802 51.1224 25.2597 51.1178C22.809 50.5756 20.509 49.6236 18.4228 48.2872C18.4047 48.276 18.3842 48.2746 18.3656 48.2653C18.3251 48.2439 18.2852 48.2286 18.2414 48.2165C18.2 48.2044 18.1601 48.196 18.1173 48.1923C18.0754 48.1891 18.0354 48.1909 17.9931 48.1951C17.9499 48.1998 17.9089 48.2063 17.8675 48.2193C17.8275 48.2314 17.7917 48.2486 17.7541 48.2686C17.7141 48.29 17.6773 48.3132 17.642 48.3425C17.6262 48.356 17.6062 48.3611 17.5908 48.3765L13.8157 52.1516C13.2065 52.7608 12.2169 52.7603 11.6082 52.1516L7.84573 48.3891C7.237 47.7804 7.237 46.7903 7.84573 46.1816L11.6208 42.4065C11.6362 42.3911 11.6413 42.3716 11.6548 42.3558C11.6841 42.3205 11.7083 42.2837 11.7297 42.2437C11.7497 42.2065 11.7664 42.1698 11.779 42.1298C11.7915 42.0884 11.7985 42.0484 11.8031 42.0056C11.8078 41.9628 11.8096 41.9224 11.8059 41.8796C11.8027 41.8382 11.7938 41.7991 11.7817 41.7582C11.7697 41.7141 11.7543 41.6736 11.7329 41.6327C11.7236 41.6141 11.7222 41.5931 11.7111 41.5759C10.3745 39.4899 9.42178 37.1893 8.88047 34.739C8.87582 34.7186 8.86187 34.7032 8.85582 34.6832C8.84187 34.6391 8.82374 34.6 8.80188 34.5605C8.78142 34.5233 8.7591 34.4893 8.73166 34.4572C8.70422 34.4247 8.67446 34.3977 8.64098 34.3712C8.60703 34.3438 8.57309 34.32 8.53449 34.2991C8.49868 34.2796 8.46101 34.267 8.42195 34.2545C8.37731 34.2405 8.33406 34.2312 8.28709 34.227C8.2671 34.2252 8.24989 34.215 8.22896 34.215L2.89885 34.2154C2.03575 34.2177 1.33361 33.516 1.33361 32.6524V27.347C1.33361 26.4834 2.0358 25.7817 2.89885 25.7817H8.22992H8.23038C8.31455 25.7817 8.395 25.7631 8.47126 25.7329C8.49731 25.7227 8.5187 25.7069 8.54241 25.6934C8.58892 25.6683 8.63309 25.6413 8.67309 25.6055C8.69634 25.585 8.71448 25.5608 8.73448 25.5367C8.76563 25.4994 8.79307 25.4599 8.81632 25.4153C8.83167 25.3851 8.84376 25.3553 8.85445 25.3227C8.86189 25.3009 8.87584 25.2823 8.88096 25.2586C9.42319 22.8079 10.3751 20.5079 11.7116 18.4217C11.7227 18.4035 11.7241 18.3831 11.7334 18.3649C11.7548 18.3235 11.7701 18.2831 11.7822 18.2394C11.7934 18.1989 11.8022 18.1594 11.8064 18.118C11.8097 18.0752 11.8083 18.0348 11.8036 17.992C11.799 17.9492 11.7925 17.9092 11.7794 17.8678C11.7674 17.8278 11.7502 17.792 11.7302 17.7539C11.7088 17.7139 11.6855 17.6771 11.6553 17.6418C11.6418 17.626 11.6367 17.606 11.6213 17.5911L7.84622 13.816C7.23749 13.2073 7.23749 12.2172 7.84622 11.6085L11.6087 7.846C12.2174 7.23727 13.2066 7.23681 13.8162 7.846L17.5913 11.6211C17.5941 11.6239 17.5974 11.6244 17.6002 11.6272C17.6569 11.6825 17.722 11.7239 17.7922 11.7546C17.808 11.762 17.8243 11.7671 17.8411 11.7732C17.9122 11.7983 17.9866 11.816 18.062 11.8164H18.0634H18.0638C18.1392 11.8164 18.214 11.7992 18.2866 11.7732C18.308 11.7657 18.327 11.755 18.3479 11.7453C18.3726 11.7332 18.3991 11.7267 18.4228 11.7113C20.5089 10.3748 22.8095 9.42205 25.2597 8.88074C25.2802 8.87609 25.2955 8.86214 25.3155 8.85609C25.3597 8.84214 25.3988 8.824 25.4383 8.80215C25.4755 8.78169 25.5094 8.75936 25.5415 8.73286C25.5741 8.70496 25.6015 8.67473 25.628 8.64171C25.6545 8.60823 25.6787 8.57521 25.6987 8.53708C25.7182 8.50034 25.7313 8.46221 25.7438 8.42222C25.7573 8.37897 25.7666 8.33619 25.7703 8.28968C25.7722 8.26922 25.7824 8.25155 25.7824 8.23016L25.7829 2.89861C25.7824 2.03552 26.4841 1.33337 27.3478 1.33337H32.6532C33.5168 1.33337 34.2185 2.03556 34.2185 2.89861V8.22968C34.2185 8.25014 34.2287 8.26828 34.2306 8.28921C34.2347 8.33525 34.244 8.37803 34.2571 8.42174C34.2692 8.4622 34.2831 8.49987 34.3022 8.5366C34.3222 8.57474 34.3464 8.60775 34.3729 8.64124C34.3994 8.67472 34.4268 8.70448 34.4594 8.73238C34.4914 8.75982 34.5254 8.78121 34.5626 8.80167C34.6021 8.82353 34.6412 8.84166 34.6854 8.85561C34.7054 8.86212 34.7207 8.87561 34.7412 8.88026C37.1919 9.42249 39.4919 10.3744 41.5781 11.7109C41.6022 11.7262 41.6283 11.7327 41.6529 11.7448C41.6734 11.755 41.6929 11.7653 41.7143 11.7727C41.7869 11.7987 41.8617 11.816 41.9371 11.816H41.9375H41.9389C42.0147 11.816 42.0882 11.7978 42.1598 11.7727C42.1766 11.7667 42.1919 11.7615 42.2087 11.7541C42.2789 11.7229 42.344 11.6816 42.4007 11.6267C42.4035 11.6239 42.4068 11.6234 42.4095 11.6206L46.1847 7.84552C46.7939 7.23633 47.7835 7.2368 48.3922 7.84552L52.1547 11.608C52.7634 12.2168 52.7634 13.2068 52.1547 13.8155L48.3795 17.5906C48.3642 17.606 48.3591 17.6255 48.3456 17.6413C48.3163 17.6767 48.2921 17.7134 48.2707 17.7534C48.2507 17.7906 48.234 17.8273 48.2214 17.8673C48.2089 17.9087 48.2019 17.9487 48.1973 17.9915C48.1926 18.0343 48.1907 18.0747 48.1945 18.1175C48.1977 18.1589 48.2066 18.198 48.2186 18.2389C48.2307 18.2831 48.2461 18.3235 48.2675 18.3645C48.2768 18.3831 48.2782 18.404 48.2893 18.4212C49.6259 20.5073 50.5786 22.8079 51.1199 25.2581C51.125 25.2813 51.1385 25.2999 51.1464 25.3223C51.1571 25.3548 51.1692 25.385 51.1846 25.4148C51.2074 25.4594 51.2348 25.499 51.2659 25.5362C51.2859 25.5604 51.3045 25.5836 51.3278 25.605C51.3673 25.6403 51.411 25.6678 51.458 25.6929C51.4822 25.7064 51.5031 25.7222 51.5292 25.7324C51.605 25.7626 51.6849 25.7812 51.77 25.7812H51.7705H57.1016C57.9642 25.7812 58.6668 26.4834 58.6668 27.3465L58.6667 32.6525Z"/>
        </mask>
        <path d="M57.1014 24.4485H52.2939C51.7452 22.2163 50.8719 20.1069 49.6921 18.1631L53.0967 14.7586C54.2253 13.6304 54.2253 11.794 53.0967 10.6658L49.3342 6.90333C48.2055 5.7747 46.3696 5.77517 45.2414 6.90333L41.8369 10.3079C39.8931 9.12807 37.7837 8.25476 35.5515 7.70607V2.89857C35.5515 1.30024 34.2508 0 32.6525 0H27.347C25.7492 0 24.4485 1.30024 24.4485 2.89857V7.70607C22.2163 8.25481 20.1069 9.12809 18.1631 10.3079L14.7586 6.90333C13.6304 5.77517 11.794 5.7747 10.6658 6.90333L6.90333 10.6658C5.7747 11.794 5.7747 13.6304 6.90333 14.7586L10.3079 18.1631C9.12807 20.1069 8.25476 22.2163 7.70607 24.4485H2.89857C1.30024 24.4485 0 25.7492 0 27.3475V32.653C0 34.2508 1.30024 35.5515 2.89857 35.5515H7.70607C8.25481 37.7837 9.12809 39.8931 10.3079 41.8369L6.90333 45.2414C5.7747 46.3696 5.7747 48.206 6.90333 49.3342L10.6658 53.0967C11.2299 53.6608 11.9712 53.9435 12.712 53.9435C13.4533 53.9435 14.1945 53.6617 14.7586 53.0967L18.1631 49.6921C20.1069 50.8719 22.2163 51.7452 24.4485 52.2939V57.1014C24.4485 58.6993 25.7492 60 27.347 60H32.6525C34.2504 60 35.5511 58.6998 35.5511 57.1014V52.2939C37.7832 51.7452 39.8926 50.8719 41.8364 49.6921L45.241 53.0967C45.805 53.6608 46.5463 53.9435 47.2875 53.9435C48.0283 53.9435 48.7695 53.6617 49.3337 53.0967L53.0962 49.3342C54.2248 48.206 54.2248 46.3696 53.0962 45.2414L49.6917 41.8369C50.8715 39.8931 51.7448 37.7837 52.2935 35.5515H57.101C58.6988 35.5515 59.9995 34.2508 59.9995 32.653V27.3475C60 25.7492 58.6998 24.4485 57.1014 24.4485ZM58.6667 32.6525C58.6667 33.5161 57.9645 34.2177 57.1014 34.2177H51.7704C51.7504 34.2177 51.7332 34.228 51.7136 34.2289C51.6657 34.2331 51.6211 34.2429 51.5755 34.2568C51.5374 34.2689 51.5016 34.2814 51.4667 34.2996C51.4267 34.32 51.3914 34.3456 51.3565 34.3735C51.3244 34.3996 51.2951 34.4256 51.2686 34.4568C51.2407 34.4893 51.2184 34.5242 51.1979 34.5623C51.176 34.6019 51.1579 34.6405 51.144 34.6837C51.1374 34.7037 51.124 34.719 51.1193 34.7395C50.5771 37.1902 49.6251 39.4902 48.2887 41.5764C48.2776 41.5945 48.2762 41.615 48.2669 41.6331C48.2455 41.6745 48.2301 41.715 48.218 41.7587C48.2069 41.7992 48.198 41.8387 48.1939 41.8801C48.1906 41.9228 48.192 41.9633 48.1966 42.0061C48.2013 42.0489 48.2078 42.0889 48.2208 42.1303C48.2329 42.1702 48.2501 42.2061 48.2701 42.2442C48.2915 42.2842 48.3148 42.3209 48.345 42.3563C48.3585 42.3721 48.3636 42.3921 48.3789 42.407L52.1541 46.1821C52.7628 46.7908 52.7628 47.7809 52.1541 48.3896L48.3916 52.1521C47.7828 52.7608 46.7937 52.7613 46.1841 52.1521L42.4089 48.3769C42.3941 48.3621 42.3741 48.3565 42.3582 48.3435C42.3224 48.3132 42.2848 48.2895 42.2443 48.2677C42.2076 48.2481 42.1722 48.2319 42.1336 48.2198C42.0909 48.2063 42.049 48.1993 42.0044 48.1947C41.9639 48.1905 41.9248 48.1886 41.8844 48.1919C41.8411 48.1951 41.7998 48.2044 41.757 48.2165C41.7142 48.2286 41.6751 48.2439 41.6351 48.2644C41.6165 48.2746 41.5956 48.2751 41.5779 48.2872C39.4919 49.6237 37.1913 50.5765 34.741 51.1178C34.7206 51.1224 34.7052 51.1364 34.6852 51.1424C34.641 51.1564 34.602 51.1745 34.5625 51.1964C34.5253 51.2168 34.4913 51.2392 34.4592 51.2657C34.4267 51.2936 34.3992 51.3238 34.3727 51.3568C34.3462 51.3903 34.322 51.4233 34.302 51.4615C34.2825 51.4982 34.2695 51.5363 34.2569 51.5763C34.2435 51.6196 34.2342 51.6623 34.2304 51.7088C34.2286 51.7293 34.2183 51.747 34.2183 51.7684V57.0994C34.2183 57.9621 33.5162 58.6647 32.6531 58.6647H27.3476C26.4841 58.6647 25.7824 57.9625 25.7824 57.0994V51.7684C25.7824 51.7479 25.7722 51.7298 25.7703 51.7088C25.7661 51.6628 25.7568 51.62 25.7438 51.5763C25.7317 51.5359 25.7178 51.4982 25.6987 51.4615C25.6787 51.4233 25.6545 51.3903 25.628 51.3568C25.6015 51.3233 25.5741 51.2936 25.5415 51.2657C25.5094 51.2382 25.4755 51.2168 25.4383 51.1964C25.3987 51.1745 25.3597 51.1564 25.3155 51.1424C25.2955 51.1359 25.2802 51.1224 25.2597 51.1178C22.809 50.5756 20.509 49.6236 18.4228 48.2872C18.4047 48.276 18.3842 48.2746 18.3656 48.2653C18.3251 48.2439 18.2852 48.2286 18.2414 48.2165C18.2 48.2044 18.1601 48.196 18.1173 48.1923C18.0754 48.1891 18.0354 48.1909 17.9931 48.1951C17.9499 48.1998 17.9089 48.2063 17.8675 48.2193C17.8275 48.2314 17.7917 48.2486 17.7541 48.2686C17.7141 48.29 17.6773 48.3132 17.642 48.3425C17.6262 48.356 17.6062 48.3611 17.5908 48.3765L13.8157 52.1516C13.2065 52.7608 12.2169 52.7603 11.6082 52.1516L7.84573 48.3891C7.237 47.7804 7.237 46.7903 7.84573 46.1816L11.6208 42.4065C11.6362 42.3911 11.6413 42.3716 11.6548 42.3558C11.6841 42.3205 11.7083 42.2837 11.7297 42.2437C11.7497 42.2065 11.7664 42.1698 11.779 42.1298C11.7915 42.0884 11.7985 42.0484 11.8031 42.0056C11.8078 41.9628 11.8096 41.9224 11.8059 41.8796C11.8027 41.8382 11.7938 41.7991 11.7817 41.7582C11.7697 41.7141 11.7543 41.6736 11.7329 41.6327C11.7236 41.6141 11.7222 41.5931 11.7111 41.5759C10.3745 39.4899 9.42178 37.1893 8.88047 34.739C8.87582 34.7186 8.86187 34.7032 8.85582 34.6832C8.84187 34.6391 8.82374 34.6 8.80188 34.5605C8.78142 34.5233 8.7591 34.4893 8.73166 34.4572C8.70422 34.4247 8.67446 34.3977 8.64098 34.3712C8.60703 34.3438 8.57309 34.32 8.53449 34.2991C8.49868 34.2796 8.46101 34.267 8.42195 34.2545C8.37731 34.2405 8.33406 34.2312 8.28709 34.227C8.2671 34.2252 8.24989 34.215 8.22896 34.215L2.89885 34.2154C2.03575 34.2177 1.33361 33.516 1.33361 32.6524V27.347C1.33361 26.4834 2.0358 25.7817 2.89885 25.7817H8.22992H8.23038C8.31455 25.7817 8.395 25.7631 8.47126 25.7329C8.49731 25.7227 8.5187 25.7069 8.54241 25.6934C8.58892 25.6683 8.63309 25.6413 8.67309 25.6055C8.69634 25.585 8.71448 25.5608 8.73448 25.5367C8.76563 25.4994 8.79307 25.4599 8.81632 25.4153C8.83167 25.3851 8.84376 25.3553 8.85445 25.3227C8.86189 25.3009 8.87584 25.2823 8.88096 25.2586C9.42319 22.8079 10.3751 20.5079 11.7116 18.4217C11.7227 18.4035 11.7241 18.3831 11.7334 18.3649C11.7548 18.3235 11.7701 18.2831 11.7822 18.2394C11.7934 18.1989 11.8022 18.1594 11.8064 18.118C11.8097 18.0752 11.8083 18.0348 11.8036 17.992C11.799 17.9492 11.7925 17.9092 11.7794 17.8678C11.7674 17.8278 11.7502 17.792 11.7302 17.7539C11.7088 17.7139 11.6855 17.6771 11.6553 17.6418C11.6418 17.626 11.6367 17.606 11.6213 17.5911L7.84622 13.816C7.23749 13.2073 7.23749 12.2172 7.84622 11.6085L11.6087 7.846C12.2174 7.23727 13.2066 7.23681 13.8162 7.846L17.5913 11.6211C17.5941 11.6239 17.5974 11.6244 17.6002 11.6272C17.6569 11.6825 17.722 11.7239 17.7922 11.7546C17.808 11.762 17.8243 11.7671 17.8411 11.7732C17.9122 11.7983 17.9866 11.816 18.062 11.8164H18.0634H18.0638C18.1392 11.8164 18.214 11.7992 18.2866 11.7732C18.308 11.7657 18.327 11.755 18.3479 11.7453C18.3726 11.7332 18.3991 11.7267 18.4228 11.7113C20.5089 10.3748 22.8095 9.42205 25.2597 8.88074C25.2802 8.87609 25.2955 8.86214 25.3155 8.85609C25.3597 8.84214 25.3988 8.824 25.4383 8.80215C25.4755 8.78169 25.5094 8.75936 25.5415 8.73286C25.5741 8.70496 25.6015 8.67473 25.628 8.64171C25.6545 8.60823 25.6787 8.57521 25.6987 8.53708C25.7182 8.50034 25.7313 8.46221 25.7438 8.42222C25.7573 8.37897 25.7666 8.33619 25.7703 8.28968C25.7722 8.26922 25.7824 8.25155 25.7824 8.23016L25.7829 2.89861C25.7824 2.03552 26.4841 1.33337 27.3478 1.33337H32.6532C33.5168 1.33337 34.2185 2.03556 34.2185 2.89861V8.22968C34.2185 8.25014 34.2287 8.26828 34.2306 8.28921C34.2347 8.33525 34.244 8.37803 34.2571 8.42174C34.2692 8.4622 34.2831 8.49987 34.3022 8.5366C34.3222 8.57474 34.3464 8.60775 34.3729 8.64124C34.3994 8.67472 34.4268 8.70448 34.4594 8.73238C34.4914 8.75982 34.5254 8.78121 34.5626 8.80167C34.6021 8.82353 34.6412 8.84166 34.6854 8.85561C34.7054 8.86212 34.7207 8.87561 34.7412 8.88026C37.1919 9.42249 39.4919 10.3744 41.5781 11.7109C41.6022 11.7262 41.6283 11.7327 41.6529 11.7448C41.6734 11.755 41.6929 11.7653 41.7143 11.7727C41.7869 11.7987 41.8617 11.816 41.9371 11.816H41.9375H41.9389C42.0147 11.816 42.0882 11.7978 42.1598 11.7727C42.1766 11.7667 42.1919 11.7615 42.2087 11.7541C42.2789 11.7229 42.344 11.6816 42.4007 11.6267C42.4035 11.6239 42.4068 11.6234 42.4095 11.6206L46.1847 7.84552C46.7939 7.23633 47.7835 7.2368 48.3922 7.84552L52.1547 11.608C52.7634 12.2168 52.7634 13.2068 52.1547 13.8155L48.3795 17.5906C48.3642 17.606 48.3591 17.6255 48.3456 17.6413C48.3163 17.6767 48.2921 17.7134 48.2707 17.7534C48.2507 17.7906 48.234 17.8273 48.2214 17.8673C48.2089 17.9087 48.2019 17.9487 48.1973 17.9915C48.1926 18.0343 48.1907 18.0747 48.1945 18.1175C48.1977 18.1589 48.2066 18.198 48.2186 18.2389C48.2307 18.2831 48.2461 18.3235 48.2675 18.3645C48.2768 18.3831 48.2782 18.404 48.2893 18.4212C49.6259 20.5073 50.5786 22.8079 51.1199 25.2581C51.125 25.2813 51.1385 25.2999 51.1464 25.3223C51.1571 25.3548 51.1692 25.385 51.1846 25.4148C51.2074 25.4594 51.2348 25.499 51.2659 25.5362C51.2859 25.5604 51.3045 25.5836 51.3278 25.605C51.3673 25.6403 51.411 25.6678 51.458 25.6929C51.4822 25.7064 51.5031 25.7222 51.5292 25.7324C51.605 25.7626 51.6849 25.7812 51.77 25.7812H51.7705H57.1016C57.9642 25.7812 58.6668 26.4834 58.6668 27.3465L58.6667 32.6525Z" fill="#212121"/>
        <path d="M57.1014 24.4485H52.2939C51.7452 22.2163 50.8719 20.1069 49.6921 18.1631L53.0967 14.7586C54.2253 13.6304 54.2253 11.794 53.0967 10.6658L49.3342 6.90333C48.2055 5.7747 46.3696 5.77517 45.2414 6.90333L41.8369 10.3079C39.8931 9.12807 37.7837 8.25476 35.5515 7.70607V2.89857C35.5515 1.30024 34.2508 0 32.6525 0H27.347C25.7492 0 24.4485 1.30024 24.4485 2.89857V7.70607C22.2163 8.25481 20.1069 9.12809 18.1631 10.3079L14.7586 6.90333C13.6304 5.77517 11.794 5.7747 10.6658 6.90333L6.90333 10.6658C5.7747 11.794 5.7747 13.6304 6.90333 14.7586L10.3079 18.1631C9.12807 20.1069 8.25476 22.2163 7.70607 24.4485H2.89857C1.30024 24.4485 0 25.7492 0 27.3475V32.653C0 34.2508 1.30024 35.5515 2.89857 35.5515H7.70607C8.25481 37.7837 9.12809 39.8931 10.3079 41.8369L6.90333 45.2414C5.7747 46.3696 5.7747 48.206 6.90333 49.3342L10.6658 53.0967C11.2299 53.6608 11.9712 53.9435 12.712 53.9435C13.4533 53.9435 14.1945 53.6617 14.7586 53.0967L18.1631 49.6921C20.1069 50.8719 22.2163 51.7452 24.4485 52.2939V57.1014C24.4485 58.6993 25.7492 60 27.347 60H32.6525C34.2504 60 35.5511 58.6998 35.5511 57.1014V52.2939C37.7832 51.7452 39.8926 50.8719 41.8364 49.6921L45.241 53.0967C45.805 53.6608 46.5463 53.9435 47.2875 53.9435C48.0283 53.9435 48.7695 53.6617 49.3337 53.0967L53.0962 49.3342C54.2248 48.206 54.2248 46.3696 53.0962 45.2414L49.6917 41.8369C50.8715 39.8931 51.7448 37.7837 52.2935 35.5515H57.101C58.6988 35.5515 59.9995 34.2508 59.9995 32.653V27.3475C60 25.7492 58.6998 24.4485 57.1014 24.4485ZM58.6667 32.6525C58.6667 33.5161 57.9645 34.2177 57.1014 34.2177H51.7704C51.7504 34.2177 51.7332 34.228 51.7136 34.2289C51.6657 34.2331 51.6211 34.2429 51.5755 34.2568C51.5374 34.2689 51.5016 34.2814 51.4667 34.2996C51.4267 34.32 51.3914 34.3456 51.3565 34.3735C51.3244 34.3996 51.2951 34.4256 51.2686 34.4568C51.2407 34.4893 51.2184 34.5242 51.1979 34.5623C51.176 34.6019 51.1579 34.6405 51.144 34.6837C51.1374 34.7037 51.124 34.719 51.1193 34.7395C50.5771 37.1902 49.6251 39.4902 48.2887 41.5764C48.2776 41.5945 48.2762 41.615 48.2669 41.6331C48.2455 41.6745 48.2301 41.715 48.218 41.7587C48.2069 41.7992 48.198 41.8387 48.1939 41.8801C48.1906 41.9228 48.192 41.9633 48.1966 42.0061C48.2013 42.0489 48.2078 42.0889 48.2208 42.1303C48.2329 42.1702 48.2501 42.2061 48.2701 42.2442C48.2915 42.2842 48.3148 42.3209 48.345 42.3563C48.3585 42.3721 48.3636 42.3921 48.3789 42.407L52.1541 46.1821C52.7628 46.7908 52.7628 47.7809 52.1541 48.3896L48.3916 52.1521C47.7828 52.7608 46.7937 52.7613 46.1841 52.1521L42.4089 48.3769C42.3941 48.3621 42.3741 48.3565 42.3582 48.3435C42.3224 48.3132 42.2848 48.2895 42.2443 48.2677C42.2076 48.2481 42.1722 48.2319 42.1336 48.2198C42.0909 48.2063 42.049 48.1993 42.0044 48.1947C41.9639 48.1905 41.9248 48.1886 41.8844 48.1919C41.8411 48.1951 41.7998 48.2044 41.757 48.2165C41.7142 48.2286 41.6751 48.2439 41.6351 48.2644C41.6165 48.2746 41.5956 48.2751 41.5779 48.2872C39.4919 49.6237 37.1913 50.5765 34.741 51.1178C34.7206 51.1224 34.7052 51.1364 34.6852 51.1424C34.641 51.1564 34.602 51.1745 34.5625 51.1964C34.5253 51.2168 34.4913 51.2392 34.4592 51.2657C34.4267 51.2936 34.3992 51.3238 34.3727 51.3568C34.3462 51.3903 34.322 51.4233 34.302 51.4615C34.2825 51.4982 34.2695 51.5363 34.2569 51.5763C34.2435 51.6196 34.2342 51.6623 34.2304 51.7088C34.2286 51.7293 34.2183 51.747 34.2183 51.7684V57.0994C34.2183 57.9621 33.5162 58.6647 32.6531 58.6647H27.3476C26.4841 58.6647 25.7824 57.9625 25.7824 57.0994V51.7684C25.7824 51.7479 25.7722 51.7298 25.7703 51.7088C25.7661 51.6628 25.7568 51.62 25.7438 51.5763C25.7317 51.5359 25.7178 51.4982 25.6987 51.4615C25.6787 51.4233 25.6545 51.3903 25.628 51.3568C25.6015 51.3233 25.5741 51.2936 25.5415 51.2657C25.5094 51.2382 25.4755 51.2168 25.4383 51.1964C25.3987 51.1745 25.3597 51.1564 25.3155 51.1424C25.2955 51.1359 25.2802 51.1224 25.2597 51.1178C22.809 50.5756 20.509 49.6236 18.4228 48.2872C18.4047 48.276 18.3842 48.2746 18.3656 48.2653C18.3251 48.2439 18.2852 48.2286 18.2414 48.2165C18.2 48.2044 18.1601 48.196 18.1173 48.1923C18.0754 48.1891 18.0354 48.1909 17.9931 48.1951C17.9499 48.1998 17.9089 48.2063 17.8675 48.2193C17.8275 48.2314 17.7917 48.2486 17.7541 48.2686C17.7141 48.29 17.6773 48.3132 17.642 48.3425C17.6262 48.356 17.6062 48.3611 17.5908 48.3765L13.8157 52.1516C13.2065 52.7608 12.2169 52.7603 11.6082 52.1516L7.84573 48.3891C7.237 47.7804 7.237 46.7903 7.84573 46.1816L11.6208 42.4065C11.6362 42.3911 11.6413 42.3716 11.6548 42.3558C11.6841 42.3205 11.7083 42.2837 11.7297 42.2437C11.7497 42.2065 11.7664 42.1698 11.779 42.1298C11.7915 42.0884 11.7985 42.0484 11.8031 42.0056C11.8078 41.9628 11.8096 41.9224 11.8059 41.8796C11.8027 41.8382 11.7938 41.7991 11.7817 41.7582C11.7697 41.7141 11.7543 41.6736 11.7329 41.6327C11.7236 41.6141 11.7222 41.5931 11.7111 41.5759C10.3745 39.4899 9.42178 37.1893 8.88047 34.739C8.87582 34.7186 8.86187 34.7032 8.85582 34.6832C8.84187 34.6391 8.82374 34.6 8.80188 34.5605C8.78142 34.5233 8.7591 34.4893 8.73166 34.4572C8.70422 34.4247 8.67446 34.3977 8.64098 34.3712C8.60703 34.3438 8.57309 34.32 8.53449 34.2991C8.49868 34.2796 8.46101 34.267 8.42195 34.2545C8.37731 34.2405 8.33406 34.2312 8.28709 34.227C8.2671 34.2252 8.24989 34.215 8.22896 34.215L2.89885 34.2154C2.03575 34.2177 1.33361 33.516 1.33361 32.6524V27.347C1.33361 26.4834 2.0358 25.7817 2.89885 25.7817H8.22992H8.23038C8.31455 25.7817 8.395 25.7631 8.47126 25.7329C8.49731 25.7227 8.5187 25.7069 8.54241 25.6934C8.58892 25.6683 8.63309 25.6413 8.67309 25.6055C8.69634 25.585 8.71448 25.5608 8.73448 25.5367C8.76563 25.4994 8.79307 25.4599 8.81632 25.4153C8.83167 25.3851 8.84376 25.3553 8.85445 25.3227C8.86189 25.3009 8.87584 25.2823 8.88096 25.2586C9.42319 22.8079 10.3751 20.5079 11.7116 18.4217C11.7227 18.4035 11.7241 18.3831 11.7334 18.3649C11.7548 18.3235 11.7701 18.2831 11.7822 18.2394C11.7934 18.1989 11.8022 18.1594 11.8064 18.118C11.8097 18.0752 11.8083 18.0348 11.8036 17.992C11.799 17.9492 11.7925 17.9092 11.7794 17.8678C11.7674 17.8278 11.7502 17.792 11.7302 17.7539C11.7088 17.7139 11.6855 17.6771 11.6553 17.6418C11.6418 17.626 11.6367 17.606 11.6213 17.5911L7.84622 13.816C7.23749 13.2073 7.23749 12.2172 7.84622 11.6085L11.6087 7.846C12.2174 7.23727 13.2066 7.23681 13.8162 7.846L17.5913 11.6211C17.5941 11.6239 17.5974 11.6244 17.6002 11.6272C17.6569 11.6825 17.722 11.7239 17.7922 11.7546C17.808 11.762 17.8243 11.7671 17.8411 11.7732C17.9122 11.7983 17.9866 11.816 18.062 11.8164H18.0634H18.0638C18.1392 11.8164 18.214 11.7992 18.2866 11.7732C18.308 11.7657 18.327 11.755 18.3479 11.7453C18.3726 11.7332 18.3991 11.7267 18.4228 11.7113C20.5089 10.3748 22.8095 9.42205 25.2597 8.88074C25.2802 8.87609 25.2955 8.86214 25.3155 8.85609C25.3597 8.84214 25.3988 8.824 25.4383 8.80215C25.4755 8.78169 25.5094 8.75936 25.5415 8.73286C25.5741 8.70496 25.6015 8.67473 25.628 8.64171C25.6545 8.60823 25.6787 8.57521 25.6987 8.53708C25.7182 8.50034 25.7313 8.46221 25.7438 8.42222C25.7573 8.37897 25.7666 8.33619 25.7703 8.28968C25.7722 8.26922 25.7824 8.25155 25.7824 8.23016L25.7829 2.89861C25.7824 2.03552 26.4841 1.33337 27.3478 1.33337H32.6532C33.5168 1.33337 34.2185 2.03556 34.2185 2.89861V8.22968C34.2185 8.25014 34.2287 8.26828 34.2306 8.28921C34.2347 8.33525 34.244 8.37803 34.2571 8.42174C34.2692 8.4622 34.2831 8.49987 34.3022 8.5366C34.3222 8.57474 34.3464 8.60775 34.3729 8.64124C34.3994 8.67472 34.4268 8.70448 34.4594 8.73238C34.4914 8.75982 34.5254 8.78121 34.5626 8.80167C34.6021 8.82353 34.6412 8.84166 34.6854 8.85561C34.7054 8.86212 34.7207 8.87561 34.7412 8.88026C37.1919 9.42249 39.4919 10.3744 41.5781 11.7109C41.6022 11.7262 41.6283 11.7327 41.6529 11.7448C41.6734 11.755 41.6929 11.7653 41.7143 11.7727C41.7869 11.7987 41.8617 11.816 41.9371 11.816H41.9375H41.9389C42.0147 11.816 42.0882 11.7978 42.1598 11.7727C42.1766 11.7667 42.1919 11.7615 42.2087 11.7541C42.2789 11.7229 42.344 11.6816 42.4007 11.6267C42.4035 11.6239 42.4068 11.6234 42.4095 11.6206L46.1847 7.84552C46.7939 7.23633 47.7835 7.2368 48.3922 7.84552L52.1547 11.608C52.7634 12.2168 52.7634 13.2068 52.1547 13.8155L48.3795 17.5906C48.3642 17.606 48.3591 17.6255 48.3456 17.6413C48.3163 17.6767 48.2921 17.7134 48.2707 17.7534C48.2507 17.7906 48.234 17.8273 48.2214 17.8673C48.2089 17.9087 48.2019 17.9487 48.1973 17.9915C48.1926 18.0343 48.1907 18.0747 48.1945 18.1175C48.1977 18.1589 48.2066 18.198 48.2186 18.2389C48.2307 18.2831 48.2461 18.3235 48.2675 18.3645C48.2768 18.3831 48.2782 18.404 48.2893 18.4212C49.6259 20.5073 50.5786 22.8079 51.1199 25.2581C51.125 25.2813 51.1385 25.2999 51.1464 25.3223C51.1571 25.3548 51.1692 25.385 51.1846 25.4148C51.2074 25.4594 51.2348 25.499 51.2659 25.5362C51.2859 25.5604 51.3045 25.5836 51.3278 25.605C51.3673 25.6403 51.411 25.6678 51.458 25.6929C51.4822 25.7064 51.5031 25.7222 51.5292 25.7324C51.605 25.7626 51.6849 25.7812 51.77 25.7812H51.7705H57.1016C57.9642 25.7812 58.6668 26.4834 58.6668 27.3465L58.6667 32.6525Z" stroke="#212121" stroke-width="0.8" mask="url(#path-1-outside-1_401_288)"/>
        <path d="M29.9996 13.0484C20.6531 13.0484 13.0484 20.6527 13.0484 29.9996C13.0484 39.3465 20.6527 46.9508 29.9996 46.9508C39.3465 46.9508 46.9508 39.3465 46.9508 29.9996C46.9508 20.6527 39.3465 13.0484 29.9996 13.0484ZM29.9996 45.4163C21.4988 45.4163 14.583 38.5005 14.583 29.9996C14.583 21.4988 21.4993 14.583 29.9996 14.583C38.5 14.583 45.4163 21.4993 45.4163 29.9996C45.4163 38.5 38.5 45.4163 29.9996 45.4163Z" fill="#212121" stroke="#212121" stroke-width="0.2"/>
        <path d="M30.0023 28.814C32.4878 28.814 34.5093 26.7924 34.5093 24.307C34.5093 21.8215 32.4877 19.8 30.0023 19.8C27.5169 19.8 25.4953 21.8216 25.4953 24.307C25.4953 26.7925 27.5169 28.814 30.0023 28.814ZM30.0023 21.3131C31.653 21.3131 32.9962 22.6563 32.9962 24.307C32.9962 25.9577 31.653 27.3009 30.0023 27.3009C28.3516 27.3009 27.0084 25.9577 27.0084 24.307C27.0084 22.6563 28.3516 21.3131 30.0023 21.3131Z" fill="#CF5555" stroke="#CF5555" stroke-width="0.4"/>
        <path d="M26.2976 39.5207L26.2976 39.5208L26.3017 39.5211C26.3228 39.5228 26.3473 39.5245 26.3746 39.5245H33.6239C33.6509 39.5245 33.6757 39.5228 33.6969 39.5211L33.6969 39.5211L33.701 39.5207C35.2317 39.3643 36.3861 38.083 36.3861 36.543V36.3352V36.3352C36.3857 32.8131 33.5212 29.9487 29.9991 29.9487H29.9991C26.477 29.9487 23.6125 32.8136 23.6125 36.3352V36.543C23.6125 38.083 24.7669 39.3643 26.2976 39.5207ZM34.8725 36.5422C34.8725 37.2938 34.3197 37.9181 33.5815 38.0109H26.4167C25.6785 37.9181 25.1256 37.2938 25.1256 36.5422V36.3345C25.1256 33.6474 27.312 31.461 29.9991 31.461C32.6861 31.461 34.8725 33.6474 34.8725 36.3345V36.5422Z" fill="#CF5555" stroke="#CF5555" stroke-width="0.4"/>
    </g>
    <defs>
        <clipPath id="clip0_401_288">
            <rect width="60" height="60" fill="white"/>
        </clipPath>
    </defs>
</svg>
