<svg width="60" height="60" viewBox="0 0 60 60" fill="none" xmlns="http://www.w3.org/2000/svg">
    <path d="M56.7643 0.000196635H46.4195C45.3107 0.000196635 44.2864 0.591789 43.7318 1.55192C43.1776 2.51204 43.1776 3.69524 43.7318 4.65535C44.2864 5.61548 45.3107 6.20707 46.4195 6.20707H49.4634L35.4654 20.8671L20.6717 12.9811C20.2302 12.7456 19.6839 12.8601 19.3736 13.2526L0.783712 36.7726C0.300652 37.3836 0.0660433 38.1539 0.12654 38.9302C0.187038 39.7065 0.538487 40.4315 1.11022 40.9599C1.68241 41.4887 2.43246 41.7819 3.2111 41.7815C3.29792 41.7815 3.38567 41.7773 3.47294 41.7704V41.7699C4.33239 41.6956 5.12208 41.2661 5.65185 40.5853L21.2128 20.5341L35.9911 28.4202L35.9915 28.4197C36.4026 28.6382 36.9092 28.5555 37.2297 28.2174L53.6608 10.8441V13.4483C53.6608 14.5571 54.2524 15.5814 55.2125 16.136C56.1726 16.6902 57.3558 16.6902 58.3159 16.136C59.2761 15.5814 59.8677 14.5571 59.8677 13.4483V3.10347C59.8667 2.28051 59.5393 1.4917 58.9579 0.909786C58.376 0.32835 57.5872 0.000922164 56.7642 0L56.7643 0.000196635ZM36.2686 26.2228L21.417 18.2975C20.9723 18.0601 20.4213 18.1774 20.1124 18.576L4.01708 39.3164C3.84297 39.5431 3.58066 39.6858 3.29571 39.7089C3.01124 39.7371 2.72859 39.6415 2.51985 39.4457C2.12453 39.0832 2.07466 38.4777 2.40578 38.0556L20.4601 15.2131L35.184 23.0618V23.0613C35.5936 23.2798 36.0984 23.1985 36.4193 22.8627L52.3243 6.20703H53.6604V7.83358L36.2686 26.2228ZM57.7988 13.4484C57.7988 14.0197 57.3356 14.4829 56.7643 14.4829C56.193 14.4829 55.7298 14.0197 55.7298 13.4484V5.17259C55.7298 4.89827 55.6208 4.63503 55.4269 4.44107C55.2329 4.24711 54.9697 4.13811 54.6953 4.13811H46.4195C45.8482 4.13811 45.385 3.6749 45.385 3.10363C45.385 2.53237 45.8482 2.06916 46.4195 2.06916H56.7643C57.3356 2.06962 57.7983 2.53237 57.7988 3.10363V13.4484Z" fill="#CF5555"/>
    <path d="M55.7283 24.8276H47.4524C47.1781 24.8276 46.9149 24.9366 46.7209 25.1306C46.527 25.3246 46.418 25.5878 46.418 25.8621V58.9655C46.418 59.2398 46.527 59.503 46.7209 59.697C46.9149 59.8909 47.1781 59.9999 47.4524 59.9999H55.7283C56.0026 59.9999 56.2658 59.8909 56.4598 59.697C56.6538 59.503 56.7628 59.2398 56.7628 58.9655V25.8621C56.7628 25.5878 56.6538 25.3246 56.4598 25.1306C56.2658 24.9366 56.0026 24.8276 55.7283 24.8276ZM54.6938 57.931H48.4869V26.8966H54.6938V57.931Z" fill="#212121"/>
    <path d="M41.2478 37.2415H32.972C32.6977 37.2415 32.4344 37.3504 32.2405 37.5444C32.0465 37.7384 31.9375 38.0016 31.9375 38.2759V58.9655C31.9375 59.2398 32.0465 59.5031 32.2405 59.697C32.4344 59.891 32.6977 60 32.972 60H41.2478C41.5221 60 41.7854 59.891 41.9793 59.697C42.1733 59.5031 42.2823 59.2398 42.2823 58.9655V38.2759C42.2823 38.0016 42.1733 37.7384 41.9793 37.5444C41.7854 37.3504 41.5221 37.2415 41.2478 37.2415ZM40.2133 57.931H34.0065V39.3104H40.2133V57.931Z" fill="#212121"/>
    <path d="M26.7634 32.0691H18.4876C18.2133 32.0691 17.95 32.1781 17.7561 32.372C17.5621 32.566 17.4531 32.8293 17.4531 33.1036V58.9656C17.4531 59.2399 17.5621 59.5031 17.7561 59.6971C17.95 59.891 18.2133 60 18.4876 60H26.7634C27.0378 60 27.301 59.891 27.495 59.6971C27.6889 59.5031 27.7979 59.2399 27.7979 58.9656V33.1036C27.7979 32.8293 27.6889 32.566 27.495 32.372C27.301 32.1781 27.0378 32.0691 26.7634 32.0691ZM25.729 57.9311H19.5221V34.1381H25.729V57.9311Z" fill="#212121"/>
    <path d="M12.283 45.5173H4.00714C3.73282 45.5173 3.46957 45.6263 3.27561 45.8203C3.08165 46.0143 2.97266 46.2775 2.97266 46.5518V58.9656C2.97266 59.2399 3.08165 59.5031 3.27561 59.6971C3.46958 59.8911 3.73282 60 4.00714 60H12.283C12.5573 60 12.8205 59.8911 13.0145 59.6971C13.2085 59.5031 13.3175 59.2399 13.3175 58.9656V46.5518C13.3175 46.2775 13.2085 46.0143 13.0145 45.8203C12.8205 45.6263 12.5573 45.5173 12.283 45.5173ZM11.2485 57.9311H5.04162V47.5863H11.2485V57.9311Z" fill="#212121"/>
</svg>
