<svg width="60" height="60" viewBox="0 0 60 60" fill="none" xmlns="http://www.w3.org/2000/svg">
    <path d="M15.8506 28.3988C15.6304 28.1787 15.3153 28.0828 15.0105 28.1409C14.7046 28.199 14.4481 28.4061 14.3262 28.6921L8.77223 41.6516L3.27487 47.149C3.09872 47.3246 3 47.5637 3 47.8124C3 51.4312 5.94374 54.375 9.56252 54.375C9.81077 54.375 10.0498 54.2767 10.2255 54.1001L11.4377 52.8878L18.275 59.7251C18.4579 59.9081 18.698 60 18.938 60C19.178 60 19.418 59.9081 19.601 59.7251L23.3509 55.9752C23.7173 55.6088 23.7173 55.016 23.3509 54.6497L16.8296 48.1283L28.6823 43.0491C28.9683 42.9271 29.1745 42.6702 29.2335 42.3648C29.2925 42.059 29.1962 41.7444 28.9756 41.5247L15.8506 28.3988ZM9.56294 43.5127L13.8621 47.8123L11.4377 50.2363L7.13852 45.9371L9.56294 43.5127ZM9.18984 52.4846C6.90231 52.3037 5.07118 50.473 4.89068 48.1855L5.81255 47.2627L10.1122 51.5623L9.18984 52.4846ZM18.938 57.7367L12.7636 51.5623L15.1876 49.1379L21.3619 55.3123L18.938 57.7367ZM15.4025 46.7004L10.6756 41.9734L15.5046 30.7048L26.6711 41.8714L15.4025 46.7004Z" fill="#212121"/>
    <path d="M27.6495 28.3989L23.8995 32.1489C23.5332 32.5152 23.5332 33.108 23.8995 33.4743C24.082 33.6572 24.322 33.7492 24.562 33.7492C24.802 33.7492 25.0421 33.6572 25.225 33.4743L28.975 29.7243C29.3413 29.358 29.3413 28.7652 28.975 28.3989C28.6086 28.0326 28.0158 28.0326 27.6495 28.3989H27.6495Z" fill="#212121"/>
    <path d="M17.9999 28.1238C18.5172 28.1238 18.9372 27.7038 18.9372 27.1865V21.5614C18.9372 21.0441 18.5172 20.624 17.9999 20.624C17.4825 20.624 17.0625 21.0441 17.0625 21.5614V27.1865C17.0625 27.7038 17.4825 28.1238 17.9999 28.1238Z" fill="#212121"/>
    <path d="M35.8124 38.4373H30.1874C29.67 38.4373 29.25 38.8573 29.25 39.3746C29.25 39.8919 29.67 40.312 30.1874 40.312H35.8124C36.3298 40.312 36.7498 39.8919 36.7498 39.3746C36.7498 38.8573 36.3298 38.4373 35.8124 38.4373Z" fill="#212121"/>
    <path d="M56.4366 23.4372H39.5624C39.045 23.4372 38.625 23.8573 38.625 24.3746V39.3745C38.625 39.7534 38.8539 40.0955 39.2033 40.2407C39.3194 40.2886 39.4414 40.3118 39.5624 40.3118C39.8063 40.3118 40.0463 40.216 40.2253 40.037L43.7004 36.5619H56.4369C56.9543 36.5619 57.3743 36.1419 57.3743 35.6245L57.3748 24.3744C57.3748 23.8571 56.9547 23.437 56.4369 23.437L56.4366 23.4372ZM55.4993 34.687H43.3117C43.0634 34.687 42.8244 34.7853 42.6487 34.9619L40.499 37.1115V25.3126H55.4989L55.4993 34.687Z" fill="#CF5555"/>
    <path d="M43.3122 29.0616H52.6872C53.2046 29.0616 53.6246 28.6416 53.6246 28.1242C53.6246 27.6069 53.2046 27.1869 52.6872 27.1869L43.3122 27.1864C42.7949 27.1864 42.3748 27.6064 42.3748 28.1238C42.3748 28.6416 42.7949 29.0616 43.3122 29.0616Z" fill="#CF5555"/>
    <path d="M53.6252 31.8751C53.6252 32.3929 53.2052 32.8125 52.6874 32.8125C52.1696 32.8125 51.75 32.3929 51.75 31.8751C51.75 31.3573 52.1696 30.9373 52.6874 30.9373C53.2052 30.9373 53.6252 31.3573 53.6252 31.8751Z" fill="#CF5555"/>
    <path d="M43.3122 32.8116H48.9373C49.4546 32.8116 49.8746 32.3916 49.8746 31.8742C49.8746 31.3569 49.4546 30.9369 48.9373 30.9369H43.3122C42.7949 30.9369 42.3748 31.3569 42.3748 31.8742C42.3748 32.3916 42.7949 32.8116 43.3122 32.8116Z" fill="#CF5555"/>
    <path d="M18.0001 13.1251H30.7366L34.2122 16.6007C34.3912 16.7793 34.6313 16.8751 34.8752 16.8751C34.9961 16.8751 35.1181 16.8519 35.2342 16.804C35.5836 16.6583 35.8125 16.3162 35.8125 15.9377V0.937841C35.8125 0.420525 35.3925 0.000483922 34.8752 0.000483922L17.9997 0C17.4823 0 17.0623 0.420041 17.0623 0.937357V12.1875C17.0623 12.7053 17.4823 13.1254 17.9997 13.1254L18.0001 13.1251ZM18.9379 1.87498H33.9378V13.6744L31.7882 11.5248C31.6125 11.3482 31.3734 11.2499 31.1247 11.2499H18.9376L18.9379 1.87498Z" fill="#CF5555"/>
    <path d="M21.7501 5.62423H31.1251C31.6424 5.62423 32.0625 5.20418 32.0625 4.68687C32.0625 4.16955 31.6424 3.74951 31.1251 3.74951H21.7501C21.2327 3.74951 20.8127 4.16955 20.8127 4.68687C20.8127 5.20418 21.2327 5.62423 21.7501 5.62423Z" fill="#CF5555"/>
    <path d="M22.6879 8.43736C22.6879 8.95516 22.2679 9.37471 21.7501 9.37471C21.2323 9.37471 20.8127 8.95516 20.8127 8.43736C20.8127 7.91956 21.2323 7.5 21.7501 7.5C22.2679 7.5 22.6879 7.91956 22.6879 8.43736Z" fill="#CF5555"/>
    <path d="M32.0623 8.43736C32.0623 7.92004 31.6423 7.5 31.1249 7.5H25.4999C24.9825 7.5 24.5625 7.92004 24.5625 8.43736C24.5625 8.95467 24.9825 9.37471 25.4999 9.37471H31.1249C31.6423 9.37471 32.0623 8.95516 32.0623 8.43736Z" fill="#CF5555"/>
</svg>
