<svg width="60" height="60" viewBox="0 0 60 60" fill="none" xmlns="http://www.w3.org/2000/svg">
    <path d="M0.896478 9.69981e-05C0.387121 0.0514229 -0.000443369 0.482118 3.80675e-07 0.996268V55.054C0.00222266 55.603 0.444911 56.0475 0.991588 56.0497H29.6669C32.1653 58.4889 35.5712 60 39.3256 60C46.9609 60 53.1728 53.7754 53.1728 46.1248C53.1728 39.1257 47.9687 33.3419 41.2371 32.4061V17.3804C41.2442 17.2862 41.2375 17.1916 41.2175 17.0992C41.2109 17.0671 41.2024 17.0349 41.1926 17.0037C41.1824 16.972 41.1709 16.9408 41.1575 16.91C41.1446 16.8792 41.1304 16.8493 41.1149 16.8203C41.1024 16.7988 41.0895 16.7779 41.0758 16.7578C41.0713 16.7497 41.0669 16.7422 41.0624 16.7341C41.0593 16.7297 41.0558 16.7252 41.0526 16.7207C41.0366 16.698 41.0198 16.6757 41.002 16.6542C40.9989 16.6502 40.9953 16.6467 40.9922 16.6426C40.9766 16.6243 40.9602 16.6069 40.9437 16.59L24.6638 0.287982C24.5207 0.146499 24.3385 0.0518844 24.1407 0.0166251C24.0873 0.00680621 24.0336 0.00189656 23.9793 0.00100422H23.966H0.991131C0.959575 -0.00033474 0.927573 -0.00033474 0.896016 0.00100422L0.896478 9.69981e-05ZM1.99119 1.99957H22.9669V17.2984C22.966 17.5648 23.0709 17.8206 23.2585 18.0089C23.446 18.1973 23.7012 18.303 23.9665 18.3017H39.2463V32.2615C33.546 32.2945 28.6481 35.7877 26.5562 40.7517C26.382 41.1645 26.2273 41.5889 26.0935 42.0209C25.9597 42.4521 25.8468 42.8912 25.7553 43.3389C25.7553 43.3389 25.7535 43.3407 25.7535 43.3429C25.5699 44.2413 25.4735 45.1728 25.4735 46.1252C25.4735 46.5046 25.493 46.8804 25.5299 47.2517C25.7335 49.7703 26.6086 52.0978 27.9802 54.0584L1.99126 54.0588L1.99119 1.99957ZM24.9581 3.40548L31.4157 9.87075L37.8346 16.3025H24.9579L24.9581 3.40548ZM8.78966 16.3027C8.2492 16.341 7.83763 16.8056 7.86385 17.3493C7.88963 17.8929 8.34298 18.316 8.88478 18.3021H18.9985C19.2661 18.3084 19.5252 18.2057 19.7168 18.0174C19.9083 17.8295 20.0163 17.5715 20.0163 17.3024C20.0163 17.0333 19.9083 16.7757 19.7168 16.5878C19.5252 16.3995 19.2661 16.2969 18.9985 16.3027H8.88478C8.85323 16.3013 8.82122 16.3013 8.78966 16.3027ZM8.88478 22.7813C8.62032 22.7808 8.36654 22.8866 8.17942 23.0741C7.99186 23.262 7.88697 23.5168 7.88697 23.7824C7.88697 24.0479 7.99186 24.3028 8.17942 24.4902C8.36654 24.6781 8.62032 24.7834 8.88478 24.783H32.3455C32.8953 24.7821 33.3402 24.3344 33.3402 23.7824C33.3402 23.2303 32.8953 22.7822 32.3455 22.7817L8.88478 22.7813ZM8.78966 29.2697C8.2492 29.3077 7.83763 29.7732 7.86385 30.3163C7.88963 30.86 8.34298 31.2835 8.88478 31.2697H32.3455C32.6131 31.2755 32.8722 31.1728 33.0638 30.9845C33.2553 30.7966 33.3633 30.5391 33.3633 30.2699C33.3633 30.0008 33.2553 29.7428 33.0638 29.5549C32.8722 29.3666 32.6131 29.2639 32.3455 29.2702H8.88478C8.85323 29.2684 8.82122 29.268 8.78966 29.2697ZM39.3265 34.2586C39.6038 34.2635 39.8807 34.2778 40.1567 34.3015C40.1896 34.3046 40.223 34.3064 40.2559 34.3059H40.2621C46.3832 34.7826 51.1825 39.874 51.1825 46.1257C51.1825 52.6927 45.8891 57.9991 39.3265 57.9991C35.9827 57.9991 32.9733 56.6168 30.819 54.3965C30.8154 54.3925 30.8127 54.3885 30.8092 54.3849C30.8016 54.3769 30.7936 54.3693 30.7856 54.3617C30.779 54.3546 30.7745 54.347 30.7683 54.3403C30.5092 54.0698 30.2638 53.79 30.0332 53.4985C29.5603 52.9018 29.1478 52.2627 28.8002 51.5927C28.6269 51.2589 28.4704 50.9179 28.3295 50.5698C28.3264 50.5618 28.3229 50.5542 28.3198 50.5466C28.1838 50.2074 28.0624 49.8624 27.958 49.5116C27.9451 49.4688 27.9371 49.4241 27.9251 49.3808C27.8349 49.0644 27.754 48.7439 27.69 48.4199C27.6713 48.3244 27.6615 48.2253 27.6451 48.1289C27.5962 47.8455 27.5486 47.5612 27.5206 47.2738C27.4837 46.8935 27.4646 46.511 27.4642 46.1254C27.4642 45.7148 27.4842 45.3104 27.5246 44.911C28.1309 38.9179 33.1741 34.2593 39.3261 34.2593L39.3265 34.2586ZM8.88524 35.7484C8.61767 35.7426 8.35855 35.8457 8.16699 36.0336C7.97543 36.2219 7.86742 36.4794 7.86742 36.7486C7.86742 37.0177 7.97543 37.2752 8.16699 37.4636C8.35855 37.6515 8.61767 37.7541 8.88524 37.7483H23.9511C24.2187 37.7541 24.4778 37.6515 24.6694 37.4636C24.8609 37.2752 24.9689 37.0177 24.9689 36.7486C24.9689 36.4794 24.8609 36.2219 24.6694 36.0336C24.4778 35.8457 24.2187 35.743 23.9511 35.7488L8.88524 35.7484ZM45.3239 40.9363C45.0679 40.9488 44.8261 41.0603 44.6492 41.2474L37.225 48.8859L34.0066 45.5413C33.824 45.3476 33.572 45.2351 33.3066 45.2289C33.0408 45.2231 32.7839 45.324 32.5928 45.5092C32.4017 45.6944 32.2919 45.9483 32.2884 46.2152C32.2848 46.4821 32.3879 46.7392 32.5737 46.9293L36.5054 51.0104C36.6917 51.2041 36.9486 51.3144 37.2166 51.3162C37.485 51.3175 37.7428 51.2099 37.9313 51.0185L46.0747 42.6497C46.3707 42.3587 46.456 41.9133 46.2889 41.5326C46.1222 41.1519 45.7377 40.9144 45.324 40.9372L45.3239 40.9363Z" fill="#2F4050"/>
    <mask id="mask0_1_235" style="mask-type:alpha" maskUnits="userSpaceOnUse" x="0" y="0" width="54" height="60">
        <path d="M0.896478 9.69981e-05C0.387121 0.0514229 -0.000443369 0.482118 3.80675e-07 0.996268V55.054C0.00222266 55.603 0.444911 56.0475 0.991588 56.0497H29.6669C32.1653 58.4889 35.5712 60 39.3256 60C46.9609 60 53.1728 53.7754 53.1728 46.1248C53.1728 39.1257 47.9687 33.3419 41.2371 32.4061V17.3804C41.2442 17.2862 41.2375 17.1916 41.2175 17.0992C41.2109 17.0671 41.2024 17.0349 41.1926 17.0037C41.1824 16.972 41.1709 16.9408 41.1575 16.91C41.1446 16.8792 41.1304 16.8493 41.1149 16.8203C41.1024 16.7988 41.0895 16.7779 41.0758 16.7578C41.0713 16.7497 41.0669 16.7422 41.0624 16.7341C41.0593 16.7297 41.0558 16.7252 41.0526 16.7207C41.0366 16.698 41.0198 16.6757 41.002 16.6542C40.9989 16.6502 40.9953 16.6467 40.9922 16.6426C40.9766 16.6243 40.9602 16.6069 40.9437 16.59L24.6638 0.287982C24.5207 0.146499 24.3385 0.0518844 24.1407 0.0166251C24.0873 0.00680621 24.0336 0.00189656 23.9793 0.00100422H23.966H0.991131C0.959575 -0.00033474 0.927573 -0.00033474 0.896016 0.00100422L0.896478 9.69981e-05ZM1.99119 1.99957H22.9669V17.2984C22.966 17.5648 23.0709 17.8206 23.2585 18.0089C23.446 18.1973 23.7012 18.303 23.9665 18.3017H39.2463V32.2615C33.546 32.2945 28.6481 35.7877 26.5562 40.7517C26.382 41.1645 26.2273 41.5889 26.0935 42.0209C25.9597 42.4521 25.8468 42.8912 25.7553 43.3389C25.7553 43.3389 25.7535 43.3407 25.7535 43.3429C25.5699 44.2413 25.4735 45.1728 25.4735 46.1252C25.4735 46.5046 25.493 46.8804 25.5299 47.2517C25.7335 49.7703 26.6086 52.0978 27.9802 54.0584L1.99126 54.0588L1.99119 1.99957ZM24.9581 3.40548L31.4157 9.87075L37.8346 16.3025H24.9579L24.9581 3.40548ZM8.78966 16.3027C8.2492 16.341 7.83763 16.8056 7.86385 17.3493C7.88963 17.8929 8.34298 18.316 8.88478 18.3021H18.9985C19.2661 18.3084 19.5252 18.2057 19.7168 18.0174C19.9083 17.8295 20.0163 17.5715 20.0163 17.3024C20.0163 17.0333 19.9083 16.7757 19.7168 16.5878C19.5252 16.3995 19.2661 16.2969 18.9985 16.3027H8.88478C8.85323 16.3013 8.82122 16.3013 8.78966 16.3027ZM8.88478 22.7813C8.62032 22.7808 8.36654 22.8866 8.17942 23.0741C7.99186 23.262 7.88697 23.5168 7.88697 23.7824C7.88697 24.0479 7.99186 24.3028 8.17942 24.4902C8.36654 24.6781 8.62032 24.7834 8.88478 24.783H32.3455C32.8953 24.7821 33.3402 24.3344 33.3402 23.7824C33.3402 23.2303 32.8953 22.7822 32.3455 22.7817L8.88478 22.7813ZM8.78966 29.2697C8.2492 29.3077 7.83763 29.7732 7.86385 30.3163C7.88963 30.86 8.34298 31.2835 8.88478 31.2697H32.3455C32.6131 31.2755 32.8722 31.1728 33.0638 30.9845C33.2553 30.7966 33.3633 30.5391 33.3633 30.2699C33.3633 30.0008 33.2553 29.7428 33.0638 29.5549C32.8722 29.3666 32.6131 29.2639 32.3455 29.2702H8.88478C8.85323 29.2684 8.82122 29.268 8.78966 29.2697ZM39.3265 34.2586C39.6038 34.2635 39.8807 34.2778 40.1567 34.3015C40.1896 34.3046 40.223 34.3064 40.2559 34.3059H40.2621C46.3832 34.7826 51.1825 39.874 51.1825 46.1257C51.1825 52.6927 45.8891 57.9991 39.3265 57.9991C35.9827 57.9991 32.9733 56.6168 30.819 54.3965C30.8154 54.3925 30.8127 54.3885 30.8092 54.3849C30.8016 54.3769 30.7936 54.3693 30.7856 54.3617C30.779 54.3546 30.7745 54.347 30.7683 54.3403C30.5092 54.0698 30.2638 53.79 30.0332 53.4985C29.5603 52.9018 29.1478 52.2627 28.8002 51.5927C28.6269 51.2589 28.4704 50.9179 28.3295 50.5698C28.3264 50.5618 28.3229 50.5542 28.3198 50.5466C28.1838 50.2074 28.0624 49.8624 27.958 49.5116C27.9451 49.4688 27.9371 49.4241 27.9251 49.3808C27.8349 49.0644 27.754 48.7439 27.69 48.4199C27.6713 48.3244 27.6615 48.2253 27.6451 48.1289C27.5962 47.8455 27.5486 47.5612 27.5206 47.2738C27.4837 46.8935 27.4646 46.511 27.4642 46.1254C27.4642 45.7148 27.4842 45.3104 27.5246 44.911C28.1309 38.9179 33.1741 34.2593 39.3261 34.2593L39.3265 34.2586ZM8.88524 35.7484C8.61767 35.7426 8.35855 35.8457 8.16699 36.0336C7.97543 36.2219 7.86742 36.4794 7.86742 36.7486C7.86742 37.0177 7.97543 37.2752 8.16699 37.4636C8.35855 37.6515 8.61767 37.7541 8.88524 37.7483H23.9511C24.2187 37.7541 24.4778 37.6515 24.6694 37.4636C24.8609 37.2752 24.9689 37.0177 24.9689 36.7486C24.9689 36.4794 24.8609 36.2219 24.6694 36.0336C24.4778 35.8457 24.2187 35.743 23.9511 35.7488L8.88524 35.7484ZM45.3239 40.9363C45.0679 40.9488 44.8261 41.0603 44.6492 41.2474L37.225 48.8859L34.0066 45.5413C33.824 45.3476 33.572 45.2351 33.3066 45.2289C33.0408 45.2231 32.7839 45.324 32.5928 45.5092C32.4017 45.6944 32.2919 45.9483 32.2884 46.2152C32.2848 46.4821 32.3879 46.7392 32.5737 46.9293L36.5054 51.0104C36.6917 51.2041 36.9486 51.3144 37.2166 51.3162C37.485 51.3175 37.7428 51.2099 37.9313 51.0185L46.0747 42.6497C46.3707 42.3587 46.456 41.9133 46.2889 41.5326C46.1222 41.1519 45.7377 40.9144 45.324 40.9372L45.3239 40.9363Z" fill="#2F4050"/>
    </mask>
    <g mask="url(#mask0_1_235)">
        <circle cx="39.5" cy="45.5" r="8.5" fill="#CF5555"/>
    </g>
</svg>
