<svg width="60" height="60" viewBox="0 0 60 60" fill="none" xmlns="http://www.w3.org/2000/svg">
    <g clip-path="url(#clip0_1_225)">
        <path d="M59.2674 40.587L54.5544 37.8097L51.9944 39.3188L56.0442 41.7056L29.9535 57.0797L3.86279 41.7056L7.91255 39.3188L5.35256 37.8097L0.639535 40.587C0.243465 40.8225 0 41.2455 0 41.7057C0 42.1649 0.243465 42.5915 0.639535 42.8234L29.2907 59.7048C29.4951 59.8271 29.724 59.8851 29.9539 59.8851C30.1828 59.8851 30.4126 59.8262 30.617 59.7048L59.2682 42.8234C59.6652 42.5897 59.9077 42.164 59.9077 41.7057C59.9068 41.2473 59.6635 40.8225 59.2674 40.587ZM59.2674 28.9005L54.5544 26.1225L51.9944 27.6316L56.0442 30.0184L29.9535 45.3935L3.86279 30.0184L7.91255 27.6316L5.35256 26.1225L0.639535 28.8998C0.243465 29.1353 0 29.5602 0 30.0185C0 30.4768 0.243465 30.9025 0.639535 31.1362L29.2907 48.0176C29.4951 48.1399 29.724 48.1979 29.9539 48.1979C30.1828 48.1979 30.4126 48.139 30.617 48.0176L59.2682 31.1362C59.6652 30.9016 59.9077 30.4768 59.9077 30.0185C59.9068 29.5601 59.6633 29.1353 59.2673 28.9007L59.2674 28.9005ZM0.639535 19.4512L29.2907 36.3326C29.4951 36.4549 29.724 36.5129 29.9539 36.5129C30.1828 36.5129 30.4126 36.454 30.617 36.3326L59.2682 19.4512C59.6652 19.2166 59.9077 18.7918 59.9077 18.3335C59.9077 17.8751 59.6642 17.4494 59.2682 17.2157L30.617 0.334345C30.2091 0.0924903 29.7004 0.0924903 29.2916 0.334345L0.640465 17.2157C0.244395 17.4485 0.000929722 17.8733 0.000929722 18.3317C0.000929722 18.79 0.244372 19.2157 0.639535 19.4512ZM29.9535 2.95941L56.0442 18.3317L29.9535 33.7068L3.86279 18.3317L29.9535 2.95941Z" fill="#2F4050"/>
        <mask id="mask0_1_225" style="mask-type:alpha" maskUnits="userSpaceOnUse" x="0" y="0" width="60" height="60">
            <path d="M59.2674 40.5865L54.5544 37.8092L51.9944 39.3183L56.0442 41.7051L29.9535 57.0792L3.86279 41.7051L7.91255 39.3183L5.35256 37.8092L0.639535 40.5865C0.243465 40.822 0 41.245 0 41.7052C0 42.1644 0.243465 42.591 0.639535 42.8229L29.2907 59.7043C29.4951 59.8266 29.724 59.8846 29.9539 59.8846C30.1828 59.8846 30.4126 59.8257 30.617 59.7043L59.2682 42.8229C59.6652 42.5892 59.9077 42.1635 59.9077 41.7052C59.9068 41.2468 59.6635 40.822 59.2674 40.5865ZM59.2674 28.9L54.5544 26.1221L51.9944 27.6311L56.0442 30.0179L29.9535 45.393L3.86279 30.0179L7.91255 27.6311L5.35256 26.1221L0.639535 28.8993C0.243465 29.1348 0 29.5597 0 30.018C0 30.4763 0.243465 30.902 0.639535 31.1357L29.2907 48.0171C29.4951 48.1394 29.724 48.1974 29.9539 48.1974C30.1828 48.1974 30.4126 48.1385 30.617 48.0171L59.2682 31.1357C59.6652 30.9011 59.9077 30.4763 59.9077 30.018C59.9068 29.5596 59.6633 29.1348 59.2673 28.9002L59.2674 28.9ZM0.639535 19.4508L29.2907 36.3321C29.4951 36.4544 29.724 36.5124 29.9539 36.5124C30.1828 36.5124 30.4126 36.4535 30.617 36.3321L59.2682 19.4508C59.6652 19.2162 59.9077 18.7913 59.9077 18.333C59.9077 17.8747 59.6642 17.4489 59.2682 17.2152L30.617 0.333857C30.2091 0.0920021 29.7004 0.0920021 29.2916 0.333857L0.640465 17.2152C0.244395 17.448 0.000929722 17.8728 0.000929722 18.3312C0.000929722 18.7895 0.244372 19.2152 0.639535 19.4508ZM29.9535 2.95892L56.0442 18.3312L29.9535 33.7063L3.86279 18.3312L29.9535 2.95892Z" fill="#2F4050"/>
        </mask>
        <g mask="url(#mask0_1_225)">
            <path d="M14.0941 30.8822L3.06468 22.941L-3.99414 29.9999C7.03527 37.2057 29.1823 51.5293 29.5353 51.1763C29.8882 50.8234 36.447 47.4999 39.6823 45.8822L51.1529 37.4999C55.2706 36.4705 63.6823 34.3234 64.3882 33.9705C65.2706 33.5293 64.8294 30.441 64.3882 29.5587C64.0353 28.8528 59.2412 26.0293 56.8882 24.7057L52.0353 26.0293L44.0941 33.0881L35.7117 39.2646L25.1235 38.3822L14.0941 30.8822Z" fill="#CF5555"/>
        </g>
    </g>
    <defs>
        <clipPath id="clip0_1_225">
            <rect width="60" height="60" fill="white"/>
        </clipPath>
    </defs>
</svg>
