<svg width="60" height="60" viewBox="0 0 60 60" fill="none" xmlns="http://www.w3.org/2000/svg">
    <g clip-path="url(#clip0_1_215)">
        <path d="M7.56411 9.15396C7.249 8.84022 7.249 8.33205 7.56411 8.01834C7.87965 7.70503 8.39076 7.70503 8.70628 8.01834L12.7464 12.0345C13.0615 12.3482 13.0615 12.8564 12.7464 13.1701C12.4309 13.4838 11.9198 13.4838 11.6043 13.1701L7.56411 9.15396ZM25.7727 7.80521C25.9871 7.80564 26.1924 7.72115 26.344 7.57044C26.4956 7.42015 26.5806 7.21552 26.5806 7.00282V1.32288C26.5806 0.879239 26.2189 0.519653 25.7727 0.519653C25.3265 0.519653 24.9649 0.879239 24.9649 1.32288V7.00282C24.9649 7.21551 25.0498 7.42014 25.2014 7.57044C25.353 7.72115 25.5584 7.80564 25.7727 7.80521ZM6.54317 25.3193H0.830493C0.612302 25.313 0.40137 25.3949 0.244666 25.546C0.0883873 25.6976 0 25.9052 0 26.1221C0 26.3391 0.0883862 26.5467 0.244666 26.6982C0.40137 26.8494 0.612302 26.9313 0.830493 26.9249H6.54317C6.9804 26.913 7.3284 26.5569 7.3284 26.1221C7.3284 25.6874 6.9804 25.3312 6.54317 25.3193ZM39.3707 13.4056C39.585 13.406 39.7904 13.3215 39.9416 13.1704L43.9817 9.1534V9.15383C44.2968 8.84009 44.2968 8.33192 43.9817 8.01821C43.6662 7.7049 43.1551 7.7049 42.8396 8.01821L38.7994 12.0343C38.568 12.2644 38.4992 12.6109 38.6248 12.911C38.7507 13.2116 39.0462 13.4069 39.3733 13.4056H39.3707ZM39.9445 39.0741C39.6286 38.7693 39.1247 38.7727 38.8127 39.0818C38.5005 39.3904 38.4946 39.8909 38.7994 40.2072L42.8396 44.2242V44.2238C43.1568 44.5277 43.6602 44.5231 43.9715 44.2131C44.2827 43.9036 44.287 43.4031 43.9817 43.0877L39.9445 39.0741ZM30.7878 51.2161V53.9196C30.7869 54.4048 30.5931 54.8701 30.2481 55.2131C29.9026 55.5561 29.4347 55.7493 28.9466 55.7497H28.7639V56.5067C28.7639 57.5689 28.1939 58.5509 27.2686 59.0819C26.3433 59.613 25.2032 59.613 24.278 59.0819C23.3527 58.5508 22.7826 57.5688 22.7826 56.5067V55.7497H22.599C22.111 55.7493 21.6434 55.5561 21.2985 55.2131C20.9535 54.8696 20.7596 54.4048 20.7588 53.9196V51.2161C20.7592 50.7737 21.12 50.415 21.5649 50.4141H29.9817C30.4266 50.415 30.7874 50.7737 30.7878 51.2161ZM27.149 55.7498H24.3979V56.5067C24.3979 57.262 25.0137 57.8742 25.7733 57.8742C26.5329 57.8742 27.1486 57.262 27.1486 56.5067L27.149 55.7498ZM29.173 52.0189H22.3741V53.9209C22.3754 54.044 22.4753 54.1438 22.5991 54.1454H28.9467C29.0709 54.1437 29.1708 54.044 29.1725 53.9209L29.173 52.0189ZM11.6049 39.0738L7.56477 43.0908C7.24965 43.4041 7.24965 43.9127 7.56477 44.226C7.88031 44.5397 8.39141 44.5397 8.70693 44.226L12.7471 40.2099C13.0524 39.8949 13.0481 39.3943 12.7368 39.0845C12.4256 38.775 11.9221 38.7703 11.6049 39.0738ZM40.8602 26.1222C40.8619 30.5089 38.9312 34.6762 35.5763 37.5251C33.2548 39.5001 32.1489 40.9499 32.1489 43.8498V46.7902C32.1485 47.3154 31.9384 47.8189 31.5648 48.19C31.1912 48.5614 30.6847 48.7703 30.1565 48.7707H21.3875C20.8597 48.7699 20.3538 48.561 19.9802 48.1895C19.607 47.8185 19.3969 47.315 19.3965 46.7902V43.8499C19.3965 40.9498 18.2922 39.5001 15.9703 37.5255V37.5251C12.0596 34.2027 10.1206 29.1277 10.8264 24.0616C11.5322 18.9951 14.7854 14.6356 19.4575 12.4945C24.1295 10.354 29.5766 10.7276 33.908 13.4858C38.2403 16.2441 40.8606 21.0065 40.8598 26.1212L40.8602 26.1222ZM30.5353 44.1221H21.01V46.7899C21.0105 46.9971 21.1796 47.1644 21.3875 47.1644H30.1577C30.3657 47.1644 30.5348 46.9971 30.5352 46.7899L30.5353 44.1221ZM39.2454 26.1222C39.245 21.5553 36.9051 17.3036 33.0366 14.841C29.1685 12.3791 24.3056 12.0458 20.1338 13.9571C15.9626 15.8679 13.0583 19.7605 12.4276 24.284C11.7973 28.8071 13.5279 33.3382 17.0194 36.3054C19.2568 38.2073 20.6073 39.8524 20.9328 42.5185H30.613C30.9384 39.8558 32.2885 38.2073 34.5264 36.3054H34.5259C37.5221 33.7611 39.2467 30.0396 39.2454 26.122L39.2454 26.1222ZM50.7152 25.3189H45.0025C44.5652 25.3308 44.2172 25.687 44.2172 26.1217C44.2172 26.5565 44.5652 26.9127 45.0025 26.9245H50.7152C50.9333 26.9309 51.1443 26.849 51.301 26.6978C51.4573 26.5463 51.5456 26.3387 51.5456 26.1217C51.5456 25.9048 51.4573 25.6972 51.301 25.5456C51.1443 25.3945 50.9333 25.3126 50.7152 25.3189Z" fill="#2F4050" stroke="#2F4050" stroke-width="0.7"/>
        <mask id="mask0_1_215" style="mask-type:alpha" maskUnits="userSpaceOnUse" x="-1" y="0" width="53" height="60">
            <path d="M7.56411 9.15396C7.249 8.84022 7.249 8.33205 7.56411 8.01834C7.87965 7.70503 8.39076 7.70503 8.70628 8.01834L12.7464 12.0345C13.0615 12.3482 13.0615 12.8564 12.7464 13.1701C12.4309 13.4838 11.9198 13.4838 11.6043 13.1701L7.56411 9.15396ZM25.7727 7.80521C25.9871 7.80564 26.1924 7.72115 26.344 7.57044C26.4956 7.42015 26.5806 7.21552 26.5806 7.00282V1.32288C26.5806 0.879239 26.2189 0.519653 25.7727 0.519653C25.3265 0.519653 24.9649 0.879239 24.9649 1.32288V7.00282C24.9649 7.21551 25.0498 7.42014 25.2014 7.57044C25.353 7.72115 25.5584 7.80564 25.7727 7.80521ZM6.54317 25.3193H0.830493C0.612302 25.313 0.40137 25.3949 0.244666 25.546C0.0883873 25.6976 0 25.9052 0 26.1221C0 26.3391 0.0883862 26.5467 0.244666 26.6982C0.40137 26.8494 0.612302 26.9313 0.830493 26.9249H6.54317C6.9804 26.913 7.3284 26.5569 7.3284 26.1221C7.3284 25.6874 6.9804 25.3312 6.54317 25.3193ZM39.3707 13.4056C39.585 13.406 39.7904 13.3215 39.9416 13.1704L43.9817 9.1534V9.15383C44.2968 8.84009 44.2968 8.33192 43.9817 8.01821C43.6662 7.7049 43.1551 7.7049 42.8396 8.01821L38.7994 12.0343C38.568 12.2644 38.4992 12.6109 38.6248 12.911C38.7507 13.2116 39.0462 13.4069 39.3733 13.4056H39.3707ZM39.9445 39.0741C39.6286 38.7693 39.1247 38.7727 38.8127 39.0818C38.5005 39.3904 38.4946 39.8909 38.7994 40.2072L42.8396 44.2242V44.2238C43.1568 44.5277 43.6602 44.5231 43.9715 44.2131C44.2827 43.9036 44.287 43.4031 43.9817 43.0877L39.9445 39.0741ZM30.7878 51.2161V53.9196C30.7869 54.4048 30.5931 54.8701 30.2481 55.2131C29.9026 55.5561 29.4347 55.7493 28.9466 55.7497H28.7639V56.5067C28.7639 57.5689 28.1939 58.5509 27.2686 59.0819C26.3433 59.613 25.2032 59.613 24.278 59.0819C23.3527 58.5508 22.7826 57.5688 22.7826 56.5067V55.7497H22.599C22.111 55.7493 21.6434 55.5561 21.2985 55.2131C20.9535 54.8696 20.7596 54.4048 20.7588 53.9196V51.2161C20.7592 50.7737 21.12 50.415 21.5649 50.4141H29.9817C30.4266 50.415 30.7874 50.7737 30.7878 51.2161ZM27.149 55.7498H24.3979V56.5067C24.3979 57.262 25.0137 57.8742 25.7733 57.8742C26.5329 57.8742 27.1486 57.262 27.1486 56.5067L27.149 55.7498ZM29.173 52.0189H22.3741V53.9209C22.3754 54.044 22.4753 54.1438 22.5991 54.1454H28.9467C29.0709 54.1437 29.1708 54.044 29.1725 53.9209L29.173 52.0189ZM11.6049 39.0738L7.56477 43.0908C7.24965 43.4041 7.24965 43.9127 7.56477 44.226C7.88031 44.5397 8.39141 44.5397 8.70693 44.226L12.7471 40.2099C13.0524 39.8949 13.0481 39.3943 12.7368 39.0845C12.4256 38.775 11.9221 38.7703 11.6049 39.0738ZM40.8602 26.1222C40.8619 30.5089 38.9312 34.6762 35.5763 37.5251C33.2548 39.5001 32.1489 40.9499 32.1489 43.8498V46.7902C32.1485 47.3154 31.9384 47.8189 31.5648 48.19C31.1912 48.5614 30.6847 48.7703 30.1565 48.7707H21.3875C20.8597 48.7699 20.3538 48.561 19.9802 48.1895C19.607 47.8185 19.3969 47.315 19.3965 46.7902V43.8499C19.3965 40.9498 18.2922 39.5001 15.9703 37.5255V37.5251C12.0596 34.2027 10.1206 29.1277 10.8264 24.0616C11.5322 18.9951 14.7854 14.6356 19.4575 12.4945C24.1295 10.354 29.5766 10.7276 33.908 13.4858C38.2403 16.2441 40.8606 21.0065 40.8598 26.1212L40.8602 26.1222ZM30.5353 44.1221H21.01V46.7899C21.0105 46.9971 21.1796 47.1644 21.3875 47.1644H30.1577C30.3657 47.1644 30.5348 46.9971 30.5352 46.7899L30.5353 44.1221ZM39.2454 26.1222C39.245 21.5553 36.9051 17.3036 33.0366 14.841C29.1685 12.3791 24.3056 12.0458 20.1338 13.9571C15.9626 15.8679 13.0583 19.7605 12.4276 24.284C11.7973 28.8071 13.5279 33.3382 17.0194 36.3054C19.2568 38.2073 20.6073 39.8524 20.9328 42.5185H30.613C30.9384 39.8558 32.2885 38.2073 34.5264 36.3054H34.5259C37.5221 33.7611 39.2467 30.0396 39.2454 26.122L39.2454 26.1222ZM50.7152 25.3189H45.0025C44.5652 25.3308 44.2172 25.687 44.2172 26.1217C44.2172 26.5565 44.5652 26.9127 45.0025 26.9245H50.7152C50.9333 26.9309 51.1443 26.849 51.301 26.6978C51.4573 26.5463 51.5456 26.3387 51.5456 26.1217C51.5456 25.9048 51.4573 25.6972 51.301 25.5456C51.1443 25.3945 50.9333 25.3126 50.7152 25.3189Z" fill="#2F4050" stroke="#2F4050" stroke-width="0.7"/>
        </mask>
        <g mask="url(#mask0_1_215)">
            <path d="M13.2355 36.3977L15.691 43.7643C13.5629 45.565 9.20839 49.1665 8.81554 49.1665C8.32448 49.1665 0.466674 43.7643 -1.00665 41.3087C-2.47997 38.8532 -4.44435 32.4688 -4.93546 30.9955C-5.42657 29.5222 -3.95324 23.6289 -3.46214 22.6467C-2.97103 21.6645 3.90447 5.94902 4.88668 4.96681C5.8689 3.98459 17.1644 -1.90869 20.111 -1.90869H28.4598C30.2606 -1.25388 34.3531 0.153959 36.3175 0.546844C38.7731 1.03795 41.2286 3.00238 45.1575 5.94902C49.0863 8.89567 53.0152 13.3156 54.4885 15.7712C55.9618 18.2267 55.4707 22.1556 55.9618 24.12C56.4529 26.0844 48.5952 46.2198 47.613 47.202C46.8272 47.9878 44.6664 48.1842 43.6842 48.1842L37.7909 44.7465L36.3175 39.8354L39.2642 36.3977L41.2286 32.9599L42.7019 28.0488C42.5382 26.4118 42.2108 23.0396 42.2108 22.6467C42.2108 22.1556 40.7375 18.2267 40.7375 17.7356C40.7375 17.3427 38.7731 14.9527 37.7909 13.8067L34.8442 10.369L27.9687 9.38677H22.5665L16.1821 11.8423C14.2177 13.4793 10.2889 16.8516 10.2889 17.2445C10.2889 17.7356 8.81554 22.1556 8.81554 23.1378V29.0311C8.81554 29.8168 9.79776 32.6325 10.2889 33.9421L13.2355 36.3977Z" fill="#CF5555"/>
        </g>
    </g>
    <defs>
        <clipPath id="clip0_1_215">
            <rect width="60" height="60" fill="white"/>
        </clipPath>
    </defs>
</svg>
