<svg width="60" height="60" viewBox="0 0 60 60" fill="none" xmlns="http://www.w3.org/2000/svg">
    <g clip-path="url(#clip0_1_206)">
        <path d="M1.07488 0.000164534C0.483409 -0.00222458 0.00238693 0.475125 0 1.06619V58.9414C0.00239072 59.5325 0.483409 60.0099 1.07488 60.0075H43.1766C43.7681 60.0098 44.2491 59.5325 44.2515 58.9414V18.5194C44.2506 18.3995 44.2295 18.281 44.1889 18.1682C44.1774 18.1348 44.164 18.1018 44.1492 18.0698C44.1339 18.0373 44.1172 18.0048 44.099 17.9737C44.0808 17.9436 44.0612 17.9145 44.0407 17.8858C44.0201 17.8586 43.9986 17.8318 43.9756 17.8065C43.9747 17.805 43.9742 17.8036 43.9732 17.8022C43.9608 17.7878 43.9474 17.774 43.934 17.7601L26.4678 0.315486C26.2675 0.114324 25.9949 0.000599135 25.7109 0.00012207L1.07488 0.000164534ZM2.14163 2.14084H24.6424V18.52H24.6429C24.6453 19.1087 25.123 19.5851 25.712 19.5861H42.1084V57.8674H2.14264L2.14163 2.14084ZM26.787 3.65839L34.7572 11.619L40.5916 17.4537H26.7866L26.787 3.65839ZM22.1222 23.6706C18.2085 23.6706 15.0283 26.8463 15.0283 30.7574V33.7929H13.131C13.0952 33.791 13.0588 33.791 13.0225 33.7929H13.0206C12.4726 33.8479 12.0557 34.3085 12.0562 34.859V51.8865C12.0547 52.1718 12.1681 52.446 12.3698 52.6477C12.5716 52.8493 12.8456 52.9621 13.1311 52.9611H31.1199C31.7114 52.9588 32.1891 52.4776 32.1867 51.8865V34.859C32.1843 34.2712 31.7081 33.7953 31.1199 33.7929H29.2226V30.7574C29.2226 26.8463 26.0363 23.6706 22.1226 23.6706H22.1222ZM22.1222 25.8113C24.8864 25.8113 27.0777 27.995 27.0777 30.7574V33.7929H17.1728V30.7574C17.1728 27.995 19.358 25.8113 22.1222 25.8113ZM14.2001 35.9251H30.0445V50.8205H14.2001V35.9251ZM22.5238 41.2118C20.3736 41.2118 18.6121 42.9745 18.6121 45.1233C18.6121 47.2721 20.3741 49.0325 22.5238 49.0325C24.674 49.0325 26.438 47.2716 26.438 45.1233C26.438 42.9746 24.6741 41.2118 22.5238 41.2118ZM22.5238 43.3525C23.5164 43.3525 24.304 44.1313 24.304 45.1233C24.304 46.1153 23.516 46.8918 22.5238 46.8918C21.5312 46.8918 20.7542 46.1148 20.7542 45.1233C20.7542 44.1314 21.5316 43.3525 22.5238 43.3525Z" fill="#2F4050"/>
        <mask id="mask0_1_206" style="mask-type:alpha" maskUnits="userSpaceOnUse" x="0" y="0" width="45" height="61">
            <path d="M1.07488 0.000164534C0.483409 -0.00222458 0.00238693 0.475125 0 1.06619V58.9414C0.00239072 59.5325 0.483409 60.0099 1.07488 60.0075H43.1766C43.7681 60.0098 44.2491 59.5325 44.2515 58.9414V18.5194C44.2506 18.3995 44.2295 18.281 44.1889 18.1682C44.1774 18.1348 44.164 18.1018 44.1492 18.0698C44.1339 18.0373 44.1172 18.0048 44.099 17.9737C44.0808 17.9436 44.0612 17.9145 44.0407 17.8858C44.0201 17.8586 43.9986 17.8318 43.9756 17.8065C43.9747 17.805 43.9742 17.8036 43.9732 17.8022C43.9608 17.7878 43.9474 17.774 43.934 17.7601L26.4678 0.315486C26.2675 0.114324 25.9949 0.000599135 25.7109 0.00012207L1.07488 0.000164534ZM2.14163 2.14084H24.6424V18.52H24.6429C24.6453 19.1087 25.123 19.5851 25.712 19.5861H42.1084V57.8674H2.14264L2.14163 2.14084ZM26.787 3.65839L34.7572 11.619L40.5916 17.4537H26.7866L26.787 3.65839ZM22.1222 23.6706C18.2085 23.6706 15.0283 26.8463 15.0283 30.7574V33.7929H13.131C13.0952 33.791 13.0588 33.791 13.0225 33.7929H13.0206C12.4726 33.8479 12.0557 34.3085 12.0562 34.859V51.8865C12.0547 52.1718 12.1681 52.446 12.3698 52.6477C12.5716 52.8493 12.8456 52.9621 13.1311 52.9611H31.1199C31.7114 52.9588 32.1891 52.4776 32.1867 51.8865V34.859C32.1843 34.2712 31.7081 33.7953 31.1199 33.7929H29.2226V30.7574C29.2226 26.8463 26.0363 23.6706 22.1226 23.6706H22.1222ZM22.1222 25.8113C24.8864 25.8113 27.0777 27.995 27.0777 30.7574V33.7929H17.1728V30.7574C17.1728 27.995 19.358 25.8113 22.1222 25.8113ZM14.2001 35.9251H30.0445V50.8205H14.2001V35.9251ZM22.5238 41.2118C20.3736 41.2118 18.6121 42.9745 18.6121 45.1233C18.6121 47.2721 20.3741 49.0325 22.5238 49.0325C24.674 49.0325 26.438 47.2716 26.438 45.1233C26.438 42.9746 24.6741 41.2118 22.5238 41.2118ZM22.5238 43.3525C23.5164 43.3525 24.304 44.1313 24.304 45.1233C24.304 46.1153 23.516 46.8918 22.5238 46.8918C21.5312 46.8918 20.7542 46.1148 20.7542 45.1233C20.7542 44.1314 21.5316 43.3525 22.5238 43.3525Z" fill="#2F4050"/>
        </mask>
        <g mask="url(#mask0_1_206)">
            <rect x="9" y="22.0001" width="26" height="32" fill="#CF5555"/>
        </g>
    </g>
    <defs>
        <clipPath id="clip0_1_206">
            <rect width="60" height="60" fill="white"/>
        </clipPath>
    </defs>
</svg>
