<svg width="60" height="60" viewBox="0 0 60 60" fill="none" xmlns="http://www.w3.org/2000/svg">
    <g clip-path="url(#clip0_1_196)">
        <path d="M58.9244 42.2448H56.7017L56.7012 14.5223C56.7012 10.6984 53.4554 7.58643 49.4657 7.58643H10.5015C6.51146 7.58643 3.26608 10.6984 3.26608 14.5223L3.26661 42.2448H1.04392C0.467358 42.2448 -6.10352e-05 42.712 -6.10352e-05 43.2883V46.9936C-6.10352e-05 49.6123 2.1305 51.7435 4.75074 51.7435H55.2175C57.8373 51.7435 59.9683 49.6122 59.9683 46.9936V43.2883C59.9689 42.7125 59.5009 42.2448 58.9249 42.2448H58.9244ZM5.35438 14.5223C5.35438 11.8489 7.6632 9.67399 10.5019 9.67399H49.4675C52.3055 9.67399 54.615 11.8483 54.615 14.5223V42.2448H5.35438V14.5223ZM23.197 44.3318H36.7718V44.9257C36.7718 45.2476 36.4997 45.5196 36.1776 45.5196L23.7904 45.519C23.4684 45.519 23.1963 45.2471 23.1963 44.9251L23.197 44.3318ZM57.8818 46.9941C57.8818 48.4628 56.6872 49.657 55.2184 49.657H4.75158C3.28228 49.657 2.08814 48.4628 2.08814 46.9941V44.3318H21.1096V44.9257C21.1096 46.4029 22.3122 47.6061 23.7912 47.6061H36.1784C37.6573 47.6061 38.8599 46.4029 38.8599 44.9257V44.3318H57.8814L57.8818 46.9941ZM27.4913 24.9115L21.4629 28.3912C21.2989 28.4859 21.1195 28.5311 20.9422 28.5311C20.5823 28.5311 20.2299 28.3444 20.0377 28.0081C19.7497 27.5089 19.9206 26.8719 20.4194 26.5841L24.8828 24.0069L20.4194 21.4325C19.9211 21.144 19.7502 20.506 20.0377 20.0068C20.3263 19.5077 20.9646 19.3363 21.4634 19.6247L27.4919 23.1039C27.8156 23.2896 28.0141 23.635 28.0141 24.0075C28.0141 24.3805 27.8161 24.7247 27.4913 24.9115ZM25.5115 32.8192L34.0395 18.0575C34.3275 17.5578 34.9647 17.387 35.4657 17.6759C35.9651 17.9627 36.1349 18.6008 35.848 19.101L27.3205 33.8627C27.1268 34.1979 26.7754 34.3858 26.415 34.3858C26.2377 34.3858 26.0578 34.3405 25.8933 34.2442C25.3939 33.9569 25.2235 33.3183 25.5115 32.8192ZM32.4781 27.9367L38.5071 24.4587C39.0054 24.1719 39.6448 24.3416 39.9333 24.8408C40.2213 25.3389 40.0494 25.978 39.5516 26.2659L35.0866 28.8414L39.5516 31.4158C40.0499 31.7053 40.2208 32.3433 39.9333 32.8425C39.7401 33.1762 39.3882 33.364 39.0278 33.364C38.8505 33.364 38.6705 33.3188 38.5071 33.2236L32.4781 29.7444C32.1555 29.5587 31.9558 29.2134 31.9558 28.8409C31.9564 28.4684 32.1549 28.1241 32.4781 27.9367Z" fill="#2F4050"/>
        <mask id="mask0_1_196" style="mask-type:alpha" maskUnits="userSpaceOnUse" x="0" y="7" width="60" height="45">
            <path d="M58.9244 42.2448H56.7017L56.7012 14.5223C56.7012 10.6984 53.4554 7.58643 49.4657 7.58643H10.5015C6.51146 7.58643 3.26608 10.6984 3.26608 14.5223L3.26661 42.2448H1.04392C0.467358 42.2448 -6.10352e-05 42.712 -6.10352e-05 43.2883V46.9936C-6.10352e-05 49.6123 2.1305 51.7435 4.75074 51.7435H55.2175C57.8373 51.7435 59.9683 49.6122 59.9683 46.9936V43.2883C59.9689 42.7125 59.5009 42.2448 58.9249 42.2448H58.9244ZM5.35438 14.5223C5.35438 11.8489 7.6632 9.67399 10.5019 9.67399H49.4675C52.3055 9.67399 54.615 11.8483 54.615 14.5223V42.2448H5.35438V14.5223ZM23.197 44.3318H36.7718V44.9257C36.7718 45.2476 36.4997 45.5196 36.1776 45.5196L23.7904 45.519C23.4684 45.519 23.1963 45.2471 23.1963 44.9251L23.197 44.3318ZM57.8818 46.9941C57.8818 48.4628 56.6872 49.657 55.2184 49.657H4.75158C3.28228 49.657 2.08814 48.4628 2.08814 46.9941V44.3318H21.1096V44.9257C21.1096 46.4029 22.3122 47.6061 23.7912 47.6061H36.1784C37.6573 47.6061 38.8599 46.4029 38.8599 44.9257V44.3318H57.8814L57.8818 46.9941ZM27.4913 24.9115L21.4629 28.3912C21.2989 28.4859 21.1195 28.5311 20.9422 28.5311C20.5823 28.5311 20.2299 28.3444 20.0377 28.0081C19.7497 27.5089 19.9206 26.8719 20.4194 26.5841L24.8828 24.0069L20.4194 21.4325C19.9211 21.144 19.7502 20.506 20.0377 20.0068C20.3263 19.5077 20.9646 19.3363 21.4634 19.6247L27.4919 23.1039C27.8156 23.2896 28.0141 23.635 28.0141 24.0075C28.0141 24.3805 27.8161 24.7247 27.4913 24.9115ZM25.5115 32.8192L34.0395 18.0575C34.3275 17.5578 34.9647 17.387 35.4657 17.6759C35.9651 17.9627 36.1349 18.6008 35.848 19.101L27.3205 33.8627C27.1268 34.1979 26.7754 34.3858 26.415 34.3858C26.2377 34.3858 26.0578 34.3405 25.8933 34.2442C25.3939 33.9569 25.2235 33.3183 25.5115 32.8192ZM32.4781 27.9367L38.5071 24.4587C39.0054 24.1719 39.6448 24.3416 39.9333 24.8408C40.2213 25.3389 40.0494 25.978 39.5516 26.2659L35.0866 28.8414L39.5516 31.4158C40.0499 31.7053 40.2208 32.3433 39.9333 32.8425C39.7401 33.1762 39.3882 33.364 39.0278 33.364C38.8505 33.364 38.6705 33.3188 38.5071 33.2236L32.4781 29.7444C32.1555 29.5587 31.9558 29.2134 31.9558 28.8409C31.9564 28.4684 32.1549 28.1241 32.4781 27.9367Z" fill="#2F4050"/>
        </mask>
        <g mask="url(#mask0_1_196)">
            <rect x="17.9999" y="17" width="25" height="20" fill="#CF5555"/>
        </g>
    </g>
    <defs>
        <clipPath id="clip0_1_196">
            <rect width="60" height="60" fill="white"/>
        </clipPath>
    </defs>
</svg>
